<svg xmlns="http://www.w3.org/2000/svg" xmlns:xlink="http://www.w3.org/1999/xlink" viewBox="0 0 1280 800.88"><defs><style>.cls-1{fill:#fff;}.cls-2,.cls-22{fill:#273c4c;}.cls-2,.cls-21{opacity:0.9;}.cls-3{opacity:0.8;}.cls-4{fill:url(#linear-gradient);}.cls-5{fill:url(#linear-gradient-2);}.cls-6{fill:url(#linear-gradient-3);}.cls-7{fill:#f3fcff;}.cls-8{fill:url(#linear-gradient-5);}.cls-9{fill:url(#linear-gradient-6);}.cls-10{fill:url(#linear-gradient-7);}.cls-11,.cls-12{fill:none;stroke-miterlimit:10;}.cls-11{stroke:#4296b4;}.cls-12{stroke:#c5d2d8;stroke-dasharray:2 2;opacity:0.4;}.cls-13{fill:url(#New_Gradient_Swatch_1);}.cls-14{fill:url(#New_Gradient_Swatch_1-2);}.cls-15{fill:#c5d2d8;}.cls-16{fill:url(#New_Gradient_Swatch_1-3);}.cls-17{fill:url(#New_Gradient_Swatch_1-4);}.cls-18{fill:url(#linear-gradient-9);}.cls-19{fill:url(#linear-gradient-10);}.cls-20{fill:url(#linear-gradient-11);}.cls-23{fill:url(#linear-gradient-13);}.cls-24{fill:url(#linear-gradient-14);}.cls-25{fill:url(#linear-gradient-15);}.cls-26{fill:url(#New_Gradient_Swatch_1-5);}.cls-27{fill:url(#New_Gradient_Swatch_1-6);}.cls-28{fill:url(#New_Gradient_Swatch_1-7);}.cls-29{fill:url(#linear-gradient-17);}.cls-30{fill:url(#linear-gradient-18);}.cls-31{fill:url(#linear-gradient-19);}.cls-32{fill:url(#New_Gradient_Swatch_1-8);}.cls-33{fill:url(#New_Gradient_Swatch_1-9);}.cls-34{fill:url(#linear-gradient-21);}.cls-35{fill:url(#linear-gradient-22);}.cls-36{fill:url(#linear-gradient-23);}.cls-37{fill:url(#New_Gradient_Swatch_1-10);}.cls-38{fill:url(#New_Gradient_Swatch_1-11);}.cls-39{fill:url(#New_Gradient_Swatch_1-12);}.cls-40{fill:url(#linear-gradient-25);}.cls-41{fill:url(#linear-gradient-26);}.cls-42{fill:url(#linear-gradient-27);}.cls-43{fill:url(#New_Gradient_Swatch_1-13);}.cls-44{fill:url(#New_Gradient_Swatch_1-14);}.cls-45{fill:url(#New_Gradient_Swatch_1-15);}.cls-46{fill:url(#linear-gradient-29);}.cls-47{fill:url(#linear-gradient-30);}.cls-48{fill:url(#linear-gradient-31);}.cls-49{fill:url(#New_Gradient_Swatch_1-16);}.cls-50{fill:url(#New_Gradient_Swatch_1-17);}.cls-51{fill:url(#New_Gradient_Swatch_1-18);}.cls-52{fill:url(#New_Gradient_Swatch_1-19);}.cls-53{fill:url(#New_Gradient_Swatch_1-20);}.cls-54{fill:url(#linear-gradient-33);}.cls-55{fill:url(#linear-gradient-34);}.cls-56{fill:url(#linear-gradient-35);}.cls-57{fill:url(#New_Gradient_Swatch_1-21);}.cls-58{fill:url(#New_Gradient_Swatch_1-22);}.cls-59{fill:url(#New_Gradient_Swatch_1-23);}.cls-60{fill:url(#linear-gradient-37);}.cls-61{fill:url(#linear-gradient-38);}.cls-62{fill:url(#linear-gradient-39);}.cls-63{fill:url(#New_Gradient_Swatch_1-24);}.cls-64{fill:url(#New_Gradient_Swatch_1-25);}.cls-65{fill:url(#New_Gradient_Swatch_1-26);}</style><linearGradient id="linear-gradient" x1="-4433.8" y1="1252.18" x2="-4415.51" y2="1252.18" gradientTransform="translate(1541.73 -4148.75) rotate(-57.16)" gradientUnits="userSpaceOnUse"><stop offset="0" stop-color="#2f789f"/><stop offset="0.21" stop-color="#347da0"/><stop offset="0.47" stop-color="#418da4"/><stop offset="0.76" stop-color="#58a6ab"/><stop offset="1" stop-color="#70c2b2"/></linearGradient><linearGradient id="linear-gradient-2" x1="-6983.83" y1="-9306.78" x2="-6965.54" y2="-9306.78" gradientTransform="translate(-6248.11 -9415.98) rotate(-176.69)" xlink:href="#linear-gradient"/><linearGradient id="linear-gradient-3" x1="3595.72" y1="-6188.62" x2="3614.01" y2="-6188.62" gradientTransform="matrix(0.47, 0.88, -0.88, 0.47, -6946.43, 22.7)" xlink:href="#linear-gradient"/><linearGradient id="linear-gradient-5" x1="-4276.76" y1="1115.26" x2="-4266.87" y2="1115.26" xlink:href="#linear-gradient"/><linearGradient id="linear-gradient-6" x1="-6943.19" y1="-9091.83" x2="-6933.3" y2="-9091.83" gradientTransform="translate(-6248.11 -9415.98) rotate(-176.69)" xlink:href="#linear-gradient"/><linearGradient id="linear-gradient-7" x1="3389.95" y1="-6256.09" x2="3399.84" y2="-6256.09" gradientTransform="matrix(0.47, 0.88, -0.88, 0.47, -6946.43, 22.7)" xlink:href="#linear-gradient"/><linearGradient id="New_Gradient_Swatch_1" x1="407" y1="608.25" x2="407" y2="557.4" gradientUnits="userSpaceOnUse"><stop offset="0" stop-color="#eb6852"/><stop offset="0.16" stop-color="#ed6c4c"/><stop offset="0.36" stop-color="#f1783d"/><stop offset="0.56" stop-color="#f88926"/><stop offset="0.56" stop-color="#f88227"/><stop offset="0.85" stop-color="#fbaf23"/><stop offset="1" stop-color="#fcc221"/></linearGradient><linearGradient id="New_Gradient_Swatch_1-2" x1="407" y1="568.57" x2="407" y2="546.23" xlink:href="#New_Gradient_Swatch_1"/><linearGradient id="New_Gradient_Swatch_1-3" x1="388.96" y1="68.84" x2="388.96" y2="50.61" xlink:href="#New_Gradient_Swatch_1"/><linearGradient id="New_Gradient_Swatch_1-4" x1="388.96" y1="54.62" x2="388.96" y2="46.61" xlink:href="#New_Gradient_Swatch_1"/><linearGradient id="linear-gradient-9" x1="-4375.78" y1="1342.09" x2="-4357.49" y2="1342.09" xlink:href="#linear-gradient"/><linearGradient id="linear-gradient-10" x1="-7090.65" y1="-9300.59" x2="-7072.36" y2="-9300.59" gradientTransform="translate(-6248.11 -9415.98) rotate(-176.69)" xlink:href="#linear-gradient"/><linearGradient id="linear-gradient-11" x1="3646.24" y1="-6282.95" x2="3664.53" y2="-6282.95" gradientTransform="matrix(0.47, 0.88, -0.88, 0.47, -6946.43, 22.7)" xlink:href="#linear-gradient"/><linearGradient id="linear-gradient-13" x1="-4318.31" y1="1431.15" x2="-4300.02" y2="1431.15" xlink:href="#linear-gradient"/><linearGradient id="linear-gradient-14" x1="-7196.48" y1="-9294.46" x2="-7178.19" y2="-9294.46" gradientTransform="translate(-6248.11 -9415.98) rotate(-176.69)" xlink:href="#linear-gradient"/><linearGradient id="linear-gradient-15" x1="3696.28" y1="-6376.39" x2="3714.57" y2="-6376.39" gradientTransform="matrix(0.47, 0.88, -0.88, 0.47, -6946.43, 22.7)" xlink:href="#linear-gradient"/><linearGradient id="New_Gradient_Swatch_1-5" x1="421.83" y1="256.87" x2="435.22" y2="256.87" xlink:href="#New_Gradient_Swatch_1"/><linearGradient id="New_Gradient_Swatch_1-6" x1="400.78" y1="293.35" x2="414.16" y2="293.35" xlink:href="#New_Gradient_Swatch_1"/><linearGradient id="New_Gradient_Swatch_1-7" x1="380.3" y1="256.86" x2="393.69" y2="256.86" xlink:href="#New_Gradient_Swatch_1"/><linearGradient id="linear-gradient-17" x1="-4221.79" y1="1580.71" x2="-4203.5" y2="1580.71" xlink:href="#linear-gradient"/><linearGradient id="linear-gradient-18" x1="-7374.18" y1="-9284.17" x2="-7355.89" y2="-9284.17" gradientTransform="translate(-6248.11 -9415.98) rotate(-176.69)" xlink:href="#linear-gradient"/><linearGradient id="linear-gradient-19" x1="3780.31" y1="-6533.31" x2="3798.6" y2="-6533.31" gradientTransform="matrix(0.47, 0.88, -0.88, 0.47, -6946.43, 22.7)" xlink:href="#linear-gradient"/><linearGradient id="New_Gradient_Swatch_1-8" x1="798" y1="608.25" x2="798" y2="557.4" xlink:href="#New_Gradient_Swatch_1"/><linearGradient id="New_Gradient_Swatch_1-9" x1="798" y1="568.57" x2="798" y2="546.23" xlink:href="#New_Gradient_Swatch_1"/><linearGradient id="linear-gradient-21" x1="-4163.77" y1="1670.62" x2="-4145.48" y2="1670.62" xlink:href="#linear-gradient"/><linearGradient id="linear-gradient-22" x1="-7481" y1="-9277.98" x2="-7462.71" y2="-9277.98" gradientTransform="translate(-6248.11 -9415.98) rotate(-176.69)" xlink:href="#linear-gradient"/><linearGradient id="linear-gradient-23" x1="3830.82" y1="-6627.63" x2="3849.11" y2="-6627.63" gradientTransform="matrix(0.47, 0.88, -0.88, 0.47, -6946.43, 22.7)" xlink:href="#linear-gradient"/><linearGradient id="New_Gradient_Swatch_1-10" x1="706.83" y1="256.87" x2="720.22" y2="256.87" xlink:href="#New_Gradient_Swatch_1"/><linearGradient id="New_Gradient_Swatch_1-11" x1="685.78" y1="293.35" x2="699.16" y2="293.35" xlink:href="#New_Gradient_Swatch_1"/><linearGradient id="New_Gradient_Swatch_1-12" x1="665.3" y1="256.86" x2="678.69" y2="256.86" xlink:href="#New_Gradient_Swatch_1"/><linearGradient id="linear-gradient-25" x1="-4106.3" y1="1759.68" x2="-4088.01" y2="1759.68" xlink:href="#linear-gradient"/><linearGradient id="linear-gradient-26" x1="-7586.82" y1="-9271.85" x2="-7568.53" y2="-9271.85" gradientTransform="translate(-6248.11 -9415.98) rotate(-176.69)" xlink:href="#linear-gradient"/><linearGradient id="linear-gradient-27" x1="3880.86" y1="-6721.08" x2="3899.15" y2="-6721.08" gradientTransform="matrix(0.47, 0.88, -0.88, 0.47, -6946.43, 22.7)" xlink:href="#linear-gradient"/><linearGradient id="New_Gradient_Swatch_1-13" x1="812.83" y1="256.87" x2="826.22" y2="256.87" xlink:href="#New_Gradient_Swatch_1"/><linearGradient id="New_Gradient_Swatch_1-14" x1="791.78" y1="293.35" x2="805.16" y2="293.35" xlink:href="#New_Gradient_Swatch_1"/><linearGradient id="New_Gradient_Swatch_1-15" x1="771.3" y1="256.86" x2="784.69" y2="256.86" xlink:href="#New_Gradient_Swatch_1"/><linearGradient id="linear-gradient-29" x1="-4010.32" y1="1908.4" x2="-3992.03" y2="1908.4" xlink:href="#linear-gradient"/><linearGradient id="linear-gradient-30" x1="-7763.53" y1="-9261.62" x2="-7745.24" y2="-9261.62" gradientTransform="translate(-6248.11 -9415.98) rotate(-176.69)" xlink:href="#linear-gradient"/><linearGradient id="linear-gradient-31" x1="3964.42" y1="-6877.11" x2="3982.71" y2="-6877.11" gradientTransform="matrix(0.47, 0.88, -0.88, 0.47, -6946.43, 22.7)" xlink:href="#linear-gradient"/><linearGradient id="New_Gradient_Swatch_1-16" x1="989.83" y1="256.87" x2="1003.22" y2="256.87" xlink:href="#New_Gradient_Swatch_1"/><linearGradient id="New_Gradient_Swatch_1-17" x1="968.78" y1="293.35" x2="982.16" y2="293.35" xlink:href="#New_Gradient_Swatch_1"/><linearGradient id="New_Gradient_Swatch_1-18" x1="948.3" y1="256.86" x2="961.69" y2="256.86" xlink:href="#New_Gradient_Swatch_1"/><linearGradient id="New_Gradient_Swatch_1-19" x1="1188" y1="608.25" x2="1188" y2="557.4" xlink:href="#New_Gradient_Swatch_1"/><linearGradient id="New_Gradient_Swatch_1-20" x1="1188" y1="568.57" x2="1188" y2="546.23" xlink:href="#New_Gradient_Swatch_1"/><linearGradient id="linear-gradient-33" x1="-3952.31" y1="1998.31" x2="-3934.01" y2="1998.31" xlink:href="#linear-gradient"/><linearGradient id="linear-gradient-34" x1="-7870.35" y1="-9255.43" x2="-7852.06" y2="-9255.43" gradientTransform="translate(-6248.11 -9415.98) rotate(-176.69)" xlink:href="#linear-gradient"/><linearGradient id="linear-gradient-35" x1="4014.93" y1="-6971.44" x2="4033.22" y2="-6971.44" gradientTransform="matrix(0.47, 0.88, -0.88, 0.47, -6946.43, 22.7)" xlink:href="#linear-gradient"/><linearGradient id="New_Gradient_Swatch_1-21" x1="1096.83" y1="256.87" x2="1110.22" y2="256.87" xlink:href="#New_Gradient_Swatch_1"/><linearGradient id="New_Gradient_Swatch_1-22" x1="1075.78" y1="293.35" x2="1089.16" y2="293.35" xlink:href="#New_Gradient_Swatch_1"/><linearGradient id="New_Gradient_Swatch_1-23" x1="1055.3" y1="256.86" x2="1068.69" y2="256.86" xlink:href="#New_Gradient_Swatch_1"/><linearGradient id="linear-gradient-37" x1="-3894.83" y1="2087.37" x2="-3876.54" y2="2087.37" xlink:href="#linear-gradient"/><linearGradient id="linear-gradient-38" x1="-7976.17" y1="-9249.3" x2="-7957.88" y2="-9249.3" gradientTransform="translate(-6248.11 -9415.98) rotate(-176.69)" xlink:href="#linear-gradient"/><linearGradient id="linear-gradient-39" x1="4064.97" y1="-7064.89" x2="4083.26" y2="-7064.89" gradientTransform="matrix(0.47, 0.88, -0.88, 0.47, -6946.43, 22.7)" xlink:href="#linear-gradient"/><linearGradient id="New_Gradient_Swatch_1-24" x1="1202.83" y1="256.87" x2="1216.22" y2="256.87" xlink:href="#New_Gradient_Swatch_1"/><linearGradient id="New_Gradient_Swatch_1-25" x1="1181.78" y1="293.35" x2="1195.16" y2="293.35" xlink:href="#New_Gradient_Swatch_1"/><linearGradient id="New_Gradient_Swatch_1-26" x1="1161.3" y1="256.86" x2="1174.69" y2="256.86" xlink:href="#New_Gradient_Swatch_1"/></defs><title>Channel for Presentation</title><g id="box"><path class="cls-1" d="M197,53.16c-1,0-1.68.38-1.68,1.07,0,2.25,5.57,1,5.55,4.76,0,1.84-1.62,3-3.89,3a6.34,6.34,0,0,1-4.21-1.63l.75-1.5a5.44,5.44,0,0,0,3.49,1.5c1.21,0,1.93-.46,1.93-1.25,0-2.3-5.57-1-5.57-4.68,0-1.77,1.52-2.87,3.75-2.87a6.71,6.71,0,0,1,3.61,1.06L200,54.12A6.15,6.15,0,0,0,197,53.16Z"/><path class="cls-1" d="M209.94,54.07v7.83h-1.69V60.38a2.89,2.89,0,0,1-2.8,1.59,2.72,2.72,0,0,1-2.87-3V54.07h1.69v4.4a1.72,1.72,0,0,0,1.83,1.9,2.21,2.21,0,0,0,2.15-2.44V54.07Z"/><path class="cls-1" d="M220.69,58A3.63,3.63,0,0,1,217,62a3.08,3.08,0,0,1-2.77-1.41v4.21h-1.69V54.07h1.69v1.36A3.06,3.06,0,0,1,217,54,3.68,3.68,0,0,1,220.69,58ZM219,58a2.39,2.39,0,1,0-2.38,2.56A2.38,2.38,0,0,0,219,58Z"/><path class="cls-1" d="M228.2,59.46l1,.91A4.19,4.19,0,0,1,225.8,62a3.83,3.83,0,0,1-4.08-4,3.77,3.77,0,0,1,3.93-4,3.42,3.42,0,0,1,3.7,3.42l-5.7,1.71a2.34,2.34,0,0,0,2.25,1.47A3,3,0,0,0,228.2,59.46Zm-4.79-1.56h0l4.3-1.28a1.92,1.92,0,0,0-2-1.25A2.23,2.23,0,0,0,223.42,57.9Z"/><path class="cls-1" d="M235.4,54v1.62a2.37,2.37,0,0,0-2.71,2.18v4.09H231V54.07h1.69v1.56A2.85,2.85,0,0,1,235.4,54Z"/><path class="cls-1" d="M237.71,54.07l2.18,6.17L242,54.07h1.69l-3,7.83H239l-3-7.83Z"/><path class="cls-1" d="M246.74,51.83a1,1,0,1,1-1-1A1,1,0,0,1,246.74,51.83Zm-.15,2.24v7.83h-1.68V54.07Z"/><path class="cls-1" d="M251.3,55.35c-.66,0-1.15.22-1.15.78,0,1.44,4.17.66,4.15,3.5,0,1.6-1.43,2.33-3,2.33a4.85,4.85,0,0,1-3.15-1.09l.6-1.21a4.27,4.27,0,0,0,2.62,1c.72,0,1.28-.25,1.28-.84,0-1.61-4.12-.71-4.11-3.53,0-1.59,1.38-2.27,2.89-2.27a5,5,0,0,1,2.74.79L253.56,56A4.61,4.61,0,0,0,251.3,55.35Z"/><path class="cls-1" d="M263.45,58a4.09,4.09,0,1,1-4.08-4A3.84,3.84,0,0,1,263.45,58ZM257,58a2.4,2.4,0,1,0,2.4-2.55A2.36,2.36,0,0,0,257,58Z"/><path class="cls-1" d="M269.62,54v1.62a2.37,2.37,0,0,0-2.71,2.18v4.09h-1.69V54.07h1.69v1.56A2.85,2.85,0,0,1,269.62,54Z"/><path class="cls-1" d="M282.08,61.91l-1.88-3.12a4.61,4.61,0,0,1-.47,0h-2.44v3.11h-1.74V51.6h4.18c2.64,0,4.15,1.28,4.15,3.52a3.31,3.31,0,0,1-2.13,3.34l2.31,3.45Zm-2.36-4.67c1.59,0,2.5-.68,2.5-2.08s-.91-2-2.5-2h-2.44v4.08Z"/><path class="cls-1" d="M287.91,51.83a1,1,0,1,1-1-1A1,1,0,0,1,287.91,51.83Zm-.15,2.24v7.83h-1.68V54.07Z"/><path class="cls-1" d="M297.76,57v4.87h-1.69V57.5a1.74,1.74,0,0,0-1.88-1.9A2.19,2.19,0,0,0,292,57.74v4.17h-1.69V54.07H292v1.5A3,3,0,0,1,294.85,54,2.74,2.74,0,0,1,297.76,57Z"/><path class="cls-1" d="M307.1,54.07v7.07c0,2.25-1.6,3.67-4.06,3.67a5.7,5.7,0,0,1-3.25-1l.72-1.22a4,4,0,0,0,2.46.85,2.2,2.2,0,0,0,2.46-2.22v-1a2.87,2.87,0,0,1-2.59,1.33,3.47,3.47,0,0,1-3.53-3.78A3.43,3.43,0,0,1,302.77,54a2.92,2.92,0,0,1,2.65,1.33V54.07Zm-1.68,3.71a2.23,2.23,0,0,0-2.25-2.4,2.41,2.41,0,1,0,2.25,2.4Z"/><path class="cls-1" d="M416.74,51.6v4.48h5.46V51.6h1.74V61.91H422.2V57.64h-5.46v4.27H415V51.6Z"/><path class="cls-1" d="M434,54.07v7.83H432.3V60.58a3.06,3.06,0,0,1-2.74,1.4,3.69,3.69,0,0,1-3.76-4,3.65,3.65,0,0,1,3.7-4,3.07,3.07,0,0,1,2.8,1.4V54.07ZM432.3,58.3v-.57a2.35,2.35,0,0,0-2.38-2.28A2.41,2.41,0,0,0,427.5,58a2.39,2.39,0,0,0,2.42,2.55A2.35,2.35,0,0,0,432.3,58.3Z"/><path class="cls-1" d="M444.73,58A3.63,3.63,0,0,1,441,62a3.08,3.08,0,0,1-2.77-1.41v1.35h-1.69V51h1.69v4.45A3.06,3.06,0,0,1,441,54,3.68,3.68,0,0,1,444.73,58ZM443,58a2.39,2.39,0,1,0-2.38,2.56A2.38,2.38,0,0,0,443,58Z"/><path class="cls-1" d="M448.32,51.83a1,1,0,1,1-1-1A1,1,0,0,1,448.32,51.83Zm-.15,2.24v7.83H446.5V54.07Z"/><path class="cls-1" d="M454.61,61.41a3.78,3.78,0,0,1-1.88.57,2.25,2.25,0,0,1-2.24-2.56v-7.2h1.68v2.15h2.31v1.27h-2.31v3.49c0,.93.31,1.33.87,1.33a2.58,2.58,0,0,0,1.15-.34Z"/><path class="cls-1" d="M463.52,54.07v7.83h-1.68V60.58A3.06,3.06,0,0,1,459.1,62a3.69,3.69,0,0,1-3.75-4,3.65,3.65,0,0,1,3.7-4,3.07,3.07,0,0,1,2.8,1.4V54.07Zm-1.68,4.23v-.57a2.35,2.35,0,0,0-2.38-2.28,2.57,2.57,0,0,0,0,5.12A2.35,2.35,0,0,0,461.84,58.3Z"/><path class="cls-1" d="M470,61.41a3.78,3.78,0,0,1-1.88.57,2.25,2.25,0,0,1-2.24-2.56v-7.2h1.68v2.15h2.31v1.27h-2.31v3.49c0,.93.31,1.33.87,1.33a2.57,2.57,0,0,0,1.15-.34Z"/><path class="cls-1" d="M484.22,55.12c0,2.33-1.49,3.68-4.08,3.68h-2.37v3.11H476V51.6h4.11C482.73,51.6,484.22,52.88,484.22,55.12Zm-1.66,0c0-1.35-.9-2-2.49-2h-2.3v4.08h2.3C481.66,57.24,482.56,56.56,482.56,55.16Z"/><path class="cls-1" d="M493.28,54.07v7.83H491.6V60.58a3.06,3.06,0,0,1-2.74,1.4,3.69,3.69,0,0,1-3.75-4,3.65,3.65,0,0,1,3.7-4,3.07,3.07,0,0,1,2.8,1.4V54.07ZM491.6,58.3v-.57a2.35,2.35,0,0,0-2.38-2.28,2.57,2.57,0,0,0,0,5.12A2.35,2.35,0,0,0,491.6,58.3Z"/><path class="cls-1" d="M499.06,55.5a2.51,2.51,0,0,0,0,5,2.92,2.92,0,0,0,2.31-.94l.94.94A4,4,0,0,1,499,62a4,4,0,0,1,0-8,4.14,4.14,0,0,1,3.24,1.28l-.93,1.09A3,3,0,0,0,499.06,55.5Z"/><path class="cls-1" d="M507.18,58.31l-1.33,1.4v2.19h-1.69V51h1.69v6.6l3.46-3.5h1.94l-2.9,3,3.12,4.8h-2Z"/><path class="cls-1" d="M519.91,54.07v7.83h-1.68V60.58A3.06,3.06,0,0,1,515.5,62a3.69,3.69,0,0,1-3.76-4,3.65,3.65,0,0,1,3.7-4,3.07,3.07,0,0,1,2.8,1.4V54.07Zm-1.68,4.23v-.57a2.35,2.35,0,0,0-2.38-2.28A2.41,2.41,0,0,0,513.44,58a2.39,2.39,0,0,0,2.42,2.55A2.35,2.35,0,0,0,518.24,58.3Z"/><path class="cls-1" d="M529.48,54.07v7.07c0,2.25-1.6,3.67-4.06,3.67a5.7,5.7,0,0,1-3.26-1l.72-1.22a4,4,0,0,0,2.46.85,2.2,2.2,0,0,0,2.46-2.22v-1a2.87,2.87,0,0,1-2.59,1.33,3.47,3.47,0,0,1-3.53-3.78A3.43,3.43,0,0,1,525.16,54a2.92,2.92,0,0,1,2.65,1.33V54.07Zm-1.68,3.71a2.23,2.23,0,0,0-2.25-2.4,2.41,2.41,0,1,0,2.25,2.4Z"/><path class="cls-1" d="M537.58,59.46l1,.91A4.19,4.19,0,0,1,535.18,62a3.83,3.83,0,0,1-4.08-4A3.77,3.77,0,0,1,535,54a3.42,3.42,0,0,1,3.7,3.42L533,59.14a2.34,2.34,0,0,0,2.25,1.47A3,3,0,0,0,537.58,59.46ZM532.8,57.9h0l4.3-1.28a1.92,1.92,0,0,0-2-1.25A2.23,2.23,0,0,0,532.8,57.9Z"/><path class="cls-1" d="M21.09,258.3c0,1,1.1,1.66,2.51,1.66a7.25,7.25,0,0,0,3.15-.82l.74,1.47a8.27,8.27,0,0,1-4,1c-2.53,0-4.37-1.28-4.37-3.12a3,3,0,0,1,2.53-2.88,2.58,2.58,0,0,1-2-2.5c0-1.68,1.63-2.87,4-2.87A8,8,0,0,1,27,251l-.62,1.49a6.89,6.89,0,0,0-2.61-.54c-1.33,0-2.32.48-2.32,1.42s.85,1.54,2.1,1.54h2.27v1.68H23.59C22.13,256.57,21.09,257.3,21.09,258.3Z"/><path class="cls-1" d="M37.29,256.25v5.3H35.45v-4.79a1.9,1.9,0,0,0-2-2.06A2.38,2.38,0,0,0,31,257v4.53H29.14V253H31v1.63a3.22,3.22,0,0,1,3.14-1.7A3,3,0,0,1,37.29,256.25Z"/><path class="cls-1" d="M40.07,253l2.37,6.71L44.78,253h1.84l-3.27,8.52h-1.9L38.15,253Z"/><path class="cls-1" d="M49.88,250.6a1.07,1.07,0,1,1-1.07-1.11A1.06,1.06,0,0,1,49.88,250.6ZM49.72,253v8.52H47.89V253Z"/><path class="cls-1" d="M57.22,253v1.76a2.58,2.58,0,0,0-2.95,2.37v4.45H52.44V253h1.84v1.7A3.1,3.1,0,0,1,57.22,253Z"/><path class="cls-1" d="M66.82,257.27a4.44,4.44,0,1,1-4.43-4.3A4.18,4.18,0,0,1,66.82,257.27Zm-7,0a2.61,2.61,0,1,0,2.61-2.77A2.57,2.57,0,0,0,59.78,257.3Z"/><path class="cls-1" d="M76.89,256.25v5.3H75v-4.79a1.9,1.9,0,0,0-2-2.06A2.38,2.38,0,0,0,70.58,257v4.53H68.74V253h1.84v1.63a3.22,3.22,0,0,1,3.14-1.7A3,3,0,0,1,76.89,256.25Z"/><path class="cls-1" d="M93.58,256.25v5.3H91.74v-4.79a1.89,1.89,0,0,0-2-2.08,2.43,2.43,0,0,0-2.34,2.66v4.21H85.54v-4.79a1.88,1.88,0,0,0-2-2.08,2.44,2.44,0,0,0-2.37,2.66v4.21H79.35V253h1.83v1.65A3.15,3.15,0,0,1,84.26,253a2.85,2.85,0,0,1,3,2,3.13,3.13,0,0,1,3.23-2A3,3,0,0,1,93.58,256.25Z"/><path class="cls-1" d="M102.28,258.89l1.07,1a4.56,4.56,0,0,1-3.68,1.73,4.16,4.16,0,0,1-4.43-4.32A4.09,4.09,0,0,1,99.51,253a3.71,3.71,0,0,1,4,3.71l-6.19,1.86a2.54,2.54,0,0,0,2.45,1.6A3.23,3.23,0,0,0,102.28,258.89Zm-5.2-1.7v0l4.67-1.39a2.09,2.09,0,0,0-2.13-1.36A2.42,2.42,0,0,0,97.08,257.19Z"/><path class="cls-1" d="M113.46,256.25v5.3h-1.84v-4.79a1.9,1.9,0,0,0-2-2.06,2.38,2.38,0,0,0-2.42,2.32v4.53h-1.84V253h1.84v1.63a3.22,3.22,0,0,1,3.14-1.7A3,3,0,0,1,113.46,256.25Z"/><path class="cls-1" d="M120.2,261a4.12,4.12,0,0,1-2,.62c-1.34,0-2.43-.93-2.43-2.79V251h1.83v2.34h2.51v1.38h-2.51v3.79c0,1,.34,1.44.94,1.44a2.79,2.79,0,0,0,1.25-.37Z"/><path class="cls-1" d="M58.9,409.94a3.95,3.95,0,1,0,0,7.89A4.64,4.64,0,0,0,62,416.5l1.12,1.25a6.36,6.36,0,0,1-4.34,1.84,5.67,5.67,0,1,1,.06-11.33A6.18,6.18,0,0,1,63.13,410L62,411.36A4.38,4.38,0,0,0,58.9,409.94Z"/><path class="cls-1" d="M73.19,414.21v5.3H71.35v-4.79a1.9,1.9,0,0,0-2-2.06,2.43,2.43,0,0,0-2.43,2.66v4.19H65V407.63h1.84v5A3.22,3.22,0,0,1,70,410.93,3,3,0,0,1,73.19,414.21Z"/><path class="cls-1" d="M83.74,411v8.52H81.91v-1.44a3.33,3.33,0,0,1-3,1.52c-2.45,0-4.08-1.78-4.08-4.37a4,4,0,0,1,4-4.31,3.34,3.34,0,0,1,3,1.52V411Zm-1.82,4.59V415a2.56,2.56,0,0,0-2.59-2.48,2.62,2.62,0,0,0-2.62,2.8,2.6,2.6,0,0,0,2.63,2.77A2.55,2.55,0,0,0,81.91,415.59Z"/><path class="cls-1" d="M94.6,414.21v5.3H92.76v-4.79a1.9,1.9,0,0,0-2-2.06A2.39,2.39,0,0,0,88.29,415v4.53H86.45V411h1.84v1.63a3.22,3.22,0,0,1,3.14-1.7A3,3,0,0,1,94.6,414.21Z"/><path class="cls-1" d="M105.21,414.21v5.3h-1.84v-4.79a1.9,1.9,0,0,0-2-2.06A2.38,2.38,0,0,0,98.9,415v4.53H97.06V411H98.9v1.63a3.21,3.21,0,0,1,3.14-1.7A3,3,0,0,1,105.21,414.21Z"/><path class="cls-1" d="M113.91,416.85l1.07,1a4.56,4.56,0,0,1-3.68,1.73,4.16,4.16,0,0,1-4.43-4.32,4.09,4.09,0,0,1,4.27-4.32,3.71,3.71,0,0,1,4,3.71L109,416.5a2.54,2.54,0,0,0,2.45,1.6A3.23,3.23,0,0,0,113.91,416.85Zm-5.2-1.7v0l4.67-1.39a2.09,2.09,0,0,0-2.13-1.36A2.42,2.42,0,0,0,108.71,415.16Z"/><path class="cls-1" d="M119.41,417.91a1.79,1.79,0,0,0,.85-.27l.26,1.5a3.28,3.28,0,0,1-1.6.45c-1.19,0-2.11-.85-2.11-2.48v-9.48h1.82v9.28C118.63,417.61,118.93,417.91,119.41,417.91Z"/><path class="cls-1" d="M56.07,561.19c0,2.53-1.62,4-4.43,4H49.06v3.38H47.17v-11.2h4.47C54.46,557.37,56.07,558.76,56.07,561.19Zm-1.81,0c0-1.47-1-2.18-2.71-2.18h-2.5v4.43h2.5C53.29,563.5,54.27,562.76,54.27,561.24Z"/><path class="cls-1" d="M65.91,560.06v8.52H64.09v-1.44a3.33,3.33,0,0,1-3,1.52c-2.45,0-4.08-1.78-4.08-4.37A4,4,0,0,1,61,560a3.34,3.34,0,0,1,3,1.52v-1.44Zm-1.82,4.59V564a2.56,2.56,0,0,0-2.59-2.48,2.62,2.62,0,0,0-2.62,2.8,2.59,2.59,0,0,0,2.63,2.77A2.55,2.55,0,0,0,64.09,564.65Z"/><path class="cls-1" d="M72.2,561.61a2.73,2.73,0,0,0,0,5.44,3.18,3.18,0,0,0,2.51-1l1,1a4.33,4.33,0,0,1-3.62,1.58,4.32,4.32,0,0,1,0-8.64,4.49,4.49,0,0,1,3.52,1.39l-1,1.18A3.23,3.23,0,0,0,72.2,561.61Z"/><path class="cls-1" d="M81,564.67l-1.44,1.52v2.38H77.73V556.7h1.84v7.17l3.76-3.81h2.11l-3.15,3.3,3.39,5.22H83.51Z"/><path class="cls-1" d="M94.86,560.06v8.52H93v-1.44a3.33,3.33,0,0,1-3,1.52c-2.45,0-4.08-1.78-4.08-4.37A4,4,0,0,1,90,560a3.34,3.34,0,0,1,3,1.52v-1.44ZM93,564.65V564a2.56,2.56,0,0,0-2.59-2.48,2.62,2.62,0,0,0-2.62,2.8,2.59,2.59,0,0,0,2.63,2.77A2.55,2.55,0,0,0,93,564.65Z"/><path class="cls-1" d="M105.26,560.06v7.68c0,2.45-1.75,4-4.42,4a6.18,6.18,0,0,1-3.54-1.12l.78-1.33a4.31,4.31,0,0,0,2.67.93,2.39,2.39,0,0,0,2.67-2.42v-1.07a3.12,3.12,0,0,1-2.82,1.44A3.77,3.77,0,0,1,96.77,564a3.73,3.73,0,0,1,3.78-4,3.17,3.17,0,0,1,2.88,1.44v-1.38Zm-1.83,4a2.42,2.42,0,0,0-2.45-2.61,2.62,2.62,0,1,0,2.45,2.61Z"/><path class="cls-1" d="M114.06,565.92l1.07,1a4.56,4.56,0,0,1-3.68,1.73,4.16,4.16,0,0,1-4.43-4.32,4.09,4.09,0,0,1,4.27-4.32,3.71,3.71,0,0,1,4,3.71l-6.2,1.86a2.54,2.54,0,0,0,2.45,1.6A3.23,3.23,0,0,0,114.06,565.92Zm-5.2-1.7v0l4.67-1.39a2.09,2.09,0,0,0-2.13-1.36A2.42,2.42,0,0,0,108.85,564.22Z"/><path class="cls-1" d="M49,576.82a1.07,1.07,0,1,1-1.07-1.1A1.06,1.06,0,0,1,49,576.82Zm-.16,2.43v8.52H47.06v-8.52Z"/><path class="cls-1" d="M59.75,582.47v5.3H57.91V583a1.9,1.9,0,0,0-2-2.06,2.38,2.38,0,0,0-2.42,2.32v4.53H51.61v-8.52h1.84v1.63a3.21,3.21,0,0,1,3.14-1.7A3,3,0,0,1,59.75,582.47Z"/><path class="cls-1" d="M77.51,582.17a5.54,5.54,0,0,1-5.84,5.6H67.13V576.57h4.59A5.51,5.51,0,0,1,77.51,582.17Zm-1.9,0a3.82,3.82,0,0,0-3.92-3.92H69v7.81h2.75A3.76,3.76,0,0,0,75.61,582.19Z"/><path class="cls-1" d="M85.66,585.12l1.07,1A4.56,4.56,0,0,1,83,587.84a4.16,4.16,0,0,1-4.43-4.32,4.09,4.09,0,0,1,4.27-4.32,3.71,3.71,0,0,1,4,3.71l-6.19,1.86a2.54,2.54,0,0,0,2.45,1.6A3.23,3.23,0,0,0,85.66,585.12Zm-5.2-1.7v0L85.13,582A2.09,2.09,0,0,0,83,580.68,2.42,2.42,0,0,0,80.46,583.42Z"/><path class="cls-1" d="M97.66,583.55a4,4,0,0,1-4,4.29,3.35,3.35,0,0,1-3-1.54v4.58H88.77V579.26h1.84v1.47a3.33,3.33,0,0,1,3-1.54C96,579.19,97.66,581,97.66,583.55Zm-1.86-.06a2.6,2.6,0,1,0-2.59,2.79A2.58,2.58,0,0,0,95.8,583.48Z"/><path class="cls-1" d="M107.66,583.5a4.44,4.44,0,1,1-4.43-4.31A4.18,4.18,0,0,1,107.66,583.5Zm-7,0a2.61,2.61,0,1,0,2.61-2.77A2.57,2.57,0,0,0,100.62,583.53Z"/><path class="cls-1" d="M113.85,587.23a4.1,4.1,0,0,1-2,.63c-1.34,0-2.43-.93-2.43-2.79v-7.83h1.83v2.34h2.51V581h-2.51v3.79c0,1,.34,1.44.94,1.44a2.81,2.81,0,0,0,1.25-.37Z"/><path class="cls-1" d="M66.52,50.7v9.49h4.85v1.71H64.63V50.7Z"/><path class="cls-1" d="M79.3,59.25l1.07,1A4.56,4.56,0,0,1,76.69,62a4.16,4.16,0,0,1-4.43-4.32,4.09,4.09,0,0,1,4.27-4.32,3.71,3.71,0,0,1,4,3.71L74.36,58.9a2.54,2.54,0,0,0,2.45,1.6A3.23,3.23,0,0,0,79.3,59.25Zm-5.2-1.7v0l4.67-1.39a2.09,2.09,0,0,0-2.13-1.36A2.42,2.42,0,0,0,74.1,57.55Z"/><path class="cls-1" d="M90,53.39v7.68c0,2.45-1.75,4-4.42,4a6.19,6.19,0,0,1-3.54-1.12l.78-1.33a4.3,4.3,0,0,0,2.67.93,2.39,2.39,0,0,0,2.67-2.42V60a3.12,3.12,0,0,1-2.82,1.44,3.77,3.77,0,0,1-3.84-4.11,3.73,3.73,0,0,1,3.78-4,3.17,3.17,0,0,1,2.88,1.44V53.39Zm-1.83,4a2.42,2.42,0,0,0-2.45-2.61,2.62,2.62,0,1,0,2.45,2.61Z"/><path class="cls-1" d="M98.82,59.25l1.07,1A4.56,4.56,0,0,1,96.21,62a4.16,4.16,0,0,1-4.43-4.32,4.09,4.09,0,0,1,4.27-4.32,3.71,3.71,0,0,1,4,3.71L93.88,58.9a2.54,2.54,0,0,0,2.45,1.6A3.23,3.23,0,0,0,98.82,59.25Zm-5.2-1.7v0l4.67-1.39a2.09,2.09,0,0,0-2.13-1.36A2.42,2.42,0,0,0,93.62,57.55Z"/><path class="cls-1" d="M110,56.61v5.3h-1.84V57.12a1.9,1.9,0,0,0-2-2.06,2.38,2.38,0,0,0-2.42,2.32v4.53h-1.84V53.39h1.84V55a3.22,3.22,0,0,1,3.14-1.7A3,3,0,0,1,110,56.61Z"/><path class="cls-1" d="M120.58,50V61.91h-1.84V60.45a3.3,3.3,0,0,1-3,1.54c-2.45,0-4.08-1.78-4.08-4.37a4,4,0,0,1,4-4.31,3.37,3.37,0,0,1,3,1.55V50Zm-1.84,7.65a2.59,2.59,0,0,0-2.61-2.8,2.62,2.62,0,0,0-2.62,2.8,2.62,2.62,0,1,0,5.23,0Z"/></g><g id="flow_text" data-name="flow text"><rect class="cls-2" x="138.53" y="193.8" width="328.13" height="427.26"/><g class="cls-3"><path class="cls-4" d="M208.29,245.85l.63,3.46-3.41.86a20.55,20.55,0,0,0-21.73-.18l-3.88-.69,1.24-3.72A25.86,25.86,0,0,1,208.29,245.85Z"/></g><g class="cls-3"><path class="cls-5" d="M168.26,267.71l2.7-2.25,2.43,2.55a20.55,20.55,0,0,0,10.55,19l1.31,3.71-3.84.75A25.86,25.86,0,0,1,168.26,267.71Z"/></g><g class="cls-3"><path class="cls-6" d="M206.22,292l-3.33-1.13.9-3.4a20.55,20.55,0,0,0,10.69-18.92l2.48-3.06,2.65,2.88A25.86,25.86,0,0,1,206.22,292Z"/></g><g class="cls-3"><path class="cls-6" d="M206.22,292l-3.33-1.13.9-3.4a20.55,20.55,0,0,0,10.69-18.92l2.48-3.06,2.65,2.88A25.86,25.86,0,0,1,206.22,292Z"/></g><circle class="cls-7" cx="215.53" cy="256.87" r="6.69"/><circle class="cls-7" cx="194.47" cy="293.35" r="6.69"/><circle class="cls-7" cx="174" cy="256.86" r="6.69"/><g class="cls-3"><path class="cls-8" d="M169.87,44.15l.34,1.87-1.84.46a11.11,11.11,0,0,0-11.75-.1l-2.1-.37.67-2A14,14,0,0,1,169.87,44.15Z"/></g><g class="cls-3"><path class="cls-9" d="M148.23,56l1.46-1.22L151,56.13a11.11,11.11,0,0,0,5.7,10.27l.71,2-2.08.41A14,14,0,0,1,148.23,56Z"/></g><g class="cls-3"><path class="cls-10" d="M168.76,69.1l-1.8-.61.49-1.84a11.11,11.11,0,0,0,5.78-10.23l1.34-1.65L176,56.33A14,14,0,0,1,168.76,69.1Z"/></g><g class="cls-3"><path class="cls-10" d="M168.76,69.1l-1.8-.61.49-1.84a11.11,11.11,0,0,0,5.78-10.23l1.34-1.65L176,56.33A14,14,0,0,1,168.76,69.1Z"/></g><circle class="cls-7" cx="173.79" cy="50.11" r="3.62"/><circle class="cls-7" cx="162.4" cy="69.84" r="3.62"/><circle class="cls-7" cx="151.33" cy="50.1" r="3.62"/><path class="cls-11" d="M193.5,450v13c0,82.9,106.33,37,106.33,129.08"/><path class="cls-1" d="M187.53,415.68c0,1.9-1.21,3-3.32,3h-1.93v2.53h-1.41v-8.39h3.35C186.32,412.82,187.53,413.86,187.53,415.68Zm-1.36,0c0-1.1-.73-1.63-2-1.63h-1.87v3.32h1.87C185.44,417.41,186.17,416.86,186.17,415.72Z"/><path class="cls-1" d="M192.44,414.78v1.32a1.93,1.93,0,0,0-2.21,1.78v3.33h-1.38v-6.38h1.38v1.27A2.32,2.32,0,0,1,192.44,414.78Z"/><path class="cls-1" d="M199.63,418a3.33,3.33,0,1,1-3.32-3.23A3.13,3.13,0,0,1,199.63,418Zm-5.28,0a2,2,0,1,0,2-2.07A1.92,1.92,0,0,0,194.36,418Z"/><path class="cls-1" d="M207.16,412.31v8.9h-1.38v-1.09a2.47,2.47,0,0,1-2.24,1.15,3.26,3.26,0,0,1,0-6.5,2.52,2.52,0,0,1,2.27,1.16v-3.62ZM205.78,418a1.94,1.94,0,0,0-2-2.1,2,2,0,0,0-2,2.1,2,2,0,1,0,3.92,0Z"/><path class="cls-1" d="M188.29,223c0,1.9-1.21,3-3.32,3H183v2.53h-1.41v-8.39H185C187.08,220.11,188.29,221.15,188.29,223Zm-1.36,0c0-1.1-.73-1.63-2-1.63H183v3.32h1.87C186.2,224.7,186.93,224.15,186.93,223Z"/><path class="cls-1" d="M193.2,222.08v1.32a1.93,1.93,0,0,0-2.21,1.78v3.33h-1.38v-6.38H191v1.27A2.32,2.32,0,0,1,193.2,222.08Z"/><path class="cls-1" d="M200.4,225.3a3.33,3.33,0,1,1-3.32-3.23A3.13,3.13,0,0,1,200.4,225.3Zm-5.28,0a2,2,0,1,0,2-2.07A1.92,1.92,0,0,0,195.12,225.33Z"/><path class="cls-1" d="M207.92,219.61v8.9h-1.38v-1.09a2.47,2.47,0,0,1-2.24,1.15,3.26,3.26,0,0,1,0-6.5,2.52,2.52,0,0,1,2.27,1.16v-3.62Zm-1.38,5.73a1.94,1.94,0,0,0-2-2.1,2,2,0,0,0-2,2.1,2,2,0,1,0,3.92,0Z"/><line class="cls-11" x1="301" y1="449.75" x2="301" y2="592.01"/><line class="cls-11" x1="194" y1="308.84" x2="194" y2="383.73"/><line class="cls-12" x1="466.59" y1="415.44" x2="482.11" y2="415.51"/><line class="cls-12" x1="514.98" y1="415.44" x2="530.5" y2="415.51"/><line class="cls-12" x1="856.95" y1="415.44" x2="872.47" y2="415.51"/><line class="cls-12" x1="905.34" y1="415.44" x2="920.86" y2="415.51"/><path class="cls-13" d="M441.45,557.4v39.68c0,.69-.81,1.37-2.41,1.88l-26.23,8.51a22,22,0,0,1-11.62,0L375,599c-1.59-.52-2.4-1.2-2.41-1.88V557.4Z"/><path class="cls-14" d="M401.19,567.79,375,559.28c-3.21-1-3.21-2.73,0-3.77L401.19,547a22,22,0,0,1,11.62,0L439,555.52c3.21,1,3.21,2.73,0,3.77l-26.23,8.51a22,22,0,0,1-11.62,0Z"/><path class="cls-7" d="M334.87,557.4v39.68c0,.69-.81,1.37-2.41,1.88l-26.23,8.51a22,22,0,0,1-11.62,0L268.38,599c-1.59-.52-2.4-1.2-2.41-1.88V557.4Z"/><path class="cls-15" d="M294.61,567.79l-26.23-8.51c-3.21-1-3.21-2.73,0-3.77L294.61,547a22,22,0,0,1,11.62,0l26.23,8.51c3.21,1,3.21,2.73,0,3.77l-26.23,8.51a22,22,0,0,1-11.62,0"/><path class="cls-16" d="M401.31,50.61V64.84c0,.25-.29.49-.86.67L391,68.56a7.9,7.9,0,0,1-4.17,0l-9.4-3.05c-.57-.19-.86-.43-.86-.67V50.61Z"/><path class="cls-17" d="M386.88,54.34l-9.4-3.05c-1.15-.37-1.15-1,0-1.35l9.4-3.05a7.89,7.89,0,0,1,4.17,0l9.4,3.05c1.15.37,1.15,1,0,1.35L391,54.34a7.89,7.89,0,0,1-4.17,0Z"/><path class="cls-7" d="M368.61,50.61V64.84c0,.25-.29.49-.86.67l-9.4,3.05a7.9,7.9,0,0,1-4.17,0l-9.4-3.05c-.57-.19-.86-.43-.86-.67V50.61Z"/><path class="cls-15" d="M354.17,54.34l-9.4-3.05c-1.15-.37-1.15-1,0-1.35l9.4-3.05a7.89,7.89,0,0,1,4.17,0l9.4,3.05c1.15.37,1.15,1,0,1.35l-9.4,3.05a7.89,7.89,0,0,1-4.17,0"/><rect class="cls-11" x="155.76" y="212.88" width="78" height="95.96"/><g class="cls-3"><path class="cls-18" d="M315.29,245.85l.63,3.46-3.41.86a20.55,20.55,0,0,0-21.73-.18l-3.88-.69,1.24-3.72A25.86,25.86,0,0,1,315.29,245.85Z"/></g><g class="cls-3"><path class="cls-19" d="M275.26,267.71l2.7-2.25,2.43,2.55a20.55,20.55,0,0,0,10.55,19l1.31,3.71-3.84.75A25.86,25.86,0,0,1,275.26,267.71Z"/></g><g class="cls-3"><path class="cls-20" d="M313.22,292l-3.33-1.13.9-3.4a20.55,20.55,0,0,0,10.69-18.92l2.48-3.06,2.65,2.88A25.86,25.86,0,0,1,313.22,292Z"/></g><g class="cls-3"><path class="cls-20" d="M313.22,292l-3.33-1.13.9-3.4a20.55,20.55,0,0,0,10.69-18.92l2.48-3.06,2.65,2.88A25.86,25.86,0,0,1,313.22,292Z"/></g><circle class="cls-7" cx="322.53" cy="256.87" r="6.69"/><circle class="cls-7" cx="301.47" cy="293.35" r="6.69"/><circle class="cls-7" cx="281" cy="256.86" r="6.69"/><path class="cls-1" d="M284.67,412.77a3.34,3.34,0,0,1,3.68,3.54v4.9h-1.4V419h-4.51v2.24H281v-4.9A3.33,3.33,0,0,1,284.67,412.77Zm0,1.27a2.08,2.08,0,0,0-2.24,2.27v1.4h4.52v-1.4A2.1,2.1,0,0,0,284.68,414Z"/><path class="cls-1" d="M293,416a2,2,0,0,0,0,4.08,2.38,2.38,0,0,0,1.88-.77l.77.77a3.24,3.24,0,0,1-2.71,1.19,3.24,3.24,0,0,1,0-6.48,3.36,3.36,0,0,1,2.64,1l-.76.89A2.41,2.41,0,0,0,293,416Z"/><path class="cls-1" d="M299.49,416a2,2,0,0,0,0,4.08,2.38,2.38,0,0,0,1.88-.77l.77.77a3.25,3.25,0,0,1-2.71,1.19,3.24,3.24,0,0,1,0-6.48,3.37,3.37,0,0,1,2.64,1l-.76.89A2.41,2.41,0,0,0,299.49,416Z"/><path class="cls-1" d="M308,419.22l.8.74a3.42,3.42,0,0,1-2.76,1.29,3.12,3.12,0,0,1-3.32-3.24,3.07,3.07,0,0,1,3.2-3.24,2.78,2.78,0,0,1,3,2.78L304.3,419a1.9,1.9,0,0,0,1.83,1.2A2.42,2.42,0,0,0,308,419.22Zm-3.9-1.27h0l3.5-1a1.56,1.56,0,0,0-1.59-1A1.81,1.81,0,0,0,304.11,417.95Z"/><path class="cls-1" d="M317,418a3,3,0,0,1-3,3.21,2.5,2.5,0,0,1-2.25-1.15v3.43h-1.38v-8.71h1.38v1.1a2.49,2.49,0,0,1,2.23-1.15A3,3,0,0,1,317,418Zm-1.39,0a1.95,1.95,0,1,0-1.94,2.09A1.94,1.94,0,0,0,315.62,418Z"/><path class="cls-1" d="M321.65,420.8a3.08,3.08,0,0,1-1.54.47,1.83,1.83,0,0,1-1.82-2.09v-5.86h1.37v1.75h1.88v1h-1.88v2.84c0,.75.25,1.08.71,1.08a2.11,2.11,0,0,0,.94-.28Z"/><g class="cls-21"><path class="cls-22" d="M313.21,582.2l3,8,3.05-8H321l-4,9.8h-1.71l-3.91-9.8Z"/><path class="cls-22" d="M326.3,582.19V592h-1.65v-8.33h-2.12v-1.49Z"/></g><g class="cls-21"><path class="cls-1" d="M419.92,582.2l3,8,3.05-8h1.72l-4,9.8h-1.71l-3.91-9.8Z"/><path class="cls-1" d="M433.48,584.84c0-.8-.64-1.26-1.72-1.26a4.39,4.39,0,0,0-2.76,1.22l-.67-1.27a6,6,0,0,1,3.66-1.4c1.92,0,3.22,1,3.22,2.48a5.36,5.36,0,0,1-1.85,3.21l-2.69,2.72h5V592h-7.19v-1.22l3.74-3.87A3.63,3.63,0,0,0,433.48,584.84Z"/></g><path class="cls-1" d="M285.43,220.06a3.34,3.34,0,0,1,3.68,3.54v4.9h-1.4v-2.24H283.2v2.24h-1.41v-4.9A3.33,3.33,0,0,1,285.43,220.06Zm0,1.27a2.08,2.08,0,0,0-2.24,2.27V225h4.52v-1.4A2.1,2.1,0,0,0,285.45,221.33Z"/><path class="cls-1" d="M293.74,223.29a2,2,0,0,0,0,4.08,2.38,2.38,0,0,0,1.88-.77l.77.77a3.24,3.24,0,0,1-2.71,1.19,3.24,3.24,0,0,1,0-6.48,3.36,3.36,0,0,1,2.64,1l-.76.89A2.41,2.41,0,0,0,293.74,223.29Z"/><path class="cls-1" d="M300.25,223.29a2,2,0,0,0,0,4.08,2.38,2.38,0,0,0,1.88-.77l.77.77a3.25,3.25,0,0,1-2.71,1.19,3.24,3.24,0,0,1,0-6.48,3.37,3.37,0,0,1,2.64,1l-.76.89A2.41,2.41,0,0,0,300.25,223.29Z"/><path class="cls-1" d="M308.77,226.51l.8.74a3.42,3.42,0,0,1-2.76,1.29,3.12,3.12,0,0,1-3.32-3.24,3.07,3.07,0,0,1,3.2-3.24,2.78,2.78,0,0,1,3,2.78l-4.64,1.39a1.9,1.9,0,0,0,1.83,1.2A2.42,2.42,0,0,0,308.77,226.51Zm-3.9-1.27h0l3.5-1a1.56,1.56,0,0,0-1.59-1A1.81,1.81,0,0,0,304.87,225.24Z"/><path class="cls-1" d="M317.77,225.34a3,3,0,0,1-3,3.21,2.5,2.5,0,0,1-2.25-1.15v3.43h-1.38v-8.71h1.38v1.1a2.49,2.49,0,0,1,2.23-1.15A3,3,0,0,1,317.77,225.34Zm-1.39,0a1.95,1.95,0,1,0-1.94,2.09A1.94,1.94,0,0,0,316.38,225.29Z"/><path class="cls-1" d="M322.42,228.1a3.08,3.08,0,0,1-1.54.47,1.83,1.83,0,0,1-1.82-2.09v-5.86h1.37v1.75h1.88v1h-1.88v2.84c0,.75.25,1.08.71,1.08a2.11,2.11,0,0,0,.94-.28Z"/><line class="cls-11" x1="301" y1="308.84" x2="301" y2="383.73"/><rect class="cls-11" x="262.26" y="212.88" width="78" height="95.96"/><line class="cls-11" x1="407" y1="449.75" x2="407" y2="546.26"/><g class="cls-3"><path class="cls-23" d="M421.29,245.85l.63,3.46-3.41.86a20.55,20.55,0,0,0-21.73-.18l-3.88-.69,1.24-3.72A25.86,25.86,0,0,1,421.29,245.85Z"/></g><g class="cls-3"><path class="cls-24" d="M381.26,267.71l2.7-2.25,2.43,2.55a20.55,20.55,0,0,0,10.55,19l1.31,3.71-3.84.75A25.86,25.86,0,0,1,381.26,267.71Z"/></g><g class="cls-3"><path class="cls-25" d="M419.22,292l-3.33-1.13.9-3.4a20.55,20.55,0,0,0,10.69-18.92l2.48-3.06,2.65,2.88A25.86,25.86,0,0,1,419.22,292Z"/></g><g class="cls-3"><path class="cls-25" d="M419.22,292l-3.33-1.13.9-3.4a20.55,20.55,0,0,0,10.69-18.92l2.48-3.06,2.65,2.88A25.86,25.86,0,0,1,419.22,292Z"/></g><circle class="cls-26" cx="428.53" cy="256.87" r="6.69"/><circle class="cls-27" cx="407.47" cy="293.35" r="6.69"/><circle class="cls-28" cx="387" cy="256.86" r="6.69"/><path class="cls-1" d="M404.61,417a4.15,4.15,0,0,1-4.38,4.2h-3.41v-8.39h3.44A4.13,4.13,0,0,1,404.61,417Zm-1.43,0a2.86,2.86,0,0,0-2.94-2.94h-2v5.85h2.06A2.81,2.81,0,0,0,403.18,417Z"/><path class="cls-1" d="M410.72,419.22l.8.74a3.42,3.42,0,0,1-2.76,1.29,3.12,3.12,0,0,1-3.32-3.24,3.07,3.07,0,0,1,3.2-3.24,2.78,2.78,0,0,1,3,2.78L407,419a1.91,1.91,0,0,0,1.84,1.2A2.42,2.42,0,0,0,410.72,419.22Zm-3.9-1.27h0l3.5-1a1.56,1.56,0,0,0-1.6-1A1.81,1.81,0,0,0,406.82,417.95Z"/><path class="cls-1" d="M413.43,414.83l1.78,5,1.75-5h1.38l-2.45,6.38h-1.43L412,414.83Z"/><path class="cls-1" d="M405.37,224.31a4.15,4.15,0,0,1-4.38,4.2h-3.41v-8.39H401A4.13,4.13,0,0,1,405.37,224.31Zm-1.43,0a2.86,2.86,0,0,0-2.94-2.94h-2v5.85h2.06A2.81,2.81,0,0,0,403.94,224.32Z"/><path class="cls-1" d="M411.48,226.51l.8.74a3.42,3.42,0,0,1-2.76,1.29,3.12,3.12,0,0,1-3.32-3.24,3.07,3.07,0,0,1,3.2-3.24,2.78,2.78,0,0,1,3,2.78l-4.64,1.39a1.91,1.91,0,0,0,1.84,1.2A2.42,2.42,0,0,0,411.48,226.51Zm-3.9-1.27h0l3.5-1a1.56,1.56,0,0,0-1.6-1A1.81,1.81,0,0,0,407.58,225.24Z"/><path class="cls-1" d="M414.19,222.12l1.78,5,1.75-5h1.38l-2.45,6.38h-1.43l-2.47-6.38Z"/><line class="cls-11" x1="407" y1="308.84" x2="407" y2="383.73"/><rect class="cls-11" x="368.76" y="212.88" width="78" height="95.96"/><rect class="cls-2" x="529.53" y="193.8" width="328.13" height="427.26"/><g class="cls-3"><path class="cls-29" d="M599.29,245.85l.63,3.46-3.41.86a20.55,20.55,0,0,0-21.73-.18l-3.88-.69,1.24-3.72A25.86,25.86,0,0,1,599.29,245.85Z"/></g><g class="cls-3"><path class="cls-30" d="M559.26,267.71l2.7-2.25,2.43,2.55a20.55,20.55,0,0,0,10.55,19l1.31,3.71-3.84.75A25.86,25.86,0,0,1,559.26,267.71Z"/></g><g class="cls-3"><path class="cls-31" d="M597.22,292l-3.33-1.13.9-3.4a20.55,20.55,0,0,0,10.69-18.92l2.48-3.06,2.65,2.88A25.86,25.86,0,0,1,597.22,292Z"/></g><g class="cls-3"><path class="cls-31" d="M597.22,292l-3.33-1.13.9-3.4a20.55,20.55,0,0,0,10.69-18.92l2.48-3.06,2.65,2.88A25.86,25.86,0,0,1,597.22,292Z"/></g><circle class="cls-7" cx="606.53" cy="256.87" r="6.69"/><circle class="cls-7" cx="585.47" cy="293.35" r="6.69"/><circle class="cls-7" cx="565" cy="256.86" r="6.69"/><path class="cls-11" d="M584.5,450v13c0,82.9,106.33,37,106.33,129.08"/><path class="cls-11" d="M691.5,450v13c0,82.9,106.33,37,106.33,129.08"/><path class="cls-1" d="M578.53,415.68c0,1.9-1.21,3-3.32,3h-1.93v2.53h-1.41v-8.39h3.35C577.32,412.82,578.53,413.86,578.53,415.68Zm-1.36,0c0-1.1-.73-1.63-2-1.63h-1.87v3.32h1.87C576.44,417.41,577.17,416.86,577.17,415.72Z"/><path class="cls-1" d="M583.44,414.78v1.32a1.93,1.93,0,0,0-2.21,1.78v3.33h-1.38v-6.38h1.38v1.27A2.32,2.32,0,0,1,583.44,414.78Z"/><path class="cls-1" d="M590.63,418a3.33,3.33,0,1,1-3.32-3.23A3.13,3.13,0,0,1,590.63,418Zm-5.28,0a2,2,0,1,0,2-2.07A1.92,1.92,0,0,0,585.36,418Z"/><path class="cls-1" d="M598.16,412.31v8.9h-1.38v-1.09a2.47,2.47,0,0,1-2.24,1.15,3.26,3.26,0,0,1,0-6.5,2.52,2.52,0,0,1,2.27,1.16v-3.62ZM596.78,418a1.94,1.94,0,0,0-2-2.1,2,2,0,0,0-2,2.1,2,2,0,1,0,3.92,0Z"/><path class="cls-1" d="M579.29,223c0,1.9-1.21,3-3.32,3H574v2.53h-1.41v-8.39H576C578.08,220.11,579.29,221.15,579.29,223Zm-1.36,0c0-1.1-.73-1.63-2-1.63H574v3.32h1.87C577.2,224.7,577.93,224.15,577.93,223Z"/><path class="cls-1" d="M584.2,222.08v1.32a1.93,1.93,0,0,0-2.21,1.78v3.33h-1.38v-6.38H582v1.27A2.32,2.32,0,0,1,584.2,222.08Z"/><path class="cls-1" d="M591.4,225.3a3.33,3.33,0,1,1-3.32-3.23A3.13,3.13,0,0,1,591.4,225.3Zm-5.28,0a2,2,0,1,0,2-2.07A1.92,1.92,0,0,0,586.12,225.33Z"/><path class="cls-1" d="M598.92,219.61v8.9h-1.38v-1.09a2.47,2.47,0,0,1-2.24,1.15,3.26,3.26,0,0,1,0-6.5,2.52,2.52,0,0,1,2.27,1.16v-3.62Zm-1.38,5.73a1.94,1.94,0,0,0-2-2.1,2,2,0,0,0-2,2.1,2,2,0,1,0,3.92,0Z"/><line class="cls-11" x1="585" y1="308.84" x2="585" y2="383.73"/><path class="cls-32" d="M832.45,557.4v39.68c0,.69-.81,1.37-2.41,1.88l-26.23,8.51a22,22,0,0,1-11.62,0L766,599c-1.59-.52-2.4-1.2-2.41-1.88V557.4Z"/><path class="cls-33" d="M792.19,567.79,766,559.28c-3.21-1-3.21-2.73,0-3.77L792.19,547a22,22,0,0,1,11.62,0L830,555.52c3.21,1,3.21,2.73,0,3.77l-26.23,8.51a22,22,0,0,1-11.62,0Z"/><path class="cls-7" d="M725.87,557.4v39.68c0,.69-.81,1.37-2.41,1.88l-26.23,8.51a22,22,0,0,1-11.62,0L659.38,599c-1.59-.52-2.4-1.2-2.41-1.88V557.4Z"/><path class="cls-15" d="M685.61,567.79l-26.23-8.51c-3.21-1-3.21-2.73,0-3.77L685.61,547a22,22,0,0,1,11.62,0l26.23,8.51c3.21,1,3.21,2.73,0,3.77l-26.23,8.51a22,22,0,0,1-11.62,0"/><rect class="cls-11" x="546.76" y="212.88" width="78" height="95.96"/><g class="cls-3"><path class="cls-34" d="M706.29,245.85l.63,3.46-3.41.86a20.55,20.55,0,0,0-21.73-.18l-3.88-.69,1.24-3.72A25.86,25.86,0,0,1,706.29,245.85Z"/></g><g class="cls-3"><path class="cls-35" d="M666.26,267.71l2.7-2.25,2.43,2.55a20.55,20.55,0,0,0,10.55,19l1.31,3.71-3.84.75A25.86,25.86,0,0,1,666.26,267.71Z"/></g><g class="cls-3"><path class="cls-36" d="M704.22,292l-3.33-1.13.9-3.4a20.55,20.55,0,0,0,10.69-18.92l2.48-3.06,2.65,2.88A25.86,25.86,0,0,1,704.22,292Z"/></g><g class="cls-3"><path class="cls-36" d="M704.22,292l-3.33-1.13.9-3.4a20.55,20.55,0,0,0,10.69-18.92l2.48-3.06,2.65,2.88A25.86,25.86,0,0,1,704.22,292Z"/></g><circle class="cls-37" cx="713.53" cy="256.87" r="6.69"/><circle class="cls-38" cx="692.47" cy="293.35" r="6.69"/><circle class="cls-39" cx="672" cy="256.86" r="6.69"/><path class="cls-1" d="M675.67,412.77a3.34,3.34,0,0,1,3.68,3.54v4.9h-1.4V419h-4.51v2.24H672v-4.9A3.33,3.33,0,0,1,675.67,412.77Zm0,1.27a2.08,2.08,0,0,0-2.24,2.27v1.4h4.52v-1.4A2.1,2.1,0,0,0,675.68,414Z"/><path class="cls-1" d="M684,416a2,2,0,0,0,0,4.08,2.38,2.38,0,0,0,1.88-.77l.77.77a3.24,3.24,0,0,1-2.71,1.19,3.24,3.24,0,0,1,0-6.48,3.36,3.36,0,0,1,2.64,1l-.76.89A2.41,2.41,0,0,0,684,416Z"/><path class="cls-1" d="M690.49,416a2,2,0,0,0,0,4.08,2.38,2.38,0,0,0,1.88-.77l.77.77a3.25,3.25,0,0,1-2.71,1.19,3.24,3.24,0,0,1,0-6.48,3.37,3.37,0,0,1,2.64,1l-.76.89A2.41,2.41,0,0,0,690.49,416Z"/><path class="cls-1" d="M699,419.22l.8.74a3.42,3.42,0,0,1-2.76,1.29,3.12,3.12,0,0,1-3.32-3.24,3.07,3.07,0,0,1,3.2-3.24,2.78,2.78,0,0,1,3,2.78L695.3,419a1.9,1.9,0,0,0,1.83,1.2A2.42,2.42,0,0,0,699,419.22Zm-3.9-1.27h0l3.5-1a1.56,1.56,0,0,0-1.59-1A1.81,1.81,0,0,0,695.11,417.95Z"/><path class="cls-1" d="M708,418a3,3,0,0,1-3,3.21,2.5,2.5,0,0,1-2.25-1.15v3.43h-1.38v-8.71h1.38v1.1a2.49,2.49,0,0,1,2.23-1.15A3,3,0,0,1,708,418Zm-1.39,0a1.95,1.95,0,1,0-1.94,2.09A1.94,1.94,0,0,0,706.62,418Z"/><path class="cls-1" d="M712.65,420.8a3.08,3.08,0,0,1-1.54.47,1.83,1.83,0,0,1-1.82-2.09v-5.86h1.37v1.75h1.88v1h-1.88v2.84c0,.75.25,1.08.71,1.08a2.11,2.11,0,0,0,.94-.28Z"/><g class="cls-21"><path class="cls-22" d="M704.21,582.2l3,8,3.05-8H712l-4,9.8h-1.71l-3.91-9.8Z"/><path class="cls-22" d="M717.3,582.19V592h-1.65v-8.33h-2.12v-1.49Z"/></g><g class="cls-21"><path class="cls-1" d="M810.92,582.2l3,8,3.05-8h1.72l-4,9.8h-1.71l-3.91-9.8Z"/><path class="cls-1" d="M824.48,584.84c0-.8-.64-1.26-1.72-1.26a4.39,4.39,0,0,0-2.76,1.22l-.67-1.27a6,6,0,0,1,3.66-1.4c1.92,0,3.22,1,3.22,2.48a5.36,5.36,0,0,1-1.85,3.21l-2.69,2.72h5V592h-7.19v-1.22l3.74-3.87A3.63,3.63,0,0,0,824.48,584.84Z"/></g><path class="cls-1" d="M676.43,220.06a3.34,3.34,0,0,1,3.68,3.54v4.9h-1.4v-2.24H674.2v2.24h-1.41v-4.9A3.33,3.33,0,0,1,676.43,220.06Zm0,1.27a2.08,2.08,0,0,0-2.24,2.27V225h4.52v-1.4A2.1,2.1,0,0,0,676.45,221.33Z"/><path class="cls-1" d="M684.74,223.29a2,2,0,0,0,0,4.08,2.38,2.38,0,0,0,1.88-.77l.77.77a3.24,3.24,0,0,1-2.71,1.19,3.24,3.24,0,0,1,0-6.48,3.36,3.36,0,0,1,2.64,1l-.76.89A2.41,2.41,0,0,0,684.74,223.29Z"/><path class="cls-1" d="M691.25,223.29a2,2,0,0,0,0,4.08,2.38,2.38,0,0,0,1.88-.77l.77.77a3.25,3.25,0,0,1-2.71,1.19,3.24,3.24,0,0,1,0-6.48,3.37,3.37,0,0,1,2.64,1l-.76.89A2.41,2.41,0,0,0,691.25,223.29Z"/><path class="cls-1" d="M699.77,226.51l.8.74a3.42,3.42,0,0,1-2.76,1.29,3.12,3.12,0,0,1-3.32-3.24,3.07,3.07,0,0,1,3.2-3.24,2.78,2.78,0,0,1,3,2.78l-4.64,1.39a1.9,1.9,0,0,0,1.83,1.2A2.42,2.42,0,0,0,699.77,226.51Zm-3.9-1.27h0l3.5-1a1.56,1.56,0,0,0-1.59-1A1.81,1.81,0,0,0,695.87,225.24Z"/><path class="cls-1" d="M708.77,225.34a3,3,0,0,1-3,3.21,2.5,2.5,0,0,1-2.25-1.15v3.43h-1.38v-8.71h1.38v1.1a2.49,2.49,0,0,1,2.23-1.15A3,3,0,0,1,708.77,225.34Zm-1.39,0a1.95,1.95,0,1,0-1.94,2.09A1.94,1.94,0,0,0,707.38,225.29Z"/><path class="cls-1" d="M713.42,228.1a3.08,3.08,0,0,1-1.54.47,1.83,1.83,0,0,1-1.82-2.09v-5.86h1.37v1.75h1.88v1h-1.88v2.84c0,.75.25,1.08.71,1.08a2.11,2.11,0,0,0,.94-.28Z"/><line class="cls-11" x1="692" y1="308.84" x2="692" y2="383.73"/><rect class="cls-11" x="653.26" y="212.88" width="78" height="95.96"/><line class="cls-11" x1="798" y1="449.75" x2="798" y2="546.26"/><g class="cls-3"><path class="cls-40" d="M812.29,245.85l.63,3.46-3.41.86a20.55,20.55,0,0,0-21.73-.18l-3.88-.69,1.24-3.72A25.86,25.86,0,0,1,812.29,245.85Z"/></g><g class="cls-3"><path class="cls-41" d="M772.26,267.71l2.7-2.25,2.43,2.55a20.55,20.55,0,0,0,10.55,19l1.31,3.71-3.84.75A25.86,25.86,0,0,1,772.26,267.71Z"/></g><g class="cls-3"><path class="cls-42" d="M810.22,292l-3.33-1.13.9-3.4a20.55,20.55,0,0,0,10.69-18.92l2.48-3.06,2.65,2.88A25.86,25.86,0,0,1,810.22,292Z"/></g><g class="cls-3"><path class="cls-42" d="M810.22,292l-3.33-1.13.9-3.4a20.55,20.55,0,0,0,10.69-18.92l2.48-3.06,2.65,2.88A25.86,25.86,0,0,1,810.22,292Z"/></g><circle class="cls-43" cx="819.53" cy="256.87" r="6.69"/><circle class="cls-44" cx="798.47" cy="293.35" r="6.69"/><circle class="cls-45" cx="778" cy="256.86" r="6.69"/><path class="cls-1" d="M795.61,417a4.15,4.15,0,0,1-4.38,4.2h-3.41v-8.39h3.44A4.13,4.13,0,0,1,795.61,417Zm-1.43,0a2.86,2.86,0,0,0-2.94-2.94h-2v5.85h2.06A2.81,2.81,0,0,0,794.18,417Z"/><path class="cls-1" d="M801.72,419.22l.8.74a3.42,3.42,0,0,1-2.76,1.29,3.12,3.12,0,0,1-3.32-3.24,3.07,3.07,0,0,1,3.2-3.24,2.78,2.78,0,0,1,3,2.78L798,419a1.91,1.91,0,0,0,1.84,1.2A2.42,2.42,0,0,0,801.72,419.22Zm-3.9-1.27h0l3.5-1a1.56,1.56,0,0,0-1.6-1A1.81,1.81,0,0,0,797.82,417.95Z"/><path class="cls-1" d="M804.43,414.83l1.78,5,1.75-5h1.38l-2.45,6.38h-1.43L803,414.83Z"/><path class="cls-1" d="M796.37,224.31a4.15,4.15,0,0,1-4.38,4.2h-3.41v-8.39H792A4.13,4.13,0,0,1,796.37,224.31Zm-1.43,0a2.86,2.86,0,0,0-2.94-2.94h-2v5.85h2.06A2.81,2.81,0,0,0,794.94,224.32Z"/><path class="cls-1" d="M802.48,226.51l.8.74a3.42,3.42,0,0,1-2.76,1.29,3.12,3.12,0,0,1-3.32-3.24,3.07,3.07,0,0,1,3.2-3.24,2.78,2.78,0,0,1,3,2.78l-4.64,1.39a1.91,1.91,0,0,0,1.84,1.2A2.42,2.42,0,0,0,802.48,226.51Zm-3.9-1.27h0l3.5-1a1.56,1.56,0,0,0-1.6-1A1.81,1.81,0,0,0,798.58,225.24Z"/><path class="cls-1" d="M805.19,222.12l1.78,5,1.75-5h1.38l-2.45,6.38h-1.43l-2.47-6.38Z"/><line class="cls-11" x1="798" y1="308.84" x2="798" y2="383.73"/><rect class="cls-11" x="759.76" y="212.88" width="78" height="95.96"/><rect class="cls-2" x="919.53" y="193.8" width="328.13" height="427.26"/><g class="cls-3"><path class="cls-46" d="M989.29,245.85l.63,3.46-3.41.86a20.55,20.55,0,0,0-21.73-.18l-3.88-.69,1.24-3.72A25.86,25.86,0,0,1,989.29,245.85Z"/></g><g class="cls-3"><path class="cls-47" d="M949.26,267.71l2.7-2.25,2.43,2.55a20.55,20.55,0,0,0,10.55,19l1.31,3.71-3.84.75A25.86,25.86,0,0,1,949.26,267.71Z"/></g><g class="cls-3"><path class="cls-48" d="M987.22,292l-3.33-1.13.9-3.4a20.55,20.55,0,0,0,10.69-18.92l2.48-3.06,2.65,2.88A25.86,25.86,0,0,1,987.22,292Z"/></g><g class="cls-3"><path class="cls-48" d="M987.22,292l-3.33-1.13.9-3.4a20.55,20.55,0,0,0,10.69-18.92l2.48-3.06,2.65,2.88A25.86,25.86,0,0,1,987.22,292Z"/></g><circle class="cls-49" cx="996.53" cy="256.87" r="6.69"/><circle class="cls-50" cx="975.47" cy="293.35" r="6.69"/><circle class="cls-51" cx="955" cy="256.86" r="6.69"/><path class="cls-11" d="M974.5,450v13c0,82.9,213.33,37,213.33,129.08"/><path class="cls-11" d="M1081.5,450v13c0,82.9,106.33,37,106.33,129.08"/><path class="cls-1" d="M968.53,415.68c0,1.9-1.21,3-3.32,3h-1.93v2.53h-1.41v-8.39h3.35C967.32,412.82,968.53,413.86,968.53,415.68Zm-1.36,0c0-1.1-.73-1.63-2-1.63h-1.87v3.32h1.87C966.44,417.41,967.17,416.86,967.17,415.72Z"/><path class="cls-1" d="M973.44,414.78v1.32a1.93,1.93,0,0,0-2.21,1.78v3.33h-1.38v-6.38h1.38v1.27A2.32,2.32,0,0,1,973.44,414.78Z"/><path class="cls-1" d="M980.63,418a3.33,3.33,0,1,1-3.32-3.23A3.13,3.13,0,0,1,980.63,418Zm-5.28,0a2,2,0,1,0,2-2.07A1.92,1.92,0,0,0,975.36,418Z"/><path class="cls-1" d="M988.16,412.31v8.9h-1.38v-1.09a2.47,2.47,0,0,1-2.24,1.15,3.26,3.26,0,0,1,0-6.5,2.52,2.52,0,0,1,2.27,1.16v-3.62ZM986.78,418a1.94,1.94,0,0,0-2-2.1,2,2,0,0,0-2,2.1,2,2,0,1,0,3.92,0Z"/><path class="cls-1" d="M969.29,223c0,1.9-1.21,3-3.32,3H964v2.53h-1.41v-8.39H966C968.08,220.11,969.29,221.15,969.29,223Zm-1.36,0c0-1.1-.73-1.63-2-1.63H964v3.32h1.87C967.2,224.7,967.93,224.15,967.93,223Z"/><path class="cls-1" d="M974.2,222.08v1.32a1.93,1.93,0,0,0-2.21,1.78v3.33h-1.38v-6.38H972v1.27A2.32,2.32,0,0,1,974.2,222.08Z"/><path class="cls-1" d="M981.4,225.3a3.33,3.33,0,1,1-3.32-3.23A3.13,3.13,0,0,1,981.4,225.3Zm-5.28,0a2,2,0,1,0,2-2.07A1.92,1.92,0,0,0,976.12,225.33Z"/><path class="cls-1" d="M988.92,219.61v8.9h-1.38v-1.09a2.47,2.47,0,0,1-2.24,1.15,3.26,3.26,0,0,1,0-6.5,2.52,2.52,0,0,1,2.27,1.16v-3.62Zm-1.38,5.73a1.94,1.94,0,0,0-2-2.1,2,2,0,0,0-2,2.1,2,2,0,1,0,3.92,0Z"/><line class="cls-11" x1="975" y1="308.84" x2="975" y2="383.73"/><path class="cls-52" d="M1222.45,557.4v39.68c0,.69-.81,1.37-2.41,1.88l-26.23,8.51a22,22,0,0,1-11.62,0L1156,599c-1.59-.52-2.4-1.2-2.41-1.88V557.4Z"/><path class="cls-53" d="M1182.19,567.79,1156,559.28c-3.21-1-3.21-2.73,0-3.77l26.23-8.51a22,22,0,0,1,11.62,0l26.23,8.51c3.21,1,3.21,2.73,0,3.77l-26.23,8.51a22,22,0,0,1-11.62,0Z"/><path class="cls-7" d="M1115.87,557.4v39.68c0,.69-.81,1.37-2.41,1.88l-26.23,8.51a22,22,0,0,1-11.62,0L1049.38,599c-1.59-.52-2.4-1.2-2.41-1.88V557.4Z"/><path class="cls-15" d="M1075.61,567.79l-26.23-8.51c-3.21-1-3.21-2.73,0-3.77l26.23-8.51a22,22,0,0,1,11.62,0l26.23,8.51c3.21,1,3.21,2.73,0,3.77l-26.23,8.51a22,22,0,0,1-11.62,0"/><rect class="cls-11" x="936.76" y="212.88" width="78" height="95.96"/><g class="cls-3"><path class="cls-54" d="M1096.29,245.85l.63,3.46-3.41.86a20.55,20.55,0,0,0-21.73-.18l-3.88-.69,1.24-3.72A25.86,25.86,0,0,1,1096.29,245.85Z"/></g><g class="cls-3"><path class="cls-55" d="M1056.26,267.71l2.7-2.25,2.43,2.55a20.55,20.55,0,0,0,10.55,19l1.31,3.71-3.84.75A25.86,25.86,0,0,1,1056.26,267.71Z"/></g><g class="cls-3"><path class="cls-56" d="M1094.22,292l-3.33-1.13.9-3.4a20.55,20.55,0,0,0,10.69-18.92l2.48-3.06,2.65,2.88A25.86,25.86,0,0,1,1094.22,292Z"/></g><g class="cls-3"><path class="cls-56" d="M1094.22,292l-3.33-1.13.9-3.4a20.55,20.55,0,0,0,10.69-18.92l2.48-3.06,2.65,2.88A25.86,25.86,0,0,1,1094.22,292Z"/></g><circle class="cls-57" cx="1103.53" cy="256.87" r="6.69"/><circle class="cls-58" cx="1082.47" cy="293.35" r="6.69"/><circle class="cls-59" cx="1062" cy="256.86" r="6.69"/><path class="cls-1" d="M1065.67,412.77a3.34,3.34,0,0,1,3.68,3.54v4.9h-1.4V419h-4.51v2.24H1062v-4.9A3.33,3.33,0,0,1,1065.67,412.77Zm0,1.27a2.08,2.08,0,0,0-2.24,2.27v1.4h4.52v-1.4A2.1,2.1,0,0,0,1065.68,414Z"/><path class="cls-1" d="M1074,416a2,2,0,0,0,0,4.08,2.38,2.38,0,0,0,1.88-.77l.77.77a3.24,3.24,0,0,1-2.71,1.19,3.24,3.24,0,0,1,0-6.48,3.36,3.36,0,0,1,2.64,1l-.76.89A2.41,2.41,0,0,0,1074,416Z"/><path class="cls-1" d="M1080.49,416a2,2,0,0,0,0,4.08,2.38,2.38,0,0,0,1.88-.77l.77.77a3.25,3.25,0,0,1-2.71,1.19,3.24,3.24,0,0,1,0-6.48,3.37,3.37,0,0,1,2.64,1l-.76.89A2.41,2.41,0,0,0,1080.49,416Z"/><path class="cls-1" d="M1089,419.22l.8.74a3.42,3.42,0,0,1-2.76,1.29,3.12,3.12,0,0,1-3.32-3.24,3.07,3.07,0,0,1,3.2-3.24,2.78,2.78,0,0,1,3,2.78L1085.3,419a1.9,1.9,0,0,0,1.83,1.2A2.42,2.42,0,0,0,1089,419.22Zm-3.9-1.27h0l3.5-1a1.56,1.56,0,0,0-1.59-1A1.81,1.81,0,0,0,1085.11,417.95Z"/><path class="cls-1" d="M1098,418a3,3,0,0,1-3,3.21,2.5,2.5,0,0,1-2.25-1.15v3.43h-1.38v-8.71h1.38v1.1a2.49,2.49,0,0,1,2.23-1.15A3,3,0,0,1,1098,418Zm-1.39,0a1.95,1.95,0,1,0-1.94,2.09A1.94,1.94,0,0,0,1096.62,418Z"/><path class="cls-1" d="M1102.65,420.8a3.08,3.08,0,0,1-1.54.47,1.83,1.83,0,0,1-1.82-2.09v-5.86h1.37v1.75h1.88v1h-1.88v2.84c0,.75.25,1.08.71,1.08a2.11,2.11,0,0,0,.94-.28Z"/><g class="cls-21"><path class="cls-22" d="M1094.21,582.2l3,8,3.05-8H1102l-4,9.8h-1.71l-3.91-9.8Z"/><path class="cls-22" d="M1107.3,582.19V592h-1.65v-8.33h-2.12v-1.49Z"/></g><g class="cls-21"><path class="cls-1" d="M1200.92,582.2l3,8,3.05-8h1.72l-4,9.8h-1.71l-3.91-9.8Z"/><path class="cls-1" d="M1214.48,584.84c0-.8-.64-1.26-1.72-1.26a4.39,4.39,0,0,0-2.76,1.22l-.67-1.27a6,6,0,0,1,3.66-1.4c1.92,0,3.22,1,3.22,2.48a5.36,5.36,0,0,1-1.85,3.21l-2.69,2.72h5V592h-7.19v-1.22l3.74-3.87A3.63,3.63,0,0,0,1214.48,584.84Z"/></g><path class="cls-1" d="M1066.43,220.06a3.34,3.34,0,0,1,3.68,3.54v4.9h-1.4v-2.24h-4.51v2.24h-1.41v-4.9A3.33,3.33,0,0,1,1066.43,220.06Zm0,1.27a2.08,2.08,0,0,0-2.24,2.27V225h4.52v-1.4A2.1,2.1,0,0,0,1066.45,221.33Z"/><path class="cls-1" d="M1074.74,223.29a2,2,0,0,0,0,4.08,2.38,2.38,0,0,0,1.88-.77l.77.77a3.24,3.24,0,0,1-2.71,1.19,3.24,3.24,0,0,1,0-6.48,3.36,3.36,0,0,1,2.64,1l-.76.89A2.41,2.41,0,0,0,1074.74,223.29Z"/><path class="cls-1" d="M1081.25,223.29a2,2,0,0,0,0,4.08,2.38,2.38,0,0,0,1.88-.77l.77.77a3.25,3.25,0,0,1-2.71,1.19,3.24,3.24,0,0,1,0-6.48,3.37,3.37,0,0,1,2.64,1l-.76.89A2.41,2.41,0,0,0,1081.25,223.29Z"/><path class="cls-1" d="M1089.77,226.51l.8.74a3.42,3.42,0,0,1-2.76,1.29,3.12,3.12,0,0,1-3.32-3.24,3.07,3.07,0,0,1,3.2-3.24,2.78,2.78,0,0,1,3,2.78l-4.64,1.39a1.9,1.9,0,0,0,1.83,1.2A2.42,2.42,0,0,0,1089.77,226.51Zm-3.9-1.27h0l3.5-1a1.56,1.56,0,0,0-1.59-1A1.81,1.81,0,0,0,1085.87,225.24Z"/><path class="cls-1" d="M1098.77,225.34a3,3,0,0,1-3,3.21,2.5,2.5,0,0,1-2.25-1.15v3.43h-1.38v-8.71h1.38v1.1a2.49,2.49,0,0,1,2.23-1.15A3,3,0,0,1,1098.77,225.34Zm-1.39,0a1.95,1.95,0,1,0-1.94,2.09A1.94,1.94,0,0,0,1097.38,225.29Z"/><path class="cls-1" d="M1103.42,228.1a3.08,3.08,0,0,1-1.54.47,1.83,1.83,0,0,1-1.82-2.09v-5.86h1.37v1.75h1.88v1h-1.88v2.84c0,.75.25,1.08.71,1.08a2.11,2.11,0,0,0,.94-.28Z"/><line class="cls-11" x1="1082" y1="308.84" x2="1082" y2="383.73"/><rect class="cls-11" x="1043.26" y="212.88" width="78" height="95.96"/><line class="cls-11" x1="1188" y1="449.75" x2="1188" y2="546.26"/><g class="cls-3"><path class="cls-60" d="M1202.29,245.85l.63,3.46-3.41.86a20.55,20.55,0,0,0-21.73-.18l-3.88-.69,1.24-3.72A25.86,25.86,0,0,1,1202.29,245.85Z"/></g><g class="cls-3"><path class="cls-61" d="M1162.26,267.71l2.7-2.25,2.43,2.55a20.55,20.55,0,0,0,10.55,19l1.31,3.71-3.84.75A25.86,25.86,0,0,1,1162.26,267.71Z"/></g><g class="cls-3"><path class="cls-62" d="M1200.22,292l-3.33-1.13.9-3.4a20.55,20.55,0,0,0,10.69-18.92l2.48-3.06,2.65,2.88A25.86,25.86,0,0,1,1200.22,292Z"/></g><g class="cls-3"><path class="cls-62" d="M1200.22,292l-3.33-1.13.9-3.4a20.55,20.55,0,0,0,10.69-18.92l2.48-3.06,2.65,2.88A25.86,25.86,0,0,1,1200.22,292Z"/></g><circle class="cls-63" cx="1209.53" cy="256.87" r="6.69"/><circle class="cls-64" cx="1188.47" cy="293.35" r="6.69"/><circle class="cls-65" cx="1168" cy="256.86" r="6.69"/><path class="cls-1" d="M1185.61,417a4.15,4.15,0,0,1-4.38,4.2h-3.41v-8.39h3.44A4.13,4.13,0,0,1,1185.61,417Zm-1.43,0a2.86,2.86,0,0,0-2.94-2.94h-2v5.85h2.06A2.81,2.81,0,0,0,1184.18,417Z"/><path class="cls-1" d="M1191.72,419.22l.8.74a3.42,3.42,0,0,1-2.76,1.29,3.12,3.12,0,0,1-3.32-3.24,3.07,3.07,0,0,1,3.2-3.24,2.78,2.78,0,0,1,3,2.78L1188,419a1.91,1.91,0,0,0,1.84,1.2A2.42,2.42,0,0,0,1191.72,419.22Zm-3.9-1.27h0l3.5-1a1.56,1.56,0,0,0-1.6-1A1.81,1.81,0,0,0,1187.82,417.95Z"/><path class="cls-1" d="M1194.43,414.83l1.78,5,1.75-5h1.38l-2.45,6.38h-1.43l-2.47-6.38Z"/><path class="cls-1" d="M1186.37,224.31a4.15,4.15,0,0,1-4.38,4.2h-3.41v-8.39H1182A4.13,4.13,0,0,1,1186.37,224.31Zm-1.43,0a2.86,2.86,0,0,0-2.94-2.94h-2v5.85h2.06A2.81,2.81,0,0,0,1184.94,224.32Z"/><path class="cls-1" d="M1192.48,226.51l.8.74a3.42,3.42,0,0,1-2.76,1.29,3.12,3.12,0,0,1-3.32-3.24,3.07,3.07,0,0,1,3.2-3.24,2.78,2.78,0,0,1,3,2.78l-4.64,1.39a1.91,1.91,0,0,0,1.84,1.2A2.42,2.42,0,0,0,1192.48,226.51Zm-3.9-1.27h0l3.5-1a1.56,1.56,0,0,0-1.6-1A1.81,1.81,0,0,0,1188.58,225.24Z"/><path class="cls-1" d="M1195.19,222.12l1.78,5,1.75-5h1.38l-2.45,6.38h-1.43l-2.47-6.38Z"/><line class="cls-11" x1="1188" y1="308.84" x2="1188" y2="383.73"/><rect class="cls-11" x="1149.76" y="212.88" width="78" height="95.96"/><path class="cls-1" d="M499.11,398.51a17,17,0,1,0,17,17A17,17,0,0,0,499.11,398.51Zm0,32.87A15.87,15.87,0,1,1,515,415.51,15.88,15.88,0,0,1,499.11,431.38Z"/><path class="cls-1" d="M499.68,413.26v-5.75a.57.57,0,1,0-1.13,0v5.75a2.26,2.26,0,0,0-1.62,1.62h-4a.57.57,0,0,0,0,1.13h4a2.26,2.26,0,1,0,2.75-2.75Zm-.57,3.32a1.13,1.13,0,1,1,1.13-1.13A1.13,1.13,0,0,1,499.11,416.58Z"/><path class="cls-1" d="M499.11,404.11a.57.57,0,0,0,.57-.57V403a.57.57,0,1,0-1.13,0v.57A.57.57,0,0,0,499.11,404.11Z"/><path class="cls-1" d="M499.11,426.78a.57.57,0,0,0-.57.57v.57a.57.57,0,0,0,1.13,0v-.57A.57.57,0,0,0,499.11,426.78Z"/><path class="cls-1" d="M511.58,414.88H511a.57.57,0,1,0,0,1.13h.57a.57.57,0,1,0,0-1.13Z"/><path class="cls-1" d="M487.21,414.88h-.57a.57.57,0,1,0,0,1.13h.57a.57.57,0,0,0,0-1.13Z"/><path class="cls-1" d="M507.53,406.23l-.4.4a.57.57,0,1,0,.8.8l.4-.4a.57.57,0,1,0-.8-.8Z"/><path class="cls-1" d="M490.3,423.46l-.4.4a.57.57,0,1,0,.8.8l.4-.4a.57.57,0,0,0-.8-.8Z"/><path class="cls-1" d="M507.93,423.46a.57.57,0,0,0-.8.8l.4.4a.57.57,0,0,0,.8-.8Z"/><path class="cls-1" d="M490.7,406.23a.57.57,0,0,0-.8.8l.4.4a.57.57,0,0,0,.8-.8Z"/><path class="cls-1" d="M888.34,398.51a17,17,0,1,0,17,17A17,17,0,0,0,888.34,398.51Zm0,32.87a15.87,15.87,0,1,1,15.87-15.87A15.88,15.88,0,0,1,888.34,431.38Z"/><path class="cls-1" d="M890.22,414.35l4.06-4.06a.57.57,0,0,0-.8-.8l-4.06,4.06a2.26,2.26,0,0,0-2.29,0l-2.86-2.86a.57.57,0,0,0-.8.8l2.86,2.86a2.26,2.26,0,1,0,3.89,0Zm-2.75,1.95a1.13,1.13,0,1,1,1.6,0A1.13,1.13,0,0,1,887.47,416.29Z"/><path class="cls-1" d="M888.34,404.11a.57.57,0,0,0,.57-.57V403a.57.57,0,1,0-1.13,0v.57A.57.57,0,0,0,888.34,404.11Z"/><path class="cls-1" d="M888.34,426.78a.57.57,0,0,0-.57.57v.57a.57.57,0,0,0,1.13,0v-.57A.57.57,0,0,0,888.34,426.78Z"/><path class="cls-1" d="M900.81,414.88h-.57a.57.57,0,1,0,0,1.13h.57a.57.57,0,0,0,0-1.13Z"/><path class="cls-1" d="M876.44,414.88h-.57a.57.57,0,0,0,0,1.13h.57a.57.57,0,1,0,0-1.13Z"/><path class="cls-1" d="M896.76,406.23l-.4.4a.57.57,0,1,0,.8.8l.4-.4a.57.57,0,1,0-.8-.8Z"/><path class="cls-1" d="M879.53,423.46l-.4.4a.57.57,0,1,0,.8.8l.4-.4a.57.57,0,0,0-.8-.8Z"/><path class="cls-1" d="M897.16,423.46a.57.57,0,1,0-.8.8l.4.4a.57.57,0,0,0,.8-.8Z"/><path class="cls-1" d="M879.93,406.23a.57.57,0,0,0-.8.8l.4.4a.57.57,0,0,0,.8-.8Z"/><circle class="cls-11" cx="193.5" cy="416.76" r="33.13"/><circle class="cls-11" cx="301.26" cy="416.76" r="33.13"/><circle class="cls-11" cx="407.47" cy="416.76" r="33.13"/><circle class="cls-11" cx="584.85" cy="416.76" r="33.13"/><circle class="cls-11" cx="692.61" cy="416.76" r="33.13"/><circle class="cls-11" cx="798.82" cy="416.76" r="33.13"/><circle class="cls-11" cx="975.03" cy="416.76" r="33.13"/><circle class="cls-11" cx="1082.79" cy="416.76" r="33.13"/><circle class="cls-11" cx="1189" cy="416.76" r="33.13"/></g></svg>