<svg xmlns="http://www.w3.org/2000/svg" xmlns:xlink="http://www.w3.org/1999/xlink" viewBox="0 0 600 600"><defs><style>.cls-1{fill:none;}.cls-2{fill:#fff;}.cls-3{fill:#f78e22;}.cls-4{fill:#d3d3d3;}.cls-5{fill:#87b09a;}.cls-6{clip-path:url(#clip-path);}.cls-7{fill:#f2f2f2;}.cls-8{fill:#020202;}</style><clipPath id="clip-path"><path class="cls-1" d="M25,25V575H575V25ZM498.48,205.69a4.26,4.26,0,0,1,5.25.1c1.3-.31,2.58-.69,3.82-1.07l1.08-.34a8.62,8.62,0,0,1,.76-2c-.23-.47-.45-1-.64-1.45a4.92,4.92,0,0,1-5.07-3.58c-2.64-10.3,7.64-18.38,16.94-12.39a16.06,16.06,0,0,1,6.42,9.2,7.6,7.6,0,0,1,4.28-1.68c7.27-.52,8.16,5.19,7.09,11.16,3.41,1.22,5.92,4.29,5.83,7.52.82,2.48-.87,5.61-3.42,6.68a11.19,11.19,0,0,1-9.33-.46A13.94,13.94,0,0,1,529.8,225c-1.82,4.87-5.5,8.71-11.48,8.76-6.78.06-10.26-4.8-11.28-10.44a14.76,14.76,0,0,1-8.58,2,8.77,8.77,0,0,1-7.9-8C490.11,212.11,494.48,208.24,498.48,205.69Zm30.85,159.12a3.56,3.56,0,0,1-2.37,5.06,9.71,9.71,0,0,1-.79.81,4.34,4.34,0,0,1-5.48.47c-.25.14-.49.28-.71.43a30.33,30.33,0,0,1-4.72,2.8c-4.09,1.77-8.26-1.89-6.15-6.15a16.55,16.55,0,0,1,.82-1.45,11.14,11.14,0,0,1-1.64-.45c-3.83-1.39-4.69-7.68,0-8.67a24.06,24.06,0,0,1,2.39-.36c.35-4.24,2.85-7.86,8.21-7.53a8.92,8.92,0,0,1,7.1,3.82,12.28,12.28,0,0,1,.72,1.31,10.51,10.51,0,0,1,3.28-.4c4.16.16,6.5,6.32,2.27,8.37A17.51,17.51,0,0,1,529,364.1Zm-22.22-34.2a7.32,7.32,0,0,0,.15.84c0,.13.05.22.07.27a2.25,2.25,0,0,1-.23,2.89,2.29,2.29,0,0,1-3.21,0c-1.81-2.17-1.48-5.61-1.08-8.21a2.29,2.29,0,0,1,2.79-1.59,2.34,2.34,0,0,1,1.59,2.79A11.64,11.64,0,0,0,507.11,330.61Zm25.85-10a2.29,2.29,0,0,1-3.11.81,2.33,2.33,0,0,1-.81-3.11,59.64,59.64,0,0,1,3-6c1.58-2.45,5.51-.17,3.92,2.29A59.65,59.65,0,0,0,533,320.65Zm3.94,8.16a18.72,18.72,0,0,0,4-2.27,2.29,2.29,0,0,1,3.11.81,2.32,2.32,0,0,1-.81,3.11,23,23,0,0,1-5,2.73,2.29,2.29,0,0,1-2.79-1.59A2.33,2.33,0,0,1,536.9,328.81ZM458.48,49.19a14,14,0,0,1,2.45-1.12,20,20,0,0,1,.25-3.4c.65-4.15,7.41-4.93,9.12-1.19,0,.11.11.21.16.32a15,15,0,0,0,2-1.11c4.44-3,9.19,2.92,6.78,6.9A4.9,4.9,0,0,1,478,54.53a11.36,11.36,0,0,1-7.47,2.77l-.26.14A6.56,6.56,0,0,1,469,60a4.3,4.3,0,0,1-1.36,1.11c-2.67,1.32-5.12.48-6.83-1.79a3.33,3.33,0,0,1-.51-1C456.16,57.53,454,51.78,458.48,49.19ZM438.77,440c0,2.12-.45,4.29-.08,6.4a2.32,2.32,0,0,1-1.59,2.79,2.29,2.29,0,0,1-2.79-1.59c-.45-2.58-.12-5-.08-7.6C434.27,437.08,438.81,437.08,438.77,440ZM353.19,73.67A5.08,5.08,0,0,1,358,70c3.85-.12,7.23,2.31,9.2,5.53.15-.35.32-.71.49-1.06,1.09-2.2,4.78-3.36,6.83-1.79a.91.91,0,0,0,.81.5c3.67.86,4.82,5.79,2.2,8.34-1.43,1.4-1.24,2.84-.72,4.64,1,3.41-1.49,5.73-4.21,6.11a31.67,31.67,0,0,1-1.79,5.24c-2.1,4.59-9,2.22-9.28-2.26-.16.11-.3.23-.47.32a6.9,6.9,0,0,1-10.29-4.07,11.25,11.25,0,0,1,3-10.86A11.38,11.38,0,0,1,353.19,73.67Zm-246.71,334a73.87,73.87,0,0,1,8.32-4.77,18.83,18.83,0,0,1-2.11-5.6c-.85-4,2.33-6.69,6.14-6.14a9.09,9.09,0,0,1,6.87,5.31,4.74,4.74,0,0,1,2.32.69,20.33,20.33,0,0,1,8.79,10.48c1.37,3.82-1.94,6.26-5.12,6-.31,6.62-2.56,12.7-9.51,12.8-4.94.07-7.6-3.42-7.94-8.06,0-.56-.09-1.48-.13-2.22-1.08.31-3,.36-3.78.59C104.56,418.39,102.07,410.83,106.48,407.69Zm-2-42.19c.07,3,.43,6,.5,9,.08,3.44-2.73,5-5.39,4.79a5.36,5.36,0,0,1-2.42,2.19,39.11,39.11,0,0,1-4.66,7c-3.15,3.71-8.78.14-8.55-3.9l-.65.18c-5.2,1.63-7.73-4.78-4.86-8.34,1.33-1.65,2.94-3.08,4.32-4.69a9.6,9.6,0,0,1-1.1-1.76c-1.6-3.38.3-7.44,4.31-7.51a9.68,9.68,0,0,1,6.15,1.86,5.14,5.14,0,0,1,2.6-.58c.14-.27.29-.54.44-.81C97.68,358.56,104.37,360.66,104.49,365.5ZM85.15,412a14.41,14.41,0,0,1-9.75,1.73c-2.88-.5-1.65-4.87,1.21-4.38A9.47,9.47,0,0,0,82.85,408C85.4,406.59,87.69,410.52,85.15,412Zm1-82.06c.68,2.85-3.7,4-4.38,1.21a20,20,0,0,1-.5-8.71c.61-2.86,5-1.64,4.38,1.21A14.84,14.84,0,0,0,86.19,329.9Zm8.54,2.6c.09-2.92,4.63-2.92,4.54,0A18.82,18.82,0,0,1,97,340.15c-1.29,2.63-5.21.32-3.92-2.29A13.47,13.47,0,0,0,94.73,332.5ZM56.27,178.27A5.4,5.4,0,0,1,54,177a5,5,0,0,1-.34-6.64,9.08,9.08,0,0,1,3-6.23,8.1,8.1,0,0,1,2.65-1.55A33.12,33.12,0,0,1,59,155a5.14,5.14,0,0,1,5-5c6.47-.41,9.57,4.4,11.19,10A18.39,18.39,0,0,1,88,156.51c2.46.23,5.28,2.14,5,5-.38,3.78-2.5,7.9-6.39,9.23l.6.6a14.31,14.31,0,0,1,3.61,5.35C92,179.68,89,183.1,86,183c-2.27-.08-5-.13-7.58-.47a16.62,16.62,0,0,1-3.39,5,4.58,4.58,0,0,1-4,1.35,11,11,0,0,1-7,1.62c-2.07-.2-4.39-1.37-4.81-3.67a15.56,15.56,0,0,1,.07-6.89,5,5,0,0,1-.58-.13A5.42,5.42,0,0,1,56.27,178.27Zm7.12,178.34c-1.41-1.43-2.59-3.07-4-4.5-2.05-2.09,1.16-5.3,3.21-3.21,1.41,1.43,2.59,3.07,4,4.5C68.66,355.48,65.45,358.69,63.39,356.61ZM95,526.68a6.26,6.26,0,0,1-2.53,1.59,4.44,4.44,0,0,1-1.42.18,5.55,5.55,0,0,1-2.08-.58,2.69,2.69,0,0,1-1.22-1.28,9.63,9.63,0,0,1-1.08-.26c-1.56,2.53-2.83,5.25-4.84,7.51a3.31,3.31,0,0,1-2.33,1,2.9,2.9,0,0,1-.51.38c-1.69,1-3.45.23-4.55-1.19a10.35,10.35,0,0,1-2-7,5.65,5.65,0,0,1-5-.08,4.73,4.73,0,0,1-2-4.92,12.49,12.49,0,0,1,4.81-7.86,2.49,2.49,0,0,1,1.5-.47c-1.23-3-1.31-6.12,1.06-8.29,4.09-3.74,7.77-.38,9.82,4,.37.36.73.74,1.07,1.13A10.47,10.47,0,0,1,88.32,507a5,5,0,0,1,6.94,4.32,6.65,6.65,0,0,1-.1,2,4.26,4.26,0,0,1,0,3.53,3.32,3.32,0,0,1-1.64,1.87c.22.13.43.25.61.38A3.74,3.74,0,0,1,95.73,523,3.42,3.42,0,0,1,95,526.68Zm28.88-65.49a31.69,31.69,0,0,1-7.54-2.23c-1.9-.9-1.24-3.17.26-3.91l-1.12-.5a30.27,30.27,0,0,1-3.18,5.47c-3,4-8.86,2.63-9.3-2.52a29.4,29.4,0,0,1,.6-5.38,15.31,15.31,0,0,1-4.94-.31c-2.89-.62-4.9-4.82-3-7.33,2.06-2.7,4.16-5.36,6.28-8a3.56,3.56,0,0,1,1.32-1,19.87,19.87,0,0,1-1.28-7c.18-6,7.78-6.33,9.81-1.33,1,2.59,2.5,4.87,3.19,7.25.34-.37.7-.72,1.07-1,2-1.77,4.69-2.37,6.4-4.41,3-3.64,8.16-.31,8.52,3.53a12.74,12.74,0,0,1-4.77,10.77,7.56,7.56,0,0,0-.64.68,19.8,19.8,0,0,1,1.28,2.82c1,2.74,1.3,5.78-1.05,8a5.64,5.64,0,0,1-3.25,1.52c.85.19,1.7.36,2.54.52C128,457.38,126.75,461.76,123.9,461.19Zm11.75,28.27a8.53,8.53,0,0,1-6.75,1.23,2.3,2.3,0,0,1-1.59-2.79,2.32,2.32,0,0,1,2.79-1.59,3.92,3.92,0,0,0,3.25-.77C135.82,483.95,138.09,487.88,135.65,489.46Zm2.5-32a2.34,2.34,0,0,1-3.11-.81,19.58,19.58,0,0,1-3.23-6.54c-.75-2.83,3.63-4,4.38-1.21a16.2,16.2,0,0,0,2.77,5.46A2.29,2.29,0,0,1,138.15,457.46Zm8.32-374.93A31.45,31.45,0,0,1,142.65,78c.38.47-.2-.39-.47-.8-.17.28-1.56.53-1.86.64-6.08,2.16-8.67-7.49-2.65-9.63a17.26,17.26,0,0,1,3.2-.82c0-.15,0-.3,0-.44a30.09,30.09,0,0,1,.24-4,5.61,5.61,0,0,1-.1-.9c-.12-4.25,1.41-7.08,5.67-8.31A5.11,5.11,0,0,1,152.31,56c.44.71.85,1.38,1.23,2.05A4.75,4.75,0,0,1,159,59a11.27,11.27,0,0,1,2.28,3,6.5,6.5,0,0,1,.57,3.42c.89.38,1.76.81,2.64,1.29,4.41,2.42,2.33,9.29-2.52,9.3-1.23,0-4.6-.2-5.2.14s-1.54,3.09-2,4.19C153.38,83.91,149.5,85.16,146.47,82.53Zm30,387c-.51,5.12-.67,10.26-1.68,15.33-.59,3-3.74,4.09-6.3,3.34-.07.12-.14.23-.2.35-2.62,5.31-10.22,1.42-9.13-3.8a16.11,16.11,0,0,1-2-.35c-3.83-1.23-5.52-4.56-5.71-8.38-.18-3.42,3.16-5.25,6.11-4.84a10.66,10.66,0,0,1,.07-6.49c1.31-3.64,7.16-5.44,9.12-1.19.43.92.82,1.87,1.17,2.85C170.89,463.43,177,464.46,176.49,469.5Zm16.2,34.1a35.18,35.18,0,0,1-2.73,6.54c-1.31,2.62-5.22.31-3.92-2.29a29.12,29.12,0,0,0,2.27-5.46C189.07,499.57,193.45,500.78,192.69,503.6ZM251,490a25,25,0,0,1-1,5.07c-.25.81-1.06,3.66-1.17,3.41a5.22,5.22,0,0,1-1.39,6.2c3,5.56-5.13,9.94-8.73,4.84-.73-1-1.51-2.19-2.23-3.43a15.38,15.38,0,0,1-3.93,5.44c-2.89,2.57-9.07,1.12-8.52-3.53a28.4,28.4,0,0,1,1.77-7.5c-3.09-1.55-6.08-3.3-9.29-4.68-4.78-2.07-2-9.25,2.52-9.3a47.42,47.42,0,0,1,8.78.49,63.19,63.19,0,0,1-.78-7c-.07-3.81,4.06-6,7.28-4.42a9.38,9.38,0,0,1,1.7-.14c6.18-.27,10.26,4.43,11.77,10A4.28,4.28,0,0,1,251,490Zm29.63,6.07c-.46,3.52.19,8-1.7,10.46a5.46,5.46,0,0,1-5.32,2,5.1,5.1,0,0,1-5.63-1,10.47,10.47,0,0,1-2.57-4.8c-1,.61-2,1.34-2.38,1.58-4.09,2.61-9.69-2.69-6.83-6.83A26.4,26.4,0,0,1,260,493.1c-6.12-2.48-12.92-9.24-5.55-14.79,3.3-2.49,6.9-1.62,10.24.26,1.23-3.18,3.6-5.43,7.94-4.44a12.23,12.23,0,0,1,7.64,6.3,9,9,0,0,1,.45,1.36,19.94,19.94,0,0,1,4.83-.77c3.73-.16,6.29,4.38,4.31,7.51a19.94,19.94,0,0,1-2.28,3,5.49,5.49,0,0,1-.85.76A5.57,5.57,0,0,1,282,496Zm31.75,19.07c.66,5.06-6.68,8.5-9.18,3.38-.1-.19-.21-.37-.31-.56-.34.28-.66.55-.94.81-.56.89-1.1,1.81-1.63,2.75-3.05,5.31-9.88,1.38-9.12-3.85a7.31,7.31,0,0,1,1.19-3c-4-.33-6.66-3.52-7.63-8.66a11.26,11.26,0,0,1-.24-1.54c-.42-5.06,5.42-6,8.38-3.25a18,18,0,0,1,5.1,1.5l.33-.09q-.62-1.68-1.29-3.33a13.68,13.68,0,0,1-2.34-5.51c-.93-5.17,6.64-9.35,9.12-3.85.6,1.33,1.17,2.66,1.74,4,1.6,2.19,4.34,3.57,6.46,5.33a16,16,0,0,1,6,11.18C318.41,514.19,315.25,515.72,312.37,515.14Zm40-26.82c-.32.13-.63.28-.94.43a4.16,4.16,0,0,1,.92,4.58c-1.24,3.52-3.43,6.06-7.26,6.63-3.1.46-6-.83-9.05-1-4.74-.21-6.84-6.47-2.76-9.14a9.27,9.27,0,0,0-3.26-2c-5.21-2.2-1.35-11.22,3.85-9.12,1.19.48.72.93,1.36-1a5,5,0,0,1,9.28-.81,20.15,20.15,0,0,1,3.39-.43c3.29.07,5.73,1.86,7.45,4.55C357.24,484,355.13,487.14,352.33,488.31Zm25,16.15a8,8,0,0,1-4.12-7c-.07-2.93,4.48-2.92,4.54,0a3.31,3.31,0,0,0,1.88,3C382.23,501.92,379.93,505.84,377.35,504.46Zm32.51-29.07a6.29,6.29,0,0,1-.57.26c-.16,1.21-.34,2.41-.4,3.65-.15,3.07.37,7.6-1.58,10.22-2.45,3.28-7.9,3.31-9.12-1.19a51,51,0,0,0-2-5.18,4.56,4.56,0,0,0-.4,1.18,4.43,4.43,0,0,1-2.71,3.12,2.29,2.29,0,0,1-1,3.75c-1.74.5-3.35.12-5.1.08-2.92-.06-2.92-4.61,0-4.54.22,0,.45,0,.68,0A4.17,4.17,0,0,1,386,483a9.14,9.14,0,0,1,.23-1.32h-.05c.07-.28.17-.54.25-.81.5-1.88,1.22-4.06.95-5.35a6.27,6.27,0,0,0-1.08-1.61c-2-2-3.59-4.16-3.77-6.89a62.28,62.28,0,0,1-7-2.44l-.8.07a2,2,0,0,1-1.1,1.32,30,30,0,0,1-7,2.73,2.38,2.38,0,0,1-2.52-3.51,115.44,115.44,0,0,1-27.58-2.87c-.5-.12-1-.27-1.47-.42a133.07,133.07,0,0,1-25,5.66c-.11,1.15-.21,2.29-.22,3.44,0,2.92-4.58,2.92-4.54,0,0-1,.09-1.93.18-2.89-8.28.89-16.69,1.25-25.23,1.4-13.46.23-26.79,0-40.21-1-4.82-.34-9.64-.62-14.47-.76a5.44,5.44,0,0,1,.32.92c1.32,5.41-.54,9.77-5.29,12.64a5.06,5.06,0,0,1-6-.78c-.21-.23-1.06-.91-1.76-1.54-.46,1.58-2.07,4.38-2.4,5.34-1.24,3.65-7.25,5.45-9.12,1.19a20.49,20.49,0,0,1-1.77-10c.05-.86.32-2,.31-3-.92-.16-1.74-.45-2.72-.55-2.65-.27-5-2.09-5-5a20.37,20.37,0,0,1,.68-4.83c.51-2,2.69-3.87,4.81-3.67a17.9,17.9,0,0,1,5.38,1.38,8.06,8.06,0,0,1,.13-2.17,39,39,0,0,1,.32-12.89,12.63,12.63,0,0,1,.49-1.42c-1,.43-2,.83-3,1.21-6.54,2.45-14.14,3.62-20.94,1.56a12.57,12.57,0,0,1-1.43-.54c-5.83,2.64-13.3,1.86-16.28-4.88-4.87-11-6.71-22-1.46-33.25,3.06-6.55,8-12.69,14.31-16a180.33,180.33,0,0,1,4.51-20.59c4.45-15.11,15.16-25.9,28.91-32.83-19.26-14.3-31.3-35.58-36.73-58.81a16.25,16.25,0,0,1,11.11-19.57c8-2.57,17.67,3,19.57,11.11a126.79,126.79,0,0,0,4.76,15.52l.1.29.07.11c.06.1.11.21.17.32a16.72,16.72,0,0,1,2.3-3.26c6.14-6.69,16.15-5.37,22.5,0l1,.85.58.39c.92.65,1.87,1.26,2.83,1.85,1.89,1.17,3.84,2.23,5.82,3.23,3.93,2,8,3.68,12,5.41,7.48,3.2,14.73,6.63,21.26,11.54A82.91,82.91,0,0,1,300,336.34a27.9,27.9,0,0,1,9.39-16.61,40,40,0,0,1-7.75-11.67c-.61-.12-1.22-.25-1.8-.41-7.19-2-11.88-6.54-16.1-12.38-11-15.25-10.65-35.49-7.82-53.17,2.39-14.89,8-29.5,15-42.82,16.64-31.87,49.62-45.84,83.59-50.93,7.58-1.14,13.93-.89,20.76,2.72,6.23,3.29,10.27,9.58,12.38,16.1s.66,15-2.72,20.76a25.41,25.41,0,0,1-2.3,3.25l.09.1c7,8.44,10,16.94,10.38,27.9a73.19,73.19,0,0,1-.95,13.17c11,3.3,18.26,14.5,19.13,26,1.25,16.45-4.87,33.2-15.52,45.81a40.51,40.51,0,0,1,2.19,10.19c.06.65.14,1.3.22,2,.23,1.46.45,2.93.67,4.39.85,5.58,1.66,11.17,2.3,16.78.29,2.58.46,5.14.53,7.7a25,25,0,0,1,11.21,10,26.3,26.3,0,0,1-.06,26.28c-3.4,5.67-8.55,9.76-14.36,12.84,5.22,8.76,6.41,18.93,6.83,29,.09,2.11.15,4.22.25,6.33.06,1.15.12,2.3.21,3.46,0,.34.14,1.07.22,1.56.34,1.34.75,2.7,1,4,.18-.86.28.37.25.83l.25.34c8.18,10.78,2.25,25.38-11.78,26.47l-.4,0A5.33,5.33,0,0,1,414,473a4.12,4.12,0,0,1-.55.64L413,474A4.85,4.85,0,0,1,409.86,475.39Zm39,12.13a9,9,0,0,1-6.07,5.08l-1,.26a5.25,5.25,0,0,1-4.78,5.64,7.55,7.55,0,0,1-3.5-.5,25.28,25.28,0,0,1-3.47,3.53c-4.43,3.59-10.34-.8-7.84-6a3.82,3.82,0,0,0,.32-1.33,18.58,18.58,0,0,0-3.17-1.52c-2.57-1.19-5.05-2.67-5.81-5.63-1-3.94,1.91-8.16,5.55-9.49a7.47,7.47,0,0,1,4.2-.23,13.9,13.9,0,0,1,1.9-5.3c1.8-3,5.35-3,7.84-1a12.66,12.66,0,0,1,4.83,8.5c2.55-1.17,5.66-1,9.16,1.22C449.51,482.29,449.92,485,448.81,487.52Zm24.51-10.34a20.57,20.57,0,0,0-3.26-3l-.07,0c-2.27,2.3-7.59,1.25-8-3.11a7.49,7.49,0,0,1,.51-3.56l-.55-.38c-3.33-.6-5.91-3.43-6.46-7.56a3.48,3.48,0,0,1,2.39-4,3.77,3.77,0,0,1,4.26-.93c-1.1-4.25,4.41-7.51,7.53-4.29a11.6,11.6,0,0,1,2.53,3.93,5.15,5.15,0,0,1,3.79-1.75c3-.14,4.81,2.76,4.35,5.39a5.67,5.67,0,0,1,.94,5.81,6.32,6.32,0,0,1-2.47,3,28.15,28.15,0,0,1,2,6.08C481.62,476.85,476.53,480.81,473.32,477.18Zm30.27,65.06a3.74,3.74,0,0,1-1.85,1.4,2.3,2.3,0,0,1-3.85,2,6.2,6.2,0,0,1-1.08-1.33,2.36,2.36,0,0,1-.21.33,5.52,5.52,0,0,1-2.16,1.74c-.13.2-.28.45-.48.8-1.13,2-3.4,1.15-4-.5a2,2,0,0,1-.57-.88,2.4,2.4,0,0,1-2.06-2.88,5,5,0,0,1,.49-1.44h0a8.25,8.25,0,0,1-7.13-1.71c-4.33-3.67-2.08-8.92,1.25-12.34.05-.05.11-.08.16-.13a2.16,2.16,0,0,1,1.24-1.6c-.08-.16-.16-.33-.26-.52-1.19-2.22,1.78-4.7,3.57-2.75a20.06,20.06,0,0,1,1.61,2.13,4.2,4.2,0,0,1,2.1,1.62c.13-.07.27-.11.4-.17,1.65-1,3.38-2,5.13-2.94a2.15,2.15,0,0,1,1.64-.22A2.29,2.29,0,0,1,501.2,524a2.63,2.63,0,0,1,.76,3.11,9,9,0,0,1-.89,1.44,2.26,2.26,0,0,1,.2.92V533a2.23,2.23,0,0,1-.85,1.71C502.9,536.26,505.81,539.22,503.59,542.24Zm5.41-65a7.19,7.19,0,0,1-4.38-1.3,6.49,6.49,0,0,1-2.31-3.87,2.27,2.27,0,0,1,4.38-1.21,7.74,7.74,0,0,0,.22.81l0,.06.1.19.13.21.24.22.28.16.35.1.4.06.58,0C511.92,472.77,511.92,477.31,509,477.27Zm9.5-11.5a10.76,10.76,0,0,1-5.65-1.81,2.27,2.27,0,0,1,2.29-3.92,6.5,6.5,0,0,0,3.35,1.19C521.42,461.29,521.42,465.83,518.5,465.77Zm1.5-26.28a10,10,0,0,1-1.09,0c4.16,2.78-.22,9.73-5.18,7.39a12.07,12.07,0,0,1-3.61-2.52c-4.56,1.67-14.5,5.7-17.92-.11-1.6-2.72-.65-5.26,1.24-7.45a25.78,25.78,0,0,1-4.77-7.1c-.79-1.9.59-4,2.06-5.07a11.74,11.74,0,0,1,8.1-2.32,13,13,0,0,1,8-7.14,4.55,4.55,0,0,1,5.07,2.06,15.4,15.4,0,0,1,1.81,9.23l.39,0A4.86,4.86,0,0,1,516,426a9.29,9.29,0,0,1,6.27,1.61,4.85,4.85,0,0,1,1.92,5.66C525.54,436.16,523,439.33,520,439.49Zm23.19-21.66a7.22,7.22,0,0,1-7-1.58,11.54,11.54,0,0,1-13.93,4.58c-1.75-.67-3.47-2.24-3.3-4.33a12.17,12.17,0,0,1,2.08-6.12,10.94,10.94,0,0,1-6.76-3.21,4.53,4.53,0,0,1,0-6.35c3.42-3.07,6.87-3,11.1-1.82a12,12,0,0,1-.91-4.5,9,9,0,0,1,11.17-4.68,9.58,9.58,0,0,1,3.17,7.15c0,.24,0,.48,0,.73a4.07,4.07,0,0,1,1.19-.19,4.93,4.93,0,0,1,4.56,2.3,4.5,4.5,0,0,1-2,6.34,5.55,5.55,0,0,1-1.33,2.29,2.11,2.11,0,0,1,.16.4l.15.13C546.49,408.07,548.35,416,543.19,417.83Z"/></clipPath></defs><title>Artboard 1</title><g id="Layer_16" data-name="Layer 16"><rect class="cls-2" x="1.04" y="-0.46" width="598.96" height="700"/><rect class="cls-2" x="25" y="25" width="550" height="550"/></g><g id="Layer_17" data-name="Layer 17"><path class="cls-3" d="M36.89,25V575H559.58V25ZM292.62,492.08a1.93,1.93,0,0,1-1.62,1,1.82,1.82,0,0,1-1.76-1.76,37.89,37.89,0,0,0-.94-6.2,1.66,1.66,0,0,1,0-1c-1.06-1-2.21-1.81-3.2-2.58-1.79-1.39.72-3.87,2.49-2.49,3.68,2.87,8,6.46,7.85,11.58A1.82,1.82,0,0,1,292.62,492.08Zm146.9-133.75c-1,12.2-6.53,21.82-15.05,29.8-.69,3-1.48,6.08-2.31,9.15a8.59,8.59,0,0,1,2,5.05c1.47,19,5.87,37.65,7.33,56.67.67,8.74-10.79,10.7-15.32,5-3-.42-5.89-1.89-8.84-2.58a1.55,1.55,0,0,1-1.54-.85c-2.19-3.94-4.69-7.44-9.61-6.43a19.07,19.07,0,0,0-2.11.58c-1.43,2.6-2.95,3.73-6.29,4.34-2.51.46-4.65.41-6.57,2.2a9,9,0,0,0-.78.84c0,1.52,0,3,0,4.59a1.76,1.76,0,0,1-3.45.47v0c-.13.15-.26.31-.4.46A1.61,1.61,0,0,1,375,468a26.45,26.45,0,0,1-3.74,3.15c-1.63,1.15-3.68-1.54-2.13-2.76A51.4,51.4,0,0,0,373,465a15.71,15.71,0,0,0,1-1.35c0-.41.08-.81.11-1.22-2.83-1.09-5.11.92-7.61,2.11a1.75,1.75,0,0,1-1.95-.18c-.31.33-.62.67-.91,1a7,7,0,0,1-7.38,2.58,8,8,0,0,1-4.15.38l-.52.37a7.31,7.31,0,0,1-8.12.24c-.73.34-1.48.67-2.24,1-3.78,1.38-7.92-.9-9.78-4.27-.21.54-.41,1.07-.63,1.6-.64,1.48-2.8.87-3.21-.42,0-.12-.06-.24-.1-.37-1,.52-1.92,1.08-2.85,1.67a1.54,1.54,0,0,1-.84.56l-.89.59a4.27,4.27,0,0,1-1.24.59,1.6,1.6,0,0,1-1.24.15,3.89,3.89,0,0,1-1.42-.36l-.19.07a3.54,3.54,0,0,1-1.1.24,1.87,1.87,0,0,1-2-.43,5,5,0,0,1-1.91-1.75c-.22.6-.45,1.19-.71,1.77-.89,2-3.5.43-3.21-1.35l.53-3.16a19.22,19.22,0,0,1,0-3.33,8.19,8.19,0,0,1-1-.75,4,4,0,0,1-.73-.89c-.78,1.37-1.44,2.58-1.89,3.21a5,5,0,0,1-2.26,1.81,18.72,18.72,0,0,0,0,2c.48,1.68,1.26,3.39,1.67,4.71a4.2,4.2,0,0,1-2.53,5.23,4.66,4.66,0,0,1-6.91-2.48,25.76,25.76,0,0,1-.78-3c-1.75,1.18-4.48.58-6.05-1.17-4.32,1-8.73-.11-13.15-.21-8.5-.2-20.34,3.79-28.79.07a42,42,0,0,1-13,1.12,4.82,4.82,0,0,1-4.5,3.53,4.19,4.19,0,0,1-2.77-1,14.8,14.8,0,0,1-3,6.7c-1.4,1.79-3.88-.73-2.49-2.49,2.55-3.26,2.46-7,2.21-10.9-.19,0-.44-.07-.84-.13-3.23-.47-4.56-5.6-2-7.6l.25-.22a8.8,8.8,0,0,1,.65-3,46.31,46.31,0,0,0-5.47-2.08c-1.7,2.83-6.1,4.32-7.81.45-.13-.29-.26-.59-.37-.88a4.76,4.76,0,0,1-3.61-.72,1.62,1.62,0,0,1-.17.21l-.67.67a1.76,1.76,0,0,1-2.49-2.49l.67-.67a1.69,1.69,0,0,1,.82-.45,6.5,6.5,0,0,1,1.2-5.41,10.69,10.69,0,0,1-6.09,1.4,6,6,0,0,1-2,.59c-4.58.47-9.09-.22-13.67-.33a4.45,4.45,0,0,1-2.75-1c-1.44.62-2.91,1.19-4.37,1.79-2,.82-4.21-.53-5.21-2.28a7.57,7.57,0,0,1-.87-.37l0,0c-2.92-.44-5.24-1.49-7.37-5.14-2.81-4.81-3.4-11.1-3.59-16.57a37,37,0,0,1,15.54-31.65,93.51,93.51,0,0,1,2.12-10.47c3-11.38,8.06-23.16,16.67-31.42a4.81,4.81,0,0,1,1.31-.91,92.63,92.63,0,0,1,7.41-11.78l.64-.88q-1.84-2-3.55-4.16c-1.07-1-2.1-2.1-3.07-3.23A109.74,109.74,0,0,1,184.06,312a49,49,0,0,1-10.61-19.44,52,52,0,0,1,.55-28.42,53.66,53.66,0,0,1,3.21-7.68c3.18-11.19,9.68-20.76,20.58-27.14,14.51-8.49,31.87-7.95,46.41,0,7.13,3.9,13.55,9.46,19.31,15.19l.28.3a50.7,50.7,0,0,1,14.59,14l1.35.41q.45-1.73.93-3.45a44.47,44.47,0,0,1,5.64-12.41c.88-9.13,1.88-18.24,2.72-27.37,1.18-12.76,4.79-23.06,13.47-32.51a40,40,0,0,1,16.82-10.61,67.79,67.79,0,0,1,25.51-15.42c16.92-5.63,35.87-2.4,51.15,6.28s25.11,24,30.52,40.27C430,214.68,431,226.51,431,237.73c0,16.63-2.81,33.15-5.23,49.59-1.7,14.51-2.59,29.06-4.4,43.55a48.61,48.61,0,0,1,9.55,19.3C435.46,349.87,440,352.58,439.52,358.33Z"/></g><g id="groud_color" data-name="groud color"><path class="cls-4" d="M260,430.11c17.72-.67,35.59-.56,53.3-2a26,26,0,0,1,2.14-7s0-.09,0-.14a44.07,44.07,0,0,1-6.15,1.89c-11,2.58-24.68,4.78-35.69,1.15-7.18-2.37-13-8.13-13.79-15.56-8.51,5.79-18.76,9.39-28.33,6.72a26.33,26.33,0,0,1-6.29-2.63,16.28,16.28,0,0,1-3.92-.59,19.44,19.44,0,0,1-3.11-1.16c3.77,6.3,4.77,14.08,1.08,20.8a19.24,19.24,0,0,1-2.95,4,13.94,13.94,0,0,1,2.9.34,225.14,225.14,0,0,0,28.2,4.64A13.29,13.29,0,0,1,260,430.11Z"/><path class="cls-5" d="M25,25V575H575V25ZM498.48,205.69a4.26,4.26,0,0,1,5.25.1c1.3-.31,2.58-.69,3.82-1.07l1.08-.34a8.62,8.62,0,0,1,.76-2c-.23-.47-.45-1-.64-1.45a4.92,4.92,0,0,1-5.07-3.58c-2.64-10.3,7.64-18.38,16.94-12.39a16.06,16.06,0,0,1,6.42,9.2,7.6,7.6,0,0,1,4.28-1.68c7.27-.52,8.16,5.19,7.09,11.16,3.41,1.22,5.92,4.29,5.83,7.52.82,2.48-.87,5.61-3.42,6.68a11.19,11.19,0,0,1-9.33-.46A13.94,13.94,0,0,1,529.8,225c-1.82,4.87-5.5,8.71-11.48,8.76-6.78.06-10.26-4.8-11.28-10.44a14.76,14.76,0,0,1-8.58,2,8.77,8.77,0,0,1-7.9-8C490.11,212.11,494.48,208.24,498.48,205.69Zm30.85,159.12a3.56,3.56,0,0,1-2.37,5.06,9.71,9.71,0,0,1-.79.81,4.34,4.34,0,0,1-5.48.47c-.25.14-.49.28-.71.43a30.33,30.33,0,0,1-4.72,2.8c-4.09,1.77-8.26-1.89-6.15-6.15a16.55,16.55,0,0,1,.82-1.45,11.14,11.14,0,0,1-1.64-.45c-3.83-1.39-4.69-7.68,0-8.67a24.06,24.06,0,0,1,2.39-.36c.35-4.24,2.85-7.86,8.21-7.53a8.92,8.92,0,0,1,7.1,3.82,12.28,12.28,0,0,1,.72,1.31,10.51,10.51,0,0,1,3.28-.4c4.16.16,6.5,6.32,2.27,8.37A17.51,17.51,0,0,1,529,364.1Zm-22.22-34.2a7.32,7.32,0,0,0,.15.84c0,.13.05.22.07.27a2.25,2.25,0,0,1-.23,2.89,2.29,2.29,0,0,1-3.21,0c-1.81-2.17-1.48-5.61-1.08-8.21a2.29,2.29,0,0,1,2.79-1.59,2.34,2.34,0,0,1,1.59,2.79A11.64,11.64,0,0,0,507.11,330.61Zm25.85-10a2.29,2.29,0,0,1-3.11.81,2.33,2.33,0,0,1-.81-3.11,59.64,59.64,0,0,1,3-6c1.58-2.45,5.51-.17,3.92,2.29A59.65,59.65,0,0,0,533,320.65Zm3.94,8.16a18.72,18.72,0,0,0,4-2.27,2.29,2.29,0,0,1,3.11.81,2.32,2.32,0,0,1-.81,3.11,23,23,0,0,1-5,2.73,2.29,2.29,0,0,1-2.79-1.59A2.33,2.33,0,0,1,536.9,328.81ZM458.48,49.19a14,14,0,0,1,2.45-1.12,20,20,0,0,1,.25-3.4c.65-4.15,7.41-4.93,9.12-1.19,0,.11.11.21.16.32a15,15,0,0,0,2-1.11c4.44-3,9.19,2.92,6.78,6.9A4.9,4.9,0,0,1,478,54.53a11.36,11.36,0,0,1-7.47,2.77l-.26.14A6.56,6.56,0,0,1,469,60a4.3,4.3,0,0,1-1.36,1.11c-2.67,1.32-5.12.48-6.83-1.79a3.33,3.33,0,0,1-.51-1C456.16,57.53,454,51.78,458.48,49.19ZM438.77,440c0,2.12-.45,4.29-.08,6.4a2.32,2.32,0,0,1-1.59,2.79,2.29,2.29,0,0,1-2.79-1.59c-.45-2.58-.12-5-.08-7.6C434.27,437.08,438.81,437.08,438.77,440ZM353.19,73.67A5.08,5.08,0,0,1,358,70c3.85-.12,7.23,2.31,9.2,5.53.15-.35.32-.71.49-1.06,1.09-2.2,4.78-3.36,6.83-1.79a.91.91,0,0,0,.81.5c3.67.86,4.82,5.79,2.2,8.34-1.43,1.4-1.24,2.84-.72,4.64,1,3.41-1.49,5.73-4.21,6.11a31.67,31.67,0,0,1-1.79,5.24c-2.1,4.59-9,2.22-9.28-2.26-.16.11-.3.23-.47.32a6.9,6.9,0,0,1-10.29-4.07,11.25,11.25,0,0,1,3-10.86A11.38,11.38,0,0,1,353.19,73.67Zm-246.71,334a73.87,73.87,0,0,1,8.32-4.77,18.83,18.83,0,0,1-2.11-5.6c-.85-4,2.33-6.69,6.14-6.14a9.09,9.09,0,0,1,6.87,5.31,4.74,4.74,0,0,1,2.32.69,20.33,20.33,0,0,1,8.79,10.48c1.37,3.82-1.94,6.26-5.12,6-.31,6.62-2.56,12.7-9.51,12.8-4.94.07-7.6-3.42-7.94-8.06,0-.56-.09-1.48-.13-2.22-1.08.31-3,.36-3.78.59C104.56,418.39,102.07,410.83,106.48,407.69Zm-2-42.19c.07,3,.43,6,.5,9,.08,3.44-2.73,5-5.39,4.79a5.36,5.36,0,0,1-2.42,2.19,39.11,39.11,0,0,1-4.66,7c-3.15,3.71-8.78.14-8.55-3.9l-.65.18c-5.2,1.63-7.73-4.78-4.86-8.34,1.33-1.65,2.94-3.08,4.32-4.69a9.6,9.6,0,0,1-1.1-1.76c-1.6-3.38.3-7.44,4.31-7.51a9.68,9.68,0,0,1,6.15,1.86,5.14,5.14,0,0,1,2.6-.58c.14-.27.29-.54.44-.81C97.68,358.56,104.37,360.66,104.49,365.5ZM85.15,412a14.41,14.41,0,0,1-9.75,1.73c-2.88-.5-1.65-4.87,1.21-4.38A9.47,9.47,0,0,0,82.85,408C85.4,406.59,87.69,410.52,85.15,412Zm1-82.06c.68,2.85-3.7,4-4.38,1.21a20,20,0,0,1-.5-8.71c.61-2.86,5-1.64,4.38,1.21A14.84,14.84,0,0,0,86.19,329.9Zm8.54,2.6c.09-2.92,4.63-2.92,4.54,0A18.82,18.82,0,0,1,97,340.15c-1.29,2.63-5.21.32-3.92-2.29A13.47,13.47,0,0,0,94.73,332.5ZM56.27,178.27A5.4,5.4,0,0,1,54,177a5,5,0,0,1-.34-6.64,9.08,9.08,0,0,1,3-6.23,8.1,8.1,0,0,1,2.65-1.55A33.12,33.12,0,0,1,59,155a5.14,5.14,0,0,1,5-5c6.47-.41,9.57,4.4,11.19,10A18.39,18.39,0,0,1,88,156.51c2.46.23,5.28,2.14,5,5-.38,3.78-2.5,7.9-6.39,9.23l.6.6a14.31,14.31,0,0,1,3.61,5.35C92,179.68,89,183.1,86,183c-2.27-.08-5-.13-7.58-.47a16.62,16.62,0,0,1-3.39,5,4.58,4.58,0,0,1-4,1.35,11,11,0,0,1-7,1.62c-2.07-.2-4.39-1.37-4.81-3.67a15.56,15.56,0,0,1,.07-6.89,5,5,0,0,1-.58-.13A5.42,5.42,0,0,1,56.27,178.27Zm7.12,178.34c-1.41-1.43-2.59-3.07-4-4.5-2.05-2.09,1.16-5.3,3.21-3.21,1.41,1.43,2.59,3.07,4,4.5C68.66,355.48,65.45,358.69,63.39,356.61ZM95,526.68a6.26,6.26,0,0,1-2.53,1.59,4.44,4.44,0,0,1-1.42.18,5.55,5.55,0,0,1-2.08-.58,2.69,2.69,0,0,1-1.22-1.28,9.63,9.63,0,0,1-1.08-.26c-1.56,2.53-2.83,5.25-4.84,7.51a3.31,3.31,0,0,1-2.33,1,2.9,2.9,0,0,1-.51.38c-1.69,1-3.45.23-4.55-1.19a10.35,10.35,0,0,1-2-7,5.65,5.65,0,0,1-5-.08,4.73,4.73,0,0,1-2-4.92,12.49,12.49,0,0,1,4.81-7.86,2.49,2.49,0,0,1,1.5-.47c-1.23-3-1.31-6.12,1.06-8.29,4.09-3.74,7.77-.38,9.82,4,.37.36.73.74,1.07,1.13A10.47,10.47,0,0,1,88.32,507a5,5,0,0,1,6.94,4.32,6.65,6.65,0,0,1-.1,2,4.26,4.26,0,0,1,0,3.53,3.32,3.32,0,0,1-1.64,1.87c.22.13.43.25.61.38A3.74,3.74,0,0,1,95.73,523,3.42,3.42,0,0,1,95,526.68Zm28.88-65.49a31.69,31.69,0,0,1-7.54-2.23c-1.9-.9-1.24-3.17.26-3.91l-1.12-.5a30.27,30.27,0,0,1-3.18,5.47c-3,4-8.86,2.63-9.3-2.52a29.4,29.4,0,0,1,.6-5.38,15.31,15.31,0,0,1-4.94-.31c-2.89-.62-4.9-4.82-3-7.33,2.06-2.7,4.16-5.36,6.28-8a3.56,3.56,0,0,1,1.32-1,19.87,19.87,0,0,1-1.28-7c.18-6,7.78-6.33,9.81-1.33,1,2.59,2.5,4.87,3.19,7.25.34-.37.7-.72,1.07-1,2-1.77,4.69-2.37,6.4-4.41,3-3.64,8.16-.31,8.52,3.53a12.74,12.74,0,0,1-4.77,10.77,7.56,7.56,0,0,0-.64.68,19.8,19.8,0,0,1,1.28,2.82c1,2.74,1.3,5.78-1.05,8a5.64,5.64,0,0,1-3.25,1.52c.85.19,1.7.36,2.54.52C128,457.38,126.75,461.76,123.9,461.19Zm11.75,28.27a8.53,8.53,0,0,1-6.75,1.23,2.3,2.3,0,0,1-1.59-2.79,2.32,2.32,0,0,1,2.79-1.59,3.92,3.92,0,0,0,3.25-.77C135.82,483.95,138.09,487.88,135.65,489.46Zm2.5-32a2.34,2.34,0,0,1-3.11-.81,19.58,19.58,0,0,1-3.23-6.54c-.75-2.83,3.63-4,4.38-1.21a16.2,16.2,0,0,0,2.77,5.46A2.29,2.29,0,0,1,138.15,457.46Zm8.32-374.93A31.45,31.45,0,0,1,142.65,78c.38.47-.2-.39-.47-.8-.17.28-1.56.53-1.86.64-6.08,2.16-8.67-7.49-2.65-9.63a17.26,17.26,0,0,1,3.2-.82c0-.15,0-.3,0-.44a30.09,30.09,0,0,1,.24-4,5.61,5.61,0,0,1-.1-.9c-.12-4.25,1.41-7.08,5.67-8.31A5.11,5.11,0,0,1,152.31,56c.44.71.85,1.38,1.23,2.05A4.75,4.75,0,0,1,159,59a11.27,11.27,0,0,1,2.28,3,6.5,6.5,0,0,1,.57,3.42c.89.38,1.76.81,2.64,1.29,4.41,2.42,2.33,9.29-2.52,9.3-1.23,0-4.6-.2-5.2.14s-1.54,3.09-2,4.19C153.38,83.91,149.5,85.16,146.47,82.53Zm30,387c-.51,5.12-.67,10.26-1.68,15.33-.59,3-3.74,4.09-6.3,3.34-.07.12-.14.23-.2.35-2.62,5.31-10.22,1.42-9.13-3.8a16.11,16.11,0,0,1-2-.35c-3.83-1.23-5.52-4.56-5.71-8.38-.18-3.42,3.16-5.25,6.11-4.84a10.66,10.66,0,0,1,.07-6.49c1.31-3.64,7.16-5.44,9.12-1.19.43.92.82,1.87,1.17,2.85C170.89,463.43,177,464.46,176.49,469.5Zm16.2,34.1a35.18,35.18,0,0,1-2.73,6.54c-1.31,2.62-5.22.31-3.92-2.29a29.12,29.12,0,0,0,2.27-5.46C189.07,499.57,193.45,500.78,192.69,503.6ZM251,490a25,25,0,0,1-1,5.07c-.25.81-1.06,3.66-1.17,3.41a5.22,5.22,0,0,1-1.39,6.2c3,5.56-5.13,9.94-8.73,4.84-.73-1-1.51-2.19-2.23-3.43a15.38,15.38,0,0,1-3.93,5.44c-2.89,2.57-9.07,1.12-8.52-3.53a28.4,28.4,0,0,1,1.77-7.5c-3.09-1.55-6.08-3.3-9.29-4.68-4.78-2.07-2-9.25,2.52-9.3a47.42,47.42,0,0,1,8.78.49,63.19,63.19,0,0,1-.78-7c-.07-3.81,4.06-6,7.28-4.42a9.38,9.38,0,0,1,1.7-.14c6.18-.27,10.26,4.43,11.77,10A4.28,4.28,0,0,1,251,490Zm29.63,6.07c-.46,3.52.19,8-1.7,10.46a5.46,5.46,0,0,1-5.32,2,5.1,5.1,0,0,1-5.63-1,10.47,10.47,0,0,1-2.57-4.8c-1,.61-2,1.34-2.38,1.58-4.09,2.61-9.69-2.69-6.83-6.83A26.4,26.4,0,0,1,260,493.1c-6.12-2.48-12.92-9.24-5.55-14.79,3.3-2.49,6.9-1.62,10.24.26,1.23-3.18,3.6-5.43,7.94-4.44a12.23,12.23,0,0,1,7.64,6.3,9,9,0,0,1,.45,1.36,19.94,19.94,0,0,1,4.83-.77c3.73-.16,6.29,4.38,4.31,7.51a19.94,19.94,0,0,1-2.28,3,5.49,5.49,0,0,1-.85.76A5.57,5.57,0,0,1,282,496Zm31.75,19.07c.66,5.06-6.68,8.5-9.18,3.38-.1-.19-.21-.37-.31-.56-.34.28-.66.55-.94.81-.56.89-1.1,1.81-1.63,2.75-3.05,5.31-9.88,1.38-9.12-3.85a7.31,7.31,0,0,1,1.19-3c-4-.33-6.66-3.52-7.63-8.66a11.26,11.26,0,0,1-.24-1.54c-.42-5.06,5.42-6,8.38-3.25a18,18,0,0,1,5.1,1.5l.33-.09q-.62-1.68-1.29-3.33a13.68,13.68,0,0,1-2.34-5.51c-.93-5.17,6.64-9.35,9.12-3.85.6,1.33,1.17,2.66,1.74,4,1.6,2.19,4.34,3.57,6.46,5.33a16,16,0,0,1,6,11.18C318.41,514.19,315.25,515.72,312.37,515.14Zm40-26.82c-.32.13-.63.28-.94.43a4.16,4.16,0,0,1,.92,4.58c-1.24,3.52-3.43,6.06-7.26,6.63-3.1.46-6-.83-9.05-1-4.74-.21-6.84-6.47-2.76-9.14a9.27,9.27,0,0,0-3.26-2c-5.21-2.2-1.35-11.22,3.85-9.12,1.19.48.72.93,1.36-1a5,5,0,0,1,9.28-.81,20.15,20.15,0,0,1,3.39-.43c3.29.07,5.73,1.86,7.45,4.55C357.24,484,355.13,487.14,352.33,488.31Zm25,16.15a8,8,0,0,1-4.12-7c-.07-2.93,4.48-2.92,4.54,0a3.31,3.31,0,0,0,1.88,3C382.23,501.92,379.93,505.84,377.35,504.46Zm32.51-29.07a6.29,6.29,0,0,1-.57.26c-.16,1.21-.34,2.41-.4,3.65-.15,3.07.37,7.6-1.58,10.22-2.45,3.28-7.9,3.31-9.12-1.19a51,51,0,0,0-2-5.18,4.56,4.56,0,0,0-.4,1.18,4.43,4.43,0,0,1-2.71,3.12,2.29,2.29,0,0,1-1,3.75c-1.74.5-3.35.12-5.1.08-2.92-.06-2.92-4.61,0-4.54.22,0,.45,0,.68,0A4.17,4.17,0,0,1,386,483a9.14,9.14,0,0,1,.23-1.32h-.05c.07-.28.17-.54.25-.81.5-1.88,1.22-4.06.95-5.35a6.27,6.27,0,0,0-1.08-1.61c-2-2-3.59-4.16-3.77-6.89a62.28,62.28,0,0,1-7-2.44l-.8.07a2,2,0,0,1-1.1,1.32,30,30,0,0,1-7,2.73,2.38,2.38,0,0,1-2.52-3.51,115.44,115.44,0,0,1-27.58-2.87c-.5-.12-1-.27-1.47-.42a133.07,133.07,0,0,1-25,5.66c-.11,1.15-.21,2.29-.22,3.44,0,2.92-4.58,2.92-4.54,0,0-1,.09-1.93.18-2.89-8.28.89-16.69,1.25-25.23,1.4-13.46.23-26.79,0-40.21-1-4.82-.34-9.64-.62-14.47-.76a5.44,5.44,0,0,1,.32.92c1.32,5.41-.54,9.77-5.29,12.64a5.06,5.06,0,0,1-6-.78c-.21-.23-1.06-.91-1.76-1.54-.46,1.58-2.07,4.38-2.4,5.34-1.24,3.65-7.25,5.45-9.12,1.19a20.49,20.49,0,0,1-1.77-10c.05-.86.32-2,.31-3-.92-.16-1.74-.45-2.72-.55-2.65-.27-5-2.09-5-5a20.37,20.37,0,0,1,.68-4.83c.51-2,2.69-3.87,4.81-3.67a17.9,17.9,0,0,1,5.38,1.38,8.06,8.06,0,0,1,.13-2.17,39,39,0,0,1,.32-12.89,12.63,12.63,0,0,1,.49-1.42c-1,.43-2,.83-3,1.21-6.54,2.45-14.14,3.62-20.94,1.56a12.57,12.57,0,0,1-1.43-.54c-5.83,2.64-13.3,1.86-16.28-4.88-4.87-11-6.71-22-1.46-33.25,3.06-6.55,8-12.69,14.31-16a180.33,180.33,0,0,1,4.51-20.59c4.45-15.11,15.16-25.9,28.91-32.83-19.26-14.3-31.3-35.58-36.73-58.81a16.25,16.25,0,0,1,11.11-19.57c8-2.57,17.67,3,19.57,11.11a126.79,126.79,0,0,0,4.76,15.52l.1.29.07.11c.06.1.11.21.17.32a16.72,16.72,0,0,1,2.3-3.26c6.14-6.69,16.15-5.37,22.5,0l1,.85.58.39c.92.65,1.87,1.26,2.83,1.85,1.89,1.17,3.84,2.23,5.82,3.23,3.93,2,8,3.68,12,5.41,7.48,3.2,14.73,6.63,21.26,11.54A82.91,82.91,0,0,1,300,336.34a27.9,27.9,0,0,1,9.39-16.61,40,40,0,0,1-7.75-11.67c-.61-.12-1.22-.25-1.8-.41-7.19-2-11.88-6.54-16.1-12.38-11-15.25-10.65-35.49-7.82-53.17,2.39-14.89,8-29.5,15-42.82,16.64-31.87,49.62-45.84,83.59-50.93,7.58-1.14,13.93-.89,20.76,2.72,6.23,3.29,10.27,9.58,12.38,16.1s.66,15-2.72,20.76a25.41,25.41,0,0,1-2.3,3.25l.09.1c7,8.44,10,16.94,10.38,27.9a73.19,73.19,0,0,1-.95,13.17c11,3.3,18.26,14.5,19.13,26,1.25,16.45-4.87,33.2-15.52,45.81a40.51,40.51,0,0,1,2.19,10.19c.06.65.14,1.3.22,2,.23,1.46.45,2.93.67,4.39.85,5.58,1.66,11.17,2.3,16.78.29,2.58.46,5.14.53,7.7a25,25,0,0,1,11.21,10,26.3,26.3,0,0,1-.06,26.28c-3.4,5.67-8.55,9.76-14.36,12.84,5.22,8.76,6.41,18.93,6.83,29,.09,2.11.15,4.22.25,6.33.06,1.15.12,2.3.21,3.46,0,.34.14,1.07.22,1.56.34,1.34.75,2.7,1,4,.18-.86.28.37.25.83l.25.34c8.18,10.78,2.25,25.38-11.78,26.47l-.4,0A5.33,5.33,0,0,1,414,473a4.12,4.12,0,0,1-.55.64L413,474A4.85,4.85,0,0,1,409.86,475.39Zm39,12.13a9,9,0,0,1-6.07,5.08l-1,.26a5.25,5.25,0,0,1-4.78,5.64,7.55,7.55,0,0,1-3.5-.5,25.28,25.28,0,0,1-3.47,3.53c-4.43,3.59-10.34-.8-7.84-6a3.82,3.82,0,0,0,.32-1.33,18.58,18.58,0,0,0-3.17-1.52c-2.57-1.19-5.05-2.67-5.81-5.63-1-3.94,1.91-8.16,5.55-9.49a7.47,7.47,0,0,1,4.2-.23,13.9,13.9,0,0,1,1.9-5.3c1.8-3,5.35-3,7.84-1a12.66,12.66,0,0,1,4.83,8.5c2.55-1.17,5.66-1,9.16,1.22C449.51,482.29,449.92,485,448.81,487.52Zm24.51-10.34a20.57,20.57,0,0,0-3.26-3l-.07,0c-2.27,2.3-7.59,1.25-8-3.11a7.49,7.49,0,0,1,.51-3.56l-.55-.38c-3.33-.6-5.91-3.43-6.46-7.56a3.48,3.48,0,0,1,2.39-4,3.77,3.77,0,0,1,4.26-.93c-1.1-4.25,4.41-7.51,7.53-4.29a11.6,11.6,0,0,1,2.53,3.93,5.15,5.15,0,0,1,3.79-1.75c3-.14,4.81,2.76,4.35,5.39a5.67,5.67,0,0,1,.94,5.81,6.32,6.32,0,0,1-2.47,3,28.15,28.15,0,0,1,2,6.08C481.62,476.85,476.53,480.81,473.32,477.18Zm30.27,65.06a3.74,3.74,0,0,1-1.85,1.4,2.3,2.3,0,0,1-3.85,2,6.2,6.2,0,0,1-1.08-1.33,2.36,2.36,0,0,1-.21.33,5.52,5.52,0,0,1-2.16,1.74c-.13.2-.28.45-.48.8-1.13,2-3.4,1.15-4-.5a2,2,0,0,1-.57-.88,2.4,2.4,0,0,1-2.06-2.88,5,5,0,0,1,.49-1.44h0a8.25,8.25,0,0,1-7.13-1.71c-4.33-3.67-2.08-8.92,1.25-12.34.05-.05.11-.08.16-.13a2.16,2.16,0,0,1,1.24-1.6c-.08-.16-.16-.33-.26-.52-1.19-2.22,1.78-4.7,3.57-2.75a20.06,20.06,0,0,1,1.61,2.13,4.2,4.2,0,0,1,2.1,1.62c.13-.07.27-.11.4-.17,1.65-1,3.38-2,5.13-2.94a2.15,2.15,0,0,1,1.64-.22A2.29,2.29,0,0,1,501.2,524a2.63,2.63,0,0,1,.76,3.11,9,9,0,0,1-.89,1.44,2.26,2.26,0,0,1,.2.92V533a2.23,2.23,0,0,1-.85,1.71C502.9,536.26,505.81,539.22,503.59,542.24Zm5.41-65a7.19,7.19,0,0,1-4.38-1.3,6.49,6.49,0,0,1-2.31-3.87,2.27,2.27,0,0,1,4.38-1.21,7.74,7.74,0,0,0,.22.81l0,.06.1.19.13.21.24.22.28.16.35.1.4.06.58,0C511.92,472.77,511.92,477.31,509,477.27Zm9.5-11.5a10.76,10.76,0,0,1-5.65-1.81,2.27,2.27,0,0,1,2.29-3.92,6.5,6.5,0,0,0,3.35,1.19C521.42,461.29,521.42,465.83,518.5,465.77Zm1.5-26.28a10,10,0,0,1-1.09,0c4.16,2.78-.22,9.73-5.18,7.39a12.07,12.07,0,0,1-3.61-2.52c-4.56,1.67-14.5,5.7-17.92-.11-1.6-2.72-.65-5.26,1.24-7.45a25.78,25.78,0,0,1-4.77-7.1c-.79-1.9.59-4,2.06-5.07a11.74,11.74,0,0,1,8.1-2.32,13,13,0,0,1,8-7.14,4.55,4.55,0,0,1,5.07,2.06,15.4,15.4,0,0,1,1.81,9.23l.39,0A4.86,4.86,0,0,1,516,426a9.29,9.29,0,0,1,6.27,1.61,4.85,4.85,0,0,1,1.92,5.66C525.54,436.16,523,439.33,520,439.49Zm23.19-21.66a7.22,7.22,0,0,1-7-1.58,11.54,11.54,0,0,1-13.93,4.58c-1.75-.67-3.47-2.24-3.3-4.33a12.17,12.17,0,0,1,2.08-6.12,10.94,10.94,0,0,1-6.76-3.21,4.53,4.53,0,0,1,0-6.35c3.42-3.07,6.87-3,11.1-1.82a12,12,0,0,1-.91-4.5,9,9,0,0,1,11.17-4.68,9.58,9.58,0,0,1,3.17,7.15c0,.24,0,.48,0,.73a4.07,4.07,0,0,1,1.19-.19,4.93,4.93,0,0,1,4.56,2.3,4.5,4.5,0,0,1-2,6.34,5.55,5.55,0,0,1-1.33,2.29,2.11,2.11,0,0,1,.16.4l.15.13C546.49,408.07,548.35,416,543.19,417.83Z"/></g><g id="light"><g class="cls-6"><path class="cls-7" d="M462.72,126.3c12.56-2.45,26,.63,37,7.29C511.9,141,521.26,152.4,527.89,165c10.71,20.35,14.53,45.15,6.25,66.6-7.32,19-25.27,34.14-45.17,36.25a103.2,103.2,0,0,1,37.3,16.54c7.07,5,13.57,11,18.29,18.3,13.4,20.69,9.79,49.72-5.53,69-14.91,18.79-39,28.79-63,30v.3c13.32,17.13,25.86,37.15,24.21,58.79A57,57,0,0,1,490,488.47a66.51,66.51,0,0,1-106.39,4.15c1.5,19.17-6.79,39.84-19.67,51.64-16.7,15.31-38.77,18.42-59.49,16.65-16.38-1.39-33-5.68-47-16.34S231.91,509.3,230.18,489c-12.84,12.45-27.13,23.59-44.14,28.57-30.68,9-66.66-6.27-81.52-34.57C89.75,454.91,97.41,417,121.84,396.7c-36.1-3.46-68.47-28.65-74.72-59.41-6.56-32.28,16.37-67.08,51.8-79.36l-.1-.3a58.34,58.34,0,0,1-31.41-22.51C60.66,225.43,57,213.77,56,202c-2.06-23.57,6.68-48,23.67-64.44s42-24.44,65.28-20.25l2.21,0c.38-31.08,20.08-61.8,49.08-73.59C229,30.43,270.05,42.67,290.5,71.39l2.1-1.53c6.22-13.65,19.62-22.67,33.38-28.61,30.9-13.34,68.22-14,97.26,3C451.21,60.59,469.05,94.72,462.72,126.3Z"/></g></g><g id="frame"><path d="M575,25V575H25V25H575m3-3H22V578H578V22Z"/></g><g id="ops"><path d="M337.51,161.64c-1.2,2.34-2.25,4.77-4.09,6.69l2.51.66a104.55,104.55,0,0,0-3.83-13.34c-.68-1.79-3.58-1-2.89.8A104.55,104.55,0,0,1,333,169.79a1.51,1.51,0,0,0,2.51.66c2-2.12,3.23-4.71,4.56-7.29.88-1.71-1.71-3.23-2.59-1.51Z"/><path d="M328.7,156.28c-.22,2.23-1.85,4.25-3.41,5.74-1.4,1.33.72,3.45,2.12,2.12a12.93,12.93,0,0,0,4.29-7.86c.19-1.92-2.81-1.91-3,0Z"/><path d="M327.16,163.76c-.27-7.33-6.07-12.69-10.86-17.6-1.35-1.38-3.47.74-2.12,2.12,4.16,4.26,9.75,9.09,10,15.48.07,1.92,3.07,1.93,3,0Z"/><path d="M315.38,148.75c1.94,5.9-.34,11.74-2.27,17.33-.63,1.83,2.27,2.61,2.89.8,2.11-6.13,4.38-12.49,2.27-18.93-.6-1.83-3.5-1-2.89.8Z"/><path d="M318.27,161.32c-1.46-4.62-6.11-8.68-9.65-11.73a80.37,80.37,0,0,0-14.69-9.88A116.46,116.46,0,0,0,259,128c-24.52-4.26-49.75-2.25-74,2.53-1.89.37-1.09,3.27.8,2.89C208.45,129,232,127,255,130.42a118.69,118.69,0,0,1,32.36,9.35,88.94,88.94,0,0,1,14.84,8.56c4.39,3.18,11.48,8.32,13.2,13.79.58,1.83,3.48,1.05,2.89-.8Z"/><path d="M187,133.66c3,3.22,1.24,9.61-.13,13.23-.68,1.81,2.21,2.59,2.89.8,1.81-4.78,3.21-12-.64-16.15-1.32-1.42-3.43.71-2.12,2.12Z"/><path d="M189.34,146.5a51,51,0,0,0-17.47-5c-1.92-.17-1.91,2.83,0,3a46.69,46.69,0,0,1,16,4.61c1.74.82,3.26-1.76,1.51-2.59Z"/><path d="M168.3,141.72c1.37,7.78,2,15-.15,22.74-1.84,6.45-4.86,12.47-7.39,18.67-5.14,12.6-7.64,26.25-6.19,39.84,1,9.44,1.18,20.26,4.4,29.26,3,8.37,7.1,18.15,13.4,24.56,1.35,1.38,3.48-.74,2.12-2.12-3.65-3.72-6-8.59-8.23-13.25-2-4.25-4.24-8.64-5.32-13.24a130.17,130.17,0,0,1-2.17-15.87c-.6-5.58-1.57-11.11-1.61-16.74C157,200.82,162,188,167.63,174.63A62,62,0,0,0,172.39,159c.8-6.07-.15-12.07-1.2-18-.33-1.9-3.22-1.09-2.89.8Z"/><path d="M253.28,349.33c16.57-.45,32.16-4.28,47.61-10.13,1.79-.68,1-3.58-.8-2.89-15.2,5.75-30.49,9.59-46.81,10-1.93.05-1.93,3.05,0,3Z"/><path d="M193.75,328.94c11.28,11.48,26.34,17.17,42,19.42,1.89.27,2.7-2.62.8-2.89-15.19-2.17-29.79-7.52-40.72-18.64-1.35-1.38-3.48.74-2.12,2.12Z"/><path d="M171.92,275.73c2.15,19.27,8.4,38.78,21.83,53.22,1.32,1.42,3.44-.71,2.12-2.12C183,313,177,294.17,174.92,275.73c-.21-1.9-3.21-1.92-3,0Z"/><path d="M303.06,363.08a31.2,31.2,0,0,1,2.42,9.25c.2,1.9,3.2,1.92,3,0a35.92,35.92,0,0,0-2.83-10.77c-.77-1.77-3.35-.24-2.59,1.51Z"/><path d="M353.67,413.37a368.74,368.74,0,0,1,9.84,43c.32,1.9,3.21,1.09,2.89-.8a368.74,368.74,0,0,0-9.84-43c-.54-1.85-3.44-1.06-2.89.8Z"/><path d="M207.22,337.33c-11.56,3.22-19.38,12.45-24.44,22.94a140.23,140.23,0,0,0-7,18.28q-1.53,4.78-2.81,9.64c-.48,1.8-1.3,3.5-.24,5.15a1.52,1.52,0,0,0,1.69.69c.83-.33,1.3-.65,1.45-1.58a1.55,1.55,0,0,0-1-1.85l-.24-.08c-1.85-.58-2.64,2.31-.8,2.89l.24.08-1-1.85.65-.51,1.69.69c-.84-1.31,1.59-6.68,2-8.12q1-3.5,2.19-7A124.51,124.51,0,0,1,185.75,361c4.69-9.49,11.74-17.88,22.28-20.81a1.5,1.5,0,0,0-.8-2.89Z"/><path d="M204.47,386.53q-1.4,7.61-2.27,15.3c-.22,1.91,2.78,1.9,3,0q.83-7.29,2.16-14.5c.35-1.89-2.54-2.7-2.89-.8Z"/><path d="M311.81,414.67A445.46,445.46,0,0,1,314.89,460c0,1.93,3,1.93,3,0a445.46,445.46,0,0,0-3.08-45.33c-.23-1.89-3.23-1.92-3,0Z"/><path d="M320.14,415.07c2.45,15.57,6.36,31.23,6.87,47,.06,1.93,3.06,1.93,3,0-.52-16.07-4.49-32-7-47.82-.3-1.9-3.19-1.09-2.89.8Z"/><path d="M324,349.23a179.38,179.38,0,0,1,14.86,26.32c.8,1.75,3.39.23,2.59-1.51a179.38,179.38,0,0,0-14.86-26.32c-1.08-1.59-3.68-.09-2.59,1.51Z"/><path d="M201.18,446.33l-1,17.33c-.11,1.93,2.89,1.92,3,0l1-17.33c.11-1.93-2.89-1.92-3,0Z"/><path d="M172.71,277.37c7.77,4.11,15.48,8.3,22.56,13.54,6.78,5,13.2,10.61,21.11,13.83,15.19,6.19,32.16,3.11,47.67-.06,1.89-.39,1.09-3.28-.8-2.89-16.35,3.35-34.55,6.58-50-1.81-6.43-3.5-12-8.38-17.86-12.66-6.67-4.83-13.94-8.7-21.2-12.54-1.71-.9-3.22,1.69-1.51,2.59Z"/></g><g id="ops_black" data-name="ops black"><path d="M292.72,141.16c-2.36-1.66-5.36-2.71-7.77-3.76a136.39,136.39,0,0,0-28.78-8.92,5.45,5.45,0,0,0-5,1.44c-18.41-2.53-37.36-1.79-55.86.64a6.12,6.12,0,0,0-1.33.34l-.76-.53c-2.45-1.7-5.74,1.66-4.1,4.1l.66,1a3.39,3.39,0,0,0,.38.46,5.87,5.87,0,0,0,.6,3.56,8.3,8.3,0,0,0-1.34,2.21c-.67,1.28-1.35,2.55-2,3.83a21.38,21.38,0,0,0-6.74-1.26A5.16,5.16,0,0,0,178,145a19,19,0,0,0-2.51-1.58c-1.84-1-4.74.18-4.51,2.59l1.31,14c-2.91,10.1-8,19.32-12.22,29-5,11.4-8.35,23.17-7.42,35.73a78,78,0,0,0,10.56,33.42c.83,1.41,1.81,3.08,2.92,4.83a5.31,5.31,0,0,0,.76,3.14c3.18,5.5,8,9.29,13.36,12.56a124.18,124.18,0,0,1,17.49,12.26c6.93,6,17.87,16.14,27.62,13.73A55.28,55.28,0,0,0,236,306.85c6.81.72,13.58-.28,20.36-.89,6.53-.58,13-2.86,13-10.53a5,5,0,0,0-3.34-4.94c.28-7.71.61-15.46,1-23.23.06-.22.11-.44.16-.66a7.76,7.76,0,0,0,2,0c4.42-.66,7-4,7.37-8.35.06-.68.1-1.36.15-2a5.88,5.88,0,0,0,.71-2.2l4.71-40.33c.51-4.33-3.48-6-6.81-4.94,0-1.38.09-2.76.18-4.14.07-1,.15-2,.24-3,1.73-7.36,3.67-14.67,5.62-22,2-7.57,4.23-15.25,8.29-21.86a5.06,5.06,0,0,0,3-1.67,13.49,13.49,0,0,0,3.79-6.82C298.71,145.95,296.1,141.94,292.72,141.16Z"/><path d="M217,438.72A251.2,251.2,0,0,0,313.69,434a1.13,1.13,0,0,0-.6-2.17,248.28,248.28,0,0,1-95.46,4.73c-1.42-.21-2,2-.6,2.17Z"/><path d="M314,417a2.82,2.82,0,0,0-2.29-2.32,3.4,3.4,0,0,0-2.9-2.08l-23.85-2.19-11.45-1.05c-2.83-.26-7.93.07-10.11-2.36.09-.46.17-.92.22-1.39.23-1.81-1.71-3.37-3.37-3.37-2,0-3.15,1.56-3.37,3.38q0-.39-.06.24c0,.09,0,.18-.07.28a32.37,32.37,0,0,1-30.45,2.88,2.65,2.65,0,0,0-2.79.3c-1.78-1.74-3.53-3.49-5.25-5.29a3.4,3.4,0,0,0-1.22-.84c-.62-.58-1.25-1.14-1.94-1.67a28.58,28.58,0,0,0-2.4-1.69l-.34-.2a3.72,3.72,0,0,0-.09-.57,14.51,14.51,0,0,0-3.2-6c-2.32-2.77-6.3.26-5.64,3.28.11.49.22.91.34,1.31a4.09,4.09,0,0,0,0,4.11c.89,1.73,2.71,2.34,4.28,3.21a23.9,23.9,0,0,1,7.08,6.09,2.85,2.85,0,0,0,1.57,1c.61.61,1.24,1.2,1.86,1.8a3.67,3.67,0,0,0,.17.7,32.31,32.31,0,0,1,2,9c0,.57,0,2.93-.07,5L218.31,431a5.25,5.25,0,0,0,2.19,7.56q14.79,1,29.61.63c7.64,4.64,19.36,1.16,27.71.25,7.86-.86,17.53-.77,24.5-5.15a42.42,42.42,0,0,0,9-1.18C317.55,431.25,314.79,421.69,314,417Z"/></g><g id="black"><path d="M454.08,304.12c-.57-9.94.27-20,0-30a419.33,419.33,0,0,0-6.13-58.78,5.13,5.13,0,0,0-.44-1.38c-.12-14.56-4.44-29-8.94-43a5.05,5.05,0,0,0-1.34-2.17c-4.51-15.37-12.71-29.38-25.71-40a5.12,5.12,0,0,0-3.18-1.2c-.3-.36-.58-.73-.89-1.09a1.23,1.23,0,0,0-1.48-.39,3.44,3.44,0,0,1-3.3-1.46c-.5-.68-1-1.37-1.5-2a2.79,2.79,0,0,1-.4-.77,5.16,5.16,0,0,0-1.73.76,39.73,39.73,0,0,0-17.5-4,5.71,5.71,0,0,0-3.18-2.76,39.16,39.16,0,0,0-12.14-2.3,4.46,4.46,0,0,0-3.43,1.26,39.18,39.18,0,0,0-9.3-.45c-3-.21-6-.31-9-.29a4.54,4.54,0,0,0-3.32,1.45,4.94,4.94,0,0,0-2.05-.12c-8.2,1.31-15.37,6.08-21.47,12.47a43.66,43.66,0,0,0-10.38,7.62c.54-1,1.06-2,1.53-3a.56.56,0,0,0-1-.56l-3.74,5.93h0l-.28.15a.43.43,0,0,0-.33,0,11,11,0,0,0-2.94,1.78c-.5.42.14,1.17.68.88l.68-.37-.37.54c-4.62,2.72-8,7.83-10.76,13.15a88.51,88.51,0,0,0-8.18,16.19,4.73,4.73,0,0,0-1.06,2.14c-.16.73-.31,1.46-.46,2.2a86.91,86.91,0,0,0-3.1,12.94,5.87,5.87,0,0,0,0,1.8,89.58,89.58,0,0,0-3.27,18.24,4.49,4.49,0,0,0,.15,1.52l0,.11a5.28,5.28,0,0,0,.25,2.55,4.72,4.72,0,0,0-1.39,2.42c-3.1,12.51-6,25-6.77,37.9a4.44,4.44,0,0,0,.16,1.45q-.89,8.1-1.41,16.24a101.75,101.75,0,0,0-.65,16.34,5.14,5.14,0,0,0,.68,2.38l-.15.16c-.45.48-.9,1-1.36,1.55a5.66,5.66,0,0,1-.11,3.2c0,.15-.12.28-.17.41a2.63,2.63,0,0,1,.57,1.77c-.09,2.88-.42,5.73-.77,8.57.2,5.74.22,11.46-1.11,17.16l0,.06c-.16,1.6-.34,3.21-.52,4.81,13.4,10.23,29.74,16.71,46.21,19.92,3.73.73,8,1,11.74,2.25.15,0,.3,0,.46,0,.78,0,1.55.08,2.32.16s1.64.07,2.46.09c0-.28,0-.56-.05-.84a10.82,10.82,0,0,0,1.92.24,2.81,2.81,0,0,0,2.69-3.53,52.09,52.09,0,0,1-2.39-11.81,5.59,5.59,0,0,0-.41-1.52,2.8,2.8,0,0,0-1.17-3.22l-1.53-1a2.5,2.5,0,0,0-1.56-.37,9.87,9.87,0,0,1-1.79-1.41,2.54,2.54,0,0,0-2.32-.76,35.8,35.8,0,0,1-3.92-3.52c-4.6-4.89-7.54-10.59-10-16.66-3.71-4.13-6.05-12.21-6.55-15.33-.16-1-.25-2-.32-2.94a92.46,92.46,0,0,1-4.47-19.68c-7.7-4.1-9.91-16.67-1.59-21.5a2.1,2.1,0,0,1,.75-.26l.28-17.09a1.34,1.34,0,0,0-.59-1.22,44.67,44.67,0,0,1-.3-9,77.13,77.13,0,0,1,3.17-9.3,19.48,19.48,0,0,0,1.78-3.23.57.57,0,0,0,0-.49l1.75-3.66a.56.56,0,0,0-.15-.69,22.42,22.42,0,0,1,5.45-4.61c7.16-4.3,15.82-5.47,24.12-6a.46.46,0,0,0,.26.13l.69.08a21.1,21.1,0,0,0,9,.75.59.59,0,0,0,.51-.48,35.29,35.29,0,0,0,8.39.25c5.68-.57,11.29-2.24,16.84-3.58,3.39-.48,6.57-1.28,8.89-2.79a5.34,5.34,0,0,1,2.77-.59,5.15,5.15,0,0,1,6.43.35A44.16,44.16,0,0,0,383,191v3.44c0-.16.26-.32.73-.48a14.09,14.09,0,0,0,.37,2.37,8.39,8.39,0,0,0,.08,1,47,47,0,0,0,2.31,11.48c0,.13.09.23.13.35a8.21,8.21,0,0,0,1,4.57c.45.93.92,1.84,1.4,2.76a.48.48,0,0,0-.12.5q.34,1,.73,2a17.36,17.36,0,0,0,2.42,5.17.66.66,0,0,0,.17.17c.12.21.23.41.35.62,5.77,14.69,12.35,29.12,13.74,45a110.19,110.19,0,0,1-2,30,2.85,2.85,0,0,0-1.13,1.48l-1.51,4.3c-1.26,8-2.68,15.9-6.21,23.28a46.24,46.24,0,0,1-3.79,12.78.57.57,0,0,0-.79.16,15,15,0,0,1-2.89,3.16c-.43.36,0,1.06.5,1a.5.5,0,0,0,.6.25l.13-.06h0l.08,0a1.74,1.74,0,0,0,.49-.3l.08-.05a.43.43,0,0,0,.2,0,6.14,6.14,0,0,0,1.19-.24l.24.12c.14.08.29.15.44.22a141.53,141.53,0,0,1,15.67-2.83c7.66-1.06,15.31-2.14,22.89-3.71A94,94,0,0,0,445,335.53c.76-.16,1.51-.33,2.26-.51,2.28-.57,4.28-1.9,6.58-2.35a1,1,0,0,0,.24-1.78,5.41,5.41,0,0,0,.65-1.29C457.79,320.6,454.6,313.12,454.08,304.12Z"/></g><g id="dev"><path d="M290.72,267.24a112.41,112.41,0,0,0,11.78,37.82c5.54,10.56,12.79,20.66,24,25.57,19.83,8.64,48.22,5.5,63-11.16,1.28-1.44-.84-3.57-2.12-2.12-14,15.72-41,18.76-59.73,10.51-10.92-4.81-17.74-14.82-23-25.1a108.23,108.23,0,0,1-11-35.52c-.25-1.89-3.25-1.91-3,0Z"/><path d="M290.61,264.48c-2-3.67-4.42-8.17-3.49-12.5.88-4.09,4.46-6.36,8.22-7.49a34.61,34.61,0,0,1,23.39,1.66c6.47,2.83,13.46,8.66,11.83,16.56-1.73,8.36-11.35,7.66-18,7.36-8-.36-16.45-1.46-22.45-7.21-.46-.45-1.17.26-.71.71,6.11,5.85,14.65,7.09,22.77,7.49,6.83.33,16.53,1.07,19-7.1,2.36-7.67-3.51-14.28-9.85-17.63-8-4.2-18-5.47-26.69-2.7-3.65,1.17-7.22,3.43-8.37,7.3-1.43,4.85,1.11,9.92,3.39,14.06.31.56,1.17.06.86-.5Z"/><path d="M346.1,261.82c3.19-6.51,12.43-8.51,19-9.12a34.28,34.28,0,0,1,20.23,4c3.26,1.88,7.25,4.74,7.89,8.73.75,4.67-4.4,8.05-8,9.77a39.8,39.8,0,0,1-23.26,3.11c-8.45-1.6-16.77-9-14.6-18.36.15-.63-.82-.89-1-.27-1.8,7.72,3.44,15.15,10.41,18.11,8.21,3.49,18.8,2.3,26.94-.89,3.55-1.39,7.47-3.57,9.5-6.93s.88-6.9-1.59-9.64c-5.47-6.09-14.39-8.68-22.33-8.77s-20.17,1.79-24.08,9.79c-.28.58.58,1.08.86.5Z"/><path d="M330.94,259a43.33,43.33,0,0,1,14.23,2.44c.61.21.87-.75.27-1a44.24,44.24,0,0,0-14.5-2.48.5.5,0,0,0,0,1Z"/><path d="M292.81,227.37c-.67-8.19.63-16.89,4.67-24.14,4.16-7.47,11.25-10.52,19.36-11.87,15.63-2.59,31.81.24,47.2-4.17,7-2,13.47-5.44,18.35-10.89.43-.48-.28-1.19-.71-.71-10.92,12.2-28.27,13.17-43.52,13.42-14,.23-33-.79-41.14,13-4.45,7.5-5.9,16.74-5.2,25.34.05.64,1.05.64,1,0Z"/><path d="M383.26,120.88c25-1,43.15,22,51.6,43.09,7.45,18.56,10.29,39,13.42,58.65,2.21,13.88,2,28.19,2.42,42.19q1,33,2.18,66c.07,1.92,3.07,1.93,3,0-1.13-31.07-1.5-62.21-3.14-93.26a151,151,0,0,0-1.56-15.75c-3.27-20.53-6.23-42-14.47-61.19-9.14-21.33-28.05-43.77-53.44-42.75-1.92.08-1.93,3.08,0,3Z"/><path d="M381.25,117.66c-16.68-9.69-36.83-5.74-53.59,1.66-19,8.41-34,22.06-43.23,40.78-9.45,19.16-11,39.47-13.53,60.32-1,7.84-2.65,15.55-3.51,23.41-.88,8.07-1.46,16.17-2,24.26-1.28,18.89-2,37.88-4.2,56.69-.23,1.91,2.78,1.9,3,0,3.51-29.72,2.53-60,7.34-89.58,3.11-19.09,3.56-38.9,9.2-57.49,5.81-19.15,16.71-36.69,33.64-47.83,18.21-12,44.92-21.52,65.38-9.64a1.5,1.5,0,0,0,1.51-2.59Z"/><path class="cls-7" d="M295.08,138.95A103,103,0,0,0,275.49,176c-4.63,15.38-5.28,31.2-7.34,47-1.65,12.68-3.75,25.09-4.72,37.88-1.13,15-1.91,29.93-2.93,44.89-.13,1.93,2.87,1.92,3,0,1.8-26.31,3.1-52.45,7.05-78.53,2.31-15.22,2.61-30.64,6.47-45.61,3.82-14.79,10.27-28.87,20.17-40.6,1.24-1.47-.87-3.6-2.12-2.12Z"/><path d="M454.08,329.34a271,271,0,0,1-65.88,16.33c-.63.07-.64,1.08,0,1a272,272,0,0,0,66.14-16.36c.59-.23.34-1.2-.27-1Z"/><path d="M262.31,324.8A93.15,93.15,0,0,0,293,342.69c11.58,4,23.81,5.46,36,5.5a.5.5,0,0,0,0-1A111.63,111.63,0,0,1,294,342a91.8,91.8,0,0,1-31-17.88c-.48-.42-1.19.29-.71.71Z"/><path d="M382,175.19a97.25,97.25,0,0,0,5,39.25c4.41,12.69,11.43,24.3,15.08,37.28a96.75,96.75,0,0,1,2.48,40.74,242.69,242.69,0,0,1-4.93,24c-2.62,10.11-5.72,20.92-11.92,29.48-.38.52.49,1,.86.5,5.46-7.54,8.45-16.88,10.94-25.75A240.09,240.09,0,0,0,405.21,295a100.81,100.81,0,0,0-.23-35.62c-2.56-13.38-8.67-25.18-14-37.59a99,99,0,0,1-8-46.64c0-.64-1-.64-1,0Z"/><path d="M326.61,328.79c-.28,6.21,2.26,12.08,2.6,18.23,0,.64,1,.64,1,0-.34-6.15-2.88-12-2.6-18.23,0-.64-1-.64-1,0Z"/><path d="M417.47,343c18,5.26,21.39,25.69,11.06,39.58-11.12,14.95-30.68,20.2-48,23.79a285.38,285.38,0,0,1-116.64-.42c-1.88-.4-2.69,2.49-.8,2.89a290.12,290.12,0,0,0,103.37,3.08c15.82-2.4,32.41-5.47,46.71-12.95,11.5-6,22.43-16.34,24.32-29.78,1.83-13.08-6.7-25.42-19.2-29.08-1.86-.54-2.65,2.35-.8,2.89Z"/><path d="M398.17,366.09c-6.24,8.42-19.33,8.25-28.76,8.87a243.84,243.84,0,0,1-32.12,0,245.86,245.86,0,0,1-64.19-13.16c-1.83-.63-2.61,2.26-.8,2.89a248.69,248.69,0,0,0,70.49,13.58,240.78,240.78,0,0,0,35.77-1c8.34-.88,16.92-2.47,22.2-9.58,1.15-1.55-1.45-3-2.59-1.51Z"/><path d="M270.12,362.63c-5.33,14.34-10.49,29.07-8.71,44.6.15,1.31,2.08,2.25,2.8.76l.59-1.22c.83-1.73-1.76-3.26-2.59-1.51l-.59,1.22,2.8.76c-1.75-15.27,3.36-29.7,8.6-43.8.67-1.81-2.22-2.59-2.89-.8Z"/><path d="M271.38,361.19c-6.1-8.08-14-15.1-24.38-16.65-5.63-.84-18.67.36-15.74,9.22.6,1.82,3.5,1,2.89-.8-1.9-5.74,8.28-5.84,10.74-5.65a26.88,26.88,0,0,1,10.66,3.26c5.34,2.89,9.6,7.34,13.23,12.14,1.15,1.52,3.75,0,2.59-1.51Z"/><path d="M232.31,352.65c-8.32-6-19.24-1-23.84,7.21-5.41,9.67-5.66,24.43-1.49,34.57,8.34,20.29,42.58,23.64,56.31,7.42,1.24-1.46-.87-3.6-2.12-2.12-11.49,13.57-40.32,12.34-49.79-3.19-4.88-8-5-19.54-2.83-28.42,2.26-9.46,12.19-20.08,22.25-12.88,1.57,1.13,3.07-1.47,1.51-2.59Z"/><path d="M326.09,311.4a26.18,26.18,0,0,0,31.61,3.8,1.5,1.5,0,0,0-1.51-2.59,23.14,23.14,0,0,1-28-3.33c-1.38-1.35-3.51.77-2.12,2.12Z"/><path d="M355.36,270.65a10,10,0,0,0,14.22,1.93c1.52-1.19-.62-3.3-2.12-2.12a6.91,6.91,0,0,1-9.51-1.33c-1.13-1.54-3.74,0-2.59,1.51Z"/><path d="M305.59,261.83a11,11,0,0,0,14.64,3.41,1.5,1.5,0,0,0-1.51-2.59,8,8,0,0,1-10.53-2.34c-1.08-1.59-3.68-.09-2.59,1.51Z"/><path d="M174.68,390.62a34.32,34.32,0,0,0-19,27.77c-.52,6.85,1.21,13.85,3.78,20.16,1.73,4.23,4.08,7.91,8.89,8.55,1.91.25,1.89-2.75,0-3-5.44-.72-7.32-9.46-8.42-13.67a34.09,34.09,0,0,1-.65-16,31.57,31.57,0,0,1,16.91-21.25c1.73-.86.21-3.45-1.51-2.59Z"/><path d="M177,392.6c4.06-.06,10.82.11,10.71,6a1.53,1.53,0,0,0,1.5,1.5c16.51.63,35.08,14.89,27,33.14-3.89,8.81-14.73,12.64-23.77,13-9.63.35-18.82-3.79-24.13-12-1-1.61-3.64-.11-2.59,1.51,5.87,9.06,16,13.83,26.72,13.47,9.91-.33,21.59-4.57,26.18-14,4-8.22,2.6-18.47-2.87-25.67-6.25-8.24-16.5-12-26.56-12.43l1.5,1.5c.14-7.61-7.64-9-13.71-9a1.5,1.5,0,0,0,0,3Z"/><path d="M173.45,442.95a4.31,4.31,0,0,1-4,1.58c-1.89-.34-2.7,2.55-.8,2.89a7.33,7.33,0,0,0,7-2.35C176.82,443.61,174.71,441.48,173.45,442.95Z"/><path d="M168.25,434.25a47.79,47.79,0,0,1,14.24-40.77c1.39-1.34-.73-3.46-2.12-2.12a50.91,50.91,0,0,0-15,43.69c.26,1.9,3.15,1.09,2.89-.8Z"/><path d="M418,393.92A327.35,327.35,0,0,1,428.62,459c.12,1.92,3.12,1.93,3,0a331.44,331.44,0,0,0-10.76-65.87,1.5,1.5,0,0,0-2.89.8Z"/></g><g id="flower"><path d="M499.93,432.73c.15-4.31,5.79-3.47,7.28-.4a3.07,3.07,0,0,1-3.19,4.24,5.49,5.49,0,0,1-4.11-6.14c.12-.63-.84-.9-1-.27a6.5,6.5,0,0,0,4.81,7.37,4.11,4.11,0,0,0,4.66-4.77c-.51-2.26-3-3.77-5.13-4-2.61-.28-4.26,1.44-4.35,4,0,.64,1,.64,1,0Z"/><path d="M498.28,432.54c-3.75-.68-7.28,4.36-8.47,7.29-1.42,3.5-.16,7.26,3.58,8.52,5.74,1.94,17.55-3.2,15-10.63-.21-.6-1.18-.34-1,.27,2.1,6.07-7.06,10.14-11.82,9.78-3.5-.26-6.22-3-5.18-6.63.75-2.62,4.23-8.24,7.61-7.63.63.11.9-.85.27-1Z"/><path d="M491.39,433.89c-3.61-1.65-4.82-5.1-2.26-8.33a8,8,0,0,1,10-2.14c.57.29,1.08-.57.5-.86a9,9,0,0,0-11.49,2.61c-2.74,3.68-1.31,7.75,2.72,9.58.58.26,1.09-.6.5-.86Z"/><path d="M501.39,427.86c-5.59-2.6-1.06-12.12,3-14.19,6.65-3.43,10.77,7,7.94,11.76a.5.5,0,0,0,.86.5c3.25-5.51-1.33-16.51-8.81-13.37-5,2.09-10,13.12-3.45,16.15.58.27,1.09-.59.5-.86Z"/><path d="M508.07,431.84c1.85-5.54,12.69-9.41,16-3.22,1.84,3.4.63,8.35-3.39,9.29-3.54.83-7.44-1-9.9-3.42a.5.5,0,0,0-.71.71c2.84,2.84,7.49,4.83,11.5,3.51s5.19-6.28,3.67-9.94c-3.23-7.8-16-3.78-18.17,2.8-.2.61.76.87,1,.27Z"/><path d="M516.94,440c3.1,2.09,1.74,6.48-1.21,8-3.79,2-7.36-1.67-9.62-4.32-.42-.49-1.12.22-.71.71,2.85,3.34,7.51,7.25,11.83,3.81,2.94-2.34,3.5-6.84.21-9.06-.53-.36-1,.5-.5.86Z"/><path d="M528.88,401.47a2.07,2.07,0,0,1,2.55-2.67,3.47,3.47,0,0,1,2.92,3.55c-.14,4.49-7.31,4.76-6.18-.18.14-.63-.82-.89-1-.27-.43,1.87,0,3.87,1.89,4.68a4.65,4.65,0,0,0,5-1.12c2.8-3,.46-8.09-3.64-7.69-2.13.2-2.94,2-2.55,4,.13.63,1.09.36,1-.27Z"/><path d="M526.68,400.21c-1.68-2.24-3.08-5.28-1.27-7.87,1.39-2,4-3,6.36-3.15,2.12-.17,4.82.26,6,2.23,1.73,2.81-.65,6.51-2.26,8.77-.37.52.49,1,.86.5,2.71-3.8,5.06-10.24-1-12.13-3.85-1.21-9.48.18-11.32,4.07-1.32,2.8,0,5.8,1.73,8.09.38.51,1.25,0,.86-.5Z"/><path d="M525.92,399.89c-3.21-2.18-7.89-3.7-11.6-1.87-2.94,1.45-5.26,6.12-3.61,9.25,1.39,2.63,5,2.5,7.54,2.13a23.88,23.88,0,0,0,10.11-3.79c.52-.37,0-1.24-.5-.86a22.11,22.11,0,0,1-6.93,3.06c-2.4.66-6,1.53-8.25.11-3.24-2-.66-7.55,1.92-8.92,3.42-1.81,7.85-.26,10.81,1.75.53.36,1-.5.5-.86Z"/><path d="M519.83,409.67c-10,13.05,16.12,17.82,14.83,5.51-.07-.63-1.07-.64-1,0,.58,5.48-5,7.13-9.43,6a7.89,7.89,0,0,1-5.2-3.56c-1.35-2.59.06-5.35,1.67-7.44.39-.51-.48-1-.86-.5Z"/><path d="M530.2,407c-.65,5.75,6.57,13,12.44,11.39s2.12-9.22-1.53-11.14c-.57-.3-1.08.56-.5.86a7.62,7.62,0,0,1,4,4.95,3.48,3.48,0,0,1-3.57,4.55c-4.83.05-10.37-5.78-9.82-10.62.07-.64-.93-.63-1,0Z"/><path d="M533.79,400.87c2.3-1.73,8.74-2.92,10,.71,1.61,4.52-6.81,7.12-9.63,4.66-.48-.42-1.19.28-.71.71,3.44,3,11.95.38,11.47-4.79s-8.72-4.36-11.67-2.15c-.51.38,0,1.25.5.86Z"/><path d="M515.26,360.89c1.85-1,4.75-1,5.67,1.27a3.3,3.3,0,0,1-1.38,4.25,3.87,3.87,0,0,1-3.64-.18c-1.43-.9-1.41-2.49-.84-3.92.24-.6-.73-.86-1-.27-.73,1.85-.51,3.94,1.3,5a4.84,4.84,0,0,0,5.16-.13,4.44,4.44,0,0,0,1-5.69c-1.39-2.41-4.66-2.47-6.86-1.25-.56.31-.06,1.18.5.86Z"/><path d="M514.71,359a8.35,8.35,0,0,0-9.24-.88c-1.93,1.08-3.95,3.75-2.88,6.06,2,4.27,10.22,3.35,13.1.78.48-.43-.23-1.13-.71-.71-2.47,2.2-7.77,2.53-10.49.59-2-1.4-1.09-3.75.46-5.15a7.22,7.22,0,0,1,9,0c.49.41,1.2-.29.71-.71Z"/><path d="M511.92,357.44c-3.66-3.4.41-6.85,3.92-7.89,1.57-.47,3.63-.75,5.1.16,2.08,1.29,1.34,4.12.65,6-.22.61.75.87,1,.27.81-2.21,1.4-5.23-.77-6.88-1.73-1.32-4.26-1.08-6.22-.5-4.25,1.26-8.62,5.6-4.36,9.56.47.44,1.18-.27.71-.71Z"/><path d="M521.93,360.1c-2.39-6.33,7.32-8.47,10.59-4a5,5,0,0,1-5.13,7.87c-.63-.12-.9.85-.27,1,5.46,1,9.75-5.08,6-9.65-4-5-14.92-2.11-12.18,5.13.23.6,1.19.34,1-.27Z"/><path d="M510.49,366.65c-4.47,1.15-6,7.67-1,9.35,3.5,1.18,9.26-.95,9.4-5.13,0-.64-1-.64-1,0-.1,3-4,4.55-6.55,4.45-4.91-.2-5.2-6.51-.56-7.7a.5.5,0,0,0-.27-1Z"/><path d="M522.53,363.73a8,8,0,0,1,5.55,1.71,3.87,3.87,0,0,1-.31,6.2c-3.2,2.31-8.62-.69-8.92-4.42-.05-.64-1.05-.64-1,0,.36,4.61,6.92,8.18,10.75,5.05a4.9,4.9,0,0,0,1-6.6c-1.57-2.15-4.56-3.06-7.13-2.93-.64,0-.64,1,0,1Z"/><path d="M514.14,419.49c1.68-3.4,2.46-7.19,4.41-10.46a.5.5,0,0,0-.86-.5c-2,3.28-2.73,7.06-4.41,10.46-.28.58.58,1.08.86.5Z"/><path d="M519.71,397c2.44-8.53,2.6-17.52,2.23-26.32,0-.64-1-.64-1,0,.36,8.71.22,17.62-2.2,26.06a.5.5,0,0,0,1,.27Z"/><path d="M522,350.81c1.28-5.18.91-10.67,2.8-15.7,1.7-4.53,4.65-8.46,6.14-13.08.2-.61-.77-.88-1-.27-1.49,4.62-4.44,8.55-6.14,13.08-1.88,5-1.52,10.52-2.8,15.7-.15.62.81.89,1,.27Z"/><path d="M530.53,321.18a20,20,0,0,1,.57-4.85,8,8,0,0,1,.93-2.21c.3-.47,1.72-2.25,2.47-2,.52.16.33,2,.29,2.46a8.91,8.91,0,0,1-.74,2.68c-.69,1.54-1.84,3.19-3.57,3.59-.63.14-.36,1.11.27,1,4.09-.93,6.05-7,4.53-10.58a.5.5,0,0,0-.56-.23c-4.44,1.35-5.08,6.16-5.18,10.18a.5.5,0,0,0,1,0Z"/><path d="M525.28,339.72c3.15-2.94,7.08-4.78,10.75-7a.5.5,0,0,0-.5-.86c-3.75,2.23-7.74,4.12-11,7.12-.47.44.24,1.15.71.71Z"/><path d="M534.22,333.67c4.4,1.22,8.36-1.75,10.36-5.51.16-.3,0-.79-.43-.75A16,16,0,0,0,534,332.83c-.42.48.28,1.19.71.71a15.06,15.06,0,0,1,9.44-5.13l-.43-.75c-1.78,3.36-5.25,6.15-9.23,5a.5.5,0,0,0-.27,1Z"/><path d="M514.56,348.71c-1.55-4.71-3.43-10.08-7.18-13.51-.47-.43-1.18.27-.71.71,3.61,3.31,5.42,8.53,6.92,13.07.2.61,1.17.35,1-.27Z"/><path d="M502.23,325.84a9.51,9.51,0,0,0,2.54,10.59.51.51,0,0,0,.79-.1c2.53-3.64.38-9.84-2.64-12.57-.48-.43-1.19.27-.71.71,2.69,2.44,4.75,8.08,2.48,11.35l.79-.1a8.55,8.55,0,0,1-2.28-9.61c.22-.6-.74-.87-1-.27Z"/><path d="M511.8,401.39a24.54,24.54,0,0,0-12.35-10.5c-.61-.22-.87.74-.27,1a23.47,23.47,0,0,1,11.75,10,.5.5,0,0,0,.86-.5Z"/><path d="M496.78,390.38c-5.09,3.17-9.53.32-11.8-4.62l-.43.75c4.64,0,9.48.77,12.85,4.22.45.46,1.16-.25.71-.71-3.56-3.65-8.65-4.54-13.55-4.52a.51.51,0,0,0-.43.75c2.53,5.5,7.64,8.42,13.17,5,.55-.34,0-1.2-.5-.86Z"/><path d="M506.87,444.73a21,21,0,0,0-3.75,7.73.5.5,0,0,0,1,.27,20.34,20.34,0,0,1,3.65-7.49c.39-.51-.48-1-.86-.5Z"/><path d="M267.68,484.74c4.27-.84,4.69,5,1.94,7.07a3.06,3.06,0,0,1-4.76-2.43,5.51,5.51,0,0,1,5-5.19c.64,0,.64-1,0-1a6.52,6.52,0,0,0-6,6.19,4.1,4.1,0,0,0,5.6,3.68c2.14-1,3.1-3.72,2.84-5.91-.31-2.65-2.36-3.87-4.89-3.37-.63.12-.36,1.09.27,1Z"/><path d="M267.47,483.07c-.2-3.75-5.86-6-8.93-6.53-3.68-.6-7.07,1.31-7.56,5.2-.78,6.12,7.07,16.6,13.77,12.36.54-.34,0-1.21-.5-.86-5.52,3.49-11.7-4.81-12.26-9.62-.43-3.66,2-6.54,5.81-6.16,2.64.27,8.5,2.31,8.68,5.62,0,.64,1,.64,1,0Z"/><path d="M264.57,476.69c.78-4,4-5.88,7.73-4a8,8,0,0,1,4.23,9.21.5.5,0,0,0,1,.27,9,9,0,0,0-5.19-10.57c-4.22-1.81-7.83.53-8.69,4.86-.12.63.84.9,1,.27Z"/><path d="M272.74,485c1.15-5.66,9.92-3.77,13.24-1.44,7.06,5-2.15,13.41-8.39,11.5-.62-.19-.88.78-.27,1,6.51,2,16.65-6.26,10.26-12.45-3.62-3.52-14.42-5.65-15.81,1.16-.13.63.84.9,1,.27Z"/><path d="M270.41,492.46c6,.55,12.32,10.76,6.41,15.16-3.13,2.33-8,2.05-9.59-1.81-1.37-3.24-.58-7.18,1.21-10.09.34-.55-.53-1.05-.86-.5-2.08,3.38-2.94,8.24-.86,11.84s7.18,3.78,10.47,1.53c7.09-4.85.16-16.49-6.78-17.13-.64-.06-.64.94,0,1Z"/><path d="M264.5,503c-1.33,3.55-5.95,3.11-8.07.59-2.73-3.25,0-7.5,2-10.31.38-.52-.49-1-.86-.5-2.63,3.57-5.36,9.12-.85,12.48,3,2.21,7.37,1.69,8.74-2,.23-.6-.74-.86-1-.27Z"/><path d="M304.74,505.73c3.84-1.76,4.13,4.65.51,5.5-4.46,1-6.49-6-1.34-6a.5.5,0,0,0,0-1c-1.95,0-3.82.92-4.12,3a4.66,4.66,0,0,0,2.33,4.58c3.55,2,8-1.59,6.54-5.47-.74-2-2.67-2.26-4.42-1.46-.58.27-.08,1.13.5.86Z"/><path d="M305.46,503.3c1.46-1.74,3.43-3.51,5.87-3.37a6.35,6.35,0,0,1,4.59,2.91c1.79,2.51,3.27,7.6.1,9.73-2.47,1.66-6.06.36-8.51-.64-.6-.24-.85.72-.27,1,4.32,1.77,11.12,2.56,11.57-3.77.29-4-2.39-9.26-6.65-10.1-3-.59-5.59,1.39-7.4,3.57-.41.49.29,1.2.71.71Z"/><path d="M305.59,502.49c1.35-3.54,1.75-8.24-.65-11.45-2-2.7-7-4-9.82-1.81-2.48,1.86-1.53,5.54-.57,8a23.94,23.94,0,0,0,6,9c.48.42,1.19-.28.71-.71a22.34,22.34,0,0,1-4.69-6.26c-1.16-2.17-3-5.87-1.65-8.32,1.87-3.37,7.84-1.45,9.48,1.14,1.88,3,1.39,7.05.2,10.17-.23.6.74.86,1,.27Z"/><path d="M294.78,498.86c-2.66-1.19-5.87-1.91-8.39,0-2,1.54-2.83,4.22-2.91,6.68-.16,5.26,3.35,11,9.25,9,.6-.21.34-1.18-.27-1-10,3.53-11.53-19.81,1.81-13.82.58.26,1.09-.6.5-.86Z"/><path d="M299.73,508.29c-5.68.71-11.11,9-8.51,14.39,2.8,5.87,9.55.49,10.66-3.71a.5.5,0,0,0-1-.27,7.65,7.65,0,0,1-4,5c-2.76,1.29-5-.5-5.33-3.4-.42-4.4,3.58-10.49,8.13-11.05.63-.08.64-1.08,0-1Z"/><path d="M306.45,510.4c2.22,1.86,4.59,7.3,1.9,9.67-3.87,3.43-8.79-4.69-7-8.07.3-.57-.57-1.08-.86-.5-2.11,4.07,2.48,11.88,7.44,10,4.78-1.81,2.07-9.46-.74-11.81-.49-.41-1.2.29-.71.71Z"/><path d="M341.1,483.18c1.43,1.57,2,4.41,0,5.81a3.3,3.3,0,0,1-4.41-.33,3.88,3.88,0,0,1-.72-3.52c.49-1.59,2-2.07,3.54-1.84.63.09.9-.87.27-1-2-.29-4,.3-4.71,2.36a4.85,4.85,0,0,0,1.19,5,4.42,4.42,0,0,0,5.77-.1c2.15-1.89,1.47-5.17-.26-7.07-.43-.48-1.14.23-.71.71Z"/><path d="M342.78,482.2a8.36,8.36,0,0,0-1.39-9.32c-1.54-1.58-4.57-2.82-6.51-1.22-3.59,3-.84,10.65,2.32,12.87.53.37,1-.5.5-.86-2.71-1.9-4.25-7-3-10.1,1-2.37,3.85-1.81,5.5-.38a7.31,7.31,0,0,1,1.65,8.5c-.28.57.58,1.08.86.5Z"/><path d="M343.7,479.12c2.47-4.35,6.77-1.14,8.58,2,.81,1.42,1.56,3.37,1,5-.79,2.31-3.71,2.23-5.69,2-.64-.08-.63.92,0,1,2.36.28,5.47.14,6.54-2.41.83-2,0-4.34-1-6.09-2.21-3.86-7.44-7.07-10.31-2a.5.5,0,0,0,.86.5Z"/><path d="M343.41,489.47c6-4,10.42,6.4,5.59,10.11a5,5,0,0,1-8.07-3.94c0-.64-1-.64-1,0,.25,5.31,6.64,8.18,10.45,4,4.54-5-.85-15.45-7.47-11.07-.53.35,0,1.22.5.86Z"/><path d="M334.39,479.84c-2.1-4.05-8.69-4.09-9.31,1-.45,3.72,3,8.95,7.15,8.09.63-.13.36-1.09-.27-1-3.11.64-5.63-3.24-5.9-5.91-.48-4.7,5.47-5.58,7.46-1.74.3.57,1.16.07.86-.5Z"/><path d="M340,490.91a8,8,0,0,1-.4,5.79,3.89,3.89,0,0,1-6.07,1.16c-3.06-2.58-1.31-8.6,2.25-9.74.61-.2.35-1.16-.27-1-4.46,1.43-6.41,8.88-2.25,11.76a4.9,4.9,0,0,0,6.52-.67c1.71-2,1.88-5.14,1.18-7.59a.5.5,0,0,0-1,.27Z"/><path d="M283.82,495.53c3.7.85,7.55.75,11.19,1.89.62.19.88-.77.27-1-3.64-1.14-7.49-1-11.19-1.89-.63-.14-.89.82-.27,1Z"/><path d="M307,495.79c8.86.42,17.65-1.5,26.13-3.87a.5.5,0,0,0-.27-1c-8.4,2.35-17.09,4.25-25.87,3.84-.64,0-.64,1,0,1Z"/><path d="M352.47,487.43c5.35.06,10.62-1.57,16-.86,4.78.63,9.27,2.56,14.09,2.95.64.05.64-.95,0-1-4.94-.4-9.54-2.44-14.45-3-5.23-.59-10.39,1-15.62.91a.5.5,0,0,0,0,1Z"/><path d="M383.27,488.91c3.47-.73,7.88-1.34,10,2.22l.18-.68c-2.62,1.94-8.29,1.53-9.87-1.68-.28-.58-1.15-.07-.86.5,1.8,3.68,8.19,4.3,11.24,2a.51.51,0,0,0,.18-.68c-2.36-4-7.16-3.51-11.11-2.68-.63.13-.36,1.1.27,1Z"/><path d="M364,488.07c3.59,2.38,6.27,5.8,9.24,8.87.45.46,1.16-.24.71-.71-3-3.13-5.78-6.59-9.45-9-.54-.36-1,.51-.5.86Z"/><path d="M371.94,495.4c-.22,4.54,3.67,7.76,7.75,8.8a.5.5,0,0,0,.62-.62A16,16,0,0,0,372.7,495c-.57-.3-1.07.56-.5.86a15,15,0,0,1,7.16,8l.62-.62c-3.66-.94-7.22-3.74-7-7.84,0-.64-1-.64-1,0Z"/><path d="M352.81,479.69c4.22-2.58,9-5.66,11.49-10.09.31-.56-.55-1.07-.86-.5-2.38,4.28-7.06,7.23-11.14,9.73-.55.34,0,1.2.5.86Z"/><path d="M372.2,462.44a9.48,9.48,0,0,0-9.71,4.91.51.51,0,0,0,.3.73c4.13,1.63,9.66-1.91,11.62-5.47.31-.56-.55-1.07-.86-.5-1.76,3.19-6.79,6.47-10.49,5l.3.73a8.53,8.53,0,0,1,8.85-4.42c.64.08.63-.92,0-1Z"/><path d="M300.89,489.09a24.58,24.58,0,0,0,7.38-14.44c.08-.64-.92-.63-1,0a23.52,23.52,0,0,1-7.08,13.73c-.46.45.25,1.16.71.71Z"/><path d="M308.14,471.94c-4.26-4.25-2.49-9.18,1.81-12.55l-.84-.22c1.09,4.53,1.42,9.38-1.17,13.47-.35.55.52,1,.86.5,2.73-4.31,2.42-9.46,1.27-14.24a.51.51,0,0,0-.84-.22c-4.78,3.74-6.42,9.36-1.81,14a.5.5,0,0,0,.71-.71Z"/><path d="M257.67,494.3a21.48,21.48,0,0,0-8.51-1.93.5.5,0,0,0,0,1,20.19,20.19,0,0,1,8,1.79c.58.26,1.09-.6.5-.86Z"/><path d="M233.45,500.26c-4.37-.47-2.89-6.33.4-7.36a3.07,3.07,0,0,1,3.7,3.8,5.51,5.51,0,0,1-6.39,3.41.5.5,0,0,0-.27,1c4.47,1.23,11-4.72,6.14-8.44-3.37-2.58-7.27,1.31-7.35,4.82-.05,2.3,1.62,3.58,3.77,3.82.64.07.63-.93,0-1Z"/><path d="M233.16,501.93c-1,3.79,4.13,7.85,7.08,9.15a6.07,6.07,0,0,0,8.4-3.28c2.24-5.62-2-17.59-9.59-15.58a.5.5,0,0,0,.27,1c6.25-1.66,9.65,8,8.81,12.76-.59,3.29-3.36,5.59-6.75,4.51-2.68-.85-8.13-4.87-7.26-8.26a.5.5,0,0,0-1-.27Z"/><path d="M234,508.9c-1.92,3.52-5.6,4.38-8.57,1.5a8,8,0,0,1-1.25-10.07c.34-.55-.53-1.05-.86-.5a9,9,0,0,0,2,11.82c3.48,2.81,7.49,1.52,9.54-2.23.31-.56-.55-1.07-.86-.5Z"/><path d="M228.72,498.48c-3.08,5.48-12.92-.12-14.16-4.71-1.8-6.71,8.18-9.42,12.59-6.35.53.37,1-.5.5-.86-5.17-3.6-16.08-.06-14.06,7.48,1.45,5.41,12.43,11.28,16,4.94a.5.5,0,0,0-.86-.5Z"/><path d="M233.16,492.07c-5.38-2.25-8.32-13.18-2.1-16.17,3.42-1.65,8.38-.15,9.11,3.84.66,3.65-1.47,7.51-4.15,9.83-.49.42.22,1.13.71.71,3.11-2.69,5.54-7.47,4.2-11.63-1.27-3.95-6.26-5.24-9.86-3.83-7.66,3-4.46,15.59,1.83,18.22.59.25.85-.72.27-1Z"/><path d="M241.91,483.9c2.49-3.14,7.13-1.19,8.15,2.3,1.08,3.71-2.52,6.73-5.15,8.65-.51.38,0,1.24.5.86,3.4-2.49,7.58-6.52,5.07-11.06-1.87-3.38-6.69-4.73-9.29-1.46-.4.5.31,1.21.71.71Z"/><path d="M204.54,469.08c-4.36.55-2.66-5.76,1.15-5.38a3.6,3.6,0,0,1,3.31,3.76c-.1,2.25-2,3-4,2.38-.62-.19-.88.77-.27,1,1.85.57,3.89.26,4.81-1.62a4.66,4.66,0,0,0-.72-5c-2.7-3.07-8-1.19-8,2.95,0,2.1,1.72,3.15,3.67,2.91.63-.08.64-1.08,0-1Z"/><path d="M203,471.21c-2.39,1.53-5.56,2.66-8,.6a8.6,8.6,0,0,1-2.59-6.43c0-2.1.56-4.73,2.54-5.86,2.91-1.65,6.5,1,8.64,2.77.49.41,1.2-.29.71-.71-3.57-3-9.83-5.91-12.22,0-1.53,3.77-.56,9.55,3.23,11.67,2.7,1.51,5.79.38,8.2-1.16.54-.35,0-1.21-.5-.86Z"/><path d="M202.71,471.85c-2.44,3.07-4.35,7.64-2.76,11.53,1.24,3,5.77,5.69,9,4.22,2.76-1.26,2.82-5.1,2.59-7.66a24,24,0,0,0-3-10.07.5.5,0,0,0-.86.5,22,22,0,0,1,2.5,7c.5,2.43,1.08,6-.38,8.2-2,3.14-7.28.53-8.65-2-1.91-3.53,0-8.14,2.28-11,.4-.5-.31-1.21-.71-.71Z"/><path d="M211.89,478.66c12.39,11,19-14.7,6.62-14.32-.64,0-.64,1,0,1,10.58-.32,5,22.36-5.91,12.61-.48-.43-1.19.28-.71.71Z"/><path d="M210,468.17c5.66,1,13.52-5.4,12.39-11.42-1.17-6.2-9-3-11.25.6-.34.55.52,1,.86.5,2-3.21,9.55-6.12,9.48.07-.05,4.86-6.44,10.16-11.22,9.27-.63-.12-.9.85-.27,1Z"/><path d="M204.2,464.11c-1.55-2.42-2.23-9,1.5-9.93,4.65-1.21,6.52,7.36,3.87,10a.5.5,0,0,0,.71.71c3.25-3.22,1.18-11.89-4-11.76s-4.93,8.43-3,11.51c.35.54,1.21,0,.86-.5Z"/><path d="M163,479.64c-.9-2-.56-4.91,1.83-5.57a3.29,3.29,0,0,1,4,1.74,3.88,3.88,0,0,1-.4,3.54c-1,1.37-2.55,1.33-3.94.66-.58-.28-1.08.58-.5.86,1.81.87,3.91.88,5.2-.87a4.84,4.84,0,0,0,.33-5.09,4.42,4.42,0,0,0-5.54-1.61c-2.62,1.17-2.92,4.5-1.85,6.83.27.58,1.13.08.86-.5Z"/><path d="M161.06,480.1a8.36,8.36,0,0,0-1.6,9c.89,2,3.4,4.35,5.81,3.51,4.44-1.54,4.22-9.91,1.89-13-.39-.5-1.26,0-.86.5,2,2.66,2.1,8.23-.28,10.76-1.81,1.93-4.43.09-5.44-1.78a7.32,7.32,0,0,1,1.19-8.28c.45-.46-.26-1.17-.71-.71Z"/><path d="M159.26,482.77c-3.62,3.36-6.73-.91-7.53-4.42-.37-1.6-.52-3.69.48-5.12,1.4-2,4.15-1.13,6-.31.58.26,1.09-.6.5-.86-2.14-1-5.09-1.84-6.95.15-1.48,1.59-1.44,4.15-1,6.14.91,4.4,5,9.12,9.26,5.13.47-.44-.24-1.14-.71-.71Z"/><path d="M162.64,473c-6.36,1.89-7.79-7.61-3.46-10.7,4-2.87,8.89,1,7.7,5.57a.5.5,0,0,0,1,.27c1.46-5.54-4.77-10.22-9.49-6.46-4.9,3.9-2.74,14.46,4.55,12.3a.5.5,0,0,0-.27-1Z"/><path d="M168.37,484.89c.87,4.71,7.45,6.42,9.33,1.44,1.29-3.42-.45-9.08-4.55-9.52-.64-.07-.63.93,0,1,3,.32,4.19,4.31,3.91,6.82-.54,4.9-6.85,4.74-7.72,0-.12-.63-1.08-.36-1,.27Z"/><path d="M166.35,472.6a7.88,7.88,0,0,1,2.31-5.57,3.94,3.94,0,0,1,6.27,1.57c1.33,3.4-1.85,7.94-5.42,8a.5.5,0,0,0,0,1c4.66,0,8.69-6.45,5.73-10.46a4.93,4.93,0,0,0-6.23-1.56c-2.42,1.35-3.59,4.42-3.66,7.06a.5.5,0,0,0,1,0Z"/><path d="M221.3,485.1c-3.27-1.93-7-3-10.1-5.17-.53-.37-1,.5-.5.86,3.12,2.19,6.84,3.24,10.1,5.17a.5.5,0,0,0,.5-.86Z"/><path d="M199.31,477.9C191,474.83,182,474,173.23,473.73c-.64,0-.64,1,0,1,8.72.29,17.58,1.09,25.82,4.13.6.22.87-.74.27-1Z"/><path d="M153.39,472.19c-5.3-1.73-11-1.75-16.07-4.26-4.13-2-7.68-5-12-6.78-.6-.24-.86.73-.27,1,4.71,1.91,8.56,5.39,13.23,7.37s10,2.08,14.82,3.67c.61.2.88-.76.27-1Z"/><path d="M124.46,461.51c-3.52-.34-7.94-1.11-8.84-5.14l-.35.62c3.08-1.07,8.36,1.07,8.89,4.6.09.63,1.06.36,1-.27-.6-4.05-6.55-6.54-10.12-5.3a.51.51,0,0,0-.35.62c1,4.53,5.82,5.49,9.8,5.88.64.06.64-.94,0-1Z"/><path d="M142.58,468.09c-2.7-3.36-4.24-7.42-6.14-11.24-.29-.58-1.15-.07-.86.5,1.95,3.91,3.54,8,6.3,11.45.4.5,1.11-.21.71-.71Z"/><path d="M137.24,458.72c1.53-4.31-1.18-8.45-4.77-10.72a.5.5,0,0,0-.75.43,16.1,16.1,0,0,0,4.69,10.51c.45.46,1.16-.25.71-.71a15.06,15.06,0,0,1-4.4-9.8l-.75.43c3.23,2,5.7,5.69,4.31,9.59-.22.61.75.87,1,.27Z"/><path d="M150.74,479.48c-4.8,1.2-10.3,2.69-14,6.18-.47.44.24,1.15.71.71,3.56-3.36,8.91-4.76,13.55-5.92a.5.5,0,0,0-.27-1Z"/><path d="M127,490a9.55,9.55,0,0,0,10.86-1.74.5.5,0,0,0,0-.71c-3.52-2.84-9.8-1.2-12.82,1.67-.47.44.24,1.15.71.71,2.57-2.44,8.36-4.13,11.41-1.67v-.71a8.51,8.51,0,0,1-9.65,1.58c-.58-.26-1.09.6-.5.86Z"/><path d="M203.08,486.13a24.36,24.36,0,0,0-11.31,11.44c-.26.58.6,1.09.86.5a23.51,23.51,0,0,1,11-11.08c.57-.29.07-1.15-.5-.86Z"/><path d="M191,500.32c2.75,5.23-.37,9.49-5.41,11.36l.63.48c.32-4.63,1.48-9.39,5.19-12.49.49-.41-.22-1.12-.71-.71-3.9,3.27-5.14,8.31-5.48,13.19a.5.5,0,0,0,.63.48c5.74-2.14,9.09-7,6-12.83-.3-.57-1.16-.06-.86.5Z"/><path d="M245.9,494.17a21.26,21.26,0,0,0,7.54,4.38c.61.2.87-.76.27-1a20,20,0,0,1-7.1-4.13c-.48-.43-1.19.28-.71.71Z"/><path d="M107.8,445c-2-4.08,4.28-6,6.7-3.34a3.08,3.08,0,0,1-2,5,5.53,5.53,0,0,1-5.82-3.68.5.5,0,0,0-1,.27,6.53,6.53,0,0,0,7.31,4.34,4.11,4.11,0,0,0,2.55-6.13c-1.32-2-4.32-2.33-6.43-1.6-2.6.9-3.39,3.24-2.24,5.66.28.58,1.14.07.86-.5Z"/><path d="M106.23,445.58c-3.62,1.14-4.39,7.34-4.06,10.45.4,3.69,3.16,6.37,7,5.84,6.09-.85,14.18-11,8.43-16.42-.47-.44-1.18.27-.71.71,4.83,4.54-1.9,12.88-6.6,14.43-3.33,1.09-6.49-.61-7.06-4.15-.43-2.63.1-8.89,3.27-9.88.61-.19.35-1.16-.27-1Z"/><path d="M100.77,450c-4,.24-6.68-2.38-5.84-6.45a8,8,0,0,1,7.87-6.43.5.5,0,0,0,0-1,9,9,0,0,0-8.95,7.82c-.62,4.49,2.56,7.32,6.92,7.06.64,0,.64-1,0-1Z"/><path d="M106.8,440c-5.71.31-6.11-8.53-4.76-12.33,2.92-8.2,13.57-1.52,13.29,5.12,0,.64,1,.64,1,0,.29-6.89-10.43-14.57-14.71-6.67-2.38,4.41-1.72,15.24,5.18,14.88.64,0,.64-1,0-1Z"/><path d="M114.58,440.36c-.95-6,7.5-14.76,13.23-9.88,3.08,2.62,3.72,7.42.18,9.85a11.6,11.6,0,0,1-9.76,1.12c-.62-.19-.88.78-.27,1,3.83,1.17,8.84.78,11.78-2.24s1.72-7.82-1.22-10.41c-6.49-5.71-16,4-14.91,10.86.1.63,1.06.36,1-.27Z"/><path d="M126.26,443.45c4.16.43,4.6,6,1.95,8.45s-6.91,1-9.84-.14c-.6-.24-.86.73-.27,1,4,1.6,9.84,2.89,12.14-2,1.64-3.46.07-7.89-4-8.31-.64-.07-.63.93,0,1Z"/><path d="M118.81,403.81a2.07,2.07,0,0,1,1-3.55,3.46,3.46,0,0,1,4.16,1.68,3.62,3.62,0,0,1-1.37,4.87c-1.95,1.13-3.61-.08-4.14-2.06a.5.5,0,0,0-1,.27c.5,1.89,1.85,3.46,4,3.22a4.66,4.66,0,0,0,3.84-3.41c1-3.94-3.55-7.34-6.94-5-1.72,1.21-1.51,3.15-.3,4.65.41.5,1.11-.21.71-.71Z"/><path d="M116.28,403.72c-2.06-1-4.27-2.45-4.74-4.85a6.32,6.32,0,0,1,1.61-5.08c2-2.39,6.51-5.13,9.4-2.66,2.25,1.92,1.94,5.73,1.59,8.32-.09.63.88.9,1,.27.62-4.55-.14-11.43-6.37-10.41-4,.66-8.48,4.57-8.27,8.93.15,3.09,2.73,5.12,5.31,6.34.58.27,1.09-.59.5-.86Z"/><path d="M115.45,403.8c-3.75-.42-8.38.37-10.88,3.47-2.09,2.59-2.11,7.45.45,9.8,5,4.54,13.36-5.56,15.29-9.36.29-.57-.57-1.08-.86-.5a22.53,22.53,0,0,1-5,6.24c-1.79,1.63-5,4.38-7.67,3.51-3.65-1.18-3.14-7.36-1-9.55,2.43-2.45,6.4-3,9.67-2.61.64.07.63-.93,0-1Z"/><path d="M114.66,415.18c-.49,2.9-.37,6.22,2.17,8.16,2,1.53,4.76,1.63,7.14,1.09,5.14-1.16,9.83-6,6.35-11.21-.36-.53-1.22,0-.86.5,5.92,8.82-16.28,16.13-13.83,1.71.11-.63-.86-.9-1-.27Z"/><path d="M122.55,408c2,5,10.06,7.85,14.83,5.43,2.29-1.16,3.58-3.51,2.43-6-1.31-2.79-4.53-4.21-7.47-4.24a.5.5,0,0,0,0,1c2.5,0,5.3,1.18,6.5,3.52,1.48,2.89-1.36,5-4,5.39-4,.55-9.77-1.41-11.34-5.41-.23-.59-1.2-.33-1,.27Z"/><path d="M122.9,401c1.23-2.58,5.92-6.3,8.89-4.28,4.3,2.92-2.36,9.69-6.05,8.85-.63-.14-.89.82-.27,1,4.47,1,10.83-5.36,7.83-9.69s-9.69.37-11.26,3.66c-.28.58.59,1.09.86.5Z"/><path d="M87.86,374.27c1.29-2,4.18-3.17,6-1.12a3.18,3.18,0,0,1,.32,4.11A3.9,3.9,0,0,1,91,378.71c-1.68-.07-2.51-1.43-2.68-3-.07-.63-1.07-.64-1,0,.22,2,1.31,3.79,3.48,4a4.86,4.86,0,0,0,4.45-2.34A4.39,4.39,0,0,0,94,371.89c-2.36-1.83-5.52-.34-7,1.88-.35.54.51,1,.86.5Z"/><path d="M86.49,372.89a8.37,8.37,0,0,0-8.6,3.58c-1.19,1.89-1.69,5.19.38,6.69,3.78,2.75,10.53-1.86,11.89-5.47.23-.6-.74-.86-1-.27-1.16,3.09-5.63,5.79-8.91,5.4-2.48-.29-2.79-2.81-2-4.82a7.18,7.18,0,0,1,8-4.15c.63.13.9-.83.27-1Z"/><path d="M83.27,372.78c-4.83-1.29-2.79-6.28-.19-8.81,1.19-1.16,2.94-2.41,4.71-2.22,2.36.26,3,3.07,3.25,5,.09.63,1,.36,1-.27-.26-1.93-.85-4.26-2.68-5.29a4.7,4.7,0,0,0-4.36.19c-3,1.45-6.07,5.15-5.68,8.65.23,2,1.85,3.21,3.73,3.71a.5.5,0,0,0,.27-1Z"/><path d="M93.37,370.46c-5.19-4.61,3-11.24,7.89-8.3a5,5,0,0,1-1.3,9.15c-.61.19-.35,1.16.27,1,5.24-1.62,6.21-8.86,1-11.27-5.93-2.73-14.37,5-8.53,10.17.48.43,1.19-.28.71-.71Z"/><path d="M86.31,381.6c-3.42,3-1.77,9.43,3.31,8.76,3.7-.49,8-5.15,6.06-9-.29-.58-1.15-.07-.86.5,1.47,2.95-2,6.56-4.62,7.32C85.82,390.47,84,385,87,382.31c.48-.43-.23-1.13-.71-.71Z"/><path d="M95.63,373.39c3.26-1.94,10.56-1.46,8.49,4.14-1.46,3.94-8.05,4-10.14.65-.34-.54-1.21,0-.86.5,2.54,4,10.5,4,12-1,2-6.4-5.92-7.57-10-5.14a.5.5,0,0,0,.5.86Z"/><path d="M114.19,426.62c-.11-3.79-1.16-7.5-1-11.31,0-.64-1-.64-1,0-.18,3.81.87,7.51,1,11.31,0,.64,1,.64,1,0Z"/><path d="M108.64,404.15c-1.82-8.68-5.88-16.71-10.31-24.32a.5.5,0,0,0-.86.5c4.38,7.55,8.4,15.48,10.21,24.08.13.63,1.1.36,1-.27Z"/><path d="M89.12,362.19c-1.16-4.69-3.68-8.94-4.61-13.7-1-5.25,0-10.66-.91-15.93-.11-.63-1.07-.36-1,.27.91,5.28-.12,10.67.91,15.93.93,4.75,3.45,9,4.61,13.7a.5.5,0,0,0,1-.27Z"/><path d="M82.83,332c-1.57-3.18-3.27-7.26-.35-10.22h-.71c2.53,2,3.56,7.64.85,10-.49.42.22,1.12.71.71,3.11-2.67,2.1-9-.85-11.39a.51.51,0,0,0-.71,0c-3.27,3.3-1.6,7.8.19,11.43.29.58,1.15.07.86-.5Z"/><path d="M86.85,350.86c1.42-4.07,4-7.53,6.27-11.17.34-.55-.53-1.05-.86-.5-2.28,3.73-4.92,7.25-6.37,11.41-.21.61.75.87,1,.27Z"/><path d="M92,341.35c4.45-.93,6.58-5.51,6.57-9.72a.5.5,0,0,0-.75-.43,16,16,0,0,0-6.43,9.54c-.15.63.82.89,1,.27a15,15,0,0,1,6-8.94l-.75-.43c0,3.78-1.82,7.92-5.83,8.76-.63.13-.36,1.1.27,1Z"/><path d="M81.54,363.82c-3.57-3.44-7.74-7.31-12.65-8.59a.5.5,0,0,0-.27,1c4.75,1.25,8.76,5,12.21,8.34.46.45,1.17-.26.71-.71Z"/><path d="M60,349.25a9.51,9.51,0,0,0,7.21,8.29.51.51,0,0,0,.63-.48c.58-4.37-4.31-8.9-8.21-9.87a.5.5,0,0,0-.27,1c3.51.87,8,5,7.47,8.9l.63-.48A8.48,8.48,0,0,1,61,349.25c-.08-.63-1.08-.64-1,0Z"/><path d="M103.67,411.71a24.54,24.54,0,0,0-15.83-3.51c-.63.09-.36,1,.27,1a23.48,23.48,0,0,1,15.06,3.41.5.5,0,0,0,.5-.86Z"/><path d="M85.25,409c-3,5.2-8.28,4.72-12.6,1.4v.86c4.12-2.19,8.71-3.72,13.33-2.24.61.2.88-.77.27-1-4.86-1.56-9.75,0-14.1,2.34a.51.51,0,0,0,0,.86c4.8,3.69,10.69,3.87,14-1.76a.5.5,0,0,0-.86-.5Z"/><path d="M119.56,452.24a21.57,21.57,0,0,0,.27,8.73c.15.63,1.11.36,1-.27a20.25,20.25,0,0,1-.27-8.19c.11-.63-.86-.9-1-.27Z"/><path d="M66.13,173.72c-2.24-4.67,4.88-6.94,7.67-3.85,1.87,2.07.34,5.37-2.27,5.74a6.31,6.31,0,0,1-6.64-4.19.5.5,0,0,0-1,.27,7.31,7.31,0,0,0,8.17,4.86,4.57,4.57,0,0,0,2.84-6.83c-1.47-2.25-4.83-2.6-7.18-1.78-2.89,1-3.78,3.6-2.48,6.29.28.58,1.14.07.86-.5Z"/><path d="M64.44,174.46c-4,1.2-4.85,8-4.57,11.41.34,4.15,3.27,7.37,7.65,6.87,6.88-.79,16.21-12.38,9.67-18.46-.47-.44-1.18.27-.71.71,5.61,5.22-2.31,14.8-7.71,16.46-4.16,1.28-7.53-1.4-7.91-5.58-.26-2.86.41-9.42,3.83-10.45a.5.5,0,0,0-.27-1Z"/><path d="M58.26,179.43c-4.54.29-7.6-2.7-6.66-7.31a9.09,9.09,0,0,1,9-7.35.5.5,0,0,0,0-1,10.13,10.13,0,0,0-10,8.88c-.63,5,2.94,8.09,7.76,7.79.64,0,.64-1,0-1Z"/><path d="M65.07,168.14c-6.56.38-7-9.85-5.37-14.16,3.42-9.13,15.42-1.49,15.06,6,0,.64,1,.64,1,0,.36-7.7-11.67-16.35-16.46-7.51-2.66,4.9-2,17.17,5.77,16.72.64,0,.64-1,0-1Z"/><path d="M73.79,168.52c-1.1-6.75,8.37-16.62,14.9-11.32,3.51,2.85,4.47,8.33.55,11.19-3.17,2.31-7.63,2.54-11.28,1.41-.62-.19-.88.77-.27,1,4.31,1.33,10,.86,13.26-2.55s1.86-8.73-1.41-11.6c-7.25-6.39-18,4.45-16.72,12.18.1.63,1.07.36,1-.27Z"/><path d="M87,171.93c4.75.49,5.29,6.81,2.24,9.65s-7.83,1.19-11.17-.15c-.6-.24-.86.73-.27,1,4.48,1.79,11.05,3.26,13.63-2.19,1.83-3.86.09-8.81-4.44-9.28-.64-.07-.63.93,0,1Z"/><path d="M464.84,52.34c-1.19-2.48,2.67-3.59,4.12-2a1.84,1.84,0,0,1-1.19,3,3.45,3.45,0,0,1-3.62-2.28.5.5,0,0,0-1,.27,4.45,4.45,0,0,0,5,3A2.86,2.86,0,0,0,469.94,50c-.9-1.39-2.95-1.63-4.4-1.13a2.67,2.67,0,0,0-1.57,4c.28.58,1.14.07.86-.5Z"/><path d="M463.61,52.67c-2.37.77-2.94,4.58-2.81,6.67.16,2.55,1.9,4.61,4.61,4.35,4.24-.41,9.7-7.38,5.81-11.07-.47-.44-1.17.26-.71.71,3.05,2.9-1.3,8.22-4.3,9.17-2.38.75-4.23-.74-4.41-3.16-.11-1.58.25-5.12,2.08-5.71.61-.2.35-1.16-.27-1Z"/><path d="M460.09,55.55c-2.53.14-4.19-1.46-3.65-4a5.06,5.06,0,0,1,5-4.05.5.5,0,0,0,0-1,6.08,6.08,0,0,0-6,5.28c-.41,3,1.74,5,4.7,4.8.64,0,.64-1,0-1Z"/><path d="M464,49c-3.57.15-3.81-5.41-3-7.8,1.85-5.21,8.51-.92,8.37,3.26,0,.64,1,.64,1,0,.15-4.58-6.84-9.75-9.87-4.59-1.77,3-1.23,10.33,3.46,10.13.64,0,.64-1,0-1Z"/><path d="M469.29,49.38c-.57-3.81,4.81-9.38,8.44-6.24,2,1.72,2.21,4.76-.09,6.23a7.51,7.51,0,0,1-6.09.6.5.5,0,0,0-.27,1c2.58.77,5.92.51,7.89-1.53s1.19-5.2-.74-7c-4.38-4-10.82,2.53-10.12,7.21.09.63,1.06.36,1-.27Z"/><path d="M476.77,51.62c2.57.27,2.77,3.73,1.15,5.23s-4.42.6-6.27-.14c-.6-.24-.86.73-.27,1,2.7,1.08,6.59,1.88,8.14-1.36,1.14-2.39,0-5.41-2.75-5.7-.64-.07-.63.93,0,1Z"/><path d="M76.91,521.34c-1.55-3.24,3.45-4.77,5.36-2.63a2.44,2.44,0,0,1-1.57,3.94,4.45,4.45,0,0,1-4.67-3,.5.5,0,0,0-1,.27,5.45,5.45,0,0,0,6.1,3.62,3.46,3.46,0,0,0,2.14-5.16c-1.1-1.69-3.61-2-5.37-1.36A3.21,3.21,0,0,0,76,521.84c.28.58,1.14.07.86-.5Z"/><path d="M75.52,521.81c-2.9.94-3.59,5.69-3.43,8.24.2,3.13,2.32,5.65,5.65,5.33,5.21-.51,12-9.11,7.19-13.65-.47-.44-1.17.26-.71.71,3.9,3.71-1.6,10.49-5.45,11.71-3.06,1-5.46-1-5.68-4.09-.15-2,.34-6.51,2.7-7.27.61-.2.35-1.16-.27-1Z"/><path d="M71.07,525.42c-3.25.18-5.39-1.92-4.69-5.21A6.47,6.47,0,0,1,72.74,515a.5.5,0,0,0,0-1,7.49,7.49,0,0,0-7.43,6.51c-.5,3.74,2.14,6.07,5.76,5.87.64,0,.64-1,0-1Z"/><path d="M76,517.22c-4.53.2-4.9-6.73-3.88-9.81,2.24-6.78,11-1.51,10.79,4,0,.64,1,.64,1,0,.18-5.7-8.6-12.09-12.21-5.55-2,3.7-1.42,12.62,4.31,12.37.64,0,.64-1,0-1Z"/><path d="M82.48,517.59c-.71-4.73,5.76-11.7,10.47-8.18,2.64,2,3.31,5.9.55,8-2.25,1.71-5.47,1.81-8.08,1a.5.5,0,0,0-.27,1c3.19,1,7.33.64,9.76-1.88s1.4-6.59-1.1-8.7c-5.45-4.61-13.15,3.35-12.3,9.05.1.63,1.06.36,1-.27Z"/><path d="M92,520.24c3.33.35,3.65,4.81,1.53,6.78s-5.61.81-8-.14c-.6-.24-.86.73-.27,1,3.32,1.33,8.15,2.37,10.06-1.65,1.38-2.9,0-6.6-3.34-6.95-.64-.07-.63.93,0,1Z"/><path d="M488.29,532.54a2,2,0,0,1,3.27-.17c.81.88,1.44,2.47.76,3.6a2.14,2.14,0,0,1-3.74-.31,3.94,3.94,0,0,1,.77-4.55c.48-.43-.23-1.14-.71-.71a4.94,4.94,0,0,0-.69,6.17,3.14,3.14,0,0,0,5,.2c2.47-3.12-2.44-8.6-5.4-4.94-.4.5.3,1.21.71.71Z"/><path d="M487.4,531.44c-2-2-6.35-.63-8.38.64a4.61,4.61,0,0,0-1.64,6.65c2.59,3.91,11.93,5.89,13.77.29.2-.61-.76-.88-1-.27-1.45,4.42-8.75,2.69-11.24.28a3.7,3.7,0,0,1,.58-6.1c1.58-1,5.56-2.45,7.17-.8.45.46,1.16-.25.71-.71Z"/><path d="M482.78,529.25c-1.39-2.53-.46-5,2.42-5.7a5.74,5.74,0,0,1,6.53,3.15c.28.58,1.15.07.86-.5a6.76,6.76,0,0,0-8.3-3.42c-3.18,1.11-3.92,4.16-2.38,7,.31.56,1.17.06.86-.5Z"/><path d="M491.31,530.07c-2.07-3.92,5.08-7.68,8.29-6.72,4.85,1.46,2.48,8.57-1,10.07-.59.25-.08,1.12.5.86,4.35-1.87,6.43-10.23.77-11.9-4.08-1.2-11.95,3.38-9.41,8.19.3.57,1.16.06.86-.5Z"/><path d="M493.43,535.58c3.28-2.25,10.11-.49,10.68,3.93.38,2.93-2.68,6.07-5.61,5-2.6-.95-4.12-3.81-4.53-6.39-.1-.63-1.06-.36-1,.27.49,3.11,2.66,6.73,6,7.32,3,.52,5.66-2.23,6.07-5,.86-5.88-8-8.8-12.18-6-.53.36,0,1.23.5.86Z"/><path d="M494.93,544.1c1.11,3.25-3.29,5.26-5.65,3.33-1.65-1.35-1.92-3.85-2.05-5.83,0-.64-1-.64-1,0,.19,2.91.89,6.74,4.25,7.49,3.12.7,6.54-2,5.42-5.26-.21-.61-1.17-.35-1,.27Z"/><path d="M513.77,203.95c-1.9-2.33-1.18-5,1.72-5.91a5.6,5.6,0,0,1,6.7,2.71,5.84,5.84,0,0,1-2.2,7.86c-3.15,1.82-5.9-.11-6.76-3.34a.5.5,0,0,0-1,.27c.74,2.77,2.69,5.12,5.79,4.76a6.9,6.9,0,0,0,5.68-5.05c1.5-5.83-5.27-10.87-10.28-7.31-2.48,1.76-2.17,4.56-.4,6.72.41.5,1.11-.21.71-.71Z"/><path d="M509.93,203.86c-3.22-1.52-6.63-3.83-7.4-7.55-.61-2.94.69-5.89,2.53-8.14,3.13-3.8,10.29-8,14.85-4.1,3.53,3,3.07,9,2.51,13.07-.09.63.88.9,1,.27.57-4.2.95-9.47-1.84-13a7.83,7.83,0,0,0-7.78-2.61c-6,1.06-12.68,6.91-12.37,13.44.22,4.65,4.16,7.7,8,9.53.58.27,1.09-.59.5-.86Z"/><path d="M508.79,204c-8.56-1-20.15,3.1-18.64,13.59.5,3.47,2.2,7.55,6.2,7.83,3.84.28,7.58-2.43,10.37-4.75A36.06,36.06,0,0,0,516,209.62c.29-.57-.58-1.08-.86-.5a34.87,34.87,0,0,1-8.35,10.17c-2.85,2.5-8.21,6.83-12.28,4.63-2.39-1.29-3.25-4.59-3.49-7.08a9.42,9.42,0,0,1,2.71-7.77c3.8-3.75,9.93-4.65,15-4,.64.08.63-.93,0-1Z"/><path d="M507.84,221.33c-1.2,6.81,1.11,13.55,8.76,14.29,5.84.57,13.15-2.34,15.87-7.81,1.58-3.17.91-6.58-1-9.42-.36-.53-1.23,0-.86.5,4.86,7.11-1.67,13.54-8.58,15.28-3.25.82-7.1.84-10-1.12-3.75-2.56-3.93-7.4-3.22-11.46.11-.63-.85-.9-1-.27Z"/><path d="M520,210.17c2.82,7.53,15,11.62,22.09,8.36,3.61-1.66,5.79-5.27,3.93-9.07-2-4.09-6.83-6.29-11.21-6.27a.5.5,0,0,0,0,1c3.91,0,8.09,1.82,10.1,5.31,2.41,4.18-1.12,7.86-5.18,8.77-6.36,1.43-16.31-1.81-18.76-8.36-.22-.6-1.19-.34-1,.27Z"/><path d="M520,199.28c1.92-4.12,10.2-10.49,14.63-6.22,5.49,5.29-4.26,15.08-10.1,13.64-.62-.15-.89.81-.27,1,6.69,1.65,16.17-8.12,11.74-14.52s-14.59.74-16.86,5.63c-.27.58.59,1.09.86.5Z"/><path d="M147.43,65.92a1.77,1.77,0,0,1,.89-3,3,3,0,0,1,3.61,1.46,3.13,3.13,0,0,1-1.19,4.22c-1.69,1-3.11-.06-3.57-1.79a.5.5,0,0,0-1,.27c.45,1.69,1.67,3.1,3.56,2.89a4.17,4.17,0,0,0,3.44-3.05c.91-3.53-3.17-6.57-6.21-4.44-1.55,1.09-1.37,2.85-.27,4.19.41.5,1.11-.21.71-.71Z"/><path d="M145.18,65.84c-1.8-.85-3.75-2.14-4.16-4.24a5.52,5.52,0,0,1,1.41-4.43c1.71-2.09,5.69-4.5,8.22-2.35,2,1.67,1.7,5,1.39,7.29-.09.63.88.9,1,.27.34-2.48.55-5.54-1.08-7.66a4.68,4.68,0,0,0-4.61-1.6c-3.59.59-7.53,4.06-7.35,7.94.13,2.75,2.42,4.56,4.72,5.65.58.27,1.09-.59.5-.86Z"/><path d="M144.43,65.89c-3.35-.36-7.5.34-9.71,3.15-1.82,2.31-1.79,6.58.45,8.66,4.41,4.08,11.87-4.89,13.6-8.27.29-.57-.57-1.08-.86-.5a19.82,19.82,0,0,1-4.28,5.36c-1.55,1.44-4.37,3.92-6.72,3.27-3.45-1-2.86-6.65-.79-8.55s5.5-2.41,8.31-2.11c.64.07.63-.93,0-1Z"/><path d="M143.67,76c-2.45,14.58,20,7.42,13.93-1.74-.36-.53-1.22,0-.86.5,5.14,7.71-14.22,14.13-12.1,1.5.11-.63-.86-.9-1-.27Z"/><path d="M150.63,69.7c1.8,4.47,9.12,7.12,13.38,4.73,1.91-1.07,3-3.06,2-5.16-1.13-2.54-4.06-3.81-6.69-3.85a.5.5,0,0,0,0,1c2.11,0,4.52.94,5.59,2.9,1.49,2.71-1.19,4.64-3.68,4.89-3.43.34-8.28-1.36-9.65-4.78-.24-.59-1.2-.33-1,.27Z"/><path d="M151.05,63.5c1.07-2.25,5.18-5.53,7.77-3.76,3.73,2.54-2.1,8.44-5.3,7.71-.63-.14-.89.82-.27,1,4,.91,9.65-4.77,7-8.64s-8.64.28-10,3.23c-.28.58.59,1.09.86.5Z"/><path d="M366.21,81.29c.76-1.28,2-1.56,3.07-.38a3,3,0,0,1,.06,3.93,3.14,3.14,0,0,1-4.33.51c-1.58-1.2-1.22-3,.3-4,.52-.37,0-1.23-.5-.86-1.44,1-2.39,2.61-1.55,4.33A4.17,4.17,0,0,0,367.34,87c3.59-.39,5-5.17,2.05-7.32-1.53-1.1-3.16-.4-4.05,1.11a.5.5,0,0,0,.86.5Z"/><path d="M365.54,79c.18-2,.79-4.29,2.67-5.34a5.63,5.63,0,0,1,4.63-.09c2.52.91,6.14,3.87,4.89,7-1,2.4-4.18,3.25-6.44,3.74-.63.14-.36,1.1.27,1,2.44-.53,5.44-1.44,6.8-3.74a4.76,4.76,0,0,0-.23-4.91c-1.85-3.1-6.42-5.55-10-4-2.53,1.1-3.4,3.89-3.63,6.43-.06.64.94.64,1,0Z"/><path d="M365.23,78.45c-.85-3.44-3.12-7.36-6.84-8.23-2.76-.64-6.95,1.13-7.64,4.12-.58,2.53,1.86,4.6,3.71,5.84a21.37,21.37,0,0,0,9,3.53c.64.08.63-.92,0-1a19.5,19.5,0,0,1-6.36-2.15c-1.89-1-4.54-2.42-5.27-4.58-1.11-3.31,4.07-5.43,6.55-4.74,3.22.9,5.12,4.47,5.87,7.47a.5.5,0,0,0,1-.27Z"/><path d="M355.39,81.18c-14.32,2.67-.1,21.44,6.54,12.41.38-.52-.49-1-.86-.5-5.37,7.29-18.21-8.55-5.42-10.94.63-.12.36-1.08-.27-1Z"/><path d="M363.71,85.61c-3.58,3.21-3.44,11,.22,14.14,5,4.3,8.33-3.23,6.86-7.45-.21-.6-1.18-.34-1,.27a6.68,6.68,0,0,1-.53,5.93c-1.84,2.68-4.81,1.1-6-1.25-1.65-3.15-1.63-8.42,1.16-10.93.48-.43-.23-1.14-.71-.71Z"/><path d="M369.83,83.83c2.58.25,8.08,3.93,5.6,7-2.22,2.71-8.18-.17-8.54-3.25-.08-.63-1.08-.64-1,0,.47,4,7.29,7.27,10.25,4,3.34-3.73-3-8.35-6.3-8.66-.64-.06-.64.94,0,1Z"/><path d="M396.26,466.5c4.2-1.14,5.09,4.62,2.48,6.9a3.07,3.07,0,0,1-4.93-2,5.52,5.52,0,0,1,4.64-5.56c.63-.07.64-1.07,0-1a6.52,6.52,0,0,0-5.64,6.56,4.11,4.11,0,0,0,5.75,3.37c4.45-2.18,3.1-10.72-2.56-9.18a.5.5,0,0,0,.27,1Z"/><path d="M396,464.88c-.45-3.63-5.87-5.47-8.9-5.88-3.83-.51-7.4,1.48-7.65,5.62-.37,6.14,8.18,16.11,14.57,11.43.51-.38,0-1.24-.5-.86-5.23,3.83-11.91-3.81-12.9-8.54-.74-3.53,1.29-6.75,5.09-6.74,2.64,0,8.88,1.66,9.29,5,.08.63,1.08.64,1,0Z"/><path d="M392.64,458.57c.49-3.91,3.56-6,7.3-4.51a8,8,0,0,1,5,8.91c-.11.63.85.9,1,.27A9,9,0,0,0,399.83,453c-4.37-1.43-7.64,1.28-8.18,5.61-.08.64.92.63,1,0Z"/><path d="M401.38,466.33c.75-5.67,9.76-4.29,13.13-2.24,7.32,4.46-1.24,13.5-7.58,12-.63-.14-.89.82-.27,1,6.74,1.55,16.32-7.58,9.26-13.24-4-3.2-14.65-4.42-15.56,2.47-.08.64.92.63,1,0Z"/><path d="M399.53,474c5.94.14,13.07,9.77,7.55,14.64-2.85,2.52-7.7,2.68-9.67-.91-1.72-3.13-1.19-7.26.4-10.31.3-.57-.56-1.08-.86-.5-1.87,3.58-2.41,8.63.08,12.09s7.2,3,10.27.74c7-5.21-.73-16.57-7.77-16.74a.5.5,0,0,0,0,1Z"/><path d="M394.41,484.87c-1.06,3.58-5.65,3.61-8,1.25-3-3-.61-7.53,1.24-10.46.35-.55-.52-1-.86-.5-2.32,3.67-4.7,9.25-.24,12.38,3.07,2.16,7.67,1.46,8.81-2.41a.5.5,0,0,0-1-.27Z"/><path d="M434.7,484.87c3.74-2,4.48,4.3,1,5.42-4.38,1.39-6.94-5.52-1.83-5.91.64,0,.64-1,0-1-1.92.15-3.74,1.12-3.93,3.22a4.65,4.65,0,0,0,2.61,4.46c3.66,1.75,7.81-2,6.21-5.8-.83-1.95-2.8-2.2-4.52-1.26-.56.31-.06,1.17.5.86Z"/><path d="M435.33,482.31c1.34-1.85,3.24-3.73,5.69-3.7a6.42,6.42,0,0,1,4.66,2.59c2,2.37,3.77,7.34.79,9.68-2.34,1.84-6,.8-8.52,0-.61-.2-.88.76-.27,1,4.47,1.48,11.39,1.78,11.31-4.64,0-4-3.07-9-7.38-9.52-3.06-.36-5.47,1.84-7.14,4.15-.38.52.49,1,.86.5Z"/><path d="M435.35,481.6c1.1-3.62,1.2-8.35-1.41-11.38-2.19-2.56-7.16-3.48-9.89-1.2-2.39,2-1.24,5.57-.13,7.92a24,24,0,0,0,6.78,8.74c.51.39,1-.48.5-.86a22.39,22.39,0,0,1-5.24-6.2c-1.24-2-3.29-5.63-1.93-8,1.84-3.26,7.66-1.77,9.44.71,2,2.83,1.88,6.87.9,10.06-.19.62.78.88,1,.27Z"/><path d="M424.22,478.66c-15.41-5.67-12.34,20.73-.78,15.74.59-.25.08-1.12-.5-.86-9.54,4.12-12.92-19,1-13.91.6.22.87-.74.27-1Z"/><path d="M429.81,487.77c-5.5,1.08-10,9.34-7.61,14.51,2.89,6.21,9.72.5,10.58-4,.12-.63-.84-.9-1-.27a7.62,7.62,0,0,1-3.8,5.43c-2.87,1.45-5.19-.67-5.44-3.63-.36-4.33,3-10.23,7.49-11.1.63-.12.36-1.09-.27-1Z"/><path d="M436.83,489.45c2.3,1.67,5,7,2.49,9.49-3.65,3.59-9.1-4.08-7.59-7.56.25-.58-.61-1.09-.86-.5-1.82,4.21,3.28,11.77,8.13,9.48,4.66-2.2,1.31-9.62-1.66-11.77-.52-.38-1,.49-.5.86Z"/><path d="M469.41,459.81c1.64,1.57,2.42,4.59.16,6a3.23,3.23,0,0,1-4.2-.34,3.89,3.89,0,0,1-.86-3.45c.43-1.63,1.95-2.1,3.48-2,.64,0,.64-1,0-1-2-.15-3.9.67-4.45,2.72a4.84,4.84,0,0,0,1.55,4.84,4.42,4.42,0,0,0,5.75-.52c2-2,1.11-5.24-.73-7-.46-.45-1.17.26-.71.71Z"/><path d="M471.08,458.65a8.31,8.31,0,0,0-2.27-9.27c-1.64-1.38-4.66-2.28-6.4-.58-3.31,3.23-.1,10.65,3.21,12.65a.5.5,0,0,0,.5-.86c-2.81-1.7-4.83-6.76-3.68-9.92,1-2.63,4.18-1.9,5.88-.39a7.36,7.36,0,0,1,1.79,8.11c-.24.59.72.85,1,.27Z"/><path d="M471.73,455.63c2.16-4.5,6.65-1.69,8.7,1.36.92,1.37,1.8,3.24,1.37,4.92-.6,2.37-3.52,2.51-5.51,2.42-.64,0-.64,1,0,1,2.31.11,5.33-.19,6.32-2.66.82-2.05-.17-4.46-1.32-6.18-2.45-3.66-7.91-6.62-10.43-1.36-.28.58.58,1.09.86.5Z"/><path d="M472.15,466c5.66-4.34,10.82,5.44,6.43,9.58a5,5,0,0,1-8.45-3.23c-.07-.63-1.07-.64-1,0,.62,5.27,7.14,7.76,10.68,3.35,4.19-5.23-1.87-15.4-8.17-10.57-.5.39,0,1.26.5.86Z"/><path d="M462.53,457c-2.33-3.85-8.88-3.58-9.23,1.54-.26,3.73,3.57,8.84,7.66,7.69a.5.5,0,0,0-.27-1c-3,.85-5.76-2.67-6.29-5.29-.95-4.65,4.93-6.34,7.26-2.48a.5.5,0,0,0,.86-.5Z"/><path d="M468.87,467.59c1.3,3.55-.2,10.23-5.34,7.76-3.93-1.88-2.77-8.75.91-10.22.59-.24.33-1.2-.27-1-4.41,1.76-5.87,9.51-1.3,12,5.91,3.2,8.6-4.35,7-8.83-.22-.6-1.19-.34-1,.27Z"/><path d="M413.11,476.13c3.75.59,7.59.23,11.29,1.11.63.15.89-.82.27-1-3.71-.88-7.54-.52-11.29-1.11-.63-.1-.9.86-.27,1Z"/><path d="M436.21,474.79c8.87-.2,17.5-2.71,25.8-5.67.6-.21.34-1.18-.27-1-8.22,2.93-16.76,5.44-25.54,5.64a.5.5,0,0,0,0,1Z"/><path d="M481,463.28c5.22-.31,10.26-2.23,15.52-2,4.94.22,9.66,1.94,14.62,2a.5.5,0,0,0,0-1c-5-.05-9.69-1.77-14.62-2-5.26-.24-10.3,1.69-15.52,2-.64,0-.64,1,0,1Z"/><path d="M511.87,462.63a19.38,19.38,0,0,1,4.94-.91c.85,0,5.49.56,4.64,2.26-.52,1-3.69.93-4.62.83-1.69-.18-3.71-.78-4.62-2.34a.5.5,0,0,0-.86.5c2.11,3.62,8.51,3.72,11.44,1.23a.5.5,0,0,0,.08-.61c-2.63-3.83-7.35-3.05-11.26-1.94a.5.5,0,0,0,.27,1Z"/><path d="M492.6,463.1c3.75,2.13,6.66,5.34,9.84,8.2.48.43,1.19-.28.71-.71-3.24-2.92-6.22-6.18-10-8.36a.5.5,0,0,0-.5.86Z"/><path d="M501.05,469.84c.08,4.54,4.16,7.52,8.31,8.27.33.06.78-.23.62-.62a15.9,15.9,0,0,0-8.18-8.09c-.58-.26-1.09.6-.5.86a15,15,0,0,1,7.72,7.49l.62-.62c-3.69-.67-7.51-3.21-7.58-7.31a.5.5,0,0,0-1,0Z"/><path d="M480.84,455.56c4-2.87,8.63-6.25,10.78-10.85.27-.58-.59-1.09-.86-.5-2.07,4.42-6.54,7.73-10.42,10.49-.52.37,0,1.24.5.86Z"/><path d="M499,437a9.51,9.51,0,0,0-9.41,5.66.51.51,0,0,0,.35.62c4.22,1.35,9.52-2.54,11.23-6.22.27-.58-.59-1.09-.86-.5-1.52,3.29-6.31,7-10.1,5.76l.35.62A8.51,8.51,0,0,1,499,438c.64,0,.64-1,0-1Z"/><path d="M429.71,468.55a24.59,24.59,0,0,0,6.38-14.91c0-.64-1-.64-1,0a23.5,23.5,0,0,1-6.09,14.2c-.43.48.28,1.19.71.71Z"/><path d="M435.8,450.94c-4.52-3.91-3.18-9,.88-12.64l-.84-.22c1.39,4.44,2.09,9.25-.21,13.52-.31.57.56,1.07.86.5,2.42-4.5,1.78-9.58.31-14.29a.51.51,0,0,0-.84-.22c-4.49,4-5.82,9.78-.88,14.06.48.42,1.19-.29.71-.71Z"/><path d="M386.89,476.69a21.24,21.24,0,0,0-8.5-1.3c-.64,0-.64,1,0,1a20.57,20.57,0,0,1,8.24,1.26c.6.22.87-.74.27-1Z"/></g><g id="logo"><path class="cls-8" d="M388.74,498.6H577.56a0,0,0,0,1,0,0v77.7a0,0,0,0,1,0,0h-201a0,0,0,0,1,0,0V510.81A12.21,12.21,0,0,1,388.74,498.6Z"/><path class="cls-2" d="M459,559.63a6.61,6.61,0,1,1,0-13.21,6.27,6.27,0,0,1,6.63,6.3,7,7,0,0,1-1.83,5.08,6.49,6.49,0,0,1-4.72,1.83Zm6.76-14.29a9.69,9.69,0,0,0-7.28-2.22,9.45,9.45,0,0,0-5.31,2.2.54.54,0,0,1-.9-.39v-8.61a.54.54,0,0,0-.54-.54h-2.26a.54.54,0,0,0-.54.49c0,.1,0,.19,0,.27a5,5,0,0,0,0,.55v2c0,4.45,0,9,0,13.57a12,12,0,0,0,.21,2.49c1.07,4.94,4.71,7.76,10,7.76h.27a9.58,9.58,0,0,0,9.12-6.19,10.28,10.28,0,0,0-2.73-11.4"/><path class="cls-2" d="M442.9,552.94a6.38,6.38,0,0,1-6.6,6.69h0a6.61,6.61,0,1,1,0-13.22h0a6.39,6.39,0,0,1,6.62,6.53m1.35-6.26a10.72,10.72,0,0,0-12.95-2.46,9.89,9.89,0,0,0-4.92,11.37,9,9,0,0,0,6.83,7,11.94,11.94,0,0,0,2.93.39,8.52,8.52,0,0,0,6.38-2.77,7.51,7.51,0,0,0,.59-.72v2.41a.54.54,0,0,0,.54.54h2.08a.54.54,0,0,0,.54-.54c0-1,0-2.06,0-3.09,0-2.43,0-4.94-.05-7.4a8,8,0,0,0-2-4.74"/><path class="cls-2" d="M512,552.94a6.38,6.38,0,0,1-6.6,6.69h0a6.61,6.61,0,1,1,0-13.22h0a6.39,6.39,0,0,1,6.62,6.53m1.35-6.26a10.72,10.72,0,0,0-12.95-2.46,9.89,9.89,0,0,0-4.92,11.37,9,9,0,0,0,6.83,7,11.94,11.94,0,0,0,2.93.39,8.52,8.52,0,0,0,6.38-2.77,7.51,7.51,0,0,0,.59-.72v2.41a.54.54,0,0,0,.54.54h2.08a.54.54,0,0,0,.54-.54c0-1,0-2.06,0-3.09,0-2.43,0-4.94-.05-7.4a8,8,0,0,0-2-4.74"/><path class="cls-2" d="M417,543.23a8.3,8.3,0,0,0-7.11,1.67.54.54,0,0,1-.89-.4v-8.2a.54.54,0,0,0-.54-.54h-2.33a.54.54,0,0,0-.54.54v25.62a.54.54,0,0,0,.54.54h2.37a.54.54,0,0,0,.54-.53c0-.93,0-2.82,0-3.65,0-1.93,0-3.86,0-5.78a5.57,5.57,0,0,1,6.51-6.06,5,5,0,0,1,5.1,4.93c.12,2.16.12,4.36.13,6.5,0,.95,0,1.89,0,2.83,0,.27,0,.54,0,.81v.39a.54.54,0,0,0,.54.54h2.36a.54.54,0,0,0,.54-.54q0-1.58,0-3.15c0-2.29,0-4.66,0-7-.07-4.62-2.77-7.81-7.23-8.54"/><path class="cls-2" d="M493,554.48h-2.62a.54.54,0,0,0-.54.49l0,.38c0,.27,0,.53-.06.79a3.46,3.46,0,0,1-3.59,3.46c-1.5.09-4.05-.18-4.27-2.91-.18-2.32-.19-4.7-.19-7,0-.77,0-1.54,0-2.31a.53.53,0,0,1,.54-.54H489a.54.54,0,0,0,.35-.94l-2.58-2.25a.54.54,0,0,0-.35-.13h-4.25a.54.54,0,0,1-.54-.54V539.4a.54.54,0,0,0-.54-.54h-2.23a.54.54,0,0,0-.54.54v1.07c0,.1-.05,10.23,0,16.5a5.79,5.79,0,0,0,2.1,4.18,7.58,7.58,0,0,0,5.25,1.8c.44,0,.88,0,1.28-.06a6.85,6.85,0,0,0,5-2.8,6.43,6.43,0,0,0,1.17-5.2Z"/><path class="cls-2" d="M532.28,555l-.06-.46h-2.72a.54.54,0,0,0-.54.5l0,.42c0,.24,0,.46,0,.68a3.46,3.46,0,0,1-3.54,3.51c-1.53.09-4.12-.17-4.33-3-.18-2.37-.17-4.8-.17-7.16,0-.71,0-1.43,0-2.14a.54.54,0,0,1,.54-.54H528a.54.54,0,0,0,.33-1l-2.82-2.22a.54.54,0,0,0-.33-.12h-3.87a.54.54,0,0,1-.54-.54v-3.44a.54.54,0,0,0-.54-.54h-2.33a.54.54,0,0,0-.54.54v1.09c0,.1,0,10.09.1,16.29a6.18,6.18,0,0,0,5,5.74,12.22,12.22,0,0,0,2.65.26h.46a6.83,6.83,0,0,0,5.13-2.37,7,7,0,0,0,1.55-5.58"/><path class="cls-2" d="M472.22,562.42h2.27a.54.54,0,0,0,.54-.54V544.12a.54.54,0,0,0-.53-.54l-2.27,0a.54.54,0,0,0-.55.54v17.81a.54.54,0,0,0,.54.54"/><path class="cls-2" d="M472.22,541.28h2.27a.54.54,0,0,0,.54-.54v-2.27a.54.54,0,0,0-.54-.54h-2.27a.54.54,0,0,0-.54.54v2.27a.54.54,0,0,0,.54.54"/><path class="cls-2" d="M541.88,547l-16.41-16.41a5.14,5.14,0,0,1,0-7.27l16.41-16.41a5.14,5.14,0,0,1,7.27,0l16.41,16.41a5.14,5.14,0,0,1,0,7.27L549.15,547a5.14,5.14,0,0,1-7.27,0"/><path class="cls-8" d="M558.07,526.59l-3-3a.47.47,0,0,0-.8.33V525a.47.47,0,0,1-.47.47h-1.65a.47.47,0,0,1-.47-.47v-2.16a.47.47,0,0,1,.47-.47h.56a.47.47,0,0,0,.33-.8l-3-3a.47.47,0,0,0-.67,0l-3,3a.47.47,0,0,0,.33.8h.66a.47.47,0,0,1,.47.47v2.11a.47.47,0,0,1-.47.47h-3.62a.47.47,0,0,1-.47-.47v-2.11a.47.47,0,0,1,.47-.47h.69a.47.47,0,0,0,.33-.8l-3-3a.47.47,0,0,0-.67,0l-3,3a.47.47,0,0,0,.33.8h.53a.47.47,0,0,1,.47.47V525a.47.47,0,0,1-.47.47h-1.63a.47.47,0,0,1-.47-.47V523.9a.47.47,0,0,0-.8-.33l-3,3a.47.47,0,0,0,0,.67l3,3a.47.47,0,0,0,.8-.33v-1.06a.47.47,0,0,1,.47-.47h1.63a.47.47,0,0,1,.47.47V531a.47.47,0,0,1-.47.47h-.53a.47.47,0,0,0-.33.8l3,3a.47.47,0,0,0,.67,0l3-3a.47.47,0,0,0-.33-.8h-.69a.47.47,0,0,1-.47-.47v-2.12a.47.47,0,0,1,.47-.47h3.62a.47.47,0,0,1,.47.47V531a.47.47,0,0,1-.47.47h-.66a.47.47,0,0,0-.33.8l3,3a.47.47,0,0,0,.67,0l3-3a.47.47,0,0,0-.33-.8h-.56a.47.47,0,0,1-.47-.47v-2.16a.47.47,0,0,1,.47-.47h1.65a.47.47,0,0,1,.47.47v1.06a.47.47,0,0,0,.8.33l3-3a.47.47,0,0,0,0-.67"/></g></svg>