<svg xmlns="http://www.w3.org/2000/svg" xmlns:xlink="http://www.w3.org/1999/xlink" viewBox="0 0 1280 800.88"><defs><style>.cls-1,.cls-10,.cls-16{fill:none;stroke-miterlimit:10;}.cls-1{stroke:#c3c6c8;stroke-dasharray:3 4;}.cls-2,.cls-3,.cls-4{opacity:0.8;}.cls-2{fill:url(#linear-gradient);}.cls-3{fill:url(#linear-gradient-2);}.cls-5{fill:url(#linear-gradient-3);}.cls-6{fill:url(#linear-gradient-4);}.cls-7{fill:url(#linear-gradient-5);}.cls-8{fill:#f3fcff;}.cls-9{fill:#666;}.cls-10{stroke:#fff;stroke-width:2px;opacity:0.15;}.cls-11{fill:#4296b4;}.cls-12{fill:#80c4d6;}.cls-13{fill:#fff;}.cls-14{fill:#ff9012;}.cls-15{fill:#ad5f12;}.cls-16{stroke:#80c4d6;}.cls-17{fill:#f4f4f4;}.cls-18{fill:#c5d2d8;}.cls-19,.cls-21{opacity:0.9;}.cls-20{fill:#dbdbdb;}.cls-21{fill:#87b09a;}</style><linearGradient id="linear-gradient" x1="799.49" y1="-1512.75" x2="799.49" y2="-1427.2" gradientTransform="translate(2113.71 1098.48) rotate(-90)" gradientUnits="userSpaceOnUse"><stop offset="0" stop-color="#87b09a"/><stop offset="0.25" stop-color="#89b77b"/><stop offset="0.56" stop-color="#8abf5a"/><stop offset="0.82" stop-color="#8cc446"/><stop offset="1" stop-color="#8cc63f"/></linearGradient><linearGradient id="linear-gradient-2" x1="799.49" y1="-1895.27" x2="799.49" y2="-1717.45" xlink:href="#linear-gradient"/><linearGradient id="linear-gradient-3" x1="-5171.86" y1="-4409.71" x2="-5093.56" y2="-4409.71" gradientTransform="translate(2848.37 6789.94) rotate(32.84)" gradientUnits="userSpaceOnUse"><stop offset="0" stop-color="#2f789f"/><stop offset="0.21" stop-color="#347da0"/><stop offset="0.47" stop-color="#418da4"/><stop offset="0.76" stop-color="#58a6ab"/><stop offset="1" stop-color="#70c2b2"/></linearGradient><linearGradient id="linear-gradient-4" x1="-922.13" y1="-5927.41" x2="-843.83" y2="-5927.41" gradientTransform="translate(6764.54 -313.73) rotate(-86.69)" xlink:href="#linear-gradient-3"/><linearGradient id="linear-gradient-5" x1="-1695.16" y1="-1521.54" x2="-1616.86" y2="-1521.54" gradientTransform="matrix(-0.88, 0.47, -0.47, -0.88, -1384.59, -188.21)" xlink:href="#linear-gradient-3"/></defs><title>Keys</title><g id="middle_layer" data-name="middle layer"><line class="cls-1" x1="189.49" y1="343.77" x2="189.49" y2="478.26"/><line class="cls-1" x1="501.38" y1="343.77" x2="501.38" y2="478.26"/><line class="cls-1" x1="806.89" y1="386.73" x2="806.89" y2="478.26"/><line class="cls-1" x1="1111.09" y1="418.3" x2="1111.09" y2="478.26"/><polygon class="cls-2" points="675.78 287.89 686.51 298.99 676.03 310.1 600.95 310.1 600.95 287.89 675.78 287.89"/><polygon class="cls-3" points="385.77 287.89 396.25 298.99 385.77 310.1 218.43 310.1 218.43 287.89 385.77 287.89"/><g class="cls-4"><path class="cls-5" d="M935.79,359.87,921,362.55l-3.68-14.61a88,88,0,0,0,.77-93l3-16.6,15.91,5.3A110.72,110.72,0,0,1,935.79,359.87Z"/></g><g class="cls-4"><path class="cls-6" d="M842.19,188.52l9.63,11.57-10.9,10.4a88,88,0,0,0-81.32,45.16l-15.9,5.6-3.23-16.45A110.72,110.72,0,0,1,842.19,188.52Z"/></g><g class="cls-4"><path class="cls-7" d="M738.28,351l4.84-14.25,14.56,3.86a88,88,0,0,0,81,45.76L851.74,397l-12.35,11.34A110.72,110.72,0,0,1,738.28,351Z"/></g><g class="cls-4"><path class="cls-7" d="M738.28,351l4.84-14.25,14.56,3.86a88,88,0,0,0,81,45.76L851.74,397l-12.35,11.34A110.72,110.72,0,0,1,738.28,351Z"/></g><circle class="cls-8" cx="885.18" cy="388.85" r="28.64"/><circle class="cls-8" cx="732.72" cy="300.49" r="28.64"/><circle class="cls-8" cx="885.26" cy="211.06" r="28.64"/><path class="cls-9" d="M875.82,207.2c-1,0-1.61.37-1.61,1,0,2.16,5.32,1,5.31,4.55,0,1.76-1.55,2.85-3.72,2.85a6.06,6.06,0,0,1-4-1.56l.72-1.44a5.2,5.2,0,0,0,3.34,1.44c1.16,0,1.85-.44,1.85-1.2,0-2.2-5.32-1-5.32-4.48,0-1.69,1.45-2.75,3.59-2.75a6.42,6.42,0,0,1,3.45,1l-.69,1.46A5.89,5.89,0,0,0,875.82,207.2Z"/><path class="cls-9" d="M888.17,208.07v7.49h-1.62V214.1a2.76,2.76,0,0,1-2.68,1.52,2.6,2.6,0,0,1-2.75-2.89v-4.66h1.62v4.21a1.65,1.65,0,0,0,1.75,1.82,2.12,2.12,0,0,0,2.06-2.34v-3.69Z"/><path class="cls-9" d="M898.45,211.85a3.47,3.47,0,0,1-3.55,3.77,3,3,0,0,1-2.65-1.35v4h-1.62V208.07h1.62v1.29a2.93,2.93,0,0,1,2.62-1.35A3.52,3.52,0,0,1,898.45,211.85Zm-1.63-.06a2.29,2.29,0,1,0-2.28,2.45A2.27,2.27,0,0,0,896.82,211.79Z"/><path class="cls-9" d="M723.36,298.3c-1,0-1.61.37-1.61,1,0,2.15,5.32,1,5.31,4.55,0,1.76-1.55,2.85-3.72,2.85a6.06,6.06,0,0,1-4-1.56l.72-1.44a5.19,5.19,0,0,0,3.34,1.44c1.15,0,1.85-.44,1.85-1.2,0-2.2-5.32-1-5.32-4.48,0-1.69,1.45-2.75,3.59-2.75a6.41,6.41,0,0,1,3.45,1l-.69,1.46A5.89,5.89,0,0,0,723.36,298.3Z"/><path class="cls-9" d="M735.71,299.18v7.49h-1.62v-1.46a2.77,2.77,0,0,1-2.68,1.52,2.6,2.6,0,0,1-2.75-2.89v-4.66h1.62v4.21a1.65,1.65,0,0,0,1.75,1.82,2.12,2.12,0,0,0,2.06-2.34v-3.69Z"/><path class="cls-9" d="M746,303a3.47,3.47,0,0,1-3.55,3.78,3,3,0,0,1-2.65-1.35v4h-1.62V299.18h1.62v1.29a2.93,2.93,0,0,1,2.62-1.35A3.52,3.52,0,0,1,746,303Zm-1.63-.06a2.29,2.29,0,1,0-2.28,2.45A2.27,2.27,0,0,0,744.36,302.89Z"/><path class="cls-9" d="M875.82,387.81c-1,0-1.61.37-1.61,1,0,2.16,5.32,1,5.31,4.55,0,1.76-1.55,2.85-3.72,2.85a6.06,6.06,0,0,1-4-1.56l.72-1.44a5.2,5.2,0,0,0,3.34,1.44c1.16,0,1.85-.44,1.85-1.2,0-2.2-5.32-1-5.32-4.48,0-1.69,1.45-2.75,3.59-2.75a6.42,6.42,0,0,1,3.45,1l-.69,1.46A5.89,5.89,0,0,0,875.82,387.81Z"/><path class="cls-9" d="M888.17,388.69v7.49h-1.62v-1.46a2.76,2.76,0,0,1-2.68,1.52,2.6,2.6,0,0,1-2.75-2.89v-4.66h1.62v4.21a1.65,1.65,0,0,0,1.75,1.82,2.12,2.12,0,0,0,2.06-2.34v-3.69Z"/><path class="cls-9" d="M898.45,392.46a3.47,3.47,0,0,1-3.55,3.77,3,3,0,0,1-2.65-1.35v4h-1.62V388.69h1.62V390a2.93,2.93,0,0,1,2.62-1.35A3.52,3.52,0,0,1,898.45,392.46Zm-1.63-.06a2.29,2.29,0,1,0-2.28,2.45A2.27,2.27,0,0,0,896.82,392.4Z"/><line class="cls-10" x1="1080.8" y1="318.5" x2="749.04" y2="318.5"/><line class="cls-10" x1="1060.94" y1="283.74" x2="749.04" y2="283.74"/><line class="cls-10" x1="1067.87" y1="301.12" x2="731.22" y2="301.12"/><line class="cls-10" x1="1080.8" y1="409.56" x2="894.17" y2="409.56"/><line class="cls-10" x1="1063.44" y1="374.8" x2="894.17" y2="374.8"/><line class="cls-10" x1="1067.87" y1="392.05" x2="876.35" y2="392.05"/><line class="cls-10" x1="1080.8" y1="227.44" x2="894.17" y2="227.44"/><line class="cls-10" x1="1061.19" y1="192.68" x2="894.17" y2="192.68"/><line class="cls-10" x1="1061.37" y1="209.33" x2="876.35" y2="209.33"/><path class="cls-11" d="M230.39,505.77l-5.81,7.43a2.48,2.48,0,0,1-3.53,0l-1.3-1.3-4,4a2.57,2.57,0,0,1-3.64,0l-4-4H189.49v-9.77Z"/><path class="cls-12" d="M226.89,500.62l3.5,5.14h-40.9v-6.16h35A3.28,3.28,0,0,1,226.89,500.62Z"/><path class="cls-11" d="M178.25,505.77a8.48,8.48,0,1,1-17,0h-6.17a19.49,19.49,0,0,0,39,0Z"/><path class="cls-12" d="M174.6,486.28a19.49,19.49,0,0,0-19.49,19.49c0,7.77,8.72,14.08,19.49,14.08s19.49-6.3,19.49-14.08A19.49,19.49,0,0,0,174.6,486.28Zm-4.83,25.38a5.89,5.89,0,1,1,5.89-5.89A5.89,5.89,0,0,1,169.77,511.66Z"/><path class="cls-13" d="M157,546.86v15.4h-2.6v-2.51a6.36,6.36,0,0,1-5.24,2.51,5.27,5.27,0,0,1-5.37-5.63v-9.77h2.62V556a3.52,3.52,0,0,0,3.65,3.74,4.42,4.42,0,0,0,4.33-4.62v-8.27Z"/><path class="cls-13" d="M164.19,552.47c-1,0-1.72.33-1.72,1.17,0,2.16,6.23,1,6.21,5.24,0,2.4-2.13,3.48-4.49,3.48a7.24,7.24,0,0,1-4.71-1.63l.9-1.8a6.38,6.38,0,0,0,3.92,1.45c1.08,0,1.92-.37,1.92-1.25,0-2.4-6.16-1.06-6.14-5.28,0-2.38,2.07-3.39,4.31-3.39a7.4,7.4,0,0,1,4.09,1.19l-.92,1.87A6.89,6.89,0,0,0,164.19,552.47Z"/><path class="cls-13" d="M179.81,558.61l1.47,1.37a6.27,6.27,0,0,1-5.06,2.38,5.72,5.72,0,0,1-6.1-5.94,5.63,5.63,0,0,1,5.88-5.94,5.11,5.11,0,0,1,5.52,5.1L173,558.13a3.49,3.49,0,0,0,3.37,2.2A4.44,4.44,0,0,0,179.81,558.61Zm-7.15-2.33v0l6.42-1.91a2.86,2.86,0,0,0-2.93-1.87C174,552.52,172.66,553.84,172.66,556.28Z"/><path class="cls-13" d="M190.56,550.47v2.42a3.54,3.54,0,0,0-4,3.26v6.12H184V550.56h2.53v2.33A4.25,4.25,0,0,1,190.56,550.47Z"/><path class="cls-13" d="M209.68,562.27l-5.06-6.8L202,558.35v3.92h-2.6v-15.4H202v8l7.35-8h3.06l-6,6.58,6.36,8.82Z"/><path class="cls-13" d="M223.63,558.61,225.1,560a6.27,6.27,0,0,1-5.06,2.38,5.72,5.72,0,0,1-6.09-5.94,5.63,5.63,0,0,1,5.87-5.94,5.1,5.1,0,0,1,5.52,5.1l-8.52,2.55a3.5,3.5,0,0,0,3.37,2.2A4.43,4.43,0,0,0,223.63,558.61Zm-7.15-2.33v0l6.43-1.91a2.87,2.87,0,0,0-2.93-1.87C217.84,552.52,216.48,553.84,216.48,556.28Z"/><path class="cls-13" d="M238.61,550.56V561c0,3.43-2.29,5.63-5.85,5.61a8.57,8.57,0,0,1-5-1.76l.68-1.85a7.21,7.21,0,0,0,4,1.5A3.31,3.31,0,0,0,236.1,561v-1.69a4.15,4.15,0,0,1-3.89,2c-2.95,0-4.78-1.74-4.78-4.53v-6.21H230V556a2.61,2.61,0,0,0,2.82,2.86c2.09,0,3.32-1.5,3.32-3.85v-4.49Z"/><path class="cls-11" d="M537.1,505.77l-5.81,7.43a2.48,2.48,0,0,1-3.53,0l-1.3-1.3-4,4a2.57,2.57,0,0,1-3.64,0l-4-4H496.2v-9.77Z"/><path class="cls-12" d="M533.6,500.62l3.5,5.14H496.2v-6.16h35A3.28,3.28,0,0,1,533.6,500.62Z"/><path class="cls-11" d="M485,505.77a8.48,8.48,0,1,1-17,0h-6.17a19.49,19.49,0,0,0,39,0Z"/><path class="cls-12" d="M481.32,486.28a19.49,19.49,0,0,0-19.49,19.49c0,7.77,8.72,14.08,19.49,14.08s19.49-6.3,19.49-14.08A19.49,19.49,0,0,0,481.32,486.28Zm-4.83,25.38a5.89,5.89,0,1,1,5.89-5.89A5.89,5.89,0,0,1,476.48,511.66Z"/><path class="cls-13" d="M456.4,554.56a8.17,8.17,0,1,1-8.16-7.77A7.88,7.88,0,0,1,456.4,554.56Zm-13.69,0a5.52,5.52,0,0,0,5.54,5.48,5.46,5.46,0,1,0-5.54-5.48Z"/><path class="cls-13" d="M465.6,550.47v2.42a3.54,3.54,0,0,0-4,3.26v6.12H459V550.56h2.53v2.33A4.25,4.25,0,0,1,465.6,550.47Z"/><path class="cls-13" d="M470.42,547.22a1.47,1.47,0,1,1-1.47-1.52A1.45,1.45,0,0,1,470.42,547.22Zm-.22,3.34v11.71h-2.51V550.56Z"/><path class="cls-13" d="M484.5,550.56v10.56c0,3.37-2.4,5.48-6.07,5.48a8.51,8.51,0,0,1-4.86-1.54l1.08-1.83a5.91,5.91,0,0,0,3.68,1.28c2.22,0,3.67-1.3,3.67-3.32v-1.47a4.29,4.29,0,0,1-3.87,2c-3.17,0-5.28-2.29-5.28-5.65s2.09-5.54,5.19-5.57a4.36,4.36,0,0,1,4,2v-1.89ZM482,556.11a3.33,3.33,0,0,0-3.37-3.59,3.61,3.61,0,1,0,3.37,3.59Z"/><path class="cls-13" d="M490.74,547.22a1.48,1.48,0,1,1-1.47-1.52A1.45,1.45,0,0,1,490.74,547.22Zm-.22,3.34v11.71H488V550.56Z"/><path class="cls-13" d="M505.46,555v7.28h-2.53v-6.58a2.61,2.61,0,0,0-2.82-2.84,3.28,3.28,0,0,0-3.32,3.19v6.23h-2.53V550.56h2.53v2.24a4.42,4.42,0,0,1,4.31-2.33C503.83,550.47,505.46,552.19,505.46,555Z"/><path class="cls-13" d="M525.88,562.27l-5.06-6.8-2.62,2.88v3.92h-2.6v-15.4h2.6v8l7.35-8h3.06l-6,6.58,6.36,8.82Z"/><path class="cls-13" d="M539.83,558.61,541.3,560a6.27,6.27,0,0,1-5.06,2.38,5.72,5.72,0,0,1-6.1-5.94,5.63,5.63,0,0,1,5.88-5.94,5.11,5.11,0,0,1,5.52,5.1L533,558.13a3.49,3.49,0,0,0,3.37,2.2A4.44,4.44,0,0,0,539.83,558.61Zm-7.15-2.33v0l6.42-1.91a2.86,2.86,0,0,0-2.93-1.87C534,552.52,532.68,553.84,532.68,556.28Z"/><path class="cls-13" d="M554.81,550.56V561c0,3.43-2.29,5.63-5.85,5.61a8.58,8.58,0,0,1-5-1.76l.68-1.85a7.21,7.21,0,0,0,4,1.5A3.31,3.31,0,0,0,552.3,561v-1.69a4.15,4.15,0,0,1-3.89,2c-2.95,0-4.77-1.74-4.77-4.53v-6.21h2.53V556A2.61,2.61,0,0,0,549,558.9c2.09,0,3.32-1.5,3.32-3.85v-4.49Z"/><path class="cls-11" d="M840.88,505.77l-5.81,7.43a2.48,2.48,0,0,1-3.53,0l-1.3-1.3-4,4a2.57,2.57,0,0,1-3.64,0l-4-4H800v-9.77Z"/><path class="cls-12" d="M837.38,500.62l3.5,5.14H800v-6.16h35A3.28,3.28,0,0,1,837.38,500.62Z"/><path class="cls-11" d="M788.74,505.77a8.48,8.48,0,1,1-17,0H765.6a19.49,19.49,0,0,0,39,0Z"/><path class="cls-12" d="M785.09,486.28a19.49,19.49,0,0,0-19.49,19.49c0,7.77,8.72,14.08,19.49,14.08s19.49-6.3,19.49-14.08A19.49,19.49,0,0,0,785.09,486.28Zm-4.83,25.38a5.89,5.89,0,1,1,5.89-5.89A5.89,5.89,0,0,1,780.26,511.66Z"/><path class="cls-13" d="M763.31,562.27l-2.82-4.66c-.22,0-.46,0-.7,0h-3.65v4.64h-2.6v-15.4h6.25c3.94,0,6.21,1.92,6.21,5.26a5,5,0,0,1-3.19,5l3.46,5.15Zm-3.52-7c2.38,0,3.74-1,3.74-3.1s-1.37-3-3.74-3h-3.65v6.09Z"/><path class="cls-13" d="M772,547.22a1.47,1.47,0,1,1-1.47-1.52A1.45,1.45,0,0,1,772,547.22Zm-.22,3.34v11.71H769.3V550.56Z"/><path class="cls-13" d="M786.74,555v7.28h-2.53v-6.58a2.61,2.61,0,0,0-2.82-2.84,3.28,3.28,0,0,0-3.32,3.19v6.23h-2.53V550.56h2.53v2.24a4.42,4.42,0,0,1,4.31-2.33C785.12,550.47,786.74,552.19,786.74,555Z"/><path class="cls-13" d="M800.69,550.56v10.56c0,3.37-2.4,5.48-6.07,5.48a8.51,8.51,0,0,1-4.86-1.54l1.08-1.83a5.91,5.91,0,0,0,3.68,1.28c2.22,0,3.67-1.3,3.67-3.32v-1.47a4.29,4.29,0,0,1-3.87,2c-3.17,0-5.28-2.29-5.28-5.65s2.09-5.54,5.19-5.57a4.36,4.36,0,0,1,4,2v-1.89Zm-2.51,5.54a3.33,3.33,0,0,0-3.37-3.59,3.61,3.61,0,1,0,3.37,3.59Z"/><path class="cls-13" d="M821.24,562.27l-5.06-6.8-2.62,2.88v3.92H811v-15.4h2.6v8l7.35-8H824l-6,6.58,6.36,8.82Z"/><path class="cls-13" d="M835.19,558.61l1.47,1.37a6.27,6.27,0,0,1-5.06,2.38,5.72,5.72,0,0,1-6.1-5.94,5.63,5.63,0,0,1,5.88-5.94,5.11,5.11,0,0,1,5.52,5.1l-8.52,2.55a3.49,3.49,0,0,0,3.37,2.2A4.44,4.44,0,0,0,835.19,558.61ZM828,556.28v0l6.42-1.91a2.86,2.86,0,0,0-2.93-1.87C829.4,552.52,828,553.84,828,556.28Z"/><path class="cls-13" d="M850.17,550.56V561c0,3.43-2.29,5.63-5.85,5.61a8.58,8.58,0,0,1-5-1.76L840,563a7.21,7.21,0,0,0,4,1.5,3.31,3.31,0,0,0,3.61-3.54v-1.69a4.15,4.15,0,0,1-3.89,2c-2.95,0-4.77-1.74-4.77-4.53v-6.21h2.53V556a2.61,2.61,0,0,0,2.82,2.86c2.09,0,3.32-1.5,3.32-3.85v-4.49Z"/><path class="cls-11" d="M1147.39,505.77l-5.81,7.43a2.48,2.48,0,0,1-3.53,0l-1.3-1.3-4,4a2.57,2.57,0,0,1-3.64,0l-4-4h-18.62v-9.77Z"/><path class="cls-12" d="M1143.89,500.62l3.5,5.14h-40.9v-6.16h35A3.28,3.28,0,0,1,1143.89,500.62Z"/><path class="cls-11" d="M1095.25,505.77a8.48,8.48,0,1,1-17,0h-6.17a19.49,19.49,0,0,0,39,0Z"/><path class="cls-12" d="M1091.6,486.28a19.49,19.49,0,0,0-19.49,19.49c0,7.77,8.72,14.08,19.49,14.08s19.49-6.3,19.49-14.08A19.49,19.49,0,0,0,1091.6,486.28Zm-4.83,25.38a5.89,5.89,0,1,1,5.89-5.89A5.89,5.89,0,0,1,1086.77,511.66Z"/><path class="cls-13" d="M1051.24,549.2c-1.52,0-2.51.57-2.51,1.61,0,3.37,8.32,1.56,8.29,7.11,0,2.75-2.42,4.44-5.81,4.44a9.48,9.48,0,0,1-6.29-2.44l1.12-2.24a8.13,8.13,0,0,0,5.21,2.24c1.8,0,2.88-.68,2.88-1.87,0-3.43-8.32-1.52-8.32-7,0-2.64,2.27-4.29,5.61-4.29a10,10,0,0,1,5.39,1.58l-1.08,2.29A9.2,9.2,0,0,0,1051.24,549.2Z"/><path class="cls-13" d="M1068.48,558.61,1070,560a6.27,6.27,0,0,1-5.06,2.38,5.72,5.72,0,0,1-6.09-5.94,5.63,5.63,0,0,1,5.87-5.94,5.1,5.1,0,0,1,5.52,5.1l-8.52,2.55a3.5,3.5,0,0,0,3.37,2.2A4.44,4.44,0,0,0,1068.48,558.61Zm-7.15-2.33v0l6.42-1.91a2.87,2.87,0,0,0-2.93-1.87C1062.7,552.52,1061.33,553.84,1061.33,556.28Z"/><path class="cls-13" d="M1079.24,550.47v2.42a3.55,3.55,0,0,0-4,3.26v6.12h-2.53V550.56h2.53v2.33A4.26,4.26,0,0,1,1079.24,550.47Z"/><path class="cls-13" d="M1082.69,550.56l3.26,9.22,3.21-9.22h2.53l-4.49,11.71h-2.62l-4.53-11.71Z"/><path class="cls-13" d="M1096.18,547.22a1.47,1.47,0,1,1-1.47-1.52A1.45,1.45,0,0,1,1096.18,547.22Zm-.22,3.34v11.71h-2.51V550.56Z"/><path class="cls-13" d="M1104.61,552.7a3.75,3.75,0,0,0,0,7.48,4.36,4.36,0,0,0,3.45-1.41l1.41,1.41a6,6,0,0,1-5,2.18,5.94,5.94,0,0,1,0-11.88,6.17,6.17,0,0,1,4.84,1.91L1108,554A4.41,4.41,0,0,0,1104.61,552.7Z"/><path class="cls-13" d="M1120.23,558.61l1.47,1.37a6.27,6.27,0,0,1-5.06,2.38,5.72,5.72,0,0,1-6.09-5.94,5.63,5.63,0,0,1,5.87-5.94,5.1,5.1,0,0,1,5.52,5.1l-8.52,2.55a3.5,3.5,0,0,0,3.37,2.2A4.44,4.44,0,0,0,1120.23,558.61Zm-7.15-2.33v0l6.42-1.91a2.87,2.87,0,0,0-2.93-1.87C1114.44,552.52,1113.08,553.84,1113.08,556.28Z"/><path class="cls-13" d="M1141.43,562.27l-5.06-6.8-2.62,2.88v3.92h-2.6v-15.4h2.6v8l7.35-8h3.06l-6,6.58,6.36,8.82Z"/><path class="cls-13" d="M1155.38,558.61l1.47,1.37a6.27,6.27,0,0,1-5.06,2.38,5.72,5.72,0,0,1-6.09-5.94,5.63,5.63,0,0,1,5.87-5.94,5.1,5.1,0,0,1,5.52,5.1l-8.52,2.55a3.5,3.5,0,0,0,3.37,2.2A4.44,4.44,0,0,0,1155.38,558.61Zm-7.15-2.33v0l6.42-1.91a2.87,2.87,0,0,0-2.93-1.87C1149.6,552.52,1148.23,553.84,1148.23,556.28Z"/><path class="cls-13" d="M1170.36,550.56V561c0,3.43-2.29,5.63-5.85,5.61a8.57,8.57,0,0,1-5-1.76l.68-1.85a7.21,7.21,0,0,0,4,1.5,3.31,3.31,0,0,0,3.61-3.54v-1.69a4.15,4.15,0,0,1-3.89,2c-2.95,0-4.77-1.74-4.77-4.53v-6.21h2.53V556a2.61,2.61,0,0,0,2.82,2.86c2.09,0,3.32-1.5,3.32-3.85v-4.49Z"/><line class="cls-10" x1="88.97" y1="304.83" x2="198.34" y2="304.83"/><line class="cls-10" x1="138.53" y1="201.01" x2="198.34" y2="304.6"/><line class="cls-10" x1="258.4" y1="201.01" x2="198.34" y2="304.6"/><path class="cls-14" d="M168.56,343.61a1.37,1.37,0,0,0,1.37,1.37l36.78-.11c2.85,0,2.85-.57,2.85-2V335h1.57a13,13,0,0,0,13-13v-8.26h2.78a1.53,1.53,0,0,0,1.49-1.89c-1.51-6.38-3-15.24-3.87-19a39.57,39.57,0,0,1-.7-4c-2.06-16.15-14.53-23.82-29.3-23.81-12,0-25.76,10.82-26.23,27.3C168.08,300.79,168.55,308.27,168.56,343.61Z"/><circle class="cls-15" cx="215.86" cy="291.11" r="2.58"/><circle class="cls-12" cx="250.04" cy="215.34" r="31.06"/><path id="_Compound_Path_" data-name="&lt;Compound Path&gt;" class="cls-13" d="M229.77,222.53v.58a.45.45,0,0,0,.37.44l1.16.2a4.81,4.81,0,0,0,.52,1.26l-.68,1a.45.45,0,0,0,0,.58l.41.41.41.41a.45.45,0,0,0,.58,0l1-.68a4.83,4.83,0,0,0,1.22.51l.2,1.17a.44.44,0,0,0,.44.37h1.16a.45.45,0,0,0,.44-.37l.19-1.15a4.9,4.9,0,0,0,1.26-.51l1,.69a.45.45,0,0,0,.58,0l.41-.41.41-.41a.45.45,0,0,0,0-.58l-.67-1a4.78,4.78,0,0,0,.53-1.25l1.17-.2a.44.44,0,0,0,.37-.44V222a.45.45,0,0,0-.37-.44l-1.15-.18a4.9,4.9,0,0,0-.51-1.26l.69-1a.45.45,0,0,0,0-.58l-.41-.41-.41-.41a.45.45,0,0,0-.58,0l-1,.67a4.54,4.54,0,0,0-1.28-.54l-.2-1.16a.44.44,0,0,0-.44-.37h-1.16a.45.45,0,0,0-.44.37l-.2,1.16a4.81,4.81,0,0,0-1.26.52l-1-.68a.46.46,0,0,0-.57,0l-.41.41-.41.41a.45.45,0,0,0,0,.58l.68,1a4.82,4.82,0,0,0-.52,1.26l-1.16.2a.44.44,0,0,0-.37.44Zm4.29-1.94a2.71,2.71,0,1,1,0,3.83A2.71,2.71,0,0,1,234.07,220.59Z"/><circle id="_Path_" data-name="&lt;Path&gt;" class="cls-13" cx="235.98" cy="222.5" r="1.6"/><path class="cls-13" d="M252.11,223.86a25.69,25.69,0,0,0,10.71-2.08.46.46,0,0,1,.67.41v1.32c0,1.47-4.43,3.6-11.38,3.6a26.27,26.27,0,0,1-7.47-1,.46.46,0,0,1-.28-.6,8.8,8.8,0,0,0,.45-2,.45.45,0,0,1,.55-.4A30.36,30.36,0,0,0,252.11,223.86Z"/><path class="cls-13" d="M243.25,217.43a.63.63,0,0,1,.69-1,28.92,28.92,0,0,0,8.17,1.12,25.73,25.73,0,0,0,10.67-2.06.49.49,0,0,1,.71.43v1c0,1.27-4.32,3.6-11.38,3.6a25.12,25.12,0,0,1-7.58-1.06.48.48,0,0,1-.29-.28A8.83,8.83,0,0,0,243.25,217.43Z"/><path class="cls-13" d="M252.11,207.6c-7.39,0-11.38-2.31-11.38-3.25s4-3.25,11.38-3.25,11.38,2.31,11.38,3.25S259.5,207.6,252.11,207.6Z"/><path class="cls-13" d="M252.11,214.33c-7.06,0-11.38-2.33-11.38-3.6v-1.28a.56.56,0,0,1,.78-.52,30.19,30.19,0,0,0,21.2,0,.56.56,0,0,1,.78.52v1.28C263.49,212,259.17,214.33,252.11,214.33Z"/><circle class="cls-12" cx="146.27" cy="215.37" r="31.06"/><circle class="cls-13" cx="151.25" cy="211.34" r="1.52" transform="translate(-24.46 19.86) rotate(-6.95)"/><circle class="cls-13" cx="149.28" cy="216.42" r="0.78" transform="translate(-113.15 200.59) rotate(-51.95)"/><circle class="cls-13" cx="145.17" cy="212.66" r="0.93"/><path class="cls-13" d="M142.38,222.09a7.42,7.42,0,0,0,2.75,1.45,10.9,10.9,0,0,0,13.46-15l-.05-.11A10.91,10.91,0,0,0,145.2,203l-.32.12c-.25.1-.5.2-.74.32l-.27.13-.4.21-.3.18-.33.2-.27.18-.33.24-.23.18a10.53,10.53,0,0,0-.87.77l-.1.1a11.22,11.22,0,0,0-.81.92l-.14.18-.17.23-.28.42-.26.43-.15.27-.24.48-.18.38-.16.38v0l-.14.38c0,.12-.08.24-.12.36l0,.1c0,.08,0,.16-.07.23s0,.15-.06.22l0,.11c0,.1-.16.8-.2,1.06a10.78,10.78,0,0,0,0,2.92,10.85,10.85,0,0,0,2.39,5.47h0s-.36-1-.59-.79L129.19,230a1.14,1.14,0,0,0-.33.78s0,0,0,0,0,0,0,0a1.16,1.16,0,0,0,.13.49,1.15,1.15,0,0,0,.2.28l1.15,1.15h0l.07.07a1.15,1.15,0,0,0,1.62,0l10.64-10.56m-.94-9a7.05,7.05,0,1,1,7.05,7.05A7,7,0,0,1,141.73,213.28Z"/><circle class="cls-12" cx="93.9" cy="304.52" r="31.06"/><path class="cls-13" d="M81.13,313.55a6.09,6.09,0,0,1-1.38-12,11.15,11.15,0,0,1,20.92-5.29,4.75,4.75,0,0,1,6.6,3.74,6.85,6.85,0,0,1-1.34,13.57Z"/><circle class="cls-12" cx="91.35" cy="298.72" r="2.37"/><circle class="cls-12" cx="99.06" cy="305.85" r="2.37"/><circle class="cls-12" cx="86.6" cy="305.85" r="2.37"/><line class="cls-16" x1="91.35" y1="298.72" x2="99.06" y2="305.85"/><line class="cls-16" x1="86.6" y1="305.85" x2="91.35" y2="298.72"/><line class="cls-16" x1="86.6" y1="305.85" x2="99.06" y2="305.85"/><path class="cls-17" d="M603.8,275,497.14,275h0c-1.51-9.27-3.23-18.32-9.27-25.32l-1.26-1c-7.28-8.42-17.17-13.65-27.31-13.65H563c11.32-1,22.68,4.33,30.79,13.73l.22.16A39.9,39.9,0,0,1,603.8,275Z"/><path class="cls-8" d="M529.4,349v13.32c0,.23-.27.46-.81.63l-8.81,2.86a7.4,7.4,0,0,1-3.9,0L507.07,363c-.54-.17-.81-.4-.81-.63V349Z"/><path class="cls-18" d="M515.88,352.51l-8.81-2.86c-1.08-.35-1.08-.92,0-1.27l8.81-2.86a7.39,7.39,0,0,1,3.9,0l8.81,2.86c1.08.35,1.08.92,0,1.27l-8.81,2.86a7.39,7.39,0,0,1-3.9,0"/><path class="cls-8" d="M479.25,349v13.32c0,.23-.27.46-.81.63l-8.81,2.86a7.4,7.4,0,0,1-3.9,0L456.92,363c-.54-.17-.81-.4-.81-.63V349Z"/><path class="cls-18" d="M465.73,352.49l-8.81-2.86c-1.08-.35-1.08-.92,0-1.27l8.81-2.86a7.39,7.39,0,0,1,3.9,0l8.81,2.86c1.08.35,1.08.92,0,1.27l-8.81,2.86a7.39,7.39,0,0,1-3.9,0"/><path class="cls-8" d="M557.22,349v13.32c0,.23-.27.46-.81.63l-8.81,2.86a7.4,7.4,0,0,1-3.9,0L534.89,363c-.54-.17-.81-.4-.81-.63V349Z"/><path class="cls-18" d="M543.7,352.51l-8.81-2.86c-1.08-.35-1.08-.92,0-1.27l8.81-2.86a7.39,7.39,0,0,1,3.9,0l8.81,2.86c1.08.35,1.08.92,0,1.27l-8.81,2.86a7.39,7.39,0,0,1-3.9,0"/><g class="cls-19"><path class="cls-20" d="M595.49,368.51H497.14V274.92H603.8v85.29A8.3,8.3,0,0,1,595.49,368.51Z"/></g><path class="cls-21" d="M497,275v94H474V317.81a6,6,0,0,0-5.9-5.81H443.35a5.51,5.51,0,0,0-5.35,5.81V369H423.76a4.68,4.68,0,0,1-2.1-.49c-3.17-.88-6.66-4.19-6.66-7.82V274.78A41.55,41.55,0,0,1,455.9,234H456a40.51,40.51,0,0,1,30.63,14.22l1.2,1.3C493.84,256.53,495,265.71,497,275Z"/><path class="cls-13" d="M443.8,289c0,2.91-2.3,5-5.49,5H434V284h4.31C441.52,284,443.8,286.09,443.8,289ZM442,289a3.51,3.51,0,0,0-3.68-3.53h-2.51v7h2.58A3.45,3.45,0,0,0,442,289Z"/><path class="cls-13" d="M451.46,291.66l1,.89a4.36,4.36,0,0,1-3.46,1.55,3.83,3.83,0,0,1-4.16-3.88,3.76,3.76,0,0,1,4-3.89,3.43,3.43,0,0,1,3.77,3.34l-5.82,1.67a2.39,2.39,0,0,0,2.3,1.44A3.08,3.08,0,0,0,451.46,291.66Zm-4.88-1.53h0L451,288.9a2,2,0,0,0-2-1.22A2.22,2.22,0,0,0,446.57,290.14Z"/><path class="cls-13" d="M462.73,290.25a3.62,3.62,0,0,1-3.79,3.86,3.18,3.18,0,0,1-2.83-1.38v4.12h-1.73V286.39h1.73v1.32a3.16,3.16,0,0,1,2.8-1.38A3.67,3.67,0,0,1,462.73,290.25Zm-1.74-.06a2.44,2.44,0,1,0-2.44,2.5A2.37,2.37,0,0,0,461,290.19Z"/><path class="cls-13" d="M472.12,290.21a4.18,4.18,0,0,1-8.34,0c0-2.3,1.7-3.87,4.18-3.87A3.83,3.83,0,0,1,472.12,290.21Zm-6.61,0a2.44,2.44,0,1,0,2.45-2.49A2.35,2.35,0,0,0,465.51,290.24Z"/><path class="cls-13" d="M477.94,293.56a4,4,0,0,1-1.92.56,2.24,2.24,0,0,1-2.28-2.5v-7h1.71v2.1h2.36v1.24h-2.36v3.41c0,.91.32,1.29.89,1.29a2.72,2.72,0,0,0,1.17-.33Z"/><rect class="cls-18" x="1053.62" y="171.19" width="75" height="29.52" rx="3" ry="3"/><rect class="cls-8" x="1053.62" y="174.83" width="75" height="39.34" rx="3" ry="3"/><rect class="cls-18" x="1067.98" y="187.49" width="75" height="29.52" rx="3" ry="3"/><rect class="cls-8" x="1067.98" y="191.14" width="75" height="39.34" rx="3" ry="3"/><rect class="cls-18" x="1081.39" y="203.79" width="75" height="29.52" rx="3" ry="3"/><rect class="cls-8" x="1081.39" y="207.44" width="75" height="39.34" rx="3" ry="3"/><path class="cls-9" d="M1098.38,223.08c-1,0-1.61.37-1.61,1,0,2.16,5.32,1,5.31,4.55,0,1.76-1.55,2.85-3.72,2.85a6.06,6.06,0,0,1-4-1.56l.72-1.44a5.2,5.2,0,0,0,3.34,1.44c1.16,0,1.85-.44,1.85-1.2,0-2.2-5.32-1-5.32-4.48,0-1.69,1.45-2.75,3.59-2.75a6.42,6.42,0,0,1,3.45,1l-.69,1.46A5.89,5.89,0,0,0,1098.38,223.08Z"/><path class="cls-9" d="M1109.42,229.11l.94.87a4,4,0,0,1-3.24,1.52,3.66,3.66,0,0,1-3.9-3.8,3.6,3.6,0,0,1,3.76-3.8,3.27,3.27,0,0,1,3.54,3.27l-5.45,1.63a2.24,2.24,0,0,0,2.16,1.41A2.84,2.84,0,0,0,1109.42,229.11Zm-4.58-1.49h0l4.11-1.23a1.83,1.83,0,0,0-1.87-1.2A2.13,2.13,0,0,0,1104.84,227.61Z"/><path class="cls-9" d="M1116.31,223.9v1.55a2.27,2.27,0,0,0-2.59,2.08v3.92h-1.62V224h1.62v1.49A2.73,2.73,0,0,1,1116.31,223.9Z"/><path class="cls-9" d="M1118.52,224l2.08,5.9,2.06-5.9h1.62l-2.87,7.49h-1.68l-2.9-7.49Z"/><path class="cls-9" d="M1127.15,221.81a.94.94,0,1,1-.94-1A.93.93,0,0,1,1127.15,221.81ZM1127,224v7.49h-1.61V224Z"/><path class="cls-9" d="M1132.55,225.32a2.4,2.4,0,0,0,0,4.79,2.79,2.79,0,0,0,2.21-.9l.9.9a3.81,3.81,0,0,1-3.18,1.39,3.8,3.8,0,0,1,0-7.61,4,4,0,0,1,3.1,1.23l-.89,1A2.83,2.83,0,0,0,1132.55,225.32Z"/><path class="cls-9" d="M1142.55,229.11l.94.87a4,4,0,0,1-3.24,1.52,3.66,3.66,0,0,1-3.9-3.8,3.6,3.6,0,0,1,3.76-3.8,3.27,3.27,0,0,1,3.54,3.27l-5.45,1.63a2.24,2.24,0,0,0,2.16,1.41A2.84,2.84,0,0,0,1142.55,229.11Zm-4.58-1.49h0l4.11-1.23a1.83,1.83,0,0,0-1.87-1.2A2.13,2.13,0,0,0,1138,227.61Z"/><rect class="cls-18" x="1053.62" y="262.73" width="75" height="29.52" rx="3" ry="3"/><rect class="cls-8" x="1053.62" y="266.37" width="75" height="39.34" rx="3" ry="3"/><rect class="cls-18" x="1067.98" y="279.03" width="75" height="29.52" rx="3" ry="3"/><rect class="cls-8" x="1067.98" y="282.67" width="75" height="39.34" rx="3" ry="3"/><rect class="cls-18" x="1081.39" y="295.33" width="75" height="29.52" rx="3" ry="3"/><rect class="cls-8" x="1081.39" y="298.97" width="75" height="39.34" rx="3" ry="3"/><path class="cls-9" d="M1098.38,314.62c-1,0-1.61.37-1.61,1,0,2.16,5.32,1,5.31,4.55,0,1.76-1.55,2.85-3.72,2.85a6.06,6.06,0,0,1-4-1.56l.72-1.44a5.2,5.2,0,0,0,3.34,1.44c1.16,0,1.85-.44,1.85-1.2,0-2.2-5.32-1-5.32-4.48,0-1.69,1.45-2.75,3.59-2.75a6.42,6.42,0,0,1,3.45,1l-.69,1.46A5.89,5.89,0,0,0,1098.38,314.62Z"/><path class="cls-9" d="M1109.42,320.64l.94.87a4,4,0,0,1-3.24,1.52,3.66,3.66,0,0,1-3.9-3.8,3.6,3.6,0,0,1,3.76-3.8,3.27,3.27,0,0,1,3.54,3.27l-5.45,1.63a2.24,2.24,0,0,0,2.16,1.41A2.84,2.84,0,0,0,1109.42,320.64Zm-4.58-1.49h0l4.11-1.22a1.83,1.83,0,0,0-1.87-1.2A2.13,2.13,0,0,0,1104.84,319.15Z"/><path class="cls-9" d="M1116.31,315.43V317a2.27,2.27,0,0,0-2.59,2.09V323h-1.62v-7.49h1.62V317A2.73,2.73,0,0,1,1116.31,315.43Z"/><path class="cls-9" d="M1118.52,315.49l2.08,5.9,2.06-5.9h1.62l-2.87,7.49h-1.68l-2.9-7.49Z"/><path class="cls-9" d="M1127.15,313.35a.94.94,0,1,1-.94-1A.93.93,0,0,1,1127.15,313.35Zm-.14,2.14V323h-1.61v-7.49Z"/><path class="cls-9" d="M1132.55,316.85a2.4,2.4,0,0,0,0,4.79,2.79,2.79,0,0,0,2.21-.9l.9.9a3.81,3.81,0,0,1-3.18,1.39,3.8,3.8,0,0,1,0-7.61,4,4,0,0,1,3.1,1.23l-.89,1A2.83,2.83,0,0,0,1132.55,316.85Z"/><path class="cls-9" d="M1142.55,320.64l.94.87a4,4,0,0,1-3.24,1.52,3.66,3.66,0,0,1-3.9-3.8,3.6,3.6,0,0,1,3.76-3.8,3.27,3.27,0,0,1,3.54,3.27l-5.45,1.63a2.24,2.24,0,0,0,2.16,1.41A2.84,2.84,0,0,0,1142.55,320.64Zm-4.58-1.49h0l4.11-1.22a1.83,1.83,0,0,0-1.87-1.2A2.13,2.13,0,0,0,1138,319.15Z"/><rect class="cls-18" x="1053.62" y="354.26" width="75" height="29.52" rx="3" ry="3"/><rect class="cls-8" x="1053.62" y="357.91" width="75" height="39.34" rx="3" ry="3"/><rect class="cls-18" x="1067.98" y="370.56" width="75" height="29.52" rx="3" ry="3"/><rect class="cls-8" x="1067.98" y="374.21" width="75" height="39.34" rx="3" ry="3"/><rect class="cls-18" x="1081.39" y="386.86" width="75" height="29.52" rx="3" ry="3"/><rect class="cls-8" x="1081.39" y="390.51" width="75" height="39.34" rx="3" ry="3"/><path class="cls-9" d="M1098.38,406.15c-1,0-1.61.37-1.61,1,0,2.16,5.32,1,5.31,4.55,0,1.76-1.55,2.85-3.72,2.85a6.06,6.06,0,0,1-4-1.56l.72-1.44a5.2,5.2,0,0,0,3.34,1.44c1.16,0,1.85-.44,1.85-1.2,0-2.2-5.32-1-5.32-4.48,0-1.69,1.45-2.75,3.59-2.75a6.42,6.42,0,0,1,3.45,1l-.69,1.46A5.89,5.89,0,0,0,1098.38,406.15Z"/><path class="cls-9" d="M1109.42,412.18l.94.87a4,4,0,0,1-3.24,1.52,3.66,3.66,0,0,1-3.9-3.8A3.6,3.6,0,0,1,1107,407a3.27,3.27,0,0,1,3.54,3.27l-5.45,1.63a2.24,2.24,0,0,0,2.16,1.41A2.84,2.84,0,0,0,1109.42,412.18Zm-4.58-1.49h0l4.11-1.23a1.83,1.83,0,0,0-1.87-1.2A2.13,2.13,0,0,0,1104.84,410.69Z"/><path class="cls-9" d="M1116.31,407v1.55a2.27,2.27,0,0,0-2.59,2.08v3.92h-1.62V407h1.62v1.49A2.73,2.73,0,0,1,1116.31,407Z"/><path class="cls-9" d="M1118.52,407l2.08,5.9,2.06-5.9h1.62l-2.87,7.49h-1.68l-2.9-7.49Z"/><path class="cls-9" d="M1127.15,404.88a.94.94,0,1,1-.94-1A.93.93,0,0,1,1127.15,404.88ZM1127,407v7.49h-1.61V407Z"/><path class="cls-9" d="M1132.55,408.39a2.4,2.4,0,0,0,0,4.79,2.79,2.79,0,0,0,2.21-.9l.9.9a3.81,3.81,0,0,1-3.18,1.39,3.8,3.8,0,0,1,0-7.61,4,4,0,0,1,3.1,1.23l-.89,1A2.83,2.83,0,0,0,1132.55,408.39Z"/><path class="cls-9" d="M1142.55,412.18l.94.87a4,4,0,0,1-3.24,1.52,3.66,3.66,0,0,1-3.9-3.8,3.6,3.6,0,0,1,3.76-3.8,3.27,3.27,0,0,1,3.54,3.27l-5.45,1.63a2.24,2.24,0,0,0,2.16,1.41A2.84,2.84,0,0,0,1142.55,412.18Zm-4.58-1.49h0l4.11-1.23a1.83,1.83,0,0,0-1.87-1.2A2.13,2.13,0,0,0,1138,410.69Z"/></g></svg>