<svg xmlns="http://www.w3.org/2000/svg" xmlns:xlink="http://www.w3.org/1999/xlink" viewBox="0 0 1280 800.88"><defs><style>.cls-1,.cls-11,.cls-17,.cls-2{fill:none;stroke-miterlimit:10;}.cls-1,.cls-2{stroke:#c3c6c8;stroke-dasharray:3 4;}.cls-1,.cls-10,.cls-3,.cls-4{opacity:0.2;}.cls-3{fill:url(#linear-gradient);}.cls-4{fill:url(#linear-gradient-2);}.cls-5{fill:url(#linear-gradient-3);}.cls-6{fill:url(#linear-gradient-4);}.cls-7{fill:url(#linear-gradient-5);}.cls-8{fill:#f3fcff;}.cls-9{fill:#666;}.cls-11{stroke:#fff;stroke-width:2px;opacity:0.15;}.cls-12{fill:#4296b4;}.cls-13{fill:#80c4d6;}.cls-14{fill:#fff;}.cls-15{fill:#ff9012;}.cls-16{fill:#ad5f12;}.cls-17{stroke:#80c4d6;}.cls-18{fill:#f4f4f4;}.cls-19{fill:#c5d2d8;}.cls-20,.cls-22{opacity:0.9;}.cls-21{fill:#dbdbdb;}.cls-22{fill:#87b09a;}</style><linearGradient id="linear-gradient" x1="645.26" y1="289" x2="645.26" y2="311" gradientUnits="userSpaceOnUse"><stop offset="0" stop-color="#87b09a"/><stop offset="0.25" stop-color="#89b77b"/><stop offset="0.56" stop-color="#8abf5a"/><stop offset="0.82" stop-color="#8cc446"/><stop offset="1" stop-color="#8cc63f"/></linearGradient><linearGradient id="linear-gradient-2" x1="309.96" x2="309.96" xlink:href="#linear-gradient"/><linearGradient id="linear-gradient-3" x1="-4905.46" y1="-5260.48" x2="-4827.16" y2="-5260.48" gradientTransform="translate(2163.23 7361.22) rotate(32.84)" gradientUnits="userSpaceOnUse"><stop offset="0" stop-color="#2f789f"/><stop offset="0.21" stop-color="#347da0"/><stop offset="0.47" stop-color="#418da4"/><stop offset="0.76" stop-color="#58a6ab"/><stop offset="1" stop-color="#70c2b2"/></linearGradient><linearGradient id="linear-gradient-4" x1="-3034.68" y1="-5443.85" x2="-2956.38" y2="-5443.85" gradientTransform="translate(6403.93 -2449.82) rotate(-86.69)" xlink:href="#linear-gradient-3"/><linearGradient id="linear-gradient-5" x1="-3749.33" y1="-3791.82" x2="-3671.03" y2="-3791.82" gradientTransform="matrix(-0.88, 0.47, -0.47, -0.88, -4267.2, -1218.97)" xlink:href="#linear-gradient-3"/></defs><title>Keys - Ring Key</title><g id="middle_layer" data-name="middle layer"><line class="cls-1" x1="189.49" y1="344.65" x2="189.49" y2="479.15"/><line class="cls-1" x1="501.38" y1="369.65" x2="501.38" y2="479.15"/><line class="cls-2" x1="806.89" y1="405.12" x2="806.89" y2="479.15"/><line class="cls-1" x1="1111.09" y1="431.44" x2="1111.09" y2="479.15"/><polygon class="cls-3" points="604 311 676.03 311 686.51 300 675.78 289 604 289 604 311"/><polygon class="cls-4" points="227.98 311 385.77 311 396.25 300 385.77 289 223.67 289 227.98 311"/><path class="cls-5" d="M935.79,360.76,921,363.43l-3.68-14.61a88,88,0,0,0,.77-93l3-16.6,15.91,5.3A110.72,110.72,0,0,1,935.79,360.76Z"/><path class="cls-6" d="M842.19,189.4,851.81,201l-10.9,10.4a88,88,0,0,0-81.32,45.16l-15.9,5.6-3.23-16.45A110.72,110.72,0,0,1,842.19,189.4Z"/><path class="cls-7" d="M738.28,351.92l4.84-14.25,14.56,3.86a88,88,0,0,0,81,45.76l13.08,10.64-12.35,11.34A110.72,110.72,0,0,1,738.28,351.92Z"/><path class="cls-7" d="M738.28,351.92l4.84-14.25,14.56,3.86a88,88,0,0,0,81,45.76l13.08,10.64-12.35,11.34A110.72,110.72,0,0,1,738.28,351.92Z"/><circle class="cls-8" cx="885.18" cy="389.73" r="28.64"/><circle class="cls-8" cx="732.72" cy="301.38" r="28.64"/><circle class="cls-8" cx="885.26" cy="211.95" r="28.64"/><path class="cls-9" d="M875.82,208.08c-1,0-1.61.37-1.61,1,0,2.16,5.32,1,5.31,4.55,0,1.76-1.55,2.85-3.72,2.85a6.06,6.06,0,0,1-4-1.56l.72-1.44a5.2,5.2,0,0,0,3.34,1.44c1.16,0,1.85-.44,1.85-1.2,0-2.2-5.32-1-5.32-4.48,0-1.69,1.45-2.75,3.59-2.75a6.42,6.42,0,0,1,3.45,1l-.69,1.46A5.89,5.89,0,0,0,875.82,208.08Z"/><path class="cls-9" d="M888.17,209v7.49h-1.62V215a2.76,2.76,0,0,1-2.68,1.52,2.6,2.6,0,0,1-2.75-2.89V209h1.62v4.21A1.65,1.65,0,0,0,884.5,215a2.12,2.12,0,0,0,2.06-2.34V209Z"/><path class="cls-9" d="M898.45,212.73a3.47,3.47,0,0,1-3.55,3.77,3,3,0,0,1-2.65-1.35v4h-1.62V209h1.62v1.29a2.93,2.93,0,0,1,2.62-1.35A3.52,3.52,0,0,1,898.45,212.73Zm-1.63-.06a2.29,2.29,0,1,0-2.28,2.45A2.27,2.27,0,0,0,896.82,212.67Z"/><path class="cls-9" d="M723.36,299.19c-1,0-1.61.37-1.61,1,0,2.16,5.32,1,5.31,4.55,0,1.76-1.55,2.85-3.72,2.85a6.06,6.06,0,0,1-4-1.56l.72-1.44a5.2,5.2,0,0,0,3.34,1.44c1.15,0,1.85-.44,1.85-1.2,0-2.2-5.32-1-5.32-4.48,0-1.69,1.45-2.75,3.59-2.75a6.41,6.41,0,0,1,3.45,1l-.69,1.46A5.89,5.89,0,0,0,723.36,299.19Z"/><path class="cls-9" d="M735.71,300.06v7.49h-1.62v-1.46a2.76,2.76,0,0,1-2.68,1.52,2.6,2.6,0,0,1-2.75-2.89v-4.66h1.62v4.21a1.65,1.65,0,0,0,1.75,1.82,2.12,2.12,0,0,0,2.06-2.34v-3.69Z"/><path class="cls-9" d="M746,303.84a3.47,3.47,0,0,1-3.55,3.77,3,3,0,0,1-2.65-1.35v4h-1.62V300.06h1.62v1.29a2.93,2.93,0,0,1,2.62-1.35A3.52,3.52,0,0,1,746,303.84Zm-1.63-.06a2.29,2.29,0,1,0-2.28,2.45A2.27,2.27,0,0,0,744.36,303.78Z"/><path class="cls-9" d="M875.82,388.7c-1,0-1.61.37-1.61,1,0,2.16,5.32,1,5.31,4.55,0,1.76-1.55,2.85-3.72,2.85a6.06,6.06,0,0,1-4-1.56l.72-1.44a5.2,5.2,0,0,0,3.34,1.44c1.16,0,1.85-.44,1.85-1.2,0-2.2-5.32-1-5.32-4.48,0-1.69,1.45-2.75,3.59-2.75a6.42,6.42,0,0,1,3.45,1l-.69,1.46A5.89,5.89,0,0,0,875.82,388.7Z"/><path class="cls-9" d="M888.17,389.57v7.49h-1.62V395.6a2.76,2.76,0,0,1-2.68,1.52,2.6,2.6,0,0,1-2.75-2.89v-4.66h1.62v4.21a1.65,1.65,0,0,0,1.75,1.82,2.12,2.12,0,0,0,2.06-2.34v-3.69Z"/><path class="cls-9" d="M898.45,393.35a3.47,3.47,0,0,1-3.55,3.77,3,3,0,0,1-2.65-1.35v4h-1.62V389.57h1.62v1.29a2.93,2.93,0,0,1,2.62-1.35A3.52,3.52,0,0,1,898.45,393.35Zm-1.63-.06a2.29,2.29,0,1,0-2.28,2.45A2.27,2.27,0,0,0,896.82,393.29Z"/><g class="cls-10"><line class="cls-11" x1="1080.8" y1="319.39" x2="754.99" y2="319.39"/><line class="cls-11" x1="1054" y1="285" x2="754" y2="285"/><line class="cls-11" x1="1067.87" y1="302" x2="761.36" y2="302"/></g><g class="cls-10"><line class="cls-11" x1="1081" y1="411" x2="905" y2="411"/><line class="cls-11" x1="1053" y1="376" x2="910" y2="376"/><line class="cls-11" x1="1068" y1="393" x2="914" y2="393"/></g><g class="cls-10"><line class="cls-11" x1="1081" y1="228" x2="909" y2="228"/><line class="cls-11" x1="1053" y1="194" x2="907" y2="194"/><line class="cls-11" x1="1067" y1="210" x2="914" y2="210"/></g><g class="cls-10"><path class="cls-12" d="M230.39,506.65l-5.81,7.43a2.48,2.48,0,0,1-3.53,0l-1.3-1.3-4,4a2.57,2.57,0,0,1-3.64,0l-4-4H189.49V503Z"/><path class="cls-13" d="M226.89,501.51l3.5,5.14h-40.9V500.5h35A3.28,3.28,0,0,1,226.89,501.51Z"/><path class="cls-12" d="M178.25,506.65a8.48,8.48,0,1,1-17,0h-6.17a19.49,19.49,0,0,0,39,0Z"/><path class="cls-13" d="M174.6,487.16a19.49,19.49,0,0,0-19.49,19.49c0,7.77,8.72,14.08,19.49,14.08s19.49-6.3,19.49-14.08A19.49,19.49,0,0,0,174.6,487.16Zm-4.83,25.38a5.89,5.89,0,1,1,5.89-5.89A5.89,5.89,0,0,1,169.77,512.55Z"/><path class="cls-14" d="M157,547.75v15.4h-2.6v-2.51a6.37,6.37,0,0,1-5.24,2.51,5.27,5.27,0,0,1-5.37-5.63v-9.77h2.62v9.15a3.52,3.52,0,0,0,3.65,3.74A4.42,4.42,0,0,0,154.4,556v-8.27Z"/><path class="cls-14" d="M164.19,553.36c-1,0-1.72.33-1.72,1.17,0,2.16,6.23,1,6.21,5.24,0,2.4-2.13,3.48-4.49,3.48a7.24,7.24,0,0,1-4.71-1.63l.9-1.8a6.38,6.38,0,0,0,3.92,1.45c1.08,0,1.92-.37,1.92-1.25,0-2.4-6.16-1.06-6.14-5.28,0-2.38,2.07-3.39,4.31-3.39a7.4,7.4,0,0,1,4.09,1.19l-.92,1.87A6.89,6.89,0,0,0,164.19,553.36Z"/><path class="cls-14" d="M179.81,559.5l1.47,1.36a6.27,6.27,0,0,1-5.06,2.38,5.72,5.72,0,0,1-6.1-5.94,5.63,5.63,0,0,1,5.88-5.94,5.11,5.11,0,0,1,5.52,5.1L173,559a3.5,3.5,0,0,0,3.37,2.2A4.44,4.44,0,0,0,179.81,559.5Zm-7.15-2.33v0l6.42-1.91a2.86,2.86,0,0,0-2.93-1.87C174,553.4,172.66,554.72,172.66,557.17Z"/><path class="cls-14" d="M190.56,551.36v2.42a3.54,3.54,0,0,0-4,3.26v6.12H184V551.45h2.53v2.33A4.25,4.25,0,0,1,190.56,551.36Z"/><path class="cls-14" d="M209.68,563.15l-5.06-6.8L202,559.23v3.92h-2.6v-15.4H202v8l7.35-8h3.06l-6,6.58,6.36,8.82Z"/><path class="cls-14" d="M223.63,559.5l1.47,1.36a6.27,6.27,0,0,1-5.06,2.38,5.72,5.72,0,0,1-6.09-5.94,5.63,5.63,0,0,1,5.87-5.94,5.1,5.1,0,0,1,5.52,5.1L216.83,559a3.5,3.5,0,0,0,3.37,2.2A4.44,4.44,0,0,0,223.63,559.5Zm-7.15-2.33v0l6.43-1.91A2.87,2.87,0,0,0,220,553.4C217.84,553.4,216.48,554.72,216.48,557.17Z"/><path class="cls-14" d="M238.61,551.45V561.9c0,3.43-2.29,5.63-5.85,5.61a8.55,8.55,0,0,1-5-1.76l.68-1.85a7.23,7.23,0,0,0,4,1.5,3.31,3.31,0,0,0,3.61-3.54v-1.69a4.15,4.15,0,0,1-3.89,2c-2.95,0-4.78-1.74-4.78-4.53v-6.2H230v5.48a2.61,2.61,0,0,0,2.82,2.86c2.09,0,3.32-1.5,3.32-3.85v-4.49Z"/></g><g class="cls-10"><path class="cls-12" d="M537.1,506.65l-5.81,7.43a2.48,2.48,0,0,1-3.53,0l-1.3-1.3-4,4a2.57,2.57,0,0,1-3.64,0l-4-4H496.2V503Z"/><path class="cls-13" d="M533.6,501.51l3.5,5.14H496.2V500.5h35A3.28,3.28,0,0,1,533.6,501.51Z"/><path class="cls-12" d="M485,506.65a8.48,8.48,0,1,1-17,0h-6.17a19.49,19.49,0,0,0,39,0Z"/><path class="cls-13" d="M481.32,487.16a19.49,19.49,0,0,0-19.49,19.49c0,7.77,8.72,14.08,19.49,14.08s19.49-6.3,19.49-14.08A19.49,19.49,0,0,0,481.32,487.16Zm-4.83,25.38a5.89,5.89,0,1,1,5.89-5.89A5.89,5.89,0,0,1,476.48,512.55Z"/><path class="cls-14" d="M456.4,555.45a8.17,8.17,0,1,1-8.16-7.77A7.88,7.88,0,0,1,456.4,555.45Zm-13.69,0a5.52,5.52,0,0,0,5.54,5.48,5.46,5.46,0,1,0-5.54-5.48Z"/><path class="cls-14" d="M465.6,551.36v2.42a3.54,3.54,0,0,0-4,3.26v6.12H459V551.45h2.53v2.33A4.25,4.25,0,0,1,465.6,551.36Z"/><path class="cls-14" d="M470.42,548.1a1.47,1.47,0,1,1-1.47-1.52A1.45,1.45,0,0,1,470.42,548.1Zm-.22,3.35v11.71h-2.51V551.45Z"/><path class="cls-14" d="M484.5,551.45V562c0,3.37-2.4,5.48-6.07,5.48a8.51,8.51,0,0,1-4.86-1.54l1.08-1.83a5.92,5.92,0,0,0,3.68,1.28c2.22,0,3.67-1.3,3.67-3.32V560.6a4.29,4.29,0,0,1-3.87,2c-3.17,0-5.28-2.29-5.28-5.65s2.09-5.54,5.19-5.57a4.37,4.37,0,0,1,4,2v-1.89ZM482,557a3.33,3.33,0,0,0-3.37-3.59A3.61,3.61,0,1,0,482,557Z"/><path class="cls-14" d="M490.74,548.1a1.48,1.48,0,1,1-1.47-1.52A1.45,1.45,0,0,1,490.74,548.1Zm-.22,3.35v11.71H488V551.45Z"/><path class="cls-14" d="M505.46,555.87v7.28h-2.53v-6.58a2.61,2.61,0,0,0-2.82-2.84,3.28,3.28,0,0,0-3.32,3.19v6.23h-2.53V551.45h2.53v2.24a4.42,4.42,0,0,1,4.31-2.33C503.83,551.36,505.46,553.07,505.46,555.87Z"/><path class="cls-14" d="M525.88,563.15l-5.06-6.8-2.62,2.88v3.92h-2.6v-15.4h2.6v8l7.35-8h3.06l-6,6.58,6.36,8.82Z"/><path class="cls-14" d="M539.83,559.5l1.47,1.36a6.27,6.27,0,0,1-5.06,2.38,5.72,5.72,0,0,1-6.1-5.94,5.63,5.63,0,0,1,5.88-5.94,5.11,5.11,0,0,1,5.52,5.1L533,559a3.5,3.5,0,0,0,3.37,2.2A4.44,4.44,0,0,0,539.83,559.5Zm-7.15-2.33v0l6.42-1.91a2.86,2.86,0,0,0-2.93-1.87C534,553.4,532.68,554.72,532.68,557.17Z"/><path class="cls-14" d="M554.81,551.45V561.9c0,3.43-2.29,5.63-5.85,5.61a8.56,8.56,0,0,1-5-1.76l.68-1.85a7.23,7.23,0,0,0,4,1.5,3.31,3.31,0,0,0,3.61-3.54v-1.69a4.15,4.15,0,0,1-3.89,2c-2.95,0-4.77-1.74-4.77-4.53v-6.2h2.53v5.48a2.61,2.61,0,0,0,2.82,2.86c2.09,0,3.32-1.5,3.32-3.85v-4.49Z"/></g><path class="cls-12" d="M840.88,506.65l-5.81,7.43a2.48,2.48,0,0,1-3.53,0l-1.3-1.3-4,4a2.57,2.57,0,0,1-3.64,0l-4-4H800V503Z"/><path class="cls-13" d="M837.38,501.51l3.5,5.14H800V500.5h35A3.28,3.28,0,0,1,837.38,501.51Z"/><path class="cls-12" d="M788.74,506.65a8.48,8.48,0,1,1-17,0H765.6a19.49,19.49,0,0,0,39,0Z"/><path class="cls-13" d="M785.09,487.16a19.49,19.49,0,0,0-19.49,19.49c0,7.77,8.72,14.08,19.49,14.08s19.49-6.3,19.49-14.08A19.49,19.49,0,0,0,785.09,487.16Zm-4.83,25.38a5.89,5.89,0,1,1,5.89-5.89A5.89,5.89,0,0,1,780.26,512.55Z"/><path class="cls-14" d="M763.31,563.15l-2.82-4.66c-.22,0-.46,0-.7,0h-3.65v4.64h-2.6v-15.4h6.25c3.94,0,6.21,1.91,6.21,5.26a5,5,0,0,1-3.19,5l3.46,5.15Zm-3.52-7c2.38,0,3.74-1,3.74-3.1s-1.37-3-3.74-3h-3.65v6.1Z"/><path class="cls-14" d="M772,548.1a1.47,1.47,0,1,1-1.47-1.52A1.45,1.45,0,0,1,772,548.1Zm-.22,3.35v11.71H769.3V551.45Z"/><path class="cls-14" d="M786.74,555.87v7.28h-2.53v-6.58a2.61,2.61,0,0,0-2.82-2.84,3.28,3.28,0,0,0-3.32,3.19v6.23h-2.53V551.45h2.53v2.24a4.42,4.42,0,0,1,4.31-2.33C785.12,551.36,786.74,553.07,786.74,555.87Z"/><path class="cls-14" d="M800.69,551.45V562c0,3.37-2.4,5.48-6.07,5.48a8.51,8.51,0,0,1-4.86-1.54l1.08-1.83a5.92,5.92,0,0,0,3.68,1.28c2.22,0,3.67-1.3,3.67-3.32V560.6a4.29,4.29,0,0,1-3.87,2c-3.17,0-5.28-2.29-5.28-5.65s2.09-5.54,5.19-5.57a4.37,4.37,0,0,1,4,2v-1.89ZM798.18,557a3.33,3.33,0,0,0-3.37-3.59,3.61,3.61,0,1,0,3.37,3.59Z"/><path class="cls-14" d="M821.24,563.15l-5.06-6.8-2.62,2.88v3.92H811v-15.4h2.6v8l7.35-8H824l-6,6.58,6.36,8.82Z"/><path class="cls-14" d="M835.19,559.5l1.47,1.36a6.27,6.27,0,0,1-5.06,2.38,5.72,5.72,0,0,1-6.1-5.94,5.63,5.63,0,0,1,5.88-5.94,5.11,5.11,0,0,1,5.52,5.1L828.39,559a3.5,3.5,0,0,0,3.37,2.2A4.44,4.44,0,0,0,835.19,559.5ZM828,557.17v0l6.42-1.91a2.86,2.86,0,0,0-2.93-1.87C829.4,553.4,828,554.72,828,557.17Z"/><path class="cls-14" d="M850.17,551.45V561.9c0,3.43-2.29,5.63-5.85,5.61a8.56,8.56,0,0,1-5-1.76l.68-1.85a7.23,7.23,0,0,0,4,1.5,3.31,3.31,0,0,0,3.61-3.54v-1.69a4.15,4.15,0,0,1-3.89,2c-2.95,0-4.77-1.74-4.77-4.53v-6.2h2.53v5.48a2.61,2.61,0,0,0,2.82,2.86c2.09,0,3.32-1.5,3.32-3.85v-4.49Z"/><g class="cls-10"><path class="cls-12" d="M1147.39,506.65l-5.81,7.43a2.48,2.48,0,0,1-3.53,0l-1.3-1.3-4,4a2.57,2.57,0,0,1-3.64,0l-4-4h-18.62V503Z"/><path class="cls-13" d="M1143.89,501.51l3.5,5.14h-40.9V500.5h35A3.28,3.28,0,0,1,1143.89,501.51Z"/><path class="cls-12" d="M1095.25,506.65a8.48,8.48,0,1,1-17,0h-6.17a19.49,19.49,0,0,0,39,0Z"/><path class="cls-13" d="M1091.6,487.16a19.49,19.49,0,0,0-19.49,19.49c0,7.77,8.72,14.08,19.49,14.08s19.49-6.3,19.49-14.08A19.49,19.49,0,0,0,1091.6,487.16Zm-4.83,25.38a5.89,5.89,0,1,1,5.89-5.89A5.89,5.89,0,0,1,1086.77,512.55Z"/><path class="cls-14" d="M1051.24,550.08c-1.52,0-2.51.57-2.51,1.61,0,3.37,8.32,1.56,8.29,7.11,0,2.75-2.42,4.44-5.81,4.44a9.47,9.47,0,0,1-6.29-2.44l1.12-2.24a8.12,8.12,0,0,0,5.21,2.24c1.8,0,2.88-.68,2.88-1.87,0-3.43-8.32-1.52-8.32-7,0-2.64,2.27-4.29,5.61-4.29a10,10,0,0,1,5.39,1.58l-1.08,2.29A9.2,9.2,0,0,0,1051.24,550.08Z"/><path class="cls-14" d="M1068.48,559.5l1.47,1.36a6.27,6.27,0,0,1-5.06,2.38,5.72,5.72,0,0,1-6.09-5.94,5.63,5.63,0,0,1,5.87-5.94,5.11,5.11,0,0,1,5.52,5.1l-8.52,2.55a3.5,3.5,0,0,0,3.37,2.2A4.44,4.44,0,0,0,1068.48,559.5Zm-7.15-2.33v0l6.42-1.91a2.87,2.87,0,0,0-2.93-1.87C1062.7,553.4,1061.33,554.72,1061.33,557.17Z"/><path class="cls-14" d="M1079.24,551.36v2.42a3.54,3.54,0,0,0-4,3.26v6.12h-2.53V551.45h2.53v2.33A4.26,4.26,0,0,1,1079.24,551.36Z"/><path class="cls-14" d="M1082.69,551.45l3.26,9.22,3.21-9.22h2.53l-4.49,11.71h-2.62l-4.53-11.71Z"/><path class="cls-14" d="M1096.18,548.1a1.47,1.47,0,1,1-1.47-1.52A1.45,1.45,0,0,1,1096.18,548.1Zm-.22,3.35v11.71h-2.51V551.45Z"/><path class="cls-14" d="M1104.61,553.58a3.75,3.75,0,0,0,0,7.48,4.36,4.36,0,0,0,3.45-1.41l1.41,1.41a6,6,0,0,1-5,2.18,5.94,5.94,0,0,1,0-11.88,6.18,6.18,0,0,1,4.84,1.92L1108,554.9A4.41,4.41,0,0,0,1104.61,553.58Z"/><path class="cls-14" d="M1120.23,559.5l1.47,1.36a6.27,6.27,0,0,1-5.06,2.38,5.72,5.72,0,0,1-6.09-5.94,5.63,5.63,0,0,1,5.87-5.94,5.11,5.11,0,0,1,5.52,5.1l-8.52,2.55a3.5,3.5,0,0,0,3.37,2.2A4.44,4.44,0,0,0,1120.23,559.5Zm-7.15-2.33v0l6.42-1.91a2.87,2.87,0,0,0-2.93-1.87C1114.44,553.4,1113.08,554.72,1113.08,557.17Z"/><path class="cls-14" d="M1141.43,563.15l-5.06-6.8-2.62,2.88v3.92h-2.6v-15.4h2.6v8l7.35-8h3.06l-6,6.58,6.36,8.82Z"/><path class="cls-14" d="M1155.38,559.5l1.47,1.36a6.27,6.27,0,0,1-5.06,2.38,5.72,5.72,0,0,1-6.09-5.94,5.63,5.63,0,0,1,5.87-5.94,5.11,5.11,0,0,1,5.52,5.1l-8.52,2.55a3.5,3.5,0,0,0,3.37,2.2A4.44,4.44,0,0,0,1155.38,559.5Zm-7.15-2.33v0l6.42-1.91a2.87,2.87,0,0,0-2.93-1.87C1149.6,553.4,1148.23,554.72,1148.23,557.17Z"/><path class="cls-14" d="M1170.36,551.45V561.9c0,3.43-2.29,5.63-5.85,5.61a8.56,8.56,0,0,1-5-1.76l.68-1.85a7.23,7.23,0,0,0,4,1.5,3.31,3.31,0,0,0,3.61-3.54v-1.69a4.15,4.15,0,0,1-3.89,2c-2.95,0-4.77-1.74-4.77-4.53v-6.2h2.53v5.48a2.61,2.61,0,0,0,2.82,2.86c2.09,0,3.32-1.5,3.32-3.85v-4.49Z"/></g><g class="cls-10"><line class="cls-11" x1="88.97" y1="305.71" x2="198.34" y2="305.71"/><line class="cls-11" x1="138.53" y1="201.9" x2="198.34" y2="305.49"/><line class="cls-11" x1="258.4" y1="201.9" x2="198.34" y2="305.49"/><path class="cls-15" d="M168.56,344.5a1.37,1.37,0,0,0,1.37,1.37l36.78-.11c2.85,0,2.85-.57,2.85-2v-7.81h1.57a13,13,0,0,0,13-13v-8.26h2.78a1.53,1.53,0,0,0,1.49-1.89c-1.51-6.38-3-15.24-3.87-19a39.57,39.57,0,0,1-.7-4C221.76,273.67,209.3,266,194.52,266c-12,0-25.76,10.82-26.23,27.3C168.08,301.67,168.55,309.15,168.56,344.5Z"/><circle class="cls-16" cx="215.86" cy="292" r="2.58"/><circle class="cls-13" cx="250.04" cy="216.22" r="31.06"/><path id="_Compound_Path_" data-name="&lt;Compound Path&gt;" class="cls-14" d="M229.77,223.41V224a.45.45,0,0,0,.37.44l1.16.2a4.81,4.81,0,0,0,.52,1.26l-.68,1a.45.45,0,0,0,0,.58l.41.41.41.41a.45.45,0,0,0,.58,0l1-.68a4.83,4.83,0,0,0,1.22.51l.2,1.17a.44.44,0,0,0,.44.37h1.16a.45.45,0,0,0,.44-.37l.19-1.15a4.9,4.9,0,0,0,1.26-.51l1,.69a.45.45,0,0,0,.58,0l.41-.41.41-.41a.45.45,0,0,0,0-.58l-.67-1a4.78,4.78,0,0,0,.53-1.25l1.17-.2a.44.44,0,0,0,.37-.44v-1.16a.45.45,0,0,0-.37-.44l-1.15-.18a4.9,4.9,0,0,0-.51-1.26l.69-1a.45.45,0,0,0,0-.58l-.41-.41-.41-.41a.45.45,0,0,0-.58,0l-1,.67a4.54,4.54,0,0,0-1.28-.54l-.2-1.16a.44.44,0,0,0-.44-.37h-1.16a.45.45,0,0,0-.44.37l-.2,1.16a4.81,4.81,0,0,0-1.26.52l-1-.68a.46.46,0,0,0-.57,0l-.41.41-.41.41a.45.45,0,0,0,0,.58l.68,1a4.82,4.82,0,0,0-.52,1.26l-1.16.2a.44.44,0,0,0-.37.44Zm4.29-1.94a2.71,2.71,0,1,1,0,3.83A2.71,2.71,0,0,1,234.07,221.47Z"/><circle id="_Path_" data-name="&lt;Path&gt;" class="cls-14" cx="235.98" cy="223.39" r="1.6"/><path class="cls-14" d="M252.11,224.74a25.69,25.69,0,0,0,10.71-2.08.46.46,0,0,1,.67.41v1.32c0,1.47-4.43,3.6-11.38,3.6a26.27,26.27,0,0,1-7.47-1,.46.46,0,0,1-.28-.6,8.8,8.8,0,0,0,.45-2,.45.45,0,0,1,.55-.4A30.36,30.36,0,0,0,252.11,224.74Z"/><path class="cls-14" d="M243.25,218.32a.63.63,0,0,1,.69-1,28.92,28.92,0,0,0,8.17,1.12,25.73,25.73,0,0,0,10.67-2.06.49.49,0,0,1,.71.43v1c0,1.27-4.32,3.6-11.38,3.6a25.12,25.12,0,0,1-7.58-1.06.48.48,0,0,1-.29-.28A8.83,8.83,0,0,0,243.25,218.32Z"/><path class="cls-14" d="M252.11,208.48c-7.39,0-11.38-2.31-11.38-3.25s4-3.25,11.38-3.25,11.38,2.31,11.38,3.25S259.5,208.48,252.11,208.48Z"/><path class="cls-14" d="M252.11,215.22c-7.06,0-11.38-2.33-11.38-3.6v-1.28a.56.56,0,0,1,.78-.52,30.19,30.19,0,0,0,21.2,0,.56.56,0,0,1,.78.52v1.28C263.49,212.89,259.17,215.22,252.11,215.22Z"/><circle class="cls-13" cx="146.27" cy="216.25" r="31.06"/><circle class="cls-14" cx="151.25" cy="212.22" r="1.52" transform="translate(-24.57 19.86) rotate(-6.95)"/><circle class="cls-14" cx="149.28" cy="217.31" r="0.78" transform="translate(-113.85 200.93) rotate(-51.95)"/><circle class="cls-14" cx="145.17" cy="213.55" r="0.93"/><path class="cls-14" d="M142.38,223a7.42,7.42,0,0,0,2.75,1.45,10.9,10.9,0,0,0,13.46-15l-.05-.11a10.91,10.91,0,0,0-13.35-5.45l-.32.12c-.25.1-.5.2-.74.32l-.27.13-.4.21-.3.18-.33.2-.27.18-.33.24-.23.18a10.53,10.53,0,0,0-.87.77l-.1.1a11.22,11.22,0,0,0-.81.92l-.14.18-.17.23-.28.42-.26.43-.15.27-.24.48-.18.38-.16.38v0l-.14.38c0,.12-.08.24-.12.36l0,.1c0,.08,0,.16-.07.23s0,.15-.06.22l0,.11c0,.1-.16.8-.2,1.06a10.78,10.78,0,0,0,0,2.92,10.85,10.85,0,0,0,2.39,5.47h0s-.36-1-.59-.79l-10.6,10.61a1.14,1.14,0,0,0-.33.78s0,0,0,0,0,0,0,0a1.16,1.16,0,0,0,.13.49,1.15,1.15,0,0,0,.2.28l1.15,1.15h0l.07.07a1.15,1.15,0,0,0,1.62,0l10.64-10.56Zm-.65-8.82a7.05,7.05,0,1,1,7.05,7.05A7,7,0,0,1,141.73,214.16Z"/><circle class="cls-13" cx="93.9" cy="305.41" r="31.06"/><path class="cls-14" d="M81.13,314.44a6.09,6.09,0,0,1-1.38-12,11.15,11.15,0,0,1,20.92-5.29,4.75,4.75,0,0,1,6.6,3.74,6.85,6.85,0,0,1-1.34,13.57Z"/><circle class="cls-13" cx="91.35" cy="299.6" r="2.37"/><circle class="cls-13" cx="99.06" cy="306.74" r="2.37"/><circle class="cls-13" cx="86.6" cy="306.74" r="2.37"/><line class="cls-17" x1="91.35" y1="299.6" x2="99.06" y2="306.74"/><line class="cls-17" x1="86.6" y1="306.74" x2="91.35" y2="299.6"/><line class="cls-17" x1="86.6" y1="306.74" x2="99.06" y2="306.74"/></g><g class="cls-10"><path class="cls-18" d="M603.8,275.92l-106.66-.08h0c-1.51-9.27-3.23-18.32-9.27-25.32l-1.26-1.42A41.27,41.27,0,0,0,459.29,235H563a40.59,40.59,0,0,1,30.79,14.17l.22.38A40.48,40.48,0,0,1,603.8,275.92Z"/><path class="cls-8" d="M529.4,349.9v13.32c0,.23-.27.46-.81.63l-8.81,2.86a7.4,7.4,0,0,1-3.9,0l-8.81-2.86c-.54-.17-.81-.4-.81-.63V349.9Z"/><path class="cls-19" d="M515.88,353.39l-8.81-2.86c-1.08-.35-1.08-.92,0-1.27l8.81-2.86a7.39,7.39,0,0,1,3.9,0l8.81,2.86c1.08.35,1.08.92,0,1.27l-8.81,2.86a7.39,7.39,0,0,1-3.9,0Z"/><path class="cls-8" d="M479.25,349.89v13.32c0,.23-.27.46-.81.63l-8.81,2.86a7.4,7.4,0,0,1-3.9,0l-8.81-2.86c-.54-.17-.81-.4-.81-.63V349.89Z"/><path class="cls-19" d="M465.73,353.38l-8.81-2.86c-1.08-.35-1.08-.92,0-1.27l8.81-2.86a7.39,7.39,0,0,1,3.9,0l8.81,2.86c1.08.35,1.08.92,0,1.27l-8.81,2.86a7.39,7.39,0,0,1-3.9,0Z"/><path class="cls-8" d="M557.22,349.9v13.32c0,.23-.27.46-.81.63l-8.81,2.86a7.4,7.4,0,0,1-3.9,0l-8.81-2.86c-.54-.17-.81-.4-.81-.63V349.9Z"/><path class="cls-19" d="M543.7,353.39l-8.81-2.86c-1.08-.35-1.08-.92,0-1.27l8.81-2.86a7.39,7.39,0,0,1,3.9,0l8.81,2.86c1.08.35,1.08.92,0,1.27l-8.81,2.86a7.39,7.39,0,0,1-3.9,0Z"/><g class="cls-20"><path class="cls-21" d="M595.49,369.4H497.14V275.8H603.8v85.29A8.3,8.3,0,0,1,595.49,369.4Z"/></g><path class="cls-22" d="M497,275.87V370H474V318.69a5.87,5.87,0,0,0-5.9-5.69H443.35a5.41,5.41,0,0,0-5.35,5.69V370H423.76a4.52,4.52,0,0,1-2.1-.54c-3.17-.88-6.66-4.25-6.66-7.87V275.67A41.46,41.46,0,0,1,455.9,235H456a40.45,40.45,0,0,1,30.63,14.16l1.2,1.27C493.84,257.44,495,266.59,497,275.87Z"/><path class="cls-14" d="M443.8,289.9c0,2.91-2.3,5-5.49,5H434V284.86h4.31C441.52,284.86,443.8,287,443.8,289.9Zm-1.79,0a3.51,3.51,0,0,0-3.68-3.53h-2.51v7h2.58A3.45,3.45,0,0,0,442,289.91Z"/><path class="cls-14" d="M451.46,292.54l1,.89A4.36,4.36,0,0,1,449,295a3.83,3.83,0,0,1-4.16-3.88,3.76,3.76,0,0,1,4-3.89,3.43,3.43,0,0,1,3.77,3.34l-5.82,1.67a2.39,2.39,0,0,0,2.3,1.44A3.08,3.08,0,0,0,451.46,292.54ZM446.57,291h0l4.39-1.25a2,2,0,0,0-2-1.22A2.22,2.22,0,0,0,446.57,291Z"/><path class="cls-14" d="M462.73,291.13a3.62,3.62,0,0,1-3.79,3.86,3.18,3.18,0,0,1-2.83-1.38v4.12h-1.73V287.28h1.73v1.32a3.16,3.16,0,0,1,2.8-1.38A3.67,3.67,0,0,1,462.73,291.13Zm-1.74-.06a2.44,2.44,0,1,0-2.44,2.5A2.37,2.37,0,0,0,461,291.08Z"/><path class="cls-14" d="M472.12,291.09a4.18,4.18,0,0,1-8.34,0c0-2.3,1.7-3.87,4.18-3.87A3.83,3.83,0,0,1,472.12,291.09Zm-6.61,0a2.44,2.44,0,1,0,2.45-2.49A2.35,2.35,0,0,0,465.51,291.12Z"/><path class="cls-14" d="M477.94,294.44A4,4,0,0,1,476,295a2.24,2.24,0,0,1-2.28-2.5v-7h1.71v2.1h2.36v1.24h-2.36v3.41c0,.91.32,1.29.89,1.29a2.72,2.72,0,0,0,1.17-.33Z"/></g><g class="cls-10"><rect class="cls-19" x="1053.62" y="172.07" width="75" height="29.52" rx="3" ry="3"/><rect class="cls-8" x="1053.62" y="175.72" width="75" height="39.34" rx="3" ry="3"/><rect class="cls-19" x="1067.98" y="188.38" width="75" height="29.52" rx="3" ry="3"/><rect class="cls-8" x="1067.98" y="192.02" width="75" height="39.34" rx="3" ry="3"/><rect class="cls-19" x="1081.39" y="204.68" width="75" height="29.52" rx="3" ry="3"/><rect class="cls-8" x="1081.39" y="208.32" width="75" height="39.34" rx="3" ry="3"/><path class="cls-9" d="M1098.38,224c-1,0-1.61.37-1.61,1,0,2.15,5.32,1,5.31,4.55,0,1.76-1.55,2.85-3.72,2.85a6.06,6.06,0,0,1-4-1.56l.72-1.44a5.2,5.2,0,0,0,3.34,1.44c1.16,0,1.85-.44,1.85-1.2,0-2.2-5.32-1-5.32-4.48,0-1.69,1.45-2.75,3.59-2.75a6.42,6.42,0,0,1,3.45,1l-.69,1.46A5.89,5.89,0,0,0,1098.38,224Z"/><path class="cls-9" d="M1109.42,230l.94.87a4,4,0,0,1-3.24,1.52,3.66,3.66,0,0,1-3.9-3.8,3.6,3.6,0,0,1,3.76-3.8,3.27,3.27,0,0,1,3.54,3.27l-5.45,1.63a2.24,2.24,0,0,0,2.16,1.41A2.85,2.85,0,0,0,1109.42,230Zm-4.58-1.49v0l4.11-1.23a1.84,1.84,0,0,0-1.87-1.2A2.13,2.13,0,0,0,1104.84,228.5Z"/><path class="cls-9" d="M1116.31,224.78v1.55a2.27,2.27,0,0,0-2.59,2.08v3.92h-1.62v-7.49h1.62v1.49A2.73,2.73,0,0,1,1116.31,224.78Z"/><path class="cls-9" d="M1118.52,224.84l2.08,5.9,2.06-5.9h1.62l-2.87,7.49h-1.68l-2.9-7.49Z"/><path class="cls-9" d="M1127.15,222.7a.94.94,0,1,1-.94-1A.93.93,0,0,1,1127.15,222.7Zm-.14,2.14v7.49h-1.61v-7.49Z"/><path class="cls-9" d="M1132.55,226.2a2.4,2.4,0,0,0,0,4.79,2.79,2.79,0,0,0,2.21-.9l.9.9a3.81,3.81,0,0,1-3.18,1.39,3.8,3.8,0,0,1,0-7.61,4,4,0,0,1,3.1,1.22l-.89,1A2.83,2.83,0,0,0,1132.55,226.2Z"/><path class="cls-9" d="M1142.55,230l.94.87a4,4,0,0,1-3.24,1.52,3.66,3.66,0,0,1-3.9-3.8,3.6,3.6,0,0,1,3.76-3.8,3.27,3.27,0,0,1,3.54,3.27l-5.45,1.63a2.24,2.24,0,0,0,2.16,1.41A2.85,2.85,0,0,0,1142.55,230ZM1138,228.5v0l4.11-1.23a1.84,1.84,0,0,0-1.87-1.2A2.13,2.13,0,0,0,1138,228.5Z"/></g><g class="cls-10"><rect class="cls-19" x="1053.62" y="263.61" width="75" height="29.52" rx="3" ry="3"/><rect class="cls-8" x="1053.62" y="267.25" width="75" height="39.34" rx="3" ry="3"/><rect class="cls-19" x="1067.98" y="279.91" width="75" height="29.52" rx="3" ry="3"/><rect class="cls-8" x="1067.98" y="283.56" width="75" height="39.34" rx="3" ry="3"/><rect class="cls-19" x="1081.39" y="296.21" width="75" height="29.52" rx="3" ry="3"/><rect class="cls-8" x="1081.39" y="299.86" width="75" height="39.34" rx="3" ry="3"/><path class="cls-9" d="M1098.38,315.5c-1,0-1.61.37-1.61,1,0,2.16,5.32,1,5.31,4.55,0,1.76-1.55,2.85-3.72,2.85a6.06,6.06,0,0,1-4-1.56l.72-1.44a5.2,5.2,0,0,0,3.34,1.44c1.16,0,1.85-.44,1.85-1.2,0-2.2-5.32-1-5.32-4.48,0-1.69,1.45-2.75,3.59-2.75a6.42,6.42,0,0,1,3.45,1l-.69,1.46A5.89,5.89,0,0,0,1098.38,315.5Z"/><path class="cls-9" d="M1109.42,321.53l.94.87a4,4,0,0,1-3.24,1.52,3.66,3.66,0,0,1-3.9-3.8,3.6,3.6,0,0,1,3.76-3.8,3.27,3.27,0,0,1,3.54,3.27l-5.45,1.63a2.24,2.24,0,0,0,2.16,1.41A2.84,2.84,0,0,0,1109.42,321.53Zm-4.58-1.49h0l4.11-1.23a1.83,1.83,0,0,0-1.87-1.2A2.13,2.13,0,0,0,1104.84,320Z"/><path class="cls-9" d="M1116.31,316.32v1.55a2.27,2.27,0,0,0-2.59,2.08v3.92h-1.62v-7.49h1.62v1.49A2.73,2.73,0,0,1,1116.31,316.32Z"/><path class="cls-9" d="M1118.52,316.37l2.08,5.9,2.06-5.9h1.62l-2.87,7.49h-1.68l-2.9-7.49Z"/><path class="cls-9" d="M1127.15,314.23a.94.94,0,1,1-.94-1A.93.93,0,0,1,1127.15,314.23Zm-.14,2.14v7.49h-1.61v-7.49Z"/><path class="cls-9" d="M1132.55,317.74a2.4,2.4,0,0,0,0,4.79,2.79,2.79,0,0,0,2.21-.9l.9.9a3.81,3.81,0,0,1-3.18,1.39,3.8,3.8,0,0,1,0-7.61,4,4,0,0,1,3.1,1.23l-.89,1A2.83,2.83,0,0,0,1132.55,317.74Z"/><path class="cls-9" d="M1142.55,321.53l.94.87a4,4,0,0,1-3.24,1.52,3.66,3.66,0,0,1-3.9-3.8,3.6,3.6,0,0,1,3.76-3.8,3.27,3.27,0,0,1,3.54,3.27l-5.45,1.63a2.24,2.24,0,0,0,2.16,1.41A2.84,2.84,0,0,0,1142.55,321.53ZM1138,320h0l4.11-1.23a1.83,1.83,0,0,0-1.87-1.2A2.13,2.13,0,0,0,1138,320Z"/></g><g class="cls-10"><rect class="cls-19" x="1053.62" y="355.15" width="75" height="29.52" rx="3" ry="3"/><rect class="cls-8" x="1053.62" y="358.79" width="75" height="39.34" rx="3" ry="3"/><rect class="cls-19" x="1067.98" y="371.45" width="75" height="29.52" rx="3" ry="3"/><rect class="cls-8" x="1067.98" y="375.09" width="75" height="39.34" rx="3" ry="3"/><rect class="cls-19" x="1081.39" y="387.75" width="75" height="29.52" rx="3" ry="3"/><rect class="cls-8" x="1081.39" y="391.39" width="75" height="39.34" rx="3" ry="3"/><path class="cls-9" d="M1098.38,407c-1,0-1.61.37-1.61,1,0,2.16,5.32,1,5.31,4.55,0,1.76-1.55,2.85-3.72,2.85a6.06,6.06,0,0,1-4-1.56l.72-1.44a5.2,5.2,0,0,0,3.34,1.44c1.16,0,1.85-.44,1.85-1.2,0-2.2-5.32-1-5.32-4.48,0-1.69,1.45-2.75,3.59-2.75a6.42,6.42,0,0,1,3.45,1l-.69,1.46A5.89,5.89,0,0,0,1098.38,407Z"/><path class="cls-9" d="M1109.42,413.06l.94.87a4,4,0,0,1-3.24,1.52,3.66,3.66,0,0,1-3.9-3.8,3.6,3.6,0,0,1,3.76-3.8,3.27,3.27,0,0,1,3.54,3.27l-5.45,1.63a2.24,2.24,0,0,0,2.16,1.41A2.84,2.84,0,0,0,1109.42,413.06Zm-4.58-1.49h0l4.11-1.22a1.83,1.83,0,0,0-1.87-1.2A2.13,2.13,0,0,0,1104.84,411.57Z"/><path class="cls-9" d="M1116.31,407.85v1.55a2.27,2.27,0,0,0-2.59,2.09v3.91h-1.62v-7.49h1.62v1.49A2.73,2.73,0,0,1,1116.31,407.85Z"/><path class="cls-9" d="M1118.52,407.91l2.08,5.9,2.06-5.9h1.62l-2.87,7.49h-1.68l-2.9-7.49Z"/><path class="cls-9" d="M1127.15,405.77a.94.94,0,1,1-.94-1A.93.93,0,0,1,1127.15,405.77Zm-.14,2.14v7.49h-1.61v-7.49Z"/><path class="cls-9" d="M1132.55,409.27a2.4,2.4,0,0,0,0,4.79,2.79,2.79,0,0,0,2.21-.9l.9.9a3.81,3.81,0,0,1-3.18,1.39,3.8,3.8,0,0,1,0-7.61,4,4,0,0,1,3.1,1.23l-.89,1A2.83,2.83,0,0,0,1132.55,409.27Z"/><path class="cls-9" d="M1142.55,413.06l.94.87a4,4,0,0,1-3.24,1.52,3.66,3.66,0,0,1-3.9-3.8,3.6,3.6,0,0,1,3.76-3.8,3.27,3.27,0,0,1,3.54,3.27l-5.45,1.63a2.24,2.24,0,0,0,2.16,1.41A2.84,2.84,0,0,0,1142.55,413.06Zm-4.58-1.49h0l4.11-1.22a1.83,1.83,0,0,0-1.87-1.2A2.13,2.13,0,0,0,1138,411.57Z"/></g></g></svg>