<svg xmlns="http://www.w3.org/2000/svg" xmlns:xlink="http://www.w3.org/1999/xlink" viewBox="0 0 1280 800.88"><defs><style>.cls-1,.cls-11,.cls-17,.cls-2{fill:none;stroke-miterlimit:10;}.cls-1,.cls-2{stroke:#c3c6c8;stroke-dasharray:3 4;}.cls-1,.cls-3,.cls-4,.cls-5{opacity:0.2;}.cls-3{fill:url(#linear-gradient);}.cls-4{fill:url(#linear-gradient-2);}.cls-6{fill:url(#linear-gradient-3);}.cls-7{fill:url(#linear-gradient-4);}.cls-8{fill:url(#linear-gradient-5);}.cls-9{fill:#f3fcff;}.cls-10{fill:#666;}.cls-11{stroke:#fff;stroke-width:2px;opacity:0.15;}.cls-12{fill:#4296b4;}.cls-13{fill:#80c4d6;}.cls-14{fill:#fff;}.cls-15{fill:#ff9012;}.cls-16{fill:#ad5f12;}.cls-17{stroke:#80c4d6;}.cls-18{fill:#f4f4f4;}.cls-19{fill:#c5d2d8;}.cls-20,.cls-22{opacity:0.9;}.cls-21{fill:#dbdbdb;}.cls-22{fill:#87b09a;}</style><linearGradient id="linear-gradient" x1="645.26" y1="289.88" x2="645.26" y2="311.88" gradientUnits="userSpaceOnUse"><stop offset="0" stop-color="#87b09a"/><stop offset="0.25" stop-color="#89b77b"/><stop offset="0.56" stop-color="#8abf5a"/><stop offset="0.82" stop-color="#8cc446"/><stop offset="1" stop-color="#8cc63f"/></linearGradient><linearGradient id="linear-gradient-2" x1="309.96" y1="289.88" x2="309.96" y2="311.88" xlink:href="#linear-gradient"/><linearGradient id="linear-gradient-3" x1="-5115.4" y1="-5972.08" x2="-5037.1" y2="-5972.08" gradientTransform="translate(1953.78 8073.84) rotate(32.84)" gradientUnits="userSpaceOnUse"><stop offset="0" stop-color="#2f789f"/><stop offset="0.21" stop-color="#347da0"/><stop offset="0.47" stop-color="#418da4"/><stop offset="0.76" stop-color="#58a6ab"/><stop offset="1" stop-color="#70c2b2"/></linearGradient><linearGradient id="linear-gradient-4" x1="-4272.71" y1="-4131.16" x2="-4194.41" y2="-4131.16" gradientTransform="translate(5165.02 -3760.79) rotate(-86.69)" xlink:href="#linear-gradient-3"/><linearGradient id="linear-gradient-5" x1="-6221.7" y1="-4411.25" x2="-6143.4" y2="-4411.25" gradientTransform="matrix(-0.88, 0.47, -0.47, -0.88, -6739.15, -596.99)" xlink:href="#linear-gradient-3"/></defs><title>Keys - Service Key</title><g id="middle_layer" data-name="middle layer"><line class="cls-1" x1="189.49" y1="345.54" x2="189.49" y2="480.03"/><line class="cls-1" x1="501.38" y1="370.54" x2="501.38" y2="480.03"/><line class="cls-1" x1="806.89" y1="406" x2="806.89" y2="480.03"/><line class="cls-2" x1="1111.09" y1="432.32" x2="1111.09" y2="480.03"/><polygon class="cls-3" points="604 311.88 676.03 311.88 686.51 300.88 675.78 289.88 604 289.88 604 311.88"/><polygon class="cls-4" points="227.98 311.88 385.77 311.88 396.25 300.88 385.77 289.88 223.67 289.88 227.98 311.88"/><g class="cls-5"><path class="cls-6" d="M935.79,361.64,921,364.32l-3.68-14.61a88,88,0,0,0,.77-93l3-16.6,15.91,5.3A110.72,110.72,0,0,1,935.79,361.64Z"/></g><g class="cls-5"><path class="cls-7" d="M842.19,190.28l9.63,11.57-10.9,10.4a88,88,0,0,0-81.32,45.16l-15.9,5.6-3.23-16.45A110.72,110.72,0,0,1,842.19,190.28Z"/></g><g class="cls-5"><path class="cls-8" d="M738.28,352.8l4.84-14.25,14.56,3.86a88,88,0,0,0,81,45.76l13.08,10.64-12.35,11.34A110.72,110.72,0,0,1,738.28,352.8Z"/></g><g class="cls-5"><path class="cls-8" d="M738.28,352.8l4.84-14.25,14.56,3.86a88,88,0,0,0,81,45.76l13.08,10.64-12.35,11.34A110.72,110.72,0,0,1,738.28,352.8Z"/></g><g class="cls-5"><circle class="cls-9" cx="885.18" cy="390.62" r="28.64"/></g><g class="cls-5"><circle class="cls-9" cx="732.72" cy="302.26" r="28.64"/></g><g class="cls-5"><circle class="cls-9" cx="885.26" cy="212.83" r="28.64"/></g><g class="cls-5"><path class="cls-10" d="M875.82,209c-1,0-1.61.37-1.61,1,0,2.16,5.32,1,5.31,4.55,0,1.76-1.55,2.85-3.72,2.85a6.06,6.06,0,0,1-4-1.56l.72-1.44a5.2,5.2,0,0,0,3.34,1.44c1.16,0,1.85-.44,1.85-1.2,0-2.2-5.32-1-5.32-4.48,0-1.69,1.45-2.75,3.59-2.75a6.42,6.42,0,0,1,3.45,1l-.69,1.46A5.89,5.89,0,0,0,875.82,209Z"/><path class="cls-10" d="M888.17,209.84v7.49h-1.62v-1.46a2.76,2.76,0,0,1-2.68,1.52,2.6,2.6,0,0,1-2.75-2.89v-4.66h1.62v4.21a1.65,1.65,0,0,0,1.75,1.82,2.12,2.12,0,0,0,2.06-2.34v-3.69Z"/><path class="cls-10" d="M898.45,213.61a3.47,3.47,0,0,1-3.55,3.77,3,3,0,0,1-2.65-1.35v4h-1.62V209.84h1.62v1.29a2.93,2.93,0,0,1,2.62-1.35A3.52,3.52,0,0,1,898.45,213.61Zm-1.63-.06a2.29,2.29,0,1,0-2.28,2.45A2.27,2.27,0,0,0,896.82,213.56Z"/></g><g class="cls-5"><path class="cls-10" d="M723.36,300.07c-1,0-1.61.37-1.61,1,0,2.16,5.32,1,5.31,4.55,0,1.76-1.55,2.85-3.72,2.85a6.06,6.06,0,0,1-4-1.56l.72-1.44a5.2,5.2,0,0,0,3.34,1.44c1.15,0,1.85-.44,1.85-1.2,0-2.2-5.32-1-5.32-4.48,0-1.69,1.45-2.75,3.59-2.75a6.41,6.41,0,0,1,3.45,1l-.69,1.46A5.89,5.89,0,0,0,723.36,300.07Z"/><path class="cls-10" d="M735.71,300.95v7.49h-1.62V307a2.76,2.76,0,0,1-2.68,1.52,2.6,2.6,0,0,1-2.75-2.89v-4.66h1.62v4.21A1.65,1.65,0,0,0,732,307a2.12,2.12,0,0,0,2.06-2.34v-3.69Z"/><path class="cls-10" d="M746,304.72a3.47,3.47,0,0,1-3.55,3.77,3,3,0,0,1-2.65-1.35v4h-1.62V300.95h1.62v1.29a2.93,2.93,0,0,1,2.62-1.35A3.52,3.52,0,0,1,746,304.72Zm-1.63-.06a2.29,2.29,0,1,0-2.28,2.45A2.27,2.27,0,0,0,744.36,304.66Z"/></g><g class="cls-5"><path class="cls-10" d="M875.82,389.58c-1,0-1.61.37-1.61,1,0,2.16,5.32,1,5.31,4.55,0,1.76-1.55,2.85-3.72,2.85a6.06,6.06,0,0,1-4-1.56l.72-1.44a5.2,5.2,0,0,0,3.34,1.44c1.16,0,1.85-.44,1.85-1.2,0-2.2-5.32-1-5.32-4.48,0-1.69,1.45-2.75,3.59-2.75a6.42,6.42,0,0,1,3.45,1l-.69,1.46A5.89,5.89,0,0,0,875.82,389.58Z"/><path class="cls-10" d="M888.17,390.45v7.49h-1.62v-1.46a2.76,2.76,0,0,1-2.68,1.52,2.6,2.6,0,0,1-2.75-2.89v-4.66h1.62v4.21a1.65,1.65,0,0,0,1.75,1.82,2.12,2.12,0,0,0,2.06-2.34v-3.69Z"/><path class="cls-10" d="M898.45,394.23A3.47,3.47,0,0,1,894.9,398a3,3,0,0,1-2.65-1.35v4h-1.62V390.45h1.62v1.29a2.93,2.93,0,0,1,2.62-1.35A3.52,3.52,0,0,1,898.45,394.23Zm-1.63-.06a2.29,2.29,0,1,0-2.28,2.45A2.27,2.27,0,0,0,896.82,394.17Z"/></g><g class="cls-5"><line class="cls-11" x1="1080.8" y1="320.27" x2="754.99" y2="320.27"/><line class="cls-11" x1="1054" y1="285.88" x2="754" y2="285.88"/><line class="cls-11" x1="1067.87" y1="302.89" x2="761.36" y2="302.89"/></g><g class="cls-5"><line class="cls-11" x1="1081" y1="411.88" x2="905" y2="411.88"/><line class="cls-11" x1="1053" y1="376.88" x2="910" y2="376.88"/><line class="cls-11" x1="1068" y1="393.88" x2="914" y2="393.88"/></g><g class="cls-5"><line class="cls-11" x1="1081" y1="228.88" x2="909" y2="228.88"/><line class="cls-11" x1="1053" y1="194.88" x2="907" y2="194.88"/><line class="cls-11" x1="1067" y1="210.88" x2="914" y2="210.88"/></g><g class="cls-5"><path class="cls-12" d="M230.39,507.54,224.57,515a2.48,2.48,0,0,1-3.53,0l-1.3-1.3-4,4a2.57,2.57,0,0,1-3.64,0l-4-4H189.49v-9.77Z"/><path class="cls-13" d="M226.89,502.39l3.5,5.14h-40.9v-6.16h35A3.28,3.28,0,0,1,226.89,502.39Z"/><path class="cls-12" d="M178.25,507.54a8.48,8.48,0,1,1-17,0h-6.17a19.49,19.49,0,0,0,39,0Z"/><path class="cls-13" d="M174.6,488a19.49,19.49,0,0,0-19.49,19.49c0,7.77,8.72,14.08,19.49,14.08s19.49-6.3,19.49-14.08A19.49,19.49,0,0,0,174.6,488Zm-4.83,25.38a5.89,5.89,0,1,1,5.89-5.89A5.89,5.89,0,0,1,169.77,513.43Z"/><path class="cls-14" d="M157,548.63V564h-2.6v-2.51a6.37,6.37,0,0,1-5.24,2.51,5.27,5.27,0,0,1-5.37-5.63v-9.77h2.62v9.15a3.52,3.52,0,0,0,3.65,3.74,4.42,4.42,0,0,0,4.33-4.62v-8.27Z"/><path class="cls-14" d="M164.19,554.24c-1,0-1.72.33-1.72,1.17,0,2.16,6.23,1,6.21,5.24,0,2.4-2.13,3.48-4.49,3.48a7.24,7.24,0,0,1-4.71-1.63l.9-1.8a6.38,6.38,0,0,0,3.92,1.45c1.08,0,1.92-.37,1.92-1.25,0-2.4-6.16-1.06-6.14-5.28,0-2.38,2.07-3.39,4.31-3.39a7.4,7.4,0,0,1,4.09,1.19l-.92,1.87A6.89,6.89,0,0,0,164.19,554.24Z"/><path class="cls-14" d="M179.81,560.38l1.47,1.36a6.27,6.27,0,0,1-5.06,2.38,5.72,5.72,0,0,1-6.1-5.94,5.63,5.63,0,0,1,5.88-5.94,5.11,5.11,0,0,1,5.52,5.1L173,559.9a3.5,3.5,0,0,0,3.37,2.2A4.44,4.44,0,0,0,179.81,560.38Zm-7.15-2.33v0l6.42-1.91a2.86,2.86,0,0,0-2.93-1.87C174,554.29,172.66,555.61,172.66,558.05Z"/><path class="cls-14" d="M190.56,552.24v2.42a3.54,3.54,0,0,0-4,3.26V564H184V552.33h2.53v2.33A4.25,4.25,0,0,1,190.56,552.24Z"/><path class="cls-14" d="M209.68,564l-5.06-6.8L202,560.12V564h-2.6v-15.4H202v8l7.35-8h3.06l-6,6.58,6.36,8.82Z"/><path class="cls-14" d="M223.63,560.38l1.47,1.36a6.27,6.27,0,0,1-5.06,2.38,5.72,5.72,0,0,1-6.09-5.94,5.63,5.63,0,0,1,5.87-5.94,5.1,5.1,0,0,1,5.52,5.1l-8.52,2.55a3.5,3.5,0,0,0,3.37,2.2A4.44,4.44,0,0,0,223.63,560.38Zm-7.15-2.33v0l6.43-1.91a2.87,2.87,0,0,0-2.93-1.87C217.84,554.29,216.48,555.61,216.48,558.05Z"/><path class="cls-14" d="M238.61,552.33v10.45c0,3.43-2.29,5.63-5.85,5.61a8.55,8.55,0,0,1-5-1.76l.68-1.85a7.23,7.23,0,0,0,4,1.5,3.31,3.31,0,0,0,3.61-3.54V561a4.15,4.15,0,0,1-3.89,2c-2.95,0-4.78-1.74-4.78-4.53v-6.2H230v5.48a2.61,2.61,0,0,0,2.82,2.86c2.09,0,3.32-1.5,3.32-3.85v-4.49Z"/></g><g class="cls-5"><path class="cls-12" d="M537.1,507.54,531.29,515a2.48,2.48,0,0,1-3.53,0l-1.3-1.3-4,4a2.57,2.57,0,0,1-3.64,0l-4-4H496.2v-9.77Z"/><path class="cls-13" d="M533.6,502.39l3.5,5.14H496.2v-6.16h35A3.28,3.28,0,0,1,533.6,502.39Z"/><path class="cls-12" d="M485,507.54a8.48,8.48,0,1,1-17,0h-6.17a19.49,19.49,0,0,0,39,0Z"/><path class="cls-13" d="M481.32,488a19.49,19.49,0,0,0-19.49,19.49c0,7.77,8.72,14.08,19.49,14.08s19.49-6.3,19.49-14.08A19.49,19.49,0,0,0,481.32,488Zm-4.83,25.38a5.89,5.89,0,1,1,5.89-5.89A5.89,5.89,0,0,1,476.48,513.43Z"/><path class="cls-14" d="M456.4,556.33a8.17,8.17,0,1,1-8.16-7.77A7.88,7.88,0,0,1,456.4,556.33Zm-13.69,0a5.52,5.52,0,0,0,5.54,5.48,5.46,5.46,0,1,0-5.54-5.48Z"/><path class="cls-14" d="M465.6,552.24v2.42a3.54,3.54,0,0,0-4,3.26V564H459V552.33h2.53v2.33A4.25,4.25,0,0,1,465.6,552.24Z"/><path class="cls-14" d="M470.42,549a1.47,1.47,0,1,1-1.47-1.52A1.45,1.45,0,0,1,470.42,549Zm-.22,3.35V564h-2.51V552.33Z"/><path class="cls-14" d="M484.5,552.33v10.56c0,3.37-2.4,5.48-6.07,5.48a8.51,8.51,0,0,1-4.86-1.54l1.08-1.83a5.92,5.92,0,0,0,3.68,1.28c2.22,0,3.67-1.3,3.67-3.32v-1.47a4.29,4.29,0,0,1-3.87,2c-3.17,0-5.28-2.29-5.28-5.65s2.09-5.54,5.19-5.57a4.37,4.37,0,0,1,4,2v-1.89ZM482,557.87a3.33,3.33,0,0,0-3.37-3.59,3.61,3.61,0,1,0,3.37,3.59Z"/><path class="cls-14" d="M490.74,549a1.48,1.48,0,1,1-1.47-1.52A1.45,1.45,0,0,1,490.74,549Zm-.22,3.35V564H488V552.33Z"/><path class="cls-14" d="M505.46,556.75V564h-2.53v-6.58a2.61,2.61,0,0,0-2.82-2.84,3.28,3.28,0,0,0-3.32,3.19V564h-2.53V552.33h2.53v2.24a4.42,4.42,0,0,1,4.31-2.33C503.83,552.24,505.46,554,505.46,556.75Z"/><path class="cls-14" d="M525.88,564l-5.06-6.8-2.62,2.88V564h-2.6v-15.4h2.6v8l7.35-8h3.06l-6,6.58L529,564Z"/><path class="cls-14" d="M539.83,560.38l1.47,1.36a6.27,6.27,0,0,1-5.06,2.38,5.72,5.72,0,0,1-6.1-5.94,5.63,5.63,0,0,1,5.88-5.94,5.11,5.11,0,0,1,5.52,5.1L533,559.9a3.5,3.5,0,0,0,3.37,2.2A4.44,4.44,0,0,0,539.83,560.38Zm-7.15-2.33v0l6.42-1.91a2.86,2.86,0,0,0-2.93-1.87C534,554.29,532.68,555.61,532.68,558.05Z"/><path class="cls-14" d="M554.81,552.33v10.45c0,3.43-2.29,5.63-5.85,5.61a8.56,8.56,0,0,1-5-1.76l.68-1.85a7.23,7.23,0,0,0,4,1.5,3.31,3.31,0,0,0,3.61-3.54V561a4.15,4.15,0,0,1-3.89,2c-2.95,0-4.77-1.74-4.77-4.53v-6.2h2.53v5.48a2.61,2.61,0,0,0,2.82,2.86c2.09,0,3.32-1.5,3.32-3.85v-4.49Z"/></g><g class="cls-5"><path class="cls-12" d="M840.88,507.54,835.06,515a2.48,2.48,0,0,1-3.53,0l-1.3-1.3-4,4a2.57,2.57,0,0,1-3.64,0l-4-4H800v-9.77Z"/><path class="cls-13" d="M837.38,502.39l3.5,5.14H800v-6.16h35A3.28,3.28,0,0,1,837.38,502.39Z"/><path class="cls-12" d="M788.74,507.54a8.48,8.48,0,1,1-17,0H765.6a19.49,19.49,0,0,0,39,0Z"/><path class="cls-13" d="M785.09,488a19.49,19.49,0,0,0-19.49,19.49c0,7.77,8.72,14.08,19.49,14.08s19.49-6.3,19.49-14.08A19.49,19.49,0,0,0,785.09,488Zm-4.83,25.38a5.89,5.89,0,1,1,5.89-5.89A5.89,5.89,0,0,1,780.26,513.43Z"/><path class="cls-14" d="M763.31,564l-2.82-4.66c-.22,0-.46,0-.7,0h-3.65V564h-2.6v-15.4h6.25c3.94,0,6.21,1.91,6.21,5.26a5,5,0,0,1-3.19,5l3.46,5.15Zm-3.52-7c2.38,0,3.74-1,3.74-3.1s-1.37-3-3.74-3h-3.65v6.1Z"/><path class="cls-14" d="M772,549a1.47,1.47,0,1,1-1.47-1.52A1.45,1.45,0,0,1,772,549Zm-.22,3.35V564H769.3V552.33Z"/><path class="cls-14" d="M786.74,556.75V564h-2.53v-6.58a2.61,2.61,0,0,0-2.82-2.84,3.28,3.28,0,0,0-3.32,3.19V564h-2.53V552.33h2.53v2.24a4.42,4.42,0,0,1,4.31-2.33C785.12,552.24,786.74,554,786.74,556.75Z"/><path class="cls-14" d="M800.69,552.33v10.56c0,3.37-2.4,5.48-6.07,5.48a8.51,8.51,0,0,1-4.86-1.54l1.08-1.83a5.92,5.92,0,0,0,3.68,1.28c2.22,0,3.67-1.3,3.67-3.32v-1.47a4.29,4.29,0,0,1-3.87,2c-3.17,0-5.28-2.29-5.28-5.65s2.09-5.54,5.19-5.57a4.37,4.37,0,0,1,4,2v-1.89Zm-2.51,5.54a3.33,3.33,0,0,0-3.37-3.59,3.61,3.61,0,1,0,3.37,3.59Z"/><path class="cls-14" d="M821.24,564l-5.06-6.8-2.62,2.88V564H811v-15.4h2.6v8l7.35-8H824l-6,6.58,6.36,8.82Z"/><path class="cls-14" d="M835.19,560.38l1.47,1.36a6.27,6.27,0,0,1-5.06,2.38,5.72,5.72,0,0,1-6.1-5.94,5.63,5.63,0,0,1,5.88-5.94,5.11,5.11,0,0,1,5.52,5.1l-8.52,2.55a3.5,3.5,0,0,0,3.37,2.2A4.44,4.44,0,0,0,835.19,560.38ZM828,558.05v0l6.42-1.91a2.86,2.86,0,0,0-2.93-1.87C829.4,554.29,828,555.61,828,558.05Z"/><path class="cls-14" d="M850.17,552.33v10.45c0,3.43-2.29,5.63-5.85,5.61a8.56,8.56,0,0,1-5-1.76l.68-1.85a7.23,7.23,0,0,0,4,1.5,3.31,3.31,0,0,0,3.61-3.54V561a4.15,4.15,0,0,1-3.89,2c-2.95,0-4.77-1.74-4.77-4.53v-6.2h2.53v5.48a2.61,2.61,0,0,0,2.82,2.86c2.09,0,3.32-1.5,3.32-3.85v-4.49Z"/></g><path class="cls-12" d="M1147.39,507.54l-5.81,7.43a2.48,2.48,0,0,1-3.53,0l-1.3-1.3-4,4a2.57,2.57,0,0,1-3.64,0l-4-4h-18.62v-9.77Z"/><path class="cls-13" d="M1143.89,502.39l3.5,5.14h-40.9v-6.16h35A3.28,3.28,0,0,1,1143.89,502.39Z"/><path class="cls-12" d="M1095.25,507.54a8.48,8.48,0,1,1-17,0h-6.17a19.49,19.49,0,0,0,39,0Z"/><path class="cls-13" d="M1091.6,488a19.49,19.49,0,0,0-19.49,19.49c0,7.77,8.72,14.08,19.49,14.08s19.49-6.3,19.49-14.08A19.49,19.49,0,0,0,1091.6,488Zm-4.83,25.38a5.89,5.89,0,1,1,5.89-5.89A5.89,5.89,0,0,1,1086.77,513.43Z"/><path class="cls-14" d="M1051.24,551c-1.52,0-2.51.57-2.51,1.61,0,3.37,8.32,1.56,8.29,7.11,0,2.75-2.42,4.44-5.81,4.44a9.47,9.47,0,0,1-6.29-2.44l1.12-2.24a8.12,8.12,0,0,0,5.21,2.24c1.8,0,2.88-.68,2.88-1.87,0-3.43-8.32-1.52-8.32-7,0-2.64,2.27-4.29,5.61-4.29a10,10,0,0,1,5.39,1.58l-1.08,2.29A9.2,9.2,0,0,0,1051.24,551Z"/><path class="cls-14" d="M1068.48,560.38l1.47,1.36a6.27,6.27,0,0,1-5.06,2.38,5.72,5.72,0,0,1-6.09-5.94,5.63,5.63,0,0,1,5.87-5.94,5.11,5.11,0,0,1,5.52,5.1l-8.52,2.55a3.5,3.5,0,0,0,3.37,2.2A4.44,4.44,0,0,0,1068.48,560.38Zm-7.15-2.33v0l6.42-1.91a2.87,2.87,0,0,0-2.93-1.87C1062.7,554.29,1061.33,555.61,1061.33,558.05Z"/><path class="cls-14" d="M1079.24,552.24v2.42a3.54,3.54,0,0,0-4,3.26V564h-2.53V552.33h2.53v2.33A4.26,4.26,0,0,1,1079.24,552.24Z"/><path class="cls-14" d="M1082.69,552.33l3.26,9.22,3.21-9.22h2.53L1087.21,564h-2.62l-4.53-11.71Z"/><path class="cls-14" d="M1096.18,549a1.47,1.47,0,1,1-1.47-1.52A1.45,1.45,0,0,1,1096.18,549Zm-.22,3.35V564h-2.51V552.33Z"/><path class="cls-14" d="M1104.61,554.46a3.75,3.75,0,0,0,0,7.48,4.36,4.36,0,0,0,3.45-1.41l1.41,1.41a6,6,0,0,1-5,2.18,5.94,5.94,0,0,1,0-11.88,6.18,6.18,0,0,1,4.84,1.92l-1.39,1.63A4.41,4.41,0,0,0,1104.61,554.46Z"/><path class="cls-14" d="M1120.23,560.38l1.47,1.36a6.27,6.27,0,0,1-5.06,2.38,5.72,5.72,0,0,1-6.09-5.94,5.63,5.63,0,0,1,5.87-5.94,5.11,5.11,0,0,1,5.52,5.1l-8.52,2.55a3.5,3.5,0,0,0,3.37,2.2A4.44,4.44,0,0,0,1120.23,560.38Zm-7.15-2.33v0l6.42-1.91a2.87,2.87,0,0,0-2.93-1.87C1114.44,554.29,1113.08,555.61,1113.08,558.05Z"/><path class="cls-14" d="M1141.43,564l-5.06-6.8-2.62,2.88V564h-2.6v-15.4h2.6v8l7.35-8h3.06l-6,6.58,6.36,8.82Z"/><path class="cls-14" d="M1155.38,560.38l1.47,1.36a6.27,6.27,0,0,1-5.06,2.38,5.72,5.72,0,0,1-6.09-5.94,5.63,5.63,0,0,1,5.87-5.94,5.11,5.11,0,0,1,5.52,5.1l-8.52,2.55a3.5,3.5,0,0,0,3.37,2.2A4.44,4.44,0,0,0,1155.38,560.38Zm-7.15-2.33v0l6.42-1.91a2.87,2.87,0,0,0-2.93-1.87C1149.6,554.29,1148.23,555.61,1148.23,558.05Z"/><path class="cls-14" d="M1170.36,552.33v10.45c0,3.43-2.29,5.63-5.85,5.61a8.56,8.56,0,0,1-5-1.76l.68-1.85a7.23,7.23,0,0,0,4,1.5,3.31,3.31,0,0,0,3.61-3.54V561a4.15,4.15,0,0,1-3.89,2c-2.95,0-4.77-1.74-4.77-4.53v-6.2h2.53v5.48a2.61,2.61,0,0,0,2.82,2.86c2.09,0,3.32-1.5,3.32-3.85v-4.49Z"/><g class="cls-5"><line class="cls-11" x1="88.97" y1="306.6" x2="198.34" y2="306.6"/><line class="cls-11" x1="138.53" y1="202.78" x2="198.34" y2="306.37"/><line class="cls-11" x1="258.4" y1="202.78" x2="198.34" y2="306.37"/><path class="cls-15" d="M168.56,345.38a1.37,1.37,0,0,0,1.37,1.37l36.78-.11c2.85,0,2.85-.57,2.85-2V336.8h1.57a13,13,0,0,0,13-13v-8.26h2.78a1.53,1.53,0,0,0,1.49-1.89c-1.51-6.38-3-15.24-3.87-19a39.57,39.57,0,0,1-.7-4c-2.06-16.15-14.53-23.82-29.3-23.81-12,0-25.76,10.82-26.23,27.3C168.08,302.56,168.55,310,168.56,345.38Z"/><circle class="cls-16" cx="215.86" cy="292.88" r="2.58"/><circle class="cls-13" cx="250.04" cy="217.11" r="31.06"/><path id="_Compound_Path_" data-name="&lt;Compound Path&gt;" class="cls-14" d="M229.77,224.3v.58a.45.45,0,0,0,.37.44l1.16.2a4.81,4.81,0,0,0,.52,1.26l-.68,1a.45.45,0,0,0,0,.58l.41.41.41.41a.45.45,0,0,0,.58,0l1-.68a4.83,4.83,0,0,0,1.22.51l.2,1.17a.44.44,0,0,0,.44.37h1.16a.45.45,0,0,0,.44-.37l.19-1.15a4.9,4.9,0,0,0,1.26-.51l1,.69a.45.45,0,0,0,.58,0l.41-.41.41-.41a.45.45,0,0,0,0-.58l-.67-1a4.78,4.78,0,0,0,.53-1.25l1.17-.2a.44.44,0,0,0,.37-.44v-1.16a.45.45,0,0,0-.37-.44l-1.15-.18a4.9,4.9,0,0,0-.51-1.26l.69-1a.45.45,0,0,0,0-.58l-.41-.41-.41-.41a.45.45,0,0,0-.58,0l-1,.67a4.54,4.54,0,0,0-1.28-.54l-.2-1.16a.44.44,0,0,0-.44-.37h-1.16a.45.45,0,0,0-.44.37l-.2,1.16a4.81,4.81,0,0,0-1.26.52l-1-.68a.46.46,0,0,0-.57,0l-.41.41-.41.41a.45.45,0,0,0,0,.58l.68,1a4.82,4.82,0,0,0-.52,1.26l-1.16.2a.44.44,0,0,0-.37.44Zm4.29-1.94a2.71,2.71,0,1,1,0,3.83A2.71,2.71,0,0,1,234.07,222.35Z"/><circle id="_Path_" data-name="&lt;Path&gt;" class="cls-14" cx="235.98" cy="224.27" r="1.6"/><path class="cls-14" d="M252.11,225.63a25.69,25.69,0,0,0,10.71-2.08.46.46,0,0,1,.67.41v1.32c0,1.47-4.43,3.6-11.38,3.6a26.27,26.27,0,0,1-7.47-1,.46.46,0,0,1-.28-.6,8.8,8.8,0,0,0,.45-2,.45.45,0,0,1,.55-.4A30.36,30.36,0,0,0,252.11,225.63Z"/><path class="cls-14" d="M243.25,219.2a.63.63,0,0,1,.69-1,28.92,28.92,0,0,0,8.17,1.12,25.73,25.73,0,0,0,10.67-2.06.49.49,0,0,1,.71.43v1c0,1.27-4.32,3.6-11.38,3.6a25.12,25.12,0,0,1-7.58-1.06.48.48,0,0,1-.29-.28A8.83,8.83,0,0,0,243.25,219.2Z"/><path class="cls-14" d="M252.11,209.37c-7.39,0-11.38-2.31-11.38-3.25s4-3.25,11.38-3.25,11.38,2.31,11.38,3.25S259.5,209.37,252.11,209.37Z"/><path class="cls-14" d="M252.11,216.1c-7.06,0-11.38-2.33-11.38-3.6v-1.28a.56.56,0,0,1,.78-.52,30.19,30.19,0,0,0,21.2,0,.56.56,0,0,1,.78.52v1.28C263.49,213.77,259.17,216.1,252.11,216.1Z"/><circle class="cls-13" cx="146.27" cy="217.14" r="31.06"/><circle class="cls-14" cx="151.25" cy="213.11" r="1.52" transform="translate(-24.68 19.87) rotate(-6.95)"/><circle class="cls-14" cx="149.28" cy="218.19" r="0.78" transform="translate(-114.55 201.27) rotate(-51.95)"/><circle class="cls-14" cx="145.17" cy="214.43" r="0.93"/><path class="cls-14" d="M142.38,223.86a7.42,7.42,0,0,0,2.75,1.45,10.9,10.9,0,0,0,13.46-15l-.05-.11a10.91,10.91,0,0,0-13.35-5.45l-.32.12c-.25.1-.5.2-.74.32l-.27.13-.4.21-.3.18-.33.2-.27.18-.33.24-.23.18a10.53,10.53,0,0,0-.87.77l-.1.1a11.22,11.22,0,0,0-.81.92l-.14.18-.17.23-.28.42-.26.43-.15.27-.24.48-.18.38-.16.38v0l-.14.38c0,.12-.08.24-.12.36l0,.1c0,.08,0,.16-.07.23s0,.15-.06.22l0,.11c0,.1-.16.8-.2,1.06a10.78,10.78,0,0,0,0,2.92,10.85,10.85,0,0,0,2.39,5.47h0s-.36-1-.59-.79l-10.6,10.61a1.14,1.14,0,0,0-.33.78s0,0,0,0,0,0,0,0a1.16,1.16,0,0,0,.13.49,1.15,1.15,0,0,0,.2.28l1.15,1.15h0l.07.07a1.15,1.15,0,0,0,1.62,0l10.64-10.56Zm-.65-8.82a7.05,7.05,0,1,1,7.05,7.05A7,7,0,0,1,141.73,215Z"/><circle class="cls-13" cx="93.9" cy="306.29" r="31.06"/><path class="cls-14" d="M81.13,315.32a6.09,6.09,0,0,1-1.38-12A11.15,11.15,0,0,1,100.67,298a4.75,4.75,0,0,1,6.6,3.74,6.85,6.85,0,0,1-1.34,13.57Z"/><circle class="cls-13" cx="91.35" cy="300.49" r="2.37"/><circle class="cls-13" cx="99.06" cy="307.62" r="2.37"/><circle class="cls-13" cx="86.6" cy="307.62" r="2.37"/><line class="cls-17" x1="91.35" y1="300.49" x2="99.06" y2="307.62"/><line class="cls-17" x1="86.6" y1="307.62" x2="91.35" y2="300.49"/><line class="cls-17" x1="86.6" y1="307.62" x2="99.06" y2="307.62"/></g><g class="cls-5"><path class="cls-18" d="M603.8,276.81l-106.66-.08h0c-1.51-9.27-3.23-18.32-9.27-25.32L486.6,250a41.27,41.27,0,0,0-27.31-14.09H563a40.59,40.59,0,0,1,30.79,14.17l.22.38A40.48,40.48,0,0,1,603.8,276.81Z"/><path class="cls-9" d="M529.4,350.79v13.32c0,.23-.27.46-.81.63l-8.81,2.86a7.4,7.4,0,0,1-3.9,0l-8.81-2.86c-.54-.17-.81-.4-.81-.63V350.79Z"/><path class="cls-19" d="M515.88,354.28l-8.81-2.86c-1.08-.35-1.08-.92,0-1.27l8.81-2.86a7.39,7.39,0,0,1,3.9,0l8.81,2.86c1.08.35,1.08.92,0,1.27l-8.81,2.86a7.39,7.39,0,0,1-3.9,0Z"/><path class="cls-9" d="M479.25,350.77V364.1c0,.23-.27.46-.81.63l-8.81,2.86a7.4,7.4,0,0,1-3.9,0l-8.81-2.86c-.54-.17-.81-.4-.81-.63V350.77Z"/><path class="cls-19" d="M465.73,354.26l-8.81-2.86c-1.08-.35-1.08-.92,0-1.27l8.81-2.86a7.39,7.39,0,0,1,3.9,0l8.81,2.86c1.08.35,1.08.92,0,1.27l-8.81,2.86a7.39,7.39,0,0,1-3.9,0Z"/><path class="cls-9" d="M557.22,350.79v13.32c0,.23-.27.46-.81.63l-8.81,2.86a7.4,7.4,0,0,1-3.9,0l-8.81-2.86c-.54-.17-.81-.4-.81-.63V350.79Z"/><path class="cls-19" d="M543.7,354.28l-8.81-2.86c-1.08-.35-1.08-.92,0-1.27l8.81-2.86a7.39,7.39,0,0,1,3.9,0l8.81,2.86c1.08.35,1.08.92,0,1.27l-8.81,2.86a7.39,7.39,0,0,1-3.9,0Z"/><g class="cls-20"><path class="cls-21" d="M595.49,370.28H497.14V276.69H603.8V362A8.3,8.3,0,0,1,595.49,370.28Z"/></g><path class="cls-22" d="M497,276.75v94.13H474V319.58a5.87,5.87,0,0,0-5.9-5.69H443.35a5.41,5.41,0,0,0-5.35,5.69v51.31H423.76a4.52,4.52,0,0,1-2.1-.54c-3.17-.88-6.66-4.25-6.66-7.87V276.55a41.46,41.46,0,0,1,40.9-40.67H456A40.45,40.45,0,0,1,486.59,250l1.2,1.27C493.84,258.33,495,267.48,497,276.75Z"/><path class="cls-14" d="M443.8,290.78c0,2.91-2.3,5-5.49,5H434V285.75h4.31C441.52,285.75,443.8,287.86,443.8,290.78Zm-1.79,0a3.51,3.51,0,0,0-3.68-3.53h-2.51v7h2.58A3.45,3.45,0,0,0,442,290.8Z"/><path class="cls-14" d="M451.46,293.43l1,.89a4.36,4.36,0,0,1-3.46,1.55,3.83,3.83,0,0,1-4.16-3.88,3.76,3.76,0,0,1,4-3.89,3.43,3.43,0,0,1,3.77,3.34l-5.82,1.67a2.39,2.39,0,0,0,2.3,1.44A3.08,3.08,0,0,0,451.46,293.43Zm-4.88-1.53h0l4.39-1.25a2,2,0,0,0-2-1.22A2.22,2.22,0,0,0,446.57,291.9Z"/><path class="cls-14" d="M462.73,292a3.62,3.62,0,0,1-3.79,3.86,3.18,3.18,0,0,1-2.83-1.38v4.12h-1.73V288.16h1.73v1.32a3.16,3.16,0,0,1,2.8-1.38A3.67,3.67,0,0,1,462.73,292ZM461,292a2.44,2.44,0,1,0-2.44,2.5A2.37,2.37,0,0,0,461,292Z"/><path class="cls-14" d="M472.12,292a4.18,4.18,0,0,1-8.34,0c0-2.3,1.7-3.87,4.18-3.87A3.83,3.83,0,0,1,472.12,292Zm-6.61,0a2.44,2.44,0,1,0,2.45-2.49A2.35,2.35,0,0,0,465.51,292Z"/><path class="cls-14" d="M477.94,295.33a4,4,0,0,1-1.92.56,2.24,2.24,0,0,1-2.28-2.5v-7h1.71v2.1h2.36v1.24h-2.36v3.41c0,.91.32,1.29.89,1.29a2.72,2.72,0,0,0,1.17-.33Z"/></g><rect class="cls-19" x="1053.62" y="172.96" width="75" height="29.52" rx="3" ry="3"/><rect class="cls-9" x="1053.62" y="176.6" width="75" height="39.34" rx="3" ry="3"/><rect class="cls-19" x="1067.98" y="189.26" width="75" height="29.52" rx="3" ry="3"/><rect class="cls-9" x="1067.98" y="192.9" width="75" height="39.34" rx="3" ry="3"/><rect class="cls-19" x="1081.39" y="205.56" width="75" height="29.52" rx="3" ry="3"/><rect class="cls-9" x="1081.39" y="209.21" width="75" height="39.34" rx="3" ry="3"/><path class="cls-10" d="M1098.38,224.85c-1,0-1.61.37-1.61,1,0,2.15,5.32,1,5.31,4.55,0,1.76-1.55,2.85-3.72,2.85a6.06,6.06,0,0,1-4-1.56l.72-1.44a5.2,5.2,0,0,0,3.34,1.44c1.16,0,1.85-.44,1.85-1.2,0-2.2-5.32-1-5.32-4.48,0-1.69,1.45-2.75,3.59-2.75a6.42,6.42,0,0,1,3.45,1l-.69,1.46A5.89,5.89,0,0,0,1098.38,224.85Z"/><path class="cls-10" d="M1109.42,230.88l.94.87a4,4,0,0,1-3.24,1.52,3.66,3.66,0,0,1-3.9-3.8,3.6,3.6,0,0,1,3.76-3.8,3.27,3.27,0,0,1,3.54,3.27l-5.45,1.63a2.24,2.24,0,0,0,2.16,1.41A2.85,2.85,0,0,0,1109.42,230.88Zm-4.58-1.49v0l4.11-1.23a1.84,1.84,0,0,0-1.87-1.2A2.13,2.13,0,0,0,1104.84,229.38Z"/><path class="cls-10" d="M1116.31,225.67v1.55a2.27,2.27,0,0,0-2.59,2.08v3.92h-1.62v-7.49h1.62v1.49A2.73,2.73,0,0,1,1116.31,225.67Z"/><path class="cls-10" d="M1118.52,225.72l2.08,5.9,2.06-5.9h1.62l-2.87,7.49h-1.68l-2.9-7.49Z"/><path class="cls-10" d="M1127.15,223.58a.94.94,0,1,1-.94-1A.93.93,0,0,1,1127.15,223.58Zm-.14,2.14v7.49h-1.61v-7.49Z"/><path class="cls-10" d="M1132.55,227.09a2.4,2.4,0,0,0,0,4.79,2.79,2.79,0,0,0,2.21-.9l.9.9a3.81,3.81,0,0,1-3.18,1.39,3.8,3.8,0,0,1,0-7.61,4,4,0,0,1,3.1,1.22l-.89,1A2.83,2.83,0,0,0,1132.55,227.09Z"/><path class="cls-10" d="M1142.55,230.88l.94.87a4,4,0,0,1-3.24,1.52,3.66,3.66,0,0,1-3.9-3.8,3.6,3.6,0,0,1,3.76-3.8,3.27,3.27,0,0,1,3.54,3.27l-5.45,1.63a2.24,2.24,0,0,0,2.16,1.41A2.85,2.85,0,0,0,1142.55,230.88Zm-4.58-1.49v0l4.11-1.23a1.84,1.84,0,0,0-1.87-1.2A2.13,2.13,0,0,0,1138,229.38Z"/><rect class="cls-19" x="1053.62" y="264.49" width="75" height="29.52" rx="3" ry="3"/><rect class="cls-9" x="1053.62" y="268.14" width="75" height="39.34" rx="3" ry="3"/><rect class="cls-19" x="1067.98" y="280.8" width="75" height="29.52" rx="3" ry="3"/><rect class="cls-9" x="1067.98" y="284.44" width="75" height="39.34" rx="3" ry="3"/><rect class="cls-19" x="1081.39" y="297.1" width="75" height="29.52" rx="3" ry="3"/><rect class="cls-9" x="1081.39" y="300.74" width="75" height="39.34" rx="3" ry="3"/><path class="cls-10" d="M1098.38,316.38c-1,0-1.61.37-1.61,1,0,2.16,5.32,1,5.31,4.55,0,1.76-1.55,2.85-3.72,2.85a6.06,6.06,0,0,1-4-1.56l.72-1.44a5.2,5.2,0,0,0,3.34,1.44c1.16,0,1.85-.44,1.85-1.2,0-2.2-5.32-1-5.32-4.48,0-1.69,1.45-2.75,3.59-2.75a6.42,6.42,0,0,1,3.45,1l-.69,1.46A5.89,5.89,0,0,0,1098.38,316.38Z"/><path class="cls-10" d="M1109.42,322.41l.94.87a4,4,0,0,1-3.24,1.52,3.66,3.66,0,0,1-3.9-3.8,3.6,3.6,0,0,1,3.76-3.8,3.27,3.27,0,0,1,3.54,3.27l-5.45,1.63a2.24,2.24,0,0,0,2.16,1.41A2.84,2.84,0,0,0,1109.42,322.41Zm-4.58-1.49h0l4.11-1.23a1.83,1.83,0,0,0-1.87-1.2A2.13,2.13,0,0,0,1104.84,320.92Z"/><path class="cls-10" d="M1116.31,317.2v1.55a2.27,2.27,0,0,0-2.59,2.08v3.92h-1.62v-7.49h1.62v1.49A2.73,2.73,0,0,1,1116.31,317.2Z"/><path class="cls-10" d="M1118.52,317.26l2.08,5.9,2.06-5.9h1.62l-2.87,7.49h-1.68l-2.9-7.49Z"/><path class="cls-10" d="M1127.15,315.12a.94.94,0,1,1-.94-1A.93.93,0,0,1,1127.15,315.12Zm-.14,2.14v7.49h-1.61v-7.49Z"/><path class="cls-10" d="M1132.55,318.62a2.4,2.4,0,0,0,0,4.79,2.79,2.79,0,0,0,2.21-.9l.9.9a3.81,3.81,0,0,1-3.18,1.39,3.8,3.8,0,0,1,0-7.61,4,4,0,0,1,3.1,1.23l-.89,1A2.83,2.83,0,0,0,1132.55,318.62Z"/><path class="cls-10" d="M1142.55,322.41l.94.87a4,4,0,0,1-3.24,1.52,3.66,3.66,0,0,1-3.9-3.8,3.6,3.6,0,0,1,3.76-3.8,3.27,3.27,0,0,1,3.54,3.27l-5.45,1.63a2.24,2.24,0,0,0,2.16,1.41A2.84,2.84,0,0,0,1142.55,322.41Zm-4.58-1.49h0l4.11-1.23a1.83,1.83,0,0,0-1.87-1.2A2.13,2.13,0,0,0,1138,320.92Z"/><rect class="cls-19" x="1053.62" y="356.03" width="75" height="29.52" rx="3" ry="3"/><rect class="cls-9" x="1053.62" y="359.67" width="75" height="39.34" rx="3" ry="3"/><rect class="cls-19" x="1067.98" y="372.33" width="75" height="29.52" rx="3" ry="3"/><rect class="cls-9" x="1067.98" y="375.98" width="75" height="39.34" rx="3" ry="3"/><rect class="cls-19" x="1081.39" y="388.63" width="75" height="29.52" rx="3" ry="3"/><rect class="cls-9" x="1081.39" y="392.28" width="75" height="39.34" rx="3" ry="3"/><path class="cls-10" d="M1098.38,407.92c-1,0-1.61.37-1.61,1,0,2.16,5.32,1,5.31,4.55,0,1.76-1.55,2.85-3.72,2.85a6.06,6.06,0,0,1-4-1.56l.72-1.44a5.2,5.2,0,0,0,3.34,1.44c1.16,0,1.85-.44,1.85-1.2,0-2.2-5.32-1-5.32-4.48,0-1.69,1.45-2.75,3.59-2.75a6.42,6.42,0,0,1,3.45,1l-.69,1.46A5.89,5.89,0,0,0,1098.38,407.92Z"/><path class="cls-10" d="M1109.42,413.95l.94.87a4,4,0,0,1-3.24,1.52,3.66,3.66,0,0,1-3.9-3.8,3.6,3.6,0,0,1,3.76-3.8,3.27,3.27,0,0,1,3.54,3.27l-5.45,1.63a2.24,2.24,0,0,0,2.16,1.41A2.84,2.84,0,0,0,1109.42,413.95Zm-4.58-1.49h0l4.11-1.22a1.83,1.83,0,0,0-1.87-1.2A2.13,2.13,0,0,0,1104.84,412.45Z"/><path class="cls-10" d="M1116.31,408.74v1.55a2.27,2.27,0,0,0-2.59,2.09v3.91h-1.62v-7.49h1.62v1.49A2.73,2.73,0,0,1,1116.31,408.74Z"/><path class="cls-10" d="M1118.52,408.79l2.08,5.9,2.06-5.9h1.62l-2.87,7.49h-1.68l-2.9-7.49Z"/><path class="cls-10" d="M1127.15,406.65a.94.94,0,1,1-.94-1A.93.93,0,0,1,1127.15,406.65Zm-.14,2.14v7.49h-1.61v-7.49Z"/><path class="cls-10" d="M1132.55,410.16a2.4,2.4,0,0,0,0,4.79,2.79,2.79,0,0,0,2.21-.9l.9.9a3.81,3.81,0,0,1-3.18,1.39,3.8,3.8,0,0,1,0-7.61,4,4,0,0,1,3.1,1.23l-.89,1A2.83,2.83,0,0,0,1132.55,410.16Z"/><path class="cls-10" d="M1142.55,413.95l.94.87a4,4,0,0,1-3.24,1.52,3.66,3.66,0,0,1-3.9-3.8,3.6,3.6,0,0,1,3.76-3.8,3.27,3.27,0,0,1,3.54,3.27l-5.45,1.63a2.24,2.24,0,0,0,2.16,1.41A2.84,2.84,0,0,0,1142.55,413.95Zm-4.58-1.49h0l4.11-1.22a1.83,1.83,0,0,0-1.87-1.2A2.13,2.13,0,0,0,1138,412.45Z"/></g></svg>