<svg xmlns="http://www.w3.org/2000/svg" xmlns:xlink="http://www.w3.org/1999/xlink" viewBox="0 0 1280 800.88"><defs><style>.cls-1,.cls-11,.cls-17,.cls-2{fill:none;stroke-miterlimit:10;}.cls-1,.cls-2{stroke:#c3c6c8;stroke-dasharray:3 4;}.cls-2,.cls-3,.cls-4,.cls-5{opacity:0.2;}.cls-3{fill:url(#linear-gradient);}.cls-4{fill:url(#linear-gradient-2);}.cls-6{fill:url(#linear-gradient-3);}.cls-7{fill:url(#linear-gradient-4);}.cls-8{fill:url(#linear-gradient-5);}.cls-9{fill:#f3fcff;}.cls-10{fill:#666;}.cls-11{stroke:#fff;stroke-width:2px;opacity:0.15;}.cls-12{fill:#4296b4;}.cls-13{fill:#80c4d6;}.cls-14{fill:#fff;}.cls-15{fill:#ff9012;}.cls-16{fill:#ad5f12;}.cls-17{stroke:#80c4d6;}.cls-18{fill:#f4f4f4;}.cls-19{fill:#c5d2d8;}.cls-20,.cls-22{opacity:0.9;}.cls-21{fill:#dbdbdb;}.cls-22{fill:#87b09a;}</style><linearGradient id="linear-gradient" x1="645.26" y1="290.88" x2="645.26" y2="312.88" gradientUnits="userSpaceOnUse"><stop offset="0" stop-color="#87b09a"/><stop offset="0.25" stop-color="#89b77b"/><stop offset="0.56" stop-color="#8abf5a"/><stop offset="0.82" stop-color="#8cc446"/><stop offset="1" stop-color="#8cc63f"/></linearGradient><linearGradient id="linear-gradient-2" x1="309.96" y1="290.88" x2="309.96" y2="312.88" xlink:href="#linear-gradient"/><linearGradient id="linear-gradient-3" x1="-5380.52" y1="-5118.74" x2="-5302.22" y2="-5118.74" gradientTransform="translate(2639.24 7501.48) rotate(32.84)" gradientUnits="userSpaceOnUse"><stop offset="0" stop-color="#2f789f"/><stop offset="0.21" stop-color="#347da0"/><stop offset="0.47" stop-color="#418da4"/><stop offset="0.76" stop-color="#58a6ab"/><stop offset="1" stop-color="#70c2b2"/></linearGradient><linearGradient id="linear-gradient-4" x1="-2160.03" y1="-4616.62" x2="-2081.73" y2="-4616.62" gradientTransform="translate(5527.51 -1622.7) rotate(-86.69)" xlink:href="#linear-gradient-3"/><linearGradient id="linear-gradient-5" x1="-4162.93" y1="-2141.59" x2="-4084.63" y2="-2141.59" gradientTransform="matrix(-0.88, 0.47, -0.47, -0.88, -3852.77, 432.82)" xlink:href="#linear-gradient-3"/></defs><title>Keys - User Key</title><g id="middle_layer" data-name="middle layer"><line class="cls-1" x1="189.49" y1="346.42" x2="189.49" y2="480.92"/><line class="cls-2" x1="501.38" y1="371.42" x2="501.38" y2="480.92"/><line class="cls-2" x1="806.89" y1="406.89" x2="806.89" y2="480.92"/><line class="cls-2" x1="1111.09" y1="433.21" x2="1111.09" y2="480.92"/><polygon class="cls-3" points="604 312.88 676.03 312.88 686.51 301.88 675.78 290.88 604 290.88 604 312.88"/><polygon class="cls-4" points="227.98 312.88 385.77 312.88 396.25 301.88 385.77 290.88 223.67 290.88 227.98 312.88"/><g class="cls-5"><path class="cls-6" d="M935.79,362.53,921,365.2,917.3,350.6a88,88,0,0,0,.77-93l3-16.6,15.91,5.3A110.72,110.72,0,0,1,935.79,362.53Z"/></g><g class="cls-5"><path class="cls-7" d="M842.19,191.17l9.63,11.57-10.9,10.4A88,88,0,0,0,759.6,258.3l-15.9,5.6-3.23-16.45A110.72,110.72,0,0,1,842.19,191.17Z"/></g><g class="cls-5"><path class="cls-8" d="M738.28,353.68l4.84-14.25,14.56,3.86a88,88,0,0,0,81,45.76l13.08,10.64L839.39,411A110.72,110.72,0,0,1,738.28,353.68Z"/></g><g class="cls-5"><path class="cls-8" d="M738.28,353.68l4.84-14.25,14.56,3.86a88,88,0,0,0,81,45.76l13.08,10.64L839.39,411A110.72,110.72,0,0,1,738.28,353.68Z"/></g><g class="cls-5"><circle class="cls-9" cx="885.18" cy="391.5" r="28.64"/></g><g class="cls-5"><circle class="cls-9" cx="732.72" cy="303.15" r="28.64"/></g><g class="cls-5"><circle class="cls-9" cx="885.26" cy="213.72" r="28.64"/></g><g class="cls-5"><path class="cls-10" d="M875.82,209.85c-1,0-1.61.37-1.61,1,0,2.16,5.32,1,5.31,4.55,0,1.76-1.55,2.85-3.72,2.85a6.06,6.06,0,0,1-4-1.56l.72-1.44a5.2,5.2,0,0,0,3.34,1.44c1.16,0,1.85-.44,1.85-1.2,0-2.2-5.32-1-5.32-4.48,0-1.69,1.45-2.75,3.59-2.75a6.42,6.42,0,0,1,3.45,1l-.69,1.46A5.89,5.89,0,0,0,875.82,209.85Z"/><path class="cls-10" d="M888.17,210.72v7.49h-1.62v-1.46a2.76,2.76,0,0,1-2.68,1.52,2.6,2.6,0,0,1-2.75-2.89v-4.66h1.62v4.21a1.65,1.65,0,0,0,1.75,1.82,2.12,2.12,0,0,0,2.06-2.34v-3.69Z"/><path class="cls-10" d="M898.45,214.5a3.47,3.47,0,0,1-3.55,3.77,3,3,0,0,1-2.65-1.35v4h-1.62V210.72h1.62V212a2.93,2.93,0,0,1,2.62-1.35A3.52,3.52,0,0,1,898.45,214.5Zm-1.63-.06a2.29,2.29,0,1,0-2.28,2.45A2.27,2.27,0,0,0,896.82,214.44Z"/></g><g class="cls-5"><path class="cls-10" d="M723.36,301c-1,0-1.61.37-1.61,1,0,2.16,5.32,1,5.31,4.55,0,1.76-1.55,2.85-3.72,2.85a6.06,6.06,0,0,1-4-1.56l.72-1.44a5.2,5.2,0,0,0,3.34,1.44c1.15,0,1.85-.44,1.85-1.2,0-2.2-5.32-1-5.32-4.48,0-1.69,1.45-2.75,3.59-2.75a6.41,6.41,0,0,1,3.45,1l-.69,1.46A5.89,5.89,0,0,0,723.36,301Z"/><path class="cls-10" d="M735.71,301.83v7.49h-1.62v-1.46a2.76,2.76,0,0,1-2.68,1.52,2.6,2.6,0,0,1-2.75-2.89v-4.66h1.62V306a1.65,1.65,0,0,0,1.75,1.82,2.12,2.12,0,0,0,2.06-2.34v-3.69Z"/><path class="cls-10" d="M746,305.61a3.47,3.47,0,0,1-3.55,3.77A3,3,0,0,1,739.8,308v4h-1.62V301.83h1.62v1.29a2.93,2.93,0,0,1,2.62-1.35A3.52,3.52,0,0,1,746,305.61Zm-1.63-.06a2.29,2.29,0,1,0-2.28,2.45A2.27,2.27,0,0,0,744.36,305.55Z"/></g><g class="cls-5"><path class="cls-10" d="M875.82,390.47c-1,0-1.61.37-1.61,1,0,2.16,5.32,1,5.31,4.55,0,1.76-1.55,2.85-3.72,2.85a6.06,6.06,0,0,1-4-1.56l.72-1.44a5.2,5.2,0,0,0,3.34,1.44c1.16,0,1.85-.44,1.85-1.2,0-2.2-5.32-1-5.32-4.48,0-1.69,1.45-2.75,3.59-2.75a6.42,6.42,0,0,1,3.45,1l-.69,1.46A5.89,5.89,0,0,0,875.82,390.47Z"/><path class="cls-10" d="M888.17,391.34v7.49h-1.62v-1.46a2.76,2.76,0,0,1-2.68,1.52,2.6,2.6,0,0,1-2.75-2.89v-4.66h1.62v4.21a1.65,1.65,0,0,0,1.75,1.82,2.12,2.12,0,0,0,2.06-2.34v-3.69Z"/><path class="cls-10" d="M898.45,395.11a3.47,3.47,0,0,1-3.55,3.77,3,3,0,0,1-2.65-1.35v4h-1.62V391.34h1.62v1.29a2.93,2.93,0,0,1,2.62-1.35A3.52,3.52,0,0,1,898.45,395.11Zm-1.63-.06a2.29,2.29,0,1,0-2.28,2.45A2.27,2.27,0,0,0,896.82,395.06Z"/></g><g class="cls-5"><line class="cls-11" x1="1080.8" y1="321.16" x2="754.99" y2="321.16"/><line class="cls-11" x1="1054" y1="286.88" x2="754" y2="286.88"/><line class="cls-11" x1="1067.87" y1="303.77" x2="761.36" y2="303.77"/></g><g class="cls-5"><line class="cls-11" x1="1081" y1="412.88" x2="905" y2="412.88"/><line class="cls-11" x1="1053" y1="377.88" x2="910" y2="377.88"/><line class="cls-11" x1="1068" y1="394.88" x2="914" y2="394.88"/></g><g class="cls-5"><line class="cls-11" x1="1081" y1="229.88" x2="909" y2="229.88"/><line class="cls-11" x1="1053" y1="195.88" x2="907" y2="195.88"/><line class="cls-11" x1="1067" y1="211.88" x2="914" y2="211.88"/></g><path class="cls-12" d="M230.39,508.42l-5.81,7.43a2.48,2.48,0,0,1-3.53,0l-1.3-1.3-4,4a2.57,2.57,0,0,1-3.64,0l-4-4H189.49v-9.77Z"/><path class="cls-13" d="M226.89,503.28l3.5,5.14h-40.9v-6.16h35A3.28,3.28,0,0,1,226.89,503.28Z"/><path class="cls-12" d="M178.25,508.42a8.48,8.48,0,1,1-17,0h-6.17a19.49,19.49,0,0,0,39,0Z"/><path class="cls-13" d="M174.6,488.93a19.49,19.49,0,0,0-19.49,19.49c0,7.77,8.72,14.08,19.49,14.08s19.49-6.3,19.49-14.08A19.49,19.49,0,0,0,174.6,488.93Zm-4.83,25.38a5.89,5.89,0,1,1,5.89-5.89A5.89,5.89,0,0,1,169.77,514.31Z"/><path class="cls-14" d="M157,549.52v15.4h-2.6v-2.51a6.37,6.37,0,0,1-5.24,2.51,5.27,5.27,0,0,1-5.37-5.63v-9.77h2.62v9.15a3.52,3.52,0,0,0,3.65,3.74,4.42,4.42,0,0,0,4.33-4.62v-8.27Z"/><path class="cls-14" d="M164.19,555.13c-1,0-1.72.33-1.72,1.17,0,2.16,6.23,1,6.21,5.24,0,2.4-2.13,3.48-4.49,3.48a7.24,7.24,0,0,1-4.71-1.63l.9-1.8a6.38,6.38,0,0,0,3.92,1.45c1.08,0,1.92-.37,1.92-1.25,0-2.4-6.16-1.06-6.14-5.28,0-2.38,2.07-3.39,4.31-3.39a7.4,7.4,0,0,1,4.09,1.19l-.92,1.87A6.88,6.88,0,0,0,164.19,555.13Z"/><path class="cls-14" d="M179.81,561.27l1.47,1.36a6.27,6.27,0,0,1-5.06,2.38,5.72,5.72,0,0,1-6.1-5.94,5.63,5.63,0,0,1,5.88-5.94,5.11,5.11,0,0,1,5.52,5.11L173,560.78a3.5,3.5,0,0,0,3.37,2.2A4.45,4.45,0,0,0,179.81,561.27Zm-7.15-2.33v0l6.42-1.91a2.86,2.86,0,0,0-2.93-1.87C174,555.17,172.66,556.49,172.66,558.93Z"/><path class="cls-14" d="M190.56,553.12v2.42a3.55,3.55,0,0,0-4,3.26v6.12H184V553.21h2.53v2.33A4.25,4.25,0,0,1,190.56,553.12Z"/><path class="cls-14" d="M209.68,564.92l-5.06-6.8L202,561v3.92h-2.6v-15.4H202v8l7.35-8h3.06l-6,6.58,6.36,8.82Z"/><path class="cls-14" d="M223.63,561.27l1.47,1.36A6.27,6.27,0,0,1,220,565a5.72,5.72,0,0,1-6.09-5.94,5.63,5.63,0,0,1,5.87-5.94,5.11,5.11,0,0,1,5.52,5.11l-8.52,2.55a3.5,3.5,0,0,0,3.37,2.2A4.44,4.44,0,0,0,223.63,561.27Zm-7.15-2.33v0L222.9,557a2.87,2.87,0,0,0-2.93-1.87C217.84,555.17,216.48,556.49,216.48,558.93Z"/><path class="cls-14" d="M238.61,553.21v10.45c0,3.43-2.29,5.63-5.85,5.61a8.54,8.54,0,0,1-5-1.76l.68-1.85a7.24,7.24,0,0,0,4,1.5,3.31,3.31,0,0,0,3.61-3.54v-1.69a4.15,4.15,0,0,1-3.89,2c-2.95,0-4.78-1.74-4.78-4.53v-6.2H230v5.48a2.61,2.61,0,0,0,2.82,2.86c2.09,0,3.32-1.5,3.32-3.85v-4.49Z"/><g class="cls-5"><path class="cls-12" d="M537.1,508.42l-5.81,7.43a2.48,2.48,0,0,1-3.53,0l-1.3-1.3-4,4a2.57,2.57,0,0,1-3.64,0l-4-4H496.2v-9.77Z"/><path class="cls-13" d="M533.6,503.28l3.5,5.14H496.2v-6.16h35A3.28,3.28,0,0,1,533.6,503.28Z"/><path class="cls-12" d="M485,508.42a8.48,8.48,0,1,1-17,0h-6.17a19.49,19.49,0,0,0,39,0Z"/><path class="cls-13" d="M481.32,488.93a19.49,19.49,0,0,0-19.49,19.49c0,7.77,8.72,14.08,19.49,14.08s19.49-6.3,19.49-14.08A19.49,19.49,0,0,0,481.32,488.93Zm-4.83,25.38a5.89,5.89,0,1,1,5.89-5.89A5.89,5.89,0,0,1,476.48,514.31Z"/><path class="cls-14" d="M456.4,557.22a8.17,8.17,0,1,1-8.16-7.77A7.88,7.88,0,0,1,456.4,557.22Zm-13.69,0a5.52,5.52,0,0,0,5.54,5.48,5.46,5.46,0,1,0-5.54-5.48Z"/><path class="cls-14" d="M465.6,553.12v2.42a3.55,3.55,0,0,0-4,3.26v6.12H459V553.21h2.53v2.33A4.25,4.25,0,0,1,465.6,553.12Z"/><path class="cls-14" d="M470.42,549.87a1.47,1.47,0,1,1-1.47-1.52A1.45,1.45,0,0,1,470.42,549.87Zm-.22,3.34v11.71h-2.51V553.21Z"/><path class="cls-14" d="M484.5,553.21v10.56c0,3.37-2.4,5.48-6.07,5.48a8.51,8.51,0,0,1-4.86-1.54l1.08-1.83a5.92,5.92,0,0,0,3.68,1.28c2.22,0,3.67-1.3,3.67-3.32v-1.47a4.29,4.29,0,0,1-3.87,2c-3.17,0-5.28-2.29-5.28-5.66s2.09-5.54,5.19-5.57a4.37,4.37,0,0,1,4,2v-1.89ZM482,558.76a3.33,3.33,0,0,0-3.37-3.59,3.61,3.61,0,1,0,3.37,3.59Z"/><path class="cls-14" d="M490.74,549.87a1.48,1.48,0,1,1-1.47-1.52A1.45,1.45,0,0,1,490.74,549.87Zm-.22,3.34v11.71H488V553.21Z"/><path class="cls-14" d="M505.46,557.64v7.28h-2.53v-6.58a2.61,2.61,0,0,0-2.82-2.84,3.28,3.28,0,0,0-3.32,3.19v6.23h-2.53V553.21h2.53v2.24a4.42,4.42,0,0,1,4.31-2.33C503.83,553.12,505.46,554.84,505.46,557.64Z"/><path class="cls-14" d="M525.88,564.92l-5.06-6.8L518.2,561v3.92h-2.6v-15.4h2.6v8l7.35-8h3.06l-6,6.58,6.36,8.82Z"/><path class="cls-14" d="M539.83,561.27l1.47,1.36a6.27,6.27,0,0,1-5.06,2.38,5.72,5.72,0,0,1-6.1-5.94,5.63,5.63,0,0,1,5.88-5.94,5.11,5.11,0,0,1,5.52,5.11L533,560.78a3.5,3.5,0,0,0,3.37,2.2A4.45,4.45,0,0,0,539.83,561.27Zm-7.15-2.33v0L539.1,557a2.86,2.86,0,0,0-2.93-1.87C534,555.17,532.68,556.49,532.68,558.93Z"/><path class="cls-14" d="M554.81,553.21v10.45c0,3.43-2.29,5.63-5.85,5.61a8.55,8.55,0,0,1-5-1.76l.68-1.85a7.24,7.24,0,0,0,4,1.5,3.31,3.31,0,0,0,3.61-3.54v-1.69a4.15,4.15,0,0,1-3.89,2c-2.95,0-4.77-1.74-4.77-4.53v-6.2h2.53v5.48a2.61,2.61,0,0,0,2.82,2.86c2.09,0,3.32-1.5,3.32-3.85v-4.49Z"/></g><g class="cls-5"><path class="cls-12" d="M840.88,508.42l-5.81,7.43a2.48,2.48,0,0,1-3.53,0l-1.3-1.3-4,4a2.57,2.57,0,0,1-3.64,0l-4-4H800v-9.77Z"/><path class="cls-13" d="M837.38,503.28l3.5,5.14H800v-6.16h35A3.28,3.28,0,0,1,837.38,503.28Z"/><path class="cls-12" d="M788.74,508.42a8.48,8.48,0,1,1-17,0H765.6a19.49,19.49,0,0,0,39,0Z"/><path class="cls-13" d="M785.09,488.93a19.49,19.49,0,0,0-19.49,19.49c0,7.77,8.72,14.08,19.49,14.08s19.49-6.3,19.49-14.08A19.49,19.49,0,0,0,785.09,488.93Zm-4.83,25.38a5.89,5.89,0,1,1,5.89-5.89A5.89,5.89,0,0,1,780.26,514.31Z"/><path class="cls-14" d="M763.31,564.92l-2.82-4.67c-.22,0-.46,0-.7,0h-3.65v4.64h-2.6v-15.4h6.25c3.94,0,6.21,1.91,6.21,5.26a5,5,0,0,1-3.19,5l3.46,5.15Zm-3.52-7c2.38,0,3.74-1,3.74-3.1s-1.37-3-3.74-3h-3.65v6.09Z"/><path class="cls-14" d="M772,549.87a1.47,1.47,0,1,1-1.47-1.52A1.45,1.45,0,0,1,772,549.87Zm-.22,3.34v11.71H769.3V553.21Z"/><path class="cls-14" d="M786.74,557.64v7.28h-2.53v-6.58a2.61,2.61,0,0,0-2.82-2.84,3.28,3.28,0,0,0-3.32,3.19v6.23h-2.53V553.21h2.53v2.24a4.42,4.42,0,0,1,4.31-2.33C785.12,553.12,786.74,554.84,786.74,557.64Z"/><path class="cls-14" d="M800.69,553.21v10.56c0,3.37-2.4,5.48-6.07,5.48a8.51,8.51,0,0,1-4.86-1.54l1.08-1.83a5.92,5.92,0,0,0,3.68,1.28c2.22,0,3.67-1.3,3.67-3.32v-1.47a4.29,4.29,0,0,1-3.87,2c-3.17,0-5.28-2.29-5.28-5.66s2.09-5.54,5.19-5.57a4.37,4.37,0,0,1,4,2v-1.89Zm-2.51,5.54a3.33,3.33,0,0,0-3.37-3.59,3.61,3.61,0,1,0,3.37,3.59Z"/><path class="cls-14" d="M821.24,564.92l-5.06-6.8L813.56,561v3.92H811v-15.4h2.6v8l7.35-8H824l-6,6.58,6.36,8.82Z"/><path class="cls-14" d="M835.19,561.27l1.47,1.36A6.27,6.27,0,0,1,831.6,565a5.72,5.72,0,0,1-6.1-5.94,5.63,5.63,0,0,1,5.88-5.94,5.11,5.11,0,0,1,5.52,5.11l-8.52,2.55a3.5,3.5,0,0,0,3.37,2.2A4.44,4.44,0,0,0,835.19,561.27ZM828,558.93v0l6.42-1.91a2.86,2.86,0,0,0-2.93-1.87C829.4,555.17,828,556.49,828,558.93Z"/><path class="cls-14" d="M850.17,553.21v10.45c0,3.43-2.29,5.63-5.85,5.61a8.55,8.55,0,0,1-5-1.76l.68-1.85a7.24,7.24,0,0,0,4,1.5,3.31,3.31,0,0,0,3.61-3.54v-1.69a4.15,4.15,0,0,1-3.89,2c-2.95,0-4.77-1.74-4.77-4.53v-6.2h2.53v5.48a2.61,2.61,0,0,0,2.82,2.86c2.09,0,3.32-1.5,3.32-3.85v-4.49Z"/></g><g class="cls-5"><path class="cls-12" d="M1147.39,508.42l-5.81,7.43a2.48,2.48,0,0,1-3.53,0l-1.3-1.3-4,4a2.57,2.57,0,0,1-3.64,0l-4-4h-18.62v-9.77Z"/><path class="cls-13" d="M1143.89,503.28l3.5,5.14h-40.9v-6.16h35A3.28,3.28,0,0,1,1143.89,503.28Z"/><path class="cls-12" d="M1095.25,508.42a8.48,8.48,0,1,1-17,0h-6.17a19.49,19.49,0,0,0,39,0Z"/><path class="cls-13" d="M1091.6,488.93a19.49,19.49,0,0,0-19.49,19.49c0,7.77,8.72,14.08,19.49,14.08s19.49-6.3,19.49-14.08A19.49,19.49,0,0,0,1091.6,488.93Zm-4.83,25.38a5.89,5.89,0,1,1,5.89-5.89A5.89,5.89,0,0,1,1086.77,514.31Z"/><path class="cls-14" d="M1051.24,551.85c-1.52,0-2.51.57-2.51,1.61,0,3.37,8.32,1.56,8.29,7.11,0,2.75-2.42,4.45-5.81,4.45a9.47,9.47,0,0,1-6.29-2.44l1.12-2.24a8.11,8.11,0,0,0,5.21,2.24c1.8,0,2.88-.68,2.88-1.87,0-3.43-8.32-1.52-8.32-7,0-2.64,2.27-4.29,5.61-4.29a10,10,0,0,1,5.39,1.58l-1.08,2.29A9.21,9.21,0,0,0,1051.24,551.85Z"/><path class="cls-14" d="M1068.48,561.27l1.47,1.36a6.27,6.27,0,0,1-5.06,2.38,5.72,5.72,0,0,1-6.09-5.94,5.63,5.63,0,0,1,5.87-5.94,5.11,5.11,0,0,1,5.52,5.11l-8.52,2.55a3.5,3.5,0,0,0,3.37,2.2A4.44,4.44,0,0,0,1068.48,561.27Zm-7.15-2.33v0l6.42-1.91a2.87,2.87,0,0,0-2.93-1.87C1062.7,555.17,1061.33,556.49,1061.33,558.93Z"/><path class="cls-14" d="M1079.24,553.12v2.42a3.55,3.55,0,0,0-4,3.26v6.12h-2.53V553.21h2.53v2.33A4.26,4.26,0,0,1,1079.24,553.12Z"/><path class="cls-14" d="M1082.69,553.21l3.26,9.22,3.21-9.22h2.53l-4.49,11.71h-2.62l-4.53-11.71Z"/><path class="cls-14" d="M1096.18,549.87a1.47,1.47,0,1,1-1.47-1.52A1.45,1.45,0,0,1,1096.18,549.87Zm-.22,3.34v11.71h-2.51V553.21Z"/><path class="cls-14" d="M1104.61,555.35a3.75,3.75,0,0,0,0,7.48,4.36,4.36,0,0,0,3.45-1.41l1.41,1.41a6,6,0,0,1-5,2.18,5.94,5.94,0,0,1,0-11.88,6.18,6.18,0,0,1,4.84,1.92l-1.39,1.63A4.42,4.42,0,0,0,1104.61,555.35Z"/><path class="cls-14" d="M1120.23,561.27l1.47,1.36a6.27,6.27,0,0,1-5.06,2.38,5.72,5.72,0,0,1-6.09-5.94,5.63,5.63,0,0,1,5.87-5.94,5.11,5.11,0,0,1,5.52,5.11l-8.52,2.55a3.5,3.5,0,0,0,3.37,2.2A4.44,4.44,0,0,0,1120.23,561.27Zm-7.15-2.33v0l6.42-1.91a2.87,2.87,0,0,0-2.93-1.87C1114.44,555.17,1113.08,556.49,1113.08,558.93Z"/><path class="cls-14" d="M1141.43,564.92l-5.06-6.8-2.62,2.88v3.92h-2.6v-15.4h2.6v8l7.35-8h3.06l-6,6.58,6.36,8.82Z"/><path class="cls-14" d="M1155.38,561.27l1.47,1.36a6.27,6.27,0,0,1-5.06,2.38,5.72,5.72,0,0,1-6.09-5.94,5.63,5.63,0,0,1,5.87-5.94,5.11,5.11,0,0,1,5.52,5.11l-8.52,2.55a3.5,3.5,0,0,0,3.37,2.2A4.44,4.44,0,0,0,1155.38,561.27Zm-7.15-2.33v0l6.42-1.91a2.87,2.87,0,0,0-2.93-1.87C1149.6,555.17,1148.23,556.49,1148.23,558.93Z"/><path class="cls-14" d="M1170.36,553.21v10.45c0,3.43-2.29,5.63-5.85,5.61a8.55,8.55,0,0,1-5-1.76l.68-1.85a7.24,7.24,0,0,0,4,1.5,3.31,3.31,0,0,0,3.61-3.54v-1.69a4.15,4.15,0,0,1-3.89,2c-2.95,0-4.77-1.74-4.77-4.53v-6.2h2.53v5.48a2.61,2.61,0,0,0,2.82,2.86c2.09,0,3.32-1.5,3.32-3.85v-4.49Z"/></g><line class="cls-11" x1="88.97" y1="307.48" x2="198.34" y2="307.48"/><line class="cls-11" x1="138.53" y1="203.67" x2="198.34" y2="307.26"/><line class="cls-11" x1="258.4" y1="203.67" x2="198.34" y2="307.26"/><path class="cls-15" d="M168.56,346.27a1.37,1.37,0,0,0,1.37,1.37l36.78-.11c2.85,0,2.85-.57,2.85-2v-7.81h1.57a13,13,0,0,0,13-13v-8.26h2.78a1.53,1.53,0,0,0,1.49-1.89c-1.51-6.38-3-15.24-3.87-19a39.57,39.57,0,0,1-.7-4c-2.06-16.15-14.53-23.82-29.3-23.81-12,0-25.76,10.82-26.23,27.3C168.08,303.44,168.55,310.92,168.56,346.27Z"/><circle class="cls-16" cx="215.86" cy="293.76" r="2.58"/><circle class="cls-13" cx="250.04" cy="217.99" r="31.06"/><path id="_Compound_Path_" data-name="&lt;Compound Path&gt;" class="cls-14" d="M229.77,225.18v.58a.45.45,0,0,0,.37.44l1.16.2a4.81,4.81,0,0,0,.52,1.26l-.68,1a.45.45,0,0,0,0,.58l.41.41.41.41a.45.45,0,0,0,.58,0l1-.68a4.83,4.83,0,0,0,1.22.51l.2,1.17a.44.44,0,0,0,.44.37h1.16a.45.45,0,0,0,.44-.37l.19-1.15a4.9,4.9,0,0,0,1.26-.51l1,.69a.45.45,0,0,0,.58,0l.41-.41.41-.41a.45.45,0,0,0,0-.58l-.67-1a4.78,4.78,0,0,0,.53-1.25l1.17-.2a.44.44,0,0,0,.37-.44v-1.16a.45.45,0,0,0-.37-.44l-1.15-.18a4.9,4.9,0,0,0-.51-1.26l.69-1a.45.45,0,0,0,0-.58l-.41-.41-.41-.41a.45.45,0,0,0-.58,0l-1,.67a4.54,4.54,0,0,0-1.28-.54l-.2-1.16a.44.44,0,0,0-.44-.37h-1.16a.45.45,0,0,0-.44.37l-.2,1.16a4.81,4.81,0,0,0-1.26.52l-1-.68a.46.46,0,0,0-.57,0l-.41.41-.41.41a.45.45,0,0,0,0,.58l.68,1a4.82,4.82,0,0,0-.52,1.26l-1.16.2a.44.44,0,0,0-.37.44Zm4.29-1.94a2.71,2.71,0,1,1,0,3.83A2.71,2.71,0,0,1,234.07,223.24Z"/><circle id="_Path_" data-name="&lt;Path&gt;" class="cls-14" cx="235.98" cy="225.16" r="1.6"/><path class="cls-14" d="M252.11,226.51a25.69,25.69,0,0,0,10.71-2.08.46.46,0,0,1,.67.41v1.32c0,1.47-4.43,3.6-11.38,3.6a26.27,26.27,0,0,1-7.47-1,.46.46,0,0,1-.28-.6,8.8,8.8,0,0,0,.45-2,.45.45,0,0,1,.55-.4A30.36,30.36,0,0,0,252.11,226.51Z"/><path class="cls-14" d="M243.25,220.09a.63.63,0,0,1,.69-1,28.92,28.92,0,0,0,8.17,1.12,25.73,25.73,0,0,0,10.67-2.06.49.49,0,0,1,.71.43v1c0,1.27-4.32,3.6-11.38,3.6a25.12,25.12,0,0,1-7.58-1.06.48.48,0,0,1-.29-.28A8.83,8.83,0,0,0,243.25,220.09Z"/><path class="cls-14" d="M252.11,210.25c-7.39,0-11.38-2.31-11.38-3.25s4-3.25,11.38-3.25,11.38,2.31,11.38,3.25S259.5,210.25,252.11,210.25Z"/><path class="cls-14" d="M252.11,217c-7.06,0-11.38-2.33-11.38-3.6V212.1a.56.56,0,0,1,.78-.52,30.19,30.19,0,0,0,21.2,0,.56.56,0,0,1,.78.52v1.28C263.49,214.66,259.17,217,252.11,217Z"/><circle class="cls-13" cx="146.27" cy="218.02" r="31.06"/><circle class="cls-14" cx="151.25" cy="213.99" r="1.52" transform="translate(-24.79 19.88) rotate(-6.95)"/><circle class="cls-14" cx="149.28" cy="219.08" r="0.78" transform="translate(-115.24 201.61) rotate(-51.95)"/><circle class="cls-14" cx="145.17" cy="215.32" r="0.93"/><path class="cls-14" d="M142.38,224.75a7.42,7.42,0,0,0,2.75,1.45,10.9,10.9,0,0,0,13.46-15l-.05-.11a10.91,10.91,0,0,0-13.35-5.45l-.32.12c-.25.1-.5.2-.74.32l-.27.13-.4.21-.3.18-.33.2-.27.18-.33.24-.23.18a10.53,10.53,0,0,0-.87.77l-.1.1a11.22,11.22,0,0,0-.81.92l-.14.18-.17.23-.28.42-.26.43-.15.27-.24.48-.18.38-.16.38v0l-.14.38c0,.12-.08.24-.12.36l0,.1c0,.08,0,.16-.07.23s0,.15-.06.22l0,.11c0,.1-.16.8-.2,1.06a10.78,10.78,0,0,0,0,2.92,10.85,10.85,0,0,0,2.39,5.47h0s-.36-1-.59-.79l-10.6,10.61a1.14,1.14,0,0,0-.33.78s0,0,0,0,0,0,0,0a1.16,1.16,0,0,0,.13.49,1.15,1.15,0,0,0,.2.28l1.15,1.15h0l.07.07a1.15,1.15,0,0,0,1.62,0L142.67,225Zm-.65-8.82a7.05,7.05,0,1,1,7.05,7.05A7,7,0,0,1,141.73,215.93Z"/><circle class="cls-13" cx="93.9" cy="307.18" r="31.06"/><path class="cls-14" d="M81.13,316.21a6.09,6.09,0,0,1-1.38-12,11.15,11.15,0,0,1,20.92-5.29,4.75,4.75,0,0,1,6.6,3.74,6.85,6.85,0,0,1-1.34,13.57Z"/><circle class="cls-13" cx="91.35" cy="301.37" r="2.37"/><circle class="cls-13" cx="99.06" cy="308.51" r="2.37"/><circle class="cls-13" cx="86.6" cy="308.51" r="2.37"/><line class="cls-17" x1="91.35" y1="301.37" x2="99.06" y2="308.51"/><line class="cls-17" x1="86.6" y1="308.51" x2="91.35" y2="301.37"/><line class="cls-17" x1="86.6" y1="308.51" x2="99.06" y2="308.51"/><g class="cls-5"><path class="cls-18" d="M603.8,277.69l-106.66-.08h0c-1.51-9.27-3.23-18.32-9.27-25.32l-1.26-1.37a41.2,41.2,0,0,0-27.31-14H563A40.53,40.53,0,0,1,593.82,251l.22.35A40.4,40.4,0,0,1,603.8,277.69Z"/><path class="cls-9" d="M529.4,351.67V365c0,.23-.27.46-.81.63l-8.81,2.86a7.4,7.4,0,0,1-3.9,0l-8.81-2.86c-.54-.17-.81-.4-.81-.63V351.67Z"/><path class="cls-19" d="M515.88,355.16l-8.81-2.86c-1.08-.35-1.08-.92,0-1.27l8.81-2.86a7.39,7.39,0,0,1,3.9,0l8.81,2.86c1.08.35,1.08.92,0,1.27l-8.81,2.86a7.39,7.39,0,0,1-3.9,0Z"/><path class="cls-9" d="M479.25,351.66V365c0,.23-.27.46-.81.63l-8.81,2.86a7.4,7.4,0,0,1-3.9,0l-8.81-2.86c-.54-.17-.81-.4-.81-.63V351.66Z"/><path class="cls-19" d="M465.73,355.15l-8.81-2.86c-1.08-.35-1.08-.92,0-1.27l8.81-2.86a7.39,7.39,0,0,1,3.9,0l8.81,2.86c1.08.35,1.08.92,0,1.27l-8.81,2.86a7.39,7.39,0,0,1-3.9,0Z"/><path class="cls-9" d="M557.22,351.67V365c0,.23-.27.46-.81.63l-8.81,2.86a7.4,7.4,0,0,1-3.9,0l-8.81-2.86c-.54-.17-.81-.4-.81-.63V351.67Z"/><path class="cls-19" d="M543.7,355.16l-8.81-2.86c-1.08-.35-1.08-.92,0-1.27l8.81-2.86a7.39,7.39,0,0,1,3.9,0l8.81,2.86c1.08.35,1.08.92,0,1.27l-8.81,2.86a7.39,7.39,0,0,1-3.9,0Z"/><g class="cls-20"><path class="cls-21" d="M595.49,371.17H497.14V277.57H603.8v85.29A8.3,8.3,0,0,1,595.49,371.17Z"/></g><path class="cls-22" d="M497,277.63v94.25H474V320.46a5.77,5.77,0,0,0-5.9-5.58H443.35a5.31,5.31,0,0,0-5.35,5.58v51.42H423.76a4.39,4.39,0,0,1-2.1-.6c-3.17-.88-6.66-4.31-6.66-7.93V277.43a41.37,41.37,0,0,1,40.9-40.55H456A40.39,40.39,0,0,1,486.59,251l1.2,1.24C493.84,259.24,495,268.36,497,277.63Z"/><path class="cls-14" d="M443.8,291.67c0,2.91-2.3,5-5.49,5H434V286.63h4.31C441.52,286.63,443.8,288.75,443.8,291.67Zm-1.79,0a3.51,3.51,0,0,0-3.68-3.53h-2.51v7h2.58A3.45,3.45,0,0,0,442,291.68Z"/><path class="cls-14" d="M451.46,294.31l1,.89a4.36,4.36,0,0,1-3.46,1.55,3.83,3.83,0,0,1-4.16-3.88,3.76,3.76,0,0,1,4-3.89,3.43,3.43,0,0,1,3.77,3.34L446.81,294a2.39,2.39,0,0,0,2.3,1.44A3.08,3.08,0,0,0,451.46,294.31Zm-4.88-1.53h0l4.39-1.25a2,2,0,0,0-2-1.22A2.22,2.22,0,0,0,446.57,292.79Z"/><path class="cls-14" d="M462.73,292.9a3.62,3.62,0,0,1-3.79,3.86,3.18,3.18,0,0,1-2.83-1.38v4.12h-1.73V289h1.73v1.32a3.16,3.16,0,0,1,2.8-1.38A3.67,3.67,0,0,1,462.73,292.9Zm-1.74-.06a2.44,2.44,0,1,0-2.44,2.5A2.37,2.37,0,0,0,461,292.85Z"/><path class="cls-14" d="M472.12,292.86a4.18,4.18,0,0,1-8.34,0c0-2.3,1.7-3.87,4.18-3.87A3.83,3.83,0,0,1,472.12,292.86Zm-6.61,0A2.44,2.44,0,1,0,468,290.4,2.35,2.35,0,0,0,465.51,292.89Z"/><path class="cls-14" d="M477.94,296.21a4,4,0,0,1-1.92.56,2.24,2.24,0,0,1-2.28-2.5v-7h1.71v2.1h2.36v1.24h-2.36V294c0,.91.32,1.29.89,1.29a2.72,2.72,0,0,0,1.17-.33Z"/></g><g class="cls-5"><rect class="cls-19" x="1053.62" y="173.84" width="75" height="29.52" rx="3" ry="3"/><rect class="cls-9" x="1053.62" y="177.49" width="75" height="39.34" rx="3" ry="3"/><rect class="cls-19" x="1067.98" y="190.14" width="75" height="29.52" rx="3" ry="3"/><rect class="cls-9" x="1067.98" y="193.79" width="75" height="39.34" rx="3" ry="3"/><rect class="cls-19" x="1081.39" y="206.45" width="75" height="29.52" rx="3" ry="3"/><rect class="cls-9" x="1081.39" y="210.09" width="75" height="39.34" rx="3" ry="3"/><path class="cls-10" d="M1098.38,225.73c-1,0-1.61.37-1.61,1,0,2.16,5.32,1,5.31,4.55,0,1.76-1.55,2.85-3.72,2.85a6.06,6.06,0,0,1-4-1.56l.72-1.44a5.2,5.2,0,0,0,3.34,1.44c1.16,0,1.85-.44,1.85-1.2,0-2.2-5.32-1-5.32-4.48,0-1.69,1.45-2.75,3.59-2.75a6.42,6.42,0,0,1,3.45,1l-.69,1.46A5.89,5.89,0,0,0,1098.38,225.73Z"/><path class="cls-10" d="M1109.42,231.76l.94.87a4,4,0,0,1-3.24,1.52,3.66,3.66,0,0,1-3.9-3.8,3.6,3.6,0,0,1,3.76-3.8,3.27,3.27,0,0,1,3.54,3.27l-5.45,1.63a2.24,2.24,0,0,0,2.16,1.41A2.84,2.84,0,0,0,1109.42,231.76Zm-4.58-1.49h0l4.11-1.23a1.83,1.83,0,0,0-1.87-1.2A2.13,2.13,0,0,0,1104.84,230.27Z"/><path class="cls-10" d="M1116.31,226.55v1.55a2.27,2.27,0,0,0-2.59,2.08v3.92h-1.62v-7.49h1.62v1.49A2.73,2.73,0,0,1,1116.31,226.55Z"/><path class="cls-10" d="M1118.52,226.61l2.08,5.9,2.06-5.9h1.62l-2.87,7.49h-1.68l-2.9-7.49Z"/><path class="cls-10" d="M1127.15,224.46a.94.94,0,1,1-.94-1A.93.93,0,0,1,1127.15,224.46Zm-.14,2.14v7.49h-1.61v-7.49Z"/><path class="cls-10" d="M1132.55,228a2.4,2.4,0,0,0,0,4.79,2.79,2.79,0,0,0,2.21-.9l.9.9a3.81,3.81,0,0,1-3.18,1.39,3.8,3.8,0,0,1,0-7.61,4,4,0,0,1,3.1,1.23l-.89,1A2.83,2.83,0,0,0,1132.55,228Z"/><path class="cls-10" d="M1142.55,231.76l.94.87a4,4,0,0,1-3.24,1.52,3.66,3.66,0,0,1-3.9-3.8,3.6,3.6,0,0,1,3.76-3.8,3.27,3.27,0,0,1,3.54,3.27l-5.45,1.63a2.24,2.24,0,0,0,2.16,1.41A2.84,2.84,0,0,0,1142.55,231.76Zm-4.58-1.49h0l4.11-1.23a1.83,1.83,0,0,0-1.87-1.2A2.13,2.13,0,0,0,1138,230.27Z"/></g><g class="cls-5"><rect class="cls-19" x="1053.62" y="265.38" width="75" height="29.52" rx="3" ry="3"/><rect class="cls-9" x="1053.62" y="269.02" width="75" height="39.34" rx="3" ry="3"/><rect class="cls-19" x="1067.98" y="281.68" width="75" height="29.52" rx="3" ry="3"/><rect class="cls-9" x="1067.98" y="285.32" width="75" height="39.34" rx="3" ry="3"/><rect class="cls-19" x="1081.39" y="297.98" width="75" height="29.52" rx="3" ry="3"/><rect class="cls-9" x="1081.39" y="301.63" width="75" height="39.34" rx="3" ry="3"/><path class="cls-10" d="M1098.38,317.27c-1,0-1.61.37-1.61,1,0,2.15,5.32,1,5.31,4.55,0,1.76-1.55,2.85-3.72,2.85a6.06,6.06,0,0,1-4-1.56l.72-1.44a5.2,5.2,0,0,0,3.34,1.44c1.16,0,1.85-.44,1.85-1.2,0-2.2-5.32-1-5.32-4.48,0-1.69,1.45-2.75,3.59-2.75a6.42,6.42,0,0,1,3.45,1l-.69,1.46A5.89,5.89,0,0,0,1098.38,317.27Z"/><path class="cls-10" d="M1109.42,323.3l.94.87a4,4,0,0,1-3.24,1.52,3.66,3.66,0,0,1-3.9-3.8,3.6,3.6,0,0,1,3.76-3.8,3.27,3.27,0,0,1,3.54,3.27l-5.45,1.63a2.24,2.24,0,0,0,2.16,1.41A2.85,2.85,0,0,0,1109.42,323.3Zm-4.58-1.49v0l4.11-1.23a1.84,1.84,0,0,0-1.87-1.2A2.13,2.13,0,0,0,1104.84,321.8Z"/><path class="cls-10" d="M1116.31,318.09v1.55a2.27,2.27,0,0,0-2.59,2.08v3.92h-1.62v-7.49h1.62v1.49A2.73,2.73,0,0,1,1116.31,318.09Z"/><path class="cls-10" d="M1118.52,318.14l2.08,5.9,2.06-5.9h1.62l-2.87,7.49h-1.68l-2.9-7.49Z"/><path class="cls-10" d="M1127.15,316a.94.94,0,1,1-.94-1A.93.93,0,0,1,1127.15,316Zm-.14,2.14v7.49h-1.61v-7.49Z"/><path class="cls-10" d="M1132.55,319.51a2.4,2.4,0,0,0,0,4.79,2.79,2.79,0,0,0,2.21-.9l.9.9a3.81,3.81,0,0,1-3.18,1.39,3.8,3.8,0,0,1,0-7.61,4,4,0,0,1,3.1,1.22l-.89,1A2.83,2.83,0,0,0,1132.55,319.51Z"/><path class="cls-10" d="M1142.55,323.3l.94.87a4,4,0,0,1-3.24,1.52,3.66,3.66,0,0,1-3.9-3.8,3.6,3.6,0,0,1,3.76-3.8,3.27,3.27,0,0,1,3.54,3.27L1138.2,323a2.24,2.24,0,0,0,2.16,1.41A2.85,2.85,0,0,0,1142.55,323.3ZM1138,321.8v0l4.11-1.23a1.84,1.84,0,0,0-1.87-1.2A2.13,2.13,0,0,0,1138,321.8Z"/></g><g class="cls-5"><rect class="cls-19" x="1053.62" y="356.91" width="75" height="29.52" rx="3" ry="3"/><rect class="cls-9" x="1053.62" y="360.56" width="75" height="39.34" rx="3" ry="3"/><rect class="cls-19" x="1067.98" y="373.22" width="75" height="29.52" rx="3" ry="3"/><rect class="cls-9" x="1067.98" y="376.86" width="75" height="39.34" rx="3" ry="3"/><rect class="cls-19" x="1081.39" y="389.52" width="75" height="29.52" rx="3" ry="3"/><rect class="cls-9" x="1081.39" y="393.16" width="75" height="39.34" rx="3" ry="3"/><path class="cls-10" d="M1098.38,408.8c-1,0-1.61.37-1.61,1,0,2.16,5.32,1,5.31,4.55,0,1.76-1.55,2.85-3.72,2.85a6.06,6.06,0,0,1-4-1.56l.72-1.44a5.2,5.2,0,0,0,3.34,1.44c1.16,0,1.85-.44,1.85-1.2,0-2.2-5.32-1-5.32-4.48,0-1.69,1.45-2.75,3.59-2.75a6.42,6.42,0,0,1,3.45,1l-.69,1.46A5.89,5.89,0,0,0,1098.38,408.8Z"/><path class="cls-10" d="M1109.42,414.83l.94.87a4,4,0,0,1-3.24,1.52,3.66,3.66,0,0,1-3.9-3.8,3.6,3.6,0,0,1,3.76-3.8,3.27,3.27,0,0,1,3.54,3.27l-5.45,1.63a2.24,2.24,0,0,0,2.16,1.41A2.84,2.84,0,0,0,1109.42,414.83Zm-4.58-1.49h0l4.11-1.23a1.83,1.83,0,0,0-1.87-1.2A2.13,2.13,0,0,0,1104.84,413.34Z"/><path class="cls-10" d="M1116.31,409.62v1.55a2.27,2.27,0,0,0-2.59,2.08v3.92h-1.62v-7.49h1.62v1.49A2.73,2.73,0,0,1,1116.31,409.62Z"/><path class="cls-10" d="M1118.52,409.68l2.08,5.9,2.06-5.9h1.62l-2.87,7.49h-1.68l-2.9-7.49Z"/><path class="cls-10" d="M1127.15,407.54a.94.94,0,1,1-.94-1A.93.93,0,0,1,1127.15,407.54Zm-.14,2.14v7.49h-1.61v-7.49Z"/><path class="cls-10" d="M1132.55,411a2.4,2.4,0,0,0,0,4.79,2.79,2.79,0,0,0,2.21-.9l.9.9a3.81,3.81,0,0,1-3.18,1.39,3.8,3.8,0,0,1,0-7.61,4,4,0,0,1,3.1,1.23l-.89,1A2.83,2.83,0,0,0,1132.55,411Z"/><path class="cls-10" d="M1142.55,414.83l.94.87a4,4,0,0,1-3.24,1.52,3.66,3.66,0,0,1-3.9-3.8,3.6,3.6,0,0,1,3.76-3.8,3.27,3.27,0,0,1,3.54,3.27l-5.45,1.63a2.24,2.24,0,0,0,2.16,1.41A2.84,2.84,0,0,0,1142.55,414.83Zm-4.58-1.49h0l4.11-1.23a1.83,1.83,0,0,0-1.87-1.2A2.13,2.13,0,0,0,1138,413.34Z"/></g></g></svg>