<svg xmlns="http://www.w3.org/2000/svg" xmlns:xlink="http://www.w3.org/1999/xlink" viewBox="0 0 1280 720"><defs><style>.cls-1,.cls-3{opacity:0.8;}.cls-1{fill:url(#linear-gradient);}.cls-2{fill:#4fc497;}.cls-4{fill:url(#linear-gradient-2);}.cls-5{fill:url(#linear-gradient-3);}.cls-6{fill:url(#linear-gradient-4);}.cls-7{fill:#c5d2d8;}.cls-8{fill:#f3fcff;}.cls-9{fill:#666;}.cls-10{fill:none;stroke:#fff;stroke-miterlimit:10;stroke-width:2px;opacity:0.15;}.cls-11{fill:#f4f4f4;}.cls-12{opacity:0.9;}.cls-13{fill:#dbdbdb;}.cls-14{fill:url(#New_Gradient_Swatch_1);}.cls-15{fill:url(#New_Gradient_Swatch_1-2);}.cls-16{fill:url(#New_Gradient_Swatch_1-3);}.cls-17{fill:#ffe85f;}.cls-18{fill:#87b09a;}.cls-19{fill:#fff;}</style><linearGradient id="linear-gradient" x1="-2195.44" y1="-7096.47" x2="-2195.44" y2="-6940.34" gradientTransform="translate(-6390.2 2557.57) rotate(90)" gradientUnits="userSpaceOnUse"><stop offset="0" stop-color="#87b09a"/><stop offset="0.25" stop-color="#89b77b"/><stop offset="0.56" stop-color="#8abf5a"/><stop offset="0.82" stop-color="#8cc446"/><stop offset="1" stop-color="#8cc63f"/></linearGradient><linearGradient id="linear-gradient-2" x1="-3701.29" y1="-4764.95" x2="-3622.99" y2="-4764.95" gradientTransform="translate(1409.13 6350.54) rotate(32.84)" gradientUnits="userSpaceOnUse"><stop offset="0" stop-color="#2f789f"/><stop offset="0.21" stop-color="#347da0"/><stop offset="0.47" stop-color="#418da4"/><stop offset="0.76" stop-color="#58a6ab"/><stop offset="1" stop-color="#70c2b2"/></linearGradient><linearGradient id="linear-gradient-3" x1="-3615.21" y1="-8468.99" x2="-3536.91" y2="-8468.99" gradientTransform="translate(9446.58 -2795.85) rotate(-86.69)" xlink:href="#linear-gradient-2"/><linearGradient id="linear-gradient-4" x1="-351.78" y1="-6565.23" x2="-273.48" y2="-6565.23" gradientTransform="matrix(-0.88, 0.47, -0.47, -0.88, -2592.34, -5209.19)" xlink:href="#linear-gradient-2"/><linearGradient id="New_Gradient_Swatch_1" x1="721.42" y1="333.86" x2="721.42" y2="316.29" gradientUnits="userSpaceOnUse"><stop offset="0" stop-color="#eb6852"/><stop offset="0.16" stop-color="#ed6c4c"/><stop offset="0.36" stop-color="#f1783d"/><stop offset="0.56" stop-color="#f88926"/><stop offset="0.56" stop-color="#f88227"/><stop offset="0.85" stop-color="#fbaf23"/><stop offset="1" stop-color="#fcc221"/></linearGradient><linearGradient id="New_Gradient_Swatch_1-2" x1="332.75" y1="452.24" x2="332.75" y2="418.95" gradientTransform="translate(-8.15 5.91) rotate(-1.1)" xlink:href="#New_Gradient_Swatch_1"/><linearGradient id="New_Gradient_Swatch_1-3" x1="332.74" y1="426.26" x2="332.74" y2="411.63" gradientTransform="translate(-8.15 5.91) rotate(-1.1)" xlink:href="#New_Gradient_Swatch_1"/></defs><title>Rolling Updates - 2</title><g id="flow_text" data-name="flow text"><polygon class="cls-1" points="560.62 373.23 550.14 362.13 560.62 351.03 706.28 351.03 706.28 373.23 560.62 373.23"/><path class="cls-2" d="M1037.28,256.2v0Z"/><g class="cls-3"><path class="cls-4" d="M924.79,419.37,910,422l-3.68-14.61a88,88,0,0,0,.77-93l3-16.6,15.91,5.3A110.72,110.72,0,0,1,924.79,419.37Z"/></g><g class="cls-3"><path class="cls-5" d="M831.19,248l9.63,11.57L829.91,270a88,88,0,0,0-81.32,45.16l-15.9,5.6-3.23-16.45A110.72,110.72,0,0,1,831.19,248Z"/></g><g class="cls-3"><path class="cls-6" d="M727.28,410.53l4.84-14.25,14.56,3.86a88,88,0,0,0,81,45.76l13.08,10.64-12.35,11.34A110.72,110.72,0,0,1,727.28,410.53Z"/></g><rect class="cls-7" x="1041.62" y="340.28" width="75" height="29.52" rx="3" ry="3"/><rect class="cls-8" x="1041.62" y="343.92" width="75" height="39.34" rx="3" ry="3"/><rect class="cls-7" x="1041.62" y="247.3" width="75" height="29.52" rx="3" ry="3"/><rect class="cls-8" x="1041.62" y="250.95" width="75" height="39.34" rx="3" ry="3"/><rect class="cls-7" x="1041.62" y="430.15" width="75" height="29.52" rx="3" ry="3"/><rect class="cls-8" x="1041.62" y="433.79" width="75" height="39.34" rx="3" ry="3"/><g class="cls-3"><path class="cls-6" d="M727.28,410.53l4.84-14.25,14.56,3.86a88,88,0,0,0,81,45.76l13.08,10.64-12.35,11.34A110.72,110.72,0,0,1,727.28,410.53Z"/></g><circle class="cls-8" cx="873.88" cy="448.31" r="28.64"/><circle class="cls-8" cx="721.42" cy="359.95" r="28.64"/><circle class="cls-8" cx="873.95" cy="270.52" r="28.64"/><path class="cls-9" d="M864.52,266.66c-1,0-1.61.37-1.61,1,0,2.16,5.32,1,5.31,4.55,0,1.76-1.55,2.85-3.72,2.85a6.06,6.06,0,0,1-4-1.56l.72-1.44a5.2,5.2,0,0,0,3.34,1.44c1.16,0,1.85-.44,1.85-1.2,0-2.2-5.32-1-5.32-4.48,0-1.69,1.45-2.75,3.59-2.75a6.42,6.42,0,0,1,3.45,1l-.69,1.46A5.89,5.89,0,0,0,864.52,266.66Z"/><path class="cls-9" d="M876.87,267.53V275h-1.62v-1.46a2.76,2.76,0,0,1-2.68,1.52,2.6,2.6,0,0,1-2.75-2.89v-4.66h1.62v4.21a1.65,1.65,0,0,0,1.75,1.82,2.12,2.12,0,0,0,2.06-2.34v-3.69Z"/><path class="cls-9" d="M887.15,271.31a3.47,3.47,0,0,1-3.55,3.77,3,3,0,0,1-2.65-1.35v4h-1.62V267.53H881v1.29a2.93,2.93,0,0,1,2.62-1.35A3.52,3.52,0,0,1,887.15,271.31Zm-1.63-.06a2.29,2.29,0,1,0-2.28,2.45A2.27,2.27,0,0,0,885.52,271.25Z"/><path class="cls-9" d="M712.06,357.76c-1,0-1.61.37-1.61,1,0,2.15,5.32,1,5.31,4.55,0,1.76-1.55,2.85-3.72,2.85a6.06,6.06,0,0,1-4-1.56l.72-1.44a5.2,5.2,0,0,0,3.34,1.44c1.16,0,1.85-.44,1.85-1.2,0-2.2-5.32-1-5.32-4.48,0-1.69,1.45-2.75,3.59-2.75a6.42,6.42,0,0,1,3.45,1l-.69,1.46A5.89,5.89,0,0,0,712.06,357.76Z"/><path class="cls-9" d="M724.41,358.64v7.49h-1.62v-1.46a2.77,2.77,0,0,1-2.68,1.52,2.6,2.6,0,0,1-2.75-2.89v-4.66H719v4.21a1.65,1.65,0,0,0,1.75,1.82,2.12,2.12,0,0,0,2.06-2.34v-3.69Z"/><path class="cls-9" d="M734.69,362.41a3.47,3.47,0,0,1-3.55,3.78,3,3,0,0,1-2.65-1.35v4h-1.62V358.64h1.62v1.29a2.93,2.93,0,0,1,2.62-1.35A3.52,3.52,0,0,1,734.69,362.41Zm-1.63-.06a2.29,2.29,0,1,0-2.28,2.45A2.27,2.27,0,0,0,733.06,362.36Z"/><path class="cls-9" d="M864.52,447.27c-1,0-1.61.37-1.61,1,0,2.16,5.32,1,5.31,4.55,0,1.76-1.55,2.85-3.72,2.85a6.06,6.06,0,0,1-4-1.56l.72-1.44a5.2,5.2,0,0,0,3.34,1.44c1.16,0,1.85-.44,1.85-1.2,0-2.2-5.32-1-5.32-4.48,0-1.69,1.45-2.75,3.59-2.75a6.42,6.42,0,0,1,3.45,1l-.69,1.46A5.89,5.89,0,0,0,864.52,447.27Z"/><path class="cls-9" d="M876.87,448.15v7.49h-1.62v-1.46a2.76,2.76,0,0,1-2.68,1.52,2.6,2.6,0,0,1-2.75-2.89v-4.66h1.62v4.21a1.65,1.65,0,0,0,1.75,1.82,2.12,2.12,0,0,0,2.06-2.34v-3.69Z"/><path class="cls-9" d="M887.15,451.92a3.47,3.47,0,0,1-3.55,3.77,3,3,0,0,1-2.65-1.35v4h-1.62V448.15H881v1.29a2.93,2.93,0,0,1,2.62-1.35A3.52,3.52,0,0,1,887.15,451.92Zm-1.63-.06a2.29,2.29,0,1,0-2.28,2.45A2.27,2.27,0,0,0,885.52,451.87Z"/><line class="cls-10" x1="1056.57" y1="361.88" x2="719.92" y2="361.88"/><line class="cls-10" x1="1056.57" y1="451.51" x2="865.04" y2="451.51"/><line class="cls-10" x1="1056.57" y1="268.79" x2="865.04" y2="268.79"/><path class="cls-8" d="M415.84,426.3v17.61c0,.3-.36.61-1.07.84l-11.64,3.78a9.78,9.78,0,0,1-5.16,0l-11.64-3.78c-.71-.23-1.06-.53-1.07-.84V426.3Z"/><path class="cls-7" d="M398,430.92l-11.64-3.78c-1.42-.46-1.42-1.21,0-1.67L398,421.69a9.77,9.77,0,0,1,5.16,0l11.64,3.78c1.42.46,1.42,1.21,0,1.67l-11.64,3.78a9.77,9.77,0,0,1-5.16,0"/><path class="cls-8" d="M452.6,426.3v17.61c0,.3-.36.61-1.07.84l-11.64,3.78a9.78,9.78,0,0,1-5.16,0l-11.64-3.78c-.71-.23-1.06-.53-1.07-.84V426.3Z"/><path class="cls-7" d="M434.73,430.92l-11.64-3.78c-1.42-.46-1.42-1.21,0-1.67l11.64-3.78a9.77,9.77,0,0,1,5.16,0l11.64,3.78c1.42.46,1.42,1.21,0,1.67l-11.64,3.78a9.77,9.77,0,0,1-5.16,0"/><path class="cls-11" d="M514.66,330.34,373,330.24h0c-2-12.31-4.29-26.34-12.31-35.64l-1.68-1.38A52.81,52.81,0,0,0,322.67,275H460.49c15-1,30.13,5.82,40.91,18.31l.29.25C510.06,303.26,514.66,317.53,514.66,330.34Z"/><g class="cls-12"><path class="cls-13" d="M503.63,453H373V330.34H514.66V442A11,11,0,0,1,503.63,453Z"/></g><path class="cls-14" d="M734.9,317.93a1.64,1.64,0,0,1-1.23,1.58v14.35H709.16V319.51a1.63,1.63,0,1,1,1.56-.43l5,5,4.79-4.79a1.63,1.63,0,1,1,1.86,0l4.79,4.79,5-5a1.63,1.63,0,1,1,2.79-1.15Z"/><path class="cls-15" d="M355.16,417.93l.5,26c0,.45-.52.9-1.55,1.26L337,451.07a14.43,14.43,0,0,1-7.61.15L312.16,446c-1-.32-1.59-.75-1.6-1.2l-.5-26Z"/><path class="cls-16" d="M328.94,425.24,311.66,420c-2.11-.64-2.14-1.75,0-2.47l17.07-5.9a14.41,14.41,0,0,1,7.61-.15l17.28,5.24c2.11.64,2.13,1.75,0,2.47l-17.07,5.9a14.41,14.41,0,0,1-7.61.15Z"/><path class="cls-17" d="M318.56,398.38l-1.06.55a.16.16,0,0,0,0,.26l1.08.51a3.86,3.86,0,0,1,1.92,2.47l.42,1.42a.1.1,0,0,0,.19,0l.37-1.44a3.86,3.86,0,0,1,1.83-2.54l1.06-.55a.16.16,0,0,0,0-.26l-1.08-.51a3.86,3.86,0,0,1-1.92-2.47L321,394.4a.1.1,0,0,0-.19,0l-.37,1.44A3.86,3.86,0,0,1,318.56,398.38Z"/><path class="cls-17" d="M304.51,413.2l.51-1.48a4.32,4.32,0,0,1,2.51-2.61l1.45-.57a.14.14,0,0,0,0-.26l-1.47-.51a4.32,4.32,0,0,1-2.61-2.51l-.57-1.45a.14.14,0,0,0-.26,0l-.51,1.47A4.32,4.32,0,0,1,301,407.9l-1.45.57a.14.14,0,0,0,0,.26l1.48.51a4.32,4.32,0,0,1,2.61,2.51l.57,1.45a.14.14,0,0,0,.26,0Z"/><path class="cls-17" d="M712.86,310.16l-1.06.55a.16.16,0,0,0,0,.26l1.08.51a3.86,3.86,0,0,1,1.92,2.47l.42,1.42a.1.1,0,0,0,.19,0l.37-1.44a3.86,3.86,0,0,1,1.83-2.54l1.06-.55a.16.16,0,0,0,0-.26l-1.08-.51a3.86,3.86,0,0,1-1.92-2.47l-.42-1.42a.1.1,0,0,0-.19,0l-.37,1.44A3.86,3.86,0,0,1,712.86,310.16Z"/><path class="cls-17" d="M698.81,325l.51-1.48a4.32,4.32,0,0,1,2.51-2.61l1.45-.57a.14.14,0,0,0,0-.26l-1.47-.51A4.32,4.32,0,0,1,699.2,317l-.57-1.45a.14.14,0,0,0-.26,0l-.51,1.47a4.32,4.32,0,0,1-2.51,2.61l-1.45.57a.14.14,0,0,0,0,.26l1.48.51a4.32,4.32,0,0,1,2.61,2.51l.57,1.45a.14.14,0,0,0,.26,0Z"/><path class="cls-18" d="M374,329.36V453H344V385.55c0-4.13-3.78-7.55-7.91-7.55H303.63c-4.13,0-6.63,3.42-6.63,7.55V453H277.92a4.48,4.48,0,0,1-2.47-.78c-4.16-1.15-8.45-5.65-8.45-10.4V329.1a54.88,54.88,0,0,1,12.75-34.68C290.21,282,305.29,275,320.09,275h.08c14.79,0,29.6,6.69,40.18,18.95l1.56,1.85C369.86,305,371,317.19,374,329.36Z"/><path class="cls-19" d="M302.71,347c0,3.84-3,6.65-7.25,6.65h-5.64V340.34h5.7C299.69,340.34,302.71,343.14,302.71,347Zm-2.36,0a4.64,4.64,0,0,0-4.87-4.66h-3.32v9.28h3.42A4.56,4.56,0,0,0,300.35,347Z"/><path class="cls-19" d="M312.82,350.5l1.33,1.18a5.77,5.77,0,0,1-4.57,2.05c-3.26,0-5.5-2.07-5.5-5.13s2-5.09,5.3-5.13c2.88,0,4.81,1.65,5,4.41l-7.69,2.21a3.16,3.16,0,0,0,3,1.9A4.08,4.08,0,0,0,312.82,350.5Zm-6.46-2v0l5.8-1.65a2.6,2.6,0,0,0-2.64-1.62A2.93,2.93,0,0,0,306.37,348.48Z"/><path class="cls-19" d="M327.72,348.63a4.78,4.78,0,0,1-5,5.1A4.21,4.21,0,0,1,319,351.9v5.44H316.7v-13.8H319v1.75a4.19,4.19,0,0,1,3.7-1.83A4.85,4.85,0,0,1,327.72,348.63Zm-2.3-.08a3.22,3.22,0,1,0-3.22,3.31A3.13,3.13,0,0,0,325.42,348.56Z"/><path class="cls-19" d="M340.14,348.58c0,3.06-2.25,5.15-5.5,5.15s-5.52-2.09-5.52-5.15,2.25-5.11,5.52-5.11S340.14,345.54,340.14,348.58Zm-8.74,0a3.23,3.23,0,1,0,3.24-3.29A3.11,3.11,0,0,0,331.4,348.62Z"/><path class="cls-19" d="M347.83,353a5.26,5.26,0,0,1-2.54.74c-1.67,0-3-1.1-3-3.31v-9.3h2.26v2.78h3.12v1.63h-3.12v4.51c0,1.2.42,1.71,1.17,1.71a3.62,3.62,0,0,0,1.55-.44Z"/></g></svg>