<svg xmlns="http://www.w3.org/2000/svg" xmlns:xlink="http://www.w3.org/1999/xlink" viewBox="0 0 1280 800.88"><defs><style>.cls-1,.cls-11,.cls-12,.cls-13,.cls-14,.cls-15,.cls-16,.cls-17,.cls-27,.cls-3,.cls-4,.cls-6{fill:none;stroke-miterlimit:10;}.cls-1{stroke:url(#linear-gradient);}.cls-2{fill:url(#linear-gradient-2);}.cls-3{stroke:#ff9012;}.cls-4{stroke:url(#linear-gradient-3);}.cls-5{fill:url(#linear-gradient-4);}.cls-6{stroke:#4296b4;}.cls-7{fill:#4296b4;}.cls-8{fill:#87b09a;}.cls-9{fill:#ff9012;}.cls-10{opacity:0.4;}.cls-11,.cls-12,.cls-13,.cls-14,.cls-15,.cls-16,.cls-17{stroke-width:2px;}.cls-11{stroke:url(#linear-gradient-5);}.cls-12{stroke:url(#linear-gradient-6);}.cls-13{stroke:url(#linear-gradient-7);}.cls-14{stroke:url(#linear-gradient-8);}.cls-15{stroke:url(#linear-gradient-9);}.cls-16{stroke:url(#linear-gradient-10);}.cls-17{stroke:url(#linear-gradient-11);}.cls-18{fill:url(#linear-gradient-12);}.cls-19{fill:url(#linear-gradient-13);}.cls-20{opacity:0.8;}.cls-21{fill:url(#linear-gradient-14);}.cls-22{fill:url(#linear-gradient-15);}.cls-23{fill:#f3fcff;}.cls-24{fill:#273c4c;}.cls-25{fill:#c5d2d8;}.cls-26{fill:#fff;}.cls-27{stroke:#87b09a;}</style><linearGradient id="linear-gradient" x1="913.95" y1="309.27" x2="980.67" y2="309.27" gradientUnits="userSpaceOnUse"><stop offset="0" stop-color="#4296b4"/><stop offset="0.33" stop-color="#4597b3"/><stop offset="0.54" stop-color="#4d9ab0"/><stop offset="0.72" stop-color="#5ca0aa"/><stop offset="0.88" stop-color="#71a8a2"/><stop offset="1" stop-color="#87b09a"/></linearGradient><linearGradient id="linear-gradient-2" x1="913.95" y1="337.53" x2="980.67" y2="337.53" xlink:href="#linear-gradient"/><linearGradient id="linear-gradient-3" x1="950.88" y1="409.19" x2="950.88" y2="354.85" gradientUnits="userSpaceOnUse"><stop offset="0" stop-color="#87b09a"/><stop offset="0.18" stop-color="#a5a878"/><stop offset="0.44" stop-color="#cc9e4c"/><stop offset="0.67" stop-color="#e8962c"/><stop offset="0.87" stop-color="#f99219"/><stop offset="1" stop-color="#ff9012"/></linearGradient><linearGradient id="linear-gradient-4" x1="918.35" y1="409.19" x2="918.35" y2="354.85" xlink:href="#linear-gradient-3"/><linearGradient id="linear-gradient-5" x1="452.08" y1="549.56" x2="558.07" y2="655.55" gradientUnits="userSpaceOnUse"><stop offset="0" stop-color="#4296b4"/><stop offset="0.32" stop-color="#7b9483"/><stop offset="1" stop-color="#ff9012"/></linearGradient><linearGradient id="linear-gradient-6" x1="759.78" y1="588.74" x2="787.41" y2="616.37" xlink:href="#linear-gradient-5"/><linearGradient id="linear-gradient-7" x1="551.5" y1="457.38" x2="724.5" y2="630.38" xlink:href="#linear-gradient-5"/><linearGradient id="linear-gradient-8" x1="481.73" y1="327.16" x2="764.55" y2="609.97" xlink:href="#linear-gradient-5"/><linearGradient id="linear-gradient-9" x1="697.68" y1="445.17" x2="786.7" y2="534.19" xlink:href="#linear-gradient-5"/><linearGradient id="linear-gradient-10" x1="379.56" y1="271.68" x2="663.38" y2="555.5" xlink:href="#linear-gradient-5"/><linearGradient id="linear-gradient-11" x1="666.84" y1="329.15" x2="836.74" y2="499.05" xlink:href="#linear-gradient-5"/><linearGradient id="linear-gradient-12" x1="-4604.02" y1="282.14" x2="-4643.11" y2="221.57" gradientTransform="translate(2933.81 -3407.84) rotate(-57.16)" gradientUnits="userSpaceOnUse"><stop offset="0" stop-color="#4296b4"/><stop offset="0.23" stop-color="#6a9592"/><stop offset="0.75" stop-color="#cd923d"/><stop offset="1" stop-color="#ff9012"/></linearGradient><linearGradient id="linear-gradient-13" x1="-4697.4" y1="-11591.14" x2="-4739.62" y2="-11588.7" gradientTransform="translate(-3445.96 -11149.13) rotate(-176.69)" gradientUnits="userSpaceOnUse"><stop offset="0" stop-color="#4296b4"/><stop offset="0.27" stop-color="#72948b"/><stop offset="0.89" stop-color="#e99125"/><stop offset="1" stop-color="#ff9012"/></linearGradient><linearGradient id="linear-gradient-14" x1="5696.75" y1="-5670.89" x2="5742.19" y2="-5670.89" gradientTransform="matrix(0.47, 0.88, -0.88, 0.47, -7019.69, -1669.21)" gradientUnits="userSpaceOnUse"><stop offset="0" stop-color="#2f789f"/><stop offset="0.21" stop-color="#347da0"/><stop offset="0.47" stop-color="#418da4"/><stop offset="0.76" stop-color="#58a6ab"/><stop offset="1" stop-color="#70c2b2"/></linearGradient><linearGradient id="linear-gradient-15" x1="666.04" y1="728.77" x2="702.08" y2="666.35" gradientUnits="userSpaceOnUse"><stop offset="0" stop-color="#4296b4"/><stop offset="0.36" stop-color="#83947d"/><stop offset="1" stop-color="#ff9012"/></linearGradient></defs><title>Service Group for Presentation</title><g id="flow_text" data-name="flow text"><path class="cls-1" d="M980.17,280.41c0,20.31-11.75,54.13-59,57.23"/><polygon class="cls-2" points="922.38 332.55 913.95 337.87 922.77 342.51 922.38 332.55"/><path class="cls-3" d="M980.17,453.28c0,21.3-12.93,63.91-66.22,63.91"/><path class="cls-4" d="M980.17,409.19c0-20.31-11.75-50.83-59-53.63"/><polygon class="cls-5" points="922.76 350.68 913.95 355.36 922.4 360.65 922.76 350.68"/><path class="cls-6" d="M980.17,235.84c0-21.3-12.93-63.91-66.22-63.91"/><path class="cls-7" d="M1002.56,257.88H957.08c0-12,10.18-22.74,22.74-22.74S1002.56,245.88,1002.56,257.88Z"/><path class="cls-8" d="M957.08,257.88h45.49c0,11-10.18,22.74-22.74,22.74S957.08,268.88,957.08,257.88Z"/><path class="cls-9" d="M957.08,431.88h45.49c0,11-10.18,22.74-22.74,22.74S957.08,442.88,957.08,431.88Z"/><path class="cls-8" d="M1002.56,431.88H957.08c0-12,10.18-22.74,22.74-22.74S1002.56,419.88,1002.56,431.88Z"/></g><g id="bottom_layer" data-name="bottom layer"><path class="cls-3" d="M367.89,469.46H913.72a0,0,0,0,1,0,0v97.88a3,3,0,0,1-3,3H367.89a3,3,0,0,1-3-3V472.46A3,3,0,0,1,367.89,469.46Z"/></g><g id="middle_layer" data-name="middle layer"><g class="cls-10"><path class="cls-11" d="M570.88,641.74c-63.57,0-115.28-46.31-115.28-94.71"/><path class="cls-12" d="M823.06,547c0,48.4-51.7,94.71-115.28,94.71"/><line class="cls-13" x1="638" y1="371.88" x2="638" y2="715.88"/><path class="cls-14" d="M638.53,735C612,735,613,707.24,613,658.41V196.88"/><path class="cls-15" d="M820.06,373.16c0,80.5-131.06,25.27-131.06,100.34V630.88"/><path class="cls-16" d="M455.94,196.3C455.94,432.17,587,307.5,587,506.95V630.88"/><path class="cls-17" d="M822.88,196.54c0,49.59-94.88,33.7-94.88,88.51V547.57s2.61,70.18-37.82,94.21"/></g><path class="cls-18" d="M672.91,613.18l1.55,8.59L666,623.91a51,51,0,0,0-54-.45l-9.63-1.72,3.08-9.23A64.25,64.25,0,0,1,672.91,613.18Z"/><path class="cls-19" d="M573.47,667.5l6.71-5.59,6,6.32a51,51,0,0,0,26.21,47.19l3.25,9.23-9.55,1.87A64.25,64.25,0,0,1,573.47,667.5Z"/><g class="cls-20"><path class="cls-21" d="M667.78,727.8,659.51,725l2.24-8.45a51,51,0,0,0,26.56-47l6.17-7.59,6.58,7.17A64.25,64.25,0,0,1,667.78,727.8Z"/></g><path class="cls-22" d="M667.78,727.8,659.51,725l2.24-8.45a51,51,0,0,0,26.56-47l6.17-7.59,6.58,7.17A64.25,64.25,0,0,1,667.78,727.8Z"/><circle class="cls-23" cx="690.89" cy="640.58" r="16.62"/><circle class="cls-23" cx="638.58" cy="731.2" r="16.62"/><circle class="cls-23" cx="587.72" cy="640.53" r="16.62"/><path class="cls-24" d="M682.46,639.8c-.59,0-1,.2-1,.69,0,1.28,3.73.59,3.72,3.11,0,1.42-1.28,2.07-2.69,2.07a4.37,4.37,0,0,1-2.82-1l.54-1.07a3.84,3.84,0,0,0,2.35.86c.65,0,1.15-.22,1.15-.75,0-1.42-3.69-.63-3.68-3.14,0-1.41,1.24-2,2.58-2a4.46,4.46,0,0,1,2.45.71l-.55,1.11A4.14,4.14,0,0,0,682.46,639.8Z"/><path class="cls-24" d="M693,638.66v7h-1.52v-1.36a2.59,2.59,0,0,1-2.51,1.41,2.42,2.42,0,0,1-2.57-2.68v-4.33H688v3.91a1.54,1.54,0,0,0,1.63,1.69,2,2,0,0,0,1.93-2.17v-3.43Z"/><path class="cls-24" d="M702.67,642.16a3.24,3.24,0,0,1-3.32,3.5,2.76,2.76,0,0,1-2.48-1.26v3.74h-1.52v-9.49h1.52v1.2a2.75,2.75,0,0,1,2.45-1.25A3.28,3.28,0,0,1,702.67,642.16Zm-1.53-.05a2.14,2.14,0,1,0-2.13,2.28A2.12,2.12,0,0,0,701.14,642.11Z"/><path class="cls-24" d="M578.42,639.8c-.59,0-1,.2-1,.69,0,1.28,3.73.59,3.72,3.11,0,1.42-1.28,2.07-2.69,2.07a4.37,4.37,0,0,1-2.82-1l.54-1.07a3.84,3.84,0,0,0,2.35.86c.65,0,1.15-.22,1.15-.75,0-1.42-3.69-.63-3.68-3.14,0-1.41,1.24-2,2.58-2a4.46,4.46,0,0,1,2.45.71l-.55,1.11A4.14,4.14,0,0,0,578.42,639.8Z"/><path class="cls-24" d="M589,638.66v7h-1.52v-1.36a2.59,2.59,0,0,1-2.51,1.41,2.42,2.42,0,0,1-2.57-2.68v-4.33h1.52v3.91a1.54,1.54,0,0,0,1.63,1.69,2,2,0,0,0,1.93-2.17v-3.43Z"/><path class="cls-24" d="M598.63,642.16a3.24,3.24,0,0,1-3.32,3.5,2.76,2.76,0,0,1-2.48-1.26v3.74h-1.52v-9.49h1.52v1.2a2.75,2.75,0,0,1,2.45-1.25A3.28,3.28,0,0,1,598.63,642.16Zm-1.53-.05a2.14,2.14,0,1,0-2.13,2.28A2.12,2.12,0,0,0,597.1,642.11Z"/><path class="cls-24" d="M630.31,731.33c-.59,0-1,.2-1,.69,0,1.28,3.73.59,3.72,3.11,0,1.42-1.28,2.07-2.69,2.07a4.37,4.37,0,0,1-2.82-1l.54-1.07a3.84,3.84,0,0,0,2.35.86c.65,0,1.15-.22,1.15-.75,0-1.42-3.69-.63-3.68-3.14,0-1.41,1.24-2,2.58-2a4.46,4.46,0,0,1,2.45.71l-.55,1.11A4.14,4.14,0,0,0,630.31,731.33Z"/><path class="cls-24" d="M640.9,730.2v7h-1.52v-1.36a2.59,2.59,0,0,1-2.51,1.41,2.42,2.42,0,0,1-2.57-2.68V730.2h1.52v3.91a1.54,1.54,0,0,0,1.63,1.69,2,2,0,0,0,1.93-2.17V730.2Z"/><path class="cls-24" d="M650.52,733.7a3.24,3.24,0,0,1-3.32,3.5,2.76,2.76,0,0,1-2.48-1.26v3.74h-1.52V730.2h1.52v1.2a2.75,2.75,0,0,1,2.45-1.25A3.28,3.28,0,0,1,650.52,733.7Zm-1.53-.05a2.14,2.14,0,1,0-2.13,2.28A2.12,2.12,0,0,0,649,733.65Z"/><rect class="cls-25" x="744.03" y="493.97" width="152.3" height="35.62" rx="3" ry="3"/><rect class="cls-23" x="744.03" y="498.36" width="152.3" height="47.46" rx="3" ry="3"/><path class="cls-24" d="M780.77,518.64v1.59a2.33,2.33,0,0,0-2.66,2.14v4h-1.67v-7.7h1.67v1.54A2.8,2.8,0,0,1,780.77,518.64Z"/><path class="cls-24" d="M787.79,524l1,.9a4.13,4.13,0,0,1-3.33,1.56,3.77,3.77,0,0,1-4-3.91,3.71,3.71,0,0,1,3.87-3.91,3.36,3.36,0,0,1,3.63,3.36l-5.6,1.68a2.3,2.3,0,0,0,2.22,1.45A2.92,2.92,0,0,0,787.79,524Zm-4.71-1.54h0l4.23-1.26a1.89,1.89,0,0,0-1.93-1.23A2.19,2.19,0,0,0,783.09,522.46Z"/><path class="cls-24" d="M797.88,515.65V526.4h-1.67v-1.32a3,3,0,0,1-2.71,1.39,3.93,3.93,0,0,1,0-7.85,3,3,0,0,1,2.74,1.41v-4.37Zm-1.67,6.92a2.35,2.35,0,0,0-2.36-2.53,2.37,2.37,0,0,0-2.37,2.53,2.37,2.37,0,1,0,4.74,0Z"/><path class="cls-24" d="M802.21,516.49a1,1,0,1,1-1-1A1,1,0,0,1,802.21,516.49Zm-.14,2.2v7.7h-1.65v-7.7Z"/><path class="cls-24" d="M806.7,520c-.65,0-1.13.22-1.13.77,0,1.42,4.1.65,4.08,3.45,0,1.58-1.41,2.29-3,2.29a4.77,4.77,0,0,1-3.1-1.07l.59-1.19a4.2,4.2,0,0,0,2.58,1c.71,0,1.26-.25,1.26-.83,0-1.58-4.05-.7-4-3.48,0-1.56,1.36-2.23,2.84-2.23a4.87,4.87,0,0,1,2.69.78l-.61,1.23A4.53,4.53,0,0,0,806.7,520Z"/><path class="cls-24" d="M812.59,525.56a.91.91,0,1,1-1.82,0,.91.91,0,1,1,1.82,0Z"/><path class="cls-24" d="M821.83,515.65V526.4h-1.67v-1.32a3,3,0,0,1-2.71,1.39,3.93,3.93,0,0,1,0-7.85,3,3,0,0,1,2.74,1.41v-4.37Zm-1.67,6.92a2.35,2.35,0,0,0-2.36-2.53,2.37,2.37,0,0,0-2.37,2.53,2.37,2.37,0,1,0,4.74,0Z"/><path class="cls-24" d="M830,524l1,.9a4.13,4.13,0,0,1-3.33,1.56,3.77,3.77,0,0,1-4-3.91,3.71,3.71,0,0,1,3.87-3.91,3.36,3.36,0,0,1,3.63,3.36l-5.6,1.68a2.3,2.3,0,0,0,2.22,1.45A2.92,2.92,0,0,0,830,524Zm-4.71-1.54h0l4.23-1.26a1.89,1.89,0,0,0-1.93-1.23A2.19,2.19,0,0,0,825.31,522.46Z"/><path class="cls-24" d="M834.28,518.07V519h2v1.25h-2v6.17h-1.65v-8.17a2.53,2.53,0,0,1,2.65-2.65,2.94,2.94,0,0,1,1.74.54l-.64,1.27a1.86,1.86,0,0,0-1.06-.36A1,1,0,0,0,834.28,518.07Z"/><path class="cls-24" d="M844.59,518.69v7.7h-1.65v-1.3a3,3,0,0,1-2.69,1.38,3.63,3.63,0,0,1-3.69-4,3.59,3.59,0,0,1,3.63-3.9,3,3,0,0,1,2.75,1.38v-1.3Zm-1.65,4.16v-.56A2.31,2.31,0,0,0,840.6,520a2.37,2.37,0,0,0-2.37,2.53,2.35,2.35,0,0,0,2.38,2.51A2.31,2.31,0,0,0,842.94,522.85Z"/><path class="cls-24" d="M854,518.69v7.7h-1.67v-1.51a2.84,2.84,0,0,1-2.75,1.56,2.67,2.67,0,0,1-2.82-3v-4.79h1.67V523a1.69,1.69,0,0,0,1.79,1.87,2.18,2.18,0,0,0,2.11-2.4v-3.79Z"/><path class="cls-24" d="M858.74,524.95a1.63,1.63,0,0,0,.77-.25l.23,1.36a3,3,0,0,1-1.45.41c-1.07,0-1.91-.77-1.91-2.24v-8.57H858v8.4C858,524.67,858.3,524.95,858.74,524.95Z"/><path class="cls-24" d="M864.85,525.91a3.72,3.72,0,0,1-1.85.56,2.21,2.21,0,0,1-2.2-2.52v-7.08h1.65V519h2.27v1.25h-2.27v3.43c0,.91.3,1.3.85,1.3a2.54,2.54,0,0,0,1.13-.33Z"/><rect class="cls-25" x="380.66" y="493.97" width="152.3" height="35.62" rx="3" ry="3"/><rect class="cls-23" x="380.66" y="498.36" width="152.3" height="47.46" rx="3" ry="3"/><path class="cls-24" d="M417.4,518.64v1.59a2.33,2.33,0,0,0-2.66,2.14v4h-1.67v-7.7h1.67v1.54A2.8,2.8,0,0,1,417.4,518.64Z"/><path class="cls-24" d="M424.42,524l1,.9a4.13,4.13,0,0,1-3.33,1.56,3.77,3.77,0,0,1-4-3.91,3.71,3.71,0,0,1,3.87-3.91,3.36,3.36,0,0,1,3.63,3.36l-5.6,1.68a2.3,2.3,0,0,0,2.22,1.45A2.92,2.92,0,0,0,424.42,524Zm-4.71-1.54h0l4.23-1.26A1.89,1.89,0,0,0,422,520,2.19,2.19,0,0,0,419.72,522.46Z"/><path class="cls-24" d="M434.51,515.65V526.4h-1.67v-1.32a3,3,0,0,1-2.71,1.39,3.93,3.93,0,0,1,0-7.85,3,3,0,0,1,2.74,1.41v-4.37Zm-1.67,6.92a2.35,2.35,0,0,0-2.36-2.53,2.37,2.37,0,0,0-2.37,2.53,2.37,2.37,0,1,0,4.74,0Z"/><path class="cls-24" d="M438.84,516.49a1,1,0,1,1-1-1A1,1,0,0,1,438.84,516.49Zm-.14,2.2v7.7H437v-7.7Z"/><path class="cls-24" d="M443.33,520c-.65,0-1.13.22-1.13.77,0,1.42,4.1.65,4.08,3.45,0,1.58-1.41,2.29-3,2.29a4.77,4.77,0,0,1-3.1-1.07l.59-1.19a4.2,4.2,0,0,0,2.58,1c.71,0,1.26-.25,1.26-.83,0-1.58-4.05-.7-4-3.48,0-1.56,1.36-2.23,2.84-2.23a4.87,4.87,0,0,1,2.69.78l-.61,1.23A4.53,4.53,0,0,0,443.33,520Z"/><path class="cls-24" d="M449.22,525.56a.91.91,0,1,1-1.82,0,.91.91,0,1,1,1.82,0Z"/><path class="cls-24" d="M458.46,515.65V526.4H456.8v-1.32a3,3,0,0,1-2.71,1.39,3.93,3.93,0,0,1,0-7.85A3,3,0,0,1,456.8,520v-4.37Zm-1.67,6.92a2.35,2.35,0,0,0-2.36-2.53,2.37,2.37,0,0,0-2.37,2.53,2.37,2.37,0,1,0,4.74,0Z"/><path class="cls-24" d="M466.64,524l1,.9a4.13,4.13,0,0,1-3.33,1.56,3.77,3.77,0,0,1-4-3.91,3.71,3.71,0,0,1,3.87-3.91,3.36,3.36,0,0,1,3.63,3.36l-5.6,1.68a2.3,2.3,0,0,0,2.22,1.45A2.92,2.92,0,0,0,466.64,524Zm-4.71-1.54h0l4.23-1.26a1.89,1.89,0,0,0-1.93-1.23A2.19,2.19,0,0,0,461.94,522.46Z"/><path class="cls-24" d="M470.91,518.07V519h2v1.25h-2v6.17h-1.65v-8.17a2.53,2.53,0,0,1,2.65-2.65,2.94,2.94,0,0,1,1.74.54l-.64,1.27A1.86,1.86,0,0,0,472,517,1,1,0,0,0,470.91,518.07Z"/><path class="cls-24" d="M481.22,518.69v7.7h-1.65v-1.3a3,3,0,0,1-2.69,1.38,3.63,3.63,0,0,1-3.69-4,3.59,3.59,0,0,1,3.63-3.9,3,3,0,0,1,2.75,1.38v-1.3Zm-1.65,4.16v-.56a2.31,2.31,0,0,0-2.35-2.25,2.37,2.37,0,0,0-2.37,2.53,2.35,2.35,0,0,0,2.38,2.51A2.31,2.31,0,0,0,479.57,522.85Z"/><path class="cls-24" d="M490.68,518.69v7.7H489v-1.51a2.84,2.84,0,0,1-2.75,1.56,2.67,2.67,0,0,1-2.82-3v-4.79h1.67V523a1.69,1.69,0,0,0,1.79,1.87,2.18,2.18,0,0,0,2.11-2.4v-3.79Z"/><path class="cls-24" d="M495.37,524.95a1.63,1.63,0,0,0,.77-.25l.23,1.36a3,3,0,0,1-1.45.41c-1.07,0-1.91-.77-1.91-2.24v-8.57h1.65v8.4C494.66,524.67,494.93,524.95,495.37,524.95Z"/><path class="cls-24" d="M501.48,525.91a3.72,3.72,0,0,1-1.85.56,2.21,2.21,0,0,1-2.2-2.52v-7.08h1.65V519h2.27v1.25h-2.27v3.43c0,.91.3,1.3.85,1.3a2.54,2.54,0,0,0,1.13-.33Z"/><path class="cls-6" d="M367.89,118.69H913.72a0,0,0,0,1,0,0v99a3,3,0,0,1-3,3H367.89a3,3,0,0,1-3-3v-96A3,3,0,0,1,367.89,118.69Z"/><path class="cls-7" d="M744.29,83.68H910.72a3,3,0,0,1,3,3v32a0,0,0,0,1,0,0H741.29a0,0,0,0,1,0,0v-32A3,3,0,0,1,744.29,83.68Z"/><path class="cls-26" d="M771.78,103a3.57,3.57,0,0,1-3.65,3.88,3,3,0,0,1-2.72-1.39v4.14h-1.67V99.12h1.67v1.33a3,3,0,0,1,2.69-1.39A3.62,3.62,0,0,1,771.78,103Zm-1.68-.06a2.35,2.35,0,1,0-2.35,2.52A2.34,2.34,0,0,0,770.1,102.95Z"/><path class="cls-26" d="M780.83,103a4,4,0,1,1-4-3.9A3.78,3.78,0,0,1,780.83,103Zm-6.37,0a2.36,2.36,0,1,0,2.36-2.51A2.32,2.32,0,0,0,774.46,103Z"/><path class="cls-26" d="M784.74,100.38c-.65,0-1.13.22-1.13.77,0,1.42,4.1.65,4.08,3.45,0,1.58-1.41,2.29-3,2.29a4.77,4.77,0,0,1-3.1-1.07l.59-1.19a4.2,4.2,0,0,0,2.58,1c.71,0,1.26-.25,1.26-.83,0-1.58-4.05-.7-4-3.48,0-1.56,1.36-2.23,2.84-2.23a4.87,4.87,0,0,1,2.69.78l-.61,1.23A4.53,4.53,0,0,0,784.74,100.38Z"/><path class="cls-26" d="M793.24,106.34a3.71,3.71,0,0,1-1.85.56,2.21,2.21,0,0,1-2.2-2.52V97.3h1.65v2.11h2.27v1.25h-2.27v3.43c0,.91.3,1.3.85,1.3a2.54,2.54,0,0,0,1.13-.33Z"/><path class="cls-26" d="M801.64,99.12v7c0,2.22-1.58,3.61-4,3.61a5.6,5.6,0,0,1-3.2-1l.71-1.2a3.89,3.89,0,0,0,2.42.84,2.17,2.17,0,0,0,2.42-2.19v-1a2.82,2.82,0,0,1-2.55,1.3,3.41,3.41,0,0,1-3.48-3.72,3.38,3.38,0,0,1,3.42-3.66,2.87,2.87,0,0,1,2.61,1.3V99.12ZM800,102.77a2.19,2.19,0,0,0-2.21-2.36,2.37,2.37,0,1,0,2.21,2.36Z"/><path class="cls-26" d="M808.28,99.07v1.59a2.33,2.33,0,0,0-2.66,2.14v4H804v-7.7h1.67v1.54A2.8,2.8,0,0,1,808.28,99.07Z"/><path class="cls-26" d="M815.3,104.42l1,.9a4.13,4.13,0,0,1-3.33,1.56,3.77,3.77,0,0,1-4-3.91,3.71,3.71,0,0,1,3.87-3.91,3.36,3.36,0,0,1,3.63,3.36l-5.6,1.68a2.3,2.3,0,0,0,2.22,1.45A2.92,2.92,0,0,0,815.3,104.42Zm-4.71-1.54h0l4.23-1.26a1.89,1.89,0,0,0-1.93-1.23A2.19,2.19,0,0,0,810.6,102.89Z"/><path class="cls-26" d="M820.23,100.38c-.65,0-1.13.22-1.13.77,0,1.42,4.1.65,4.08,3.45,0,1.58-1.41,2.29-3,2.29a4.77,4.77,0,0,1-3.1-1.07l.59-1.19a4.2,4.2,0,0,0,2.58,1c.71,0,1.26-.25,1.26-.83,0-1.58-4.05-.7-4-3.48,0-1.56,1.36-2.23,2.84-2.23a4.87,4.87,0,0,1,2.69.78l-.61,1.23A4.53,4.53,0,0,0,820.23,100.38Z"/><path class="cls-26" d="M832.2,99.12v10.51h-1.67v-4.13a3,3,0,0,1-2.71,1.39,3.93,3.93,0,0,1,0-7.85,3,3,0,0,1,2.74,1.41V99.12ZM830.54,103a2.35,2.35,0,0,0-2.36-2.53A2.37,2.37,0,0,0,825.8,103a2.37,2.37,0,1,0,4.74,0Z"/><path class="cls-26" d="M837,105.38a1.63,1.63,0,0,0,.77-.25l.23,1.36a3,3,0,0,1-1.45.41c-1.07,0-1.91-.77-1.91-2.24V96.08h1.65v8.4C836.25,105.1,836.53,105.38,837,105.38Z"/><path class="cls-26" d="M840.47,106a.91.91,0,1,1-1.82,0,.91.91,0,1,1,1.82,0Z"/><path class="cls-26" d="M849.71,96.08v10.74H848v-1.32a3,3,0,0,1-2.71,1.39,3.93,3.93,0,0,1,0-7.85,3,3,0,0,1,2.74,1.41V96.08ZM848,103a2.35,2.35,0,0,0-2.36-2.53,2.37,2.37,0,0,0-2.37,2.53,2.37,2.37,0,1,0,4.74,0Z"/><path class="cls-26" d="M857.89,104.42l1,.9a4.13,4.13,0,0,1-3.33,1.56,3.77,3.77,0,0,1-4-3.91,3.71,3.71,0,0,1,3.87-3.91,3.36,3.36,0,0,1,3.63,3.36l-5.6,1.68a2.3,2.3,0,0,0,2.22,1.45A2.92,2.92,0,0,0,857.89,104.42Zm-4.71-1.54h0l4.23-1.26a1.89,1.89,0,0,0-1.93-1.23A2.19,2.19,0,0,0,853.18,102.89Z"/><path class="cls-26" d="M862.16,98.5v.91h2v1.25h-2v6.17h-1.65V98.66A2.53,2.53,0,0,1,863.16,96a2.94,2.94,0,0,1,1.74.54l-.64,1.27a1.86,1.86,0,0,0-1.06-.36A1,1,0,0,0,862.16,98.5Z"/><path class="cls-26" d="M872.47,99.12v7.7h-1.65v-1.3a3,3,0,0,1-2.69,1.38,3.63,3.63,0,0,1-3.69-4,3.59,3.59,0,0,1,3.63-3.9,3,3,0,0,1,2.75,1.38v-1.3Zm-1.65,4.16v-.56a2.31,2.31,0,0,0-2.35-2.25,2.37,2.37,0,0,0-2.37,2.53,2.35,2.35,0,0,0,2.38,2.51A2.31,2.31,0,0,0,870.82,103.28Z"/><path class="cls-26" d="M881.92,99.12v7.7h-1.67v-1.51a2.84,2.84,0,0,1-2.75,1.56,2.67,2.67,0,0,1-2.82-3V99.12h1.67v4.33a1.69,1.69,0,0,0,1.79,1.87,2.18,2.18,0,0,0,2.11-2.4V99.12Z"/><path class="cls-26" d="M886.61,105.38a1.63,1.63,0,0,0,.77-.25l.23,1.36a3,3,0,0,1-1.45.41c-1.07,0-1.91-.77-1.91-2.24V96.08h1.65v8.4C885.9,105.1,886.18,105.38,886.61,105.38Z"/><path class="cls-26" d="M892.72,106.34a3.71,3.71,0,0,1-1.85.56,2.21,2.21,0,0,1-2.2-2.52V97.3h1.65v2.11h2.27v1.25h-2.27v3.43c0,.91.3,1.3.85,1.3a2.54,2.54,0,0,0,1.13-.33Z"/><path class="cls-8" d="M747.53,260.54H910.72a3,3,0,0,1,3,3v32a0,0,0,0,1,0,0H744.53a0,0,0,0,1,0,0v-32A3,3,0,0,1,747.53,260.54Z"/><path class="cls-26" d="M779.8,283.92a3.2,3.2,0,0,1-2.9-1.67,3.14,3.14,0,0,1-2.88,1.67,3,3,0,0,1-3.19-3.26v-4.52h1.67v4.45a1.78,1.78,0,0,0,3.56,0v-4.45h1.67v4.45a1.68,1.68,0,0,0,1.82,1.75,1.64,1.64,0,0,0,1.74-1.75v-4.45H783v4.52A3,3,0,0,1,779.8,283.92Z"/><path class="cls-26" d="M790.79,281.44l1,.9a4.13,4.13,0,0,1-3.33,1.56,3.77,3.77,0,0,1-4-3.91,3.71,3.71,0,0,1,3.87-3.91,3.36,3.36,0,0,1,3.63,3.36l-5.6,1.68a2.3,2.3,0,0,0,2.22,1.45A2.92,2.92,0,0,0,790.79,281.44Zm-4.71-1.54h0l4.23-1.26a1.89,1.89,0,0,0-1.93-1.23A2.19,2.19,0,0,0,786.08,279.9Z"/><path class="cls-26" d="M801.65,280A3.57,3.57,0,0,1,798,283.9a3,3,0,0,1-2.72-1.39v1.33h-1.67V273.1h1.67v4.37a3,3,0,0,1,2.69-1.39A3.62,3.62,0,0,1,801.65,280ZM800,280a2.35,2.35,0,1,0-2.35,2.52A2.34,2.34,0,0,0,800,280Z"/><path class="cls-26" d="M810.7,276.14v7.7H809v-1.3a3,3,0,0,1-2.69,1.38,3.63,3.63,0,0,1-3.69-4,3.59,3.59,0,0,1,3.63-3.9,3,3,0,0,1,2.75,1.38v-1.3ZM809,280.3v-.56a2.31,2.31,0,0,0-2.35-2.25,2.37,2.37,0,0,0-2.37,2.53,2.35,2.35,0,0,0,2.38,2.51A2.31,2.31,0,0,0,809,280.3Z"/><path class="cls-26" d="M816.39,277.54a2.47,2.47,0,0,0,0,4.92,2.87,2.87,0,0,0,2.27-.93l.93.93a3.92,3.92,0,0,1-3.27,1.43,3.91,3.91,0,0,1,0-7.82,4.07,4.07,0,0,1,3.19,1.26l-.91,1.07A2.91,2.91,0,0,0,816.39,277.54Z"/><path class="cls-26" d="M828.32,276.14v7.7h-1.67v-1.51a2.84,2.84,0,0,1-2.75,1.56,2.67,2.67,0,0,1-2.82-3v-4.79h1.67v4.33a1.69,1.69,0,0,0,1.79,1.87,2.18,2.18,0,0,0,2.11-2.4v-3.79Z"/><path class="cls-26" d="M833,277.4c-.65,0-1.13.22-1.13.77,0,1.42,4.1.65,4.08,3.45,0,1.58-1.41,2.29-3,2.29a4.77,4.77,0,0,1-3.1-1.07l.59-1.19a4.2,4.2,0,0,0,2.58,1c.71,0,1.26-.25,1.26-.83,0-1.58-4.05-.7-4-3.48,0-1.56,1.36-2.23,2.84-2.23a4.87,4.87,0,0,1,2.69.78l-.61,1.23A4.53,4.53,0,0,0,833,277.4Z"/><path class="cls-26" d="M838.84,283a.91.91,0,1,1-1.82,0,.91.91,0,1,1,1.82,0Z"/><path class="cls-26" d="M848.08,273.1v10.74h-1.67v-1.32a3,3,0,0,1-2.71,1.39,3.93,3.93,0,0,1,0-7.85,3,3,0,0,1,2.74,1.41V273.1ZM846.42,280a2.35,2.35,0,0,0-2.36-2.53,2.37,2.37,0,0,0-2.37,2.53,2.37,2.37,0,1,0,4.74,0Z"/><path class="cls-26" d="M856.26,281.44l1,.9a4.13,4.13,0,0,1-3.33,1.56,3.77,3.77,0,0,1-4-3.91,3.71,3.71,0,0,1,3.87-3.91,3.36,3.36,0,0,1,3.63,3.36l-5.6,1.68a2.3,2.3,0,0,0,2.22,1.45A2.92,2.92,0,0,0,856.26,281.44Zm-4.71-1.54h0l4.23-1.26a1.89,1.89,0,0,0-1.93-1.23A2.19,2.19,0,0,0,851.56,279.9Z"/><path class="cls-26" d="M860.53,275.52v.91h2v1.25h-2v6.17h-1.65v-8.17a2.53,2.53,0,0,1,2.65-2.65,2.94,2.94,0,0,1,1.74.54l-.64,1.27a1.86,1.86,0,0,0-1.06-.36A1,1,0,0,0,860.53,275.52Z"/><path class="cls-26" d="M870.84,276.14v7.7h-1.65v-1.3a3,3,0,0,1-2.69,1.38,3.63,3.63,0,0,1-3.69-4,3.59,3.59,0,0,1,3.63-3.9,3,3,0,0,1,2.75,1.38v-1.3Zm-1.65,4.16v-.56a2.31,2.31,0,0,0-2.35-2.25,2.37,2.37,0,0,0-2.37,2.53,2.35,2.35,0,0,0,2.38,2.51A2.31,2.31,0,0,0,869.19,280.3Z"/><path class="cls-26" d="M880.3,276.14v7.7h-1.67v-1.51a2.84,2.84,0,0,1-2.75,1.56,2.67,2.67,0,0,1-2.82-3v-4.79h1.67v4.33a1.69,1.69,0,0,0,1.79,1.87,2.18,2.18,0,0,0,2.11-2.4v-3.79Z"/><path class="cls-26" d="M885,282.4a1.63,1.63,0,0,0,.77-.25l.23,1.36a3,3,0,0,1-1.45.41c-1.07,0-1.91-.77-1.91-2.24V273.1h1.65v8.4C884.28,282.12,884.55,282.4,885,282.4Z"/><path class="cls-26" d="M891.1,283.35a3.71,3.71,0,0,1-1.85.56,2.21,2.21,0,0,1-2.2-2.52v-7.08h1.65v2.11H891v1.25h-2.27v3.43c0,.91.3,1.3.85,1.3a2.54,2.54,0,0,0,1.13-.33Z"/><path class="cls-9" d="M744.29,434.44H910.72a3,3,0,0,1,3,3v32a0,0,0,0,1,0,0H741.29a0,0,0,0,1,0,0v-32A3,3,0,0,1,744.29,434.44Z"/><path class="cls-26" d="M787.91,448v1.59a2.33,2.33,0,0,0-2.66,2.14v4h-1.67v-7.7h1.67v1.54A2.8,2.8,0,0,1,787.91,448Z"/><path class="cls-26" d="M794.93,453.35l1,.9a4.13,4.13,0,0,1-3.33,1.56,3.77,3.77,0,0,1-4-3.91,3.71,3.71,0,0,1,3.87-3.91,3.36,3.36,0,0,1,3.63,3.36l-5.6,1.68a2.3,2.3,0,0,0,2.22,1.45A2.92,2.92,0,0,0,794.93,453.35Zm-4.71-1.54h0l4.23-1.26a1.89,1.89,0,0,0-1.93-1.23A2.19,2.19,0,0,0,790.22,451.82Z"/><path class="cls-26" d="M805,445v10.74h-1.67v-1.32a3,3,0,0,1-2.71,1.39,3.93,3.93,0,0,1,0-7.85,3,3,0,0,1,2.74,1.41V445Zm-1.67,6.92A2.35,2.35,0,0,0,801,449.4a2.37,2.37,0,0,0-2.37,2.53,2.37,2.37,0,1,0,4.74,0Z"/><path class="cls-26" d="M809.35,445.85a1,1,0,1,1-1-1A1,1,0,0,1,809.35,445.85Zm-.14,2.2v7.7h-1.65v-7.7Z"/><path class="cls-26" d="M813.84,449.31c-.65,0-1.13.22-1.13.77,0,1.42,4.1.65,4.08,3.45,0,1.58-1.41,2.29-3,2.29a4.77,4.77,0,0,1-3.1-1.07l.59-1.19a4.2,4.2,0,0,0,2.58,1c.71,0,1.26-.25,1.26-.83,0-1.58-4.05-.7-4-3.48,0-1.56,1.36-2.23,2.84-2.23a4.87,4.87,0,0,1,2.69.78l-.61,1.23A4.53,4.53,0,0,0,813.84,449.31Z"/><path class="cls-26" d="M819.73,454.92a.91.91,0,1,1-1.82,0,.91.91,0,1,1,1.82,0Z"/><path class="cls-26" d="M829,445v10.74H827.3v-1.32a3,3,0,0,1-2.71,1.39,3.93,3.93,0,0,1,0-7.85,3,3,0,0,1,2.74,1.41V445Zm-1.67,6.92a2.35,2.35,0,0,0-2.36-2.53,2.37,2.37,0,0,0-2.37,2.53,2.37,2.37,0,1,0,4.74,0Z"/><path class="cls-26" d="M837.15,453.35l1,.9a4.13,4.13,0,0,1-3.33,1.56,3.77,3.77,0,0,1-4-3.91,3.71,3.71,0,0,1,3.87-3.91,3.36,3.36,0,0,1,3.63,3.36l-5.6,1.68a2.3,2.3,0,0,0,2.22,1.45A2.92,2.92,0,0,0,837.15,453.35Zm-4.71-1.54h0l4.23-1.26a1.89,1.89,0,0,0-1.93-1.23A2.19,2.19,0,0,0,832.44,451.82Z"/><path class="cls-26" d="M841.42,447.43v.91h2v1.25h-2v6.17h-1.65v-8.17a2.53,2.53,0,0,1,2.65-2.65,2.94,2.94,0,0,1,1.74.54l-.64,1.27a1.86,1.86,0,0,0-1.06-.36A1,1,0,0,0,841.42,447.43Z"/><path class="cls-26" d="M851.73,448.05v7.7h-1.65v-1.3a3,3,0,0,1-2.69,1.38,3.63,3.63,0,0,1-3.69-4,3.59,3.59,0,0,1,3.63-3.9,3,3,0,0,1,2.75,1.38v-1.3Zm-1.65,4.16v-.56a2.31,2.31,0,0,0-2.35-2.25,2.37,2.37,0,0,0-2.37,2.53,2.35,2.35,0,0,0,2.38,2.51A2.31,2.31,0,0,0,850.08,452.21Z"/><path class="cls-26" d="M861.18,448.05v7.7h-1.67v-1.51a2.84,2.84,0,0,1-2.75,1.56,2.67,2.67,0,0,1-2.82-3v-4.79h1.67v4.33a1.69,1.69,0,0,0,1.79,1.87,2.18,2.18,0,0,0,2.11-2.4v-3.79Z"/><path class="cls-26" d="M865.88,454.31a1.63,1.63,0,0,0,.77-.25l.23,1.36a3,3,0,0,1-1.45.41c-1.07,0-1.91-.77-1.91-2.24V445h1.65v8.4C865.17,454,865.44,454.31,865.88,454.31Z"/><path class="cls-26" d="M872,455.26a3.72,3.72,0,0,1-1.85.56,2.21,2.21,0,0,1-2.2-2.52v-7.08h1.65v2.11h2.27v1.25h-2.27V453c0,.91.3,1.3.85,1.3a2.54,2.54,0,0,0,1.13-.33Z"/><path class="cls-27" d="M367.89,295.55H913.72a0,0,0,0,1,0,0v97.88a3,3,0,0,1-3,3H367.89a3,3,0,0,1-3-3V298.55a3,3,0,0,1,3-3Z"/><rect class="cls-25" x="741.29" y="143.2" width="157.78" height="35.62" rx="3" ry="3"/><rect class="cls-23" x="741.29" y="147.6" width="157.78" height="47.46" rx="3" ry="3"/><path class="cls-24" d="M764.23,171.81a3.57,3.57,0,0,1-3.65,3.88,3,3,0,0,1-2.72-1.39v4.14h-1.67V167.93h1.67v1.33a3,3,0,0,1,2.69-1.39A3.62,3.62,0,0,1,764.23,171.81Zm-1.68-.06a2.35,2.35,0,1,0-2.35,2.52A2.34,2.34,0,0,0,762.55,171.75Z"/><path class="cls-24" d="M773.28,171.77a4,4,0,1,1-4-3.9A3.78,3.78,0,0,1,773.28,171.77Zm-6.37,0a2.36,2.36,0,1,0,2.36-2.51A2.32,2.32,0,0,0,766.91,171.8Z"/><path class="cls-24" d="M777.19,169.19c-.65,0-1.13.22-1.13.77,0,1.42,4.1.65,4.08,3.45,0,1.58-1.41,2.29-3,2.29a4.77,4.77,0,0,1-3.1-1.07l.59-1.19a4.2,4.2,0,0,0,2.58,1c.71,0,1.26-.25,1.26-.83,0-1.58-4.05-.7-4-3.48,0-1.56,1.36-2.23,2.84-2.23a4.87,4.87,0,0,1,2.69.78l-.61,1.23A4.53,4.53,0,0,0,777.19,169.19Z"/><path class="cls-24" d="M785.69,175.14a3.71,3.71,0,0,1-1.85.56,2.21,2.21,0,0,1-2.2-2.52v-7.08h1.65v2.11h2.27v1.25h-2.27v3.43c0,.91.3,1.3.85,1.3a2.54,2.54,0,0,0,1.13-.33Z"/><path class="cls-24" d="M794.08,167.93v7c0,2.22-1.58,3.61-4,3.61a5.6,5.6,0,0,1-3.2-1l.71-1.2a3.89,3.89,0,0,0,2.42.84,2.17,2.17,0,0,0,2.42-2.19v-1a2.82,2.82,0,0,1-2.55,1.3,3.41,3.41,0,0,1-3.48-3.72,3.38,3.38,0,0,1,3.42-3.66,2.87,2.87,0,0,1,2.61,1.3v-1.25Zm-1.65,3.65a2.19,2.19,0,0,0-2.21-2.36,2.37,2.37,0,1,0,2.21,2.36Z"/><path class="cls-24" d="M800.73,167.87v1.59a2.33,2.33,0,0,0-2.66,2.14v4H796.4v-7.7h1.67v1.54A2.8,2.8,0,0,1,800.73,167.87Z"/><path class="cls-24" d="M807.75,173.23l1,.9a4.13,4.13,0,0,1-3.33,1.56,3.77,3.77,0,0,1-4-3.91,3.71,3.71,0,0,1,3.87-3.91,3.36,3.36,0,0,1,3.63,3.36l-5.6,1.68a2.3,2.3,0,0,0,2.22,1.45A2.92,2.92,0,0,0,807.75,173.23ZM803,171.7h0l4.23-1.26a1.89,1.89,0,0,0-1.93-1.23A2.19,2.19,0,0,0,803,171.7Z"/><path class="cls-24" d="M812.67,169.19c-.65,0-1.13.22-1.13.77,0,1.42,4.1.65,4.08,3.45,0,1.58-1.41,2.29-3,2.29a4.77,4.77,0,0,1-3.1-1.07l.59-1.19a4.2,4.2,0,0,0,2.58,1c.71,0,1.26-.25,1.26-.83,0-1.58-4.05-.7-4-3.48,0-1.56,1.36-2.23,2.84-2.23a4.87,4.87,0,0,1,2.69.78l-.61,1.23A4.53,4.53,0,0,0,812.67,169.19Z"/><path class="cls-24" d="M824.65,167.93v10.51H823v-4.13a3,3,0,0,1-2.71,1.39,3.93,3.93,0,0,1,0-7.85,3,3,0,0,1,2.74,1.41v-1.33ZM823,171.81a2.35,2.35,0,0,0-2.36-2.53,2.37,2.37,0,0,0-2.37,2.53,2.37,2.37,0,1,0,4.74,0Z"/><path class="cls-24" d="M829.41,174.19a1.63,1.63,0,0,0,.77-.25l.23,1.36a3,3,0,0,1-1.45.41c-1.07,0-1.91-.77-1.91-2.24v-8.57h1.65v8.4C828.7,173.91,829,174.19,829.41,174.19Z"/><path class="cls-24" d="M832.92,174.79a.91.91,0,1,1-1.82,0,.91.91,0,1,1,1.82,0Z"/><path class="cls-24" d="M842.15,164.89v10.74h-1.67v-1.32a3,3,0,0,1-2.71,1.39,3.93,3.93,0,0,1,0-7.85,3,3,0,0,1,2.74,1.41v-4.37Zm-1.67,6.92a2.35,2.35,0,0,0-2.36-2.53,2.37,2.37,0,0,0-2.37,2.53,2.37,2.37,0,1,0,4.74,0Z"/><path class="cls-24" d="M850.33,173.23l1,.9a4.13,4.13,0,0,1-3.33,1.56,3.77,3.77,0,0,1-4-3.91,3.71,3.71,0,0,1,3.87-3.91,3.36,3.36,0,0,1,3.63,3.36l-5.6,1.68a2.3,2.3,0,0,0,2.22,1.45A2.92,2.92,0,0,0,850.33,173.23Zm-4.71-1.54h0l4.23-1.26a1.89,1.89,0,0,0-1.93-1.23A2.19,2.19,0,0,0,845.63,171.7Z"/><path class="cls-24" d="M854.61,167.31v.91h2v1.25h-2v6.17H853v-8.17a2.53,2.53,0,0,1,2.65-2.65,2.94,2.94,0,0,1,1.74.54l-.64,1.27a1.86,1.86,0,0,0-1.06-.36A1,1,0,0,0,854.61,167.31Z"/><path class="cls-24" d="M864.92,167.93v7.7h-1.65v-1.3a3,3,0,0,1-2.69,1.38,3.63,3.63,0,0,1-3.69-4,3.59,3.59,0,0,1,3.63-3.9,3,3,0,0,1,2.75,1.38v-1.3Zm-1.65,4.16v-.56a2.31,2.31,0,0,0-2.35-2.25,2.37,2.37,0,0,0-2.37,2.53,2.35,2.35,0,0,0,2.38,2.51A2.31,2.31,0,0,0,863.26,172.09Z"/><path class="cls-24" d="M874.37,167.93v7.7H872.7v-1.51a2.84,2.84,0,0,1-2.75,1.56,2.67,2.67,0,0,1-2.82-3v-4.79h1.67v4.33a1.69,1.69,0,0,0,1.79,1.87,2.18,2.18,0,0,0,2.11-2.4v-3.79Z"/><path class="cls-24" d="M879.06,174.19a1.63,1.63,0,0,0,.77-.25l.23,1.36a3,3,0,0,1-1.45.41c-1.07,0-1.91-.77-1.91-2.24v-8.57h1.65v8.4C878.35,173.91,878.63,174.19,879.06,174.19Z"/><path class="cls-24" d="M885.17,175.14a3.71,3.71,0,0,1-1.85.56,2.21,2.21,0,0,1-2.2-2.52v-7.08h1.65v2.11H885v1.25h-2.27v3.43c0,.91.3,1.3.85,1.3a2.54,2.54,0,0,0,1.13-.33Z"/><rect class="cls-25" x="559.11" y="143.2" width="157.78" height="35.62" rx="3" ry="3"/><rect class="cls-23" x="559.11" y="147.6" width="157.78" height="47.46" rx="3" ry="3"/><path class="cls-24" d="M582,171.81a3.57,3.57,0,0,1-3.65,3.88,3,3,0,0,1-2.72-1.39v4.14H574V167.93h1.67v1.33a3,3,0,0,1,2.69-1.39A3.62,3.62,0,0,1,582,171.81Zm-1.68-.06a2.35,2.35,0,1,0-2.35,2.52A2.34,2.34,0,0,0,580.37,171.75Z"/><path class="cls-24" d="M591.1,171.77a4,4,0,1,1-4-3.9A3.78,3.78,0,0,1,591.1,171.77Zm-6.37,0a2.36,2.36,0,1,0,2.36-2.51A2.32,2.32,0,0,0,584.72,171.8Z"/><path class="cls-24" d="M595,169.19c-.65,0-1.13.22-1.13.77,0,1.42,4.1.65,4.08,3.45,0,1.58-1.41,2.29-3,2.29a4.77,4.77,0,0,1-3.1-1.07l.59-1.19a4.2,4.2,0,0,0,2.58,1c.71,0,1.26-.25,1.26-.83,0-1.58-4.05-.7-4-3.48,0-1.56,1.36-2.23,2.84-2.23a4.87,4.87,0,0,1,2.69.78l-.61,1.23A4.53,4.53,0,0,0,595,169.19Z"/><path class="cls-24" d="M603.5,175.14a3.71,3.71,0,0,1-1.85.56,2.21,2.21,0,0,1-2.2-2.52v-7.08h1.65v2.11h2.27v1.25H601.1v3.43c0,.91.3,1.3.85,1.3a2.54,2.54,0,0,0,1.13-.33Z"/><path class="cls-24" d="M611.9,167.93v7c0,2.22-1.58,3.61-4,3.61a5.6,5.6,0,0,1-3.2-1l.71-1.2a3.89,3.89,0,0,0,2.42.84,2.17,2.17,0,0,0,2.42-2.19v-1a2.82,2.82,0,0,1-2.55,1.3,3.41,3.41,0,0,1-3.48-3.72,3.38,3.38,0,0,1,3.42-3.66,2.87,2.87,0,0,1,2.61,1.3v-1.25Zm-1.65,3.65a2.19,2.19,0,0,0-2.21-2.36,2.37,2.37,0,1,0,2.21,2.36Z"/><path class="cls-24" d="M618.55,167.87v1.59a2.33,2.33,0,0,0-2.66,2.14v4h-1.67v-7.7h1.67v1.54A2.8,2.8,0,0,1,618.55,167.87Z"/><path class="cls-24" d="M625.57,173.23l1,.9a4.13,4.13,0,0,1-3.33,1.56,3.77,3.77,0,0,1-4-3.91,3.71,3.71,0,0,1,3.87-3.91,3.36,3.36,0,0,1,3.63,3.36l-5.6,1.68a2.3,2.3,0,0,0,2.22,1.45A2.92,2.92,0,0,0,625.57,173.23Zm-4.71-1.54h0l4.23-1.26a1.89,1.89,0,0,0-1.93-1.23A2.19,2.19,0,0,0,620.86,171.7Z"/><path class="cls-24" d="M630.49,169.19c-.65,0-1.13.22-1.13.77,0,1.42,4.1.65,4.08,3.45,0,1.58-1.41,2.29-3,2.29a4.77,4.77,0,0,1-3.1-1.07l.59-1.19a4.2,4.2,0,0,0,2.58,1c.71,0,1.26-.25,1.26-.83,0-1.58-4.05-.7-4-3.48,0-1.56,1.36-2.23,2.84-2.23a4.87,4.87,0,0,1,2.69.78l-.61,1.23A4.53,4.53,0,0,0,630.49,169.19Z"/><path class="cls-24" d="M642.47,167.93v10.51H640.8v-4.13a3,3,0,0,1-2.71,1.39,3.93,3.93,0,0,1,0-7.85,3,3,0,0,1,2.74,1.41v-1.33Zm-1.67,3.88a2.35,2.35,0,0,0-2.36-2.53,2.37,2.37,0,0,0-2.37,2.53,2.37,2.37,0,1,0,4.74,0Z"/><path class="cls-24" d="M647.23,174.19a1.63,1.63,0,0,0,.77-.25l.23,1.36a3,3,0,0,1-1.45.41c-1.07,0-1.91-.77-1.91-2.24v-8.57h1.65v8.4C646.52,173.91,646.8,174.19,647.23,174.19Z"/><path class="cls-24" d="M650.73,174.79a.91.91,0,1,1-1.82,0,.91.91,0,1,1,1.82,0Z"/><path class="cls-24" d="M660,164.89v10.74h-1.67v-1.32a3,3,0,0,1-2.71,1.39,3.93,3.93,0,0,1,0-7.85,3,3,0,0,1,2.74,1.41v-4.37Zm-1.67,6.92a2.35,2.35,0,0,0-2.36-2.53,2.37,2.37,0,0,0-2.37,2.53,2.37,2.37,0,1,0,4.74,0Z"/><path class="cls-24" d="M668.15,173.23l1,.9a4.13,4.13,0,0,1-3.33,1.56,3.77,3.77,0,0,1-4-3.91,3.71,3.71,0,0,1,3.87-3.91,3.36,3.36,0,0,1,3.63,3.36l-5.6,1.68a2.3,2.3,0,0,0,2.22,1.45A2.92,2.92,0,0,0,668.15,173.23Zm-4.71-1.54h0l4.23-1.26a1.89,1.89,0,0,0-1.93-1.23A2.19,2.19,0,0,0,663.45,171.7Z"/><path class="cls-24" d="M672.42,167.31v.91h2v1.25h-2v6.17h-1.65v-8.17a2.53,2.53,0,0,1,2.65-2.65,2.94,2.94,0,0,1,1.74.54l-.64,1.27a1.86,1.86,0,0,0-1.06-.36A1,1,0,0,0,672.42,167.31Z"/><path class="cls-24" d="M682.73,167.93v7.7h-1.65v-1.3a3,3,0,0,1-2.69,1.38,3.63,3.63,0,0,1-3.69-4,3.59,3.59,0,0,1,3.63-3.9,3,3,0,0,1,2.75,1.38v-1.3Zm-1.65,4.16v-.56a2.31,2.31,0,0,0-2.35-2.25,2.37,2.37,0,0,0-2.37,2.53,2.35,2.35,0,0,0,2.38,2.51A2.31,2.31,0,0,0,681.08,172.09Z"/><path class="cls-24" d="M692.19,167.93v7.7h-1.67v-1.51a2.84,2.84,0,0,1-2.75,1.56,2.67,2.67,0,0,1-2.82-3v-4.79h1.67v4.33a1.69,1.69,0,0,0,1.79,1.87,2.18,2.18,0,0,0,2.11-2.4v-3.79Z"/><path class="cls-24" d="M696.88,174.19a1.63,1.63,0,0,0,.77-.25l.23,1.36a3,3,0,0,1-1.45.41c-1.07,0-1.91-.77-1.91-2.24v-8.57h1.65v8.4C696.17,173.91,696.44,174.19,696.88,174.19Z"/><path class="cls-24" d="M703,175.14a3.71,3.71,0,0,1-1.85.56,2.21,2.21,0,0,1-2.2-2.52v-7.08h1.65v2.11h2.27v1.25h-2.27v3.43c0,.91.3,1.3.85,1.3a2.54,2.54,0,0,0,1.13-.33Z"/><rect class="cls-25" x="377.92" y="143.2" width="157.78" height="35.62" rx="3" ry="3"/><rect class="cls-23" x="377.92" y="147.6" width="157.78" height="47.46" rx="3" ry="3"/><path class="cls-24" d="M400.86,171.81a3.57,3.57,0,0,1-3.65,3.88,3,3,0,0,1-2.72-1.39v4.14h-1.67V167.93h1.67v1.33a3,3,0,0,1,2.69-1.39A3.62,3.62,0,0,1,400.86,171.81Zm-1.68-.06a2.35,2.35,0,1,0-2.35,2.52A2.34,2.34,0,0,0,399.18,171.75Z"/><path class="cls-24" d="M409.91,171.77a4,4,0,1,1-4-3.9A3.78,3.78,0,0,1,409.91,171.77Zm-6.37,0a2.36,2.36,0,1,0,2.36-2.51A2.32,2.32,0,0,0,403.54,171.8Z"/><path class="cls-24" d="M413.82,169.19c-.65,0-1.13.22-1.13.77,0,1.42,4.1.65,4.08,3.45,0,1.58-1.41,2.29-3,2.29a4.77,4.77,0,0,1-3.1-1.07l.59-1.19a4.2,4.2,0,0,0,2.58,1c.71,0,1.26-.25,1.26-.83,0-1.58-4.05-.7-4-3.48,0-1.56,1.36-2.23,2.84-2.23a4.87,4.87,0,0,1,2.69.78l-.61,1.23A4.53,4.53,0,0,0,413.82,169.19Z"/><path class="cls-24" d="M422.31,175.14a3.71,3.71,0,0,1-1.85.56,2.21,2.21,0,0,1-2.2-2.52v-7.08h1.65v2.11h2.27v1.25h-2.27v3.43c0,.91.3,1.3.85,1.3a2.54,2.54,0,0,0,1.13-.33Z"/><path class="cls-24" d="M430.71,167.93v7c0,2.22-1.58,3.61-4,3.61a5.6,5.6,0,0,1-3.2-1l.71-1.2a3.89,3.89,0,0,0,2.42.84,2.17,2.17,0,0,0,2.42-2.19v-1a2.82,2.82,0,0,1-2.55,1.3,3.41,3.41,0,0,1-3.48-3.72,3.38,3.38,0,0,1,3.42-3.66,2.87,2.87,0,0,1,2.61,1.3v-1.25Zm-1.65,3.65a2.19,2.19,0,0,0-2.21-2.36,2.37,2.37,0,1,0,2.21,2.36Z"/><path class="cls-24" d="M437.36,167.87v1.59a2.33,2.33,0,0,0-2.66,2.14v4H433v-7.7h1.67v1.54A2.8,2.8,0,0,1,437.36,167.87Z"/><path class="cls-24" d="M444.38,173.23l1,.9a4.13,4.13,0,0,1-3.33,1.56,3.77,3.77,0,0,1-4-3.91,3.71,3.71,0,0,1,3.87-3.91,3.36,3.36,0,0,1,3.63,3.36l-5.6,1.68a2.3,2.3,0,0,0,2.22,1.45A2.92,2.92,0,0,0,444.38,173.23Zm-4.71-1.54h0l4.23-1.26a1.89,1.89,0,0,0-1.93-1.23A2.19,2.19,0,0,0,439.67,171.7Z"/><path class="cls-24" d="M449.3,169.19c-.65,0-1.13.22-1.13.77,0,1.42,4.1.65,4.08,3.45,0,1.58-1.41,2.29-3,2.29a4.77,4.77,0,0,1-3.1-1.07l.59-1.19a4.2,4.2,0,0,0,2.58,1c.71,0,1.26-.25,1.26-.83,0-1.58-4.05-.7-4-3.48,0-1.56,1.36-2.23,2.84-2.23a4.87,4.87,0,0,1,2.69.78l-.61,1.23A4.53,4.53,0,0,0,449.3,169.19Z"/><path class="cls-24" d="M461.28,167.93v10.51h-1.67v-4.13a3,3,0,0,1-2.71,1.39,3.93,3.93,0,0,1,0-7.85,3,3,0,0,1,2.74,1.41v-1.33Zm-1.67,3.88a2.35,2.35,0,0,0-2.36-2.53,2.37,2.37,0,0,0-2.37,2.53,2.37,2.37,0,1,0,4.74,0Z"/><path class="cls-24" d="M466,174.19a1.63,1.63,0,0,0,.77-.25l.23,1.36a3,3,0,0,1-1.45.41c-1.07,0-1.91-.77-1.91-2.24v-8.57h1.65v8.4C465.33,173.91,465.61,174.19,466,174.19Z"/><path class="cls-24" d="M469.54,174.79a.91.91,0,1,1-1.82,0,.91.91,0,1,1,1.82,0Z"/><path class="cls-24" d="M478.78,164.89v10.74h-1.67v-1.32a3,3,0,0,1-2.71,1.39,3.93,3.93,0,0,1,0-7.85,3,3,0,0,1,2.74,1.41v-4.37Zm-1.67,6.92a2.35,2.35,0,0,0-2.36-2.53,2.37,2.37,0,0,0-2.37,2.53,2.37,2.37,0,1,0,4.74,0Z"/><path class="cls-24" d="M487,173.23l1,.9a4.13,4.13,0,0,1-3.33,1.56,3.77,3.77,0,0,1-4-3.91,3.71,3.71,0,0,1,3.87-3.91,3.36,3.36,0,0,1,3.63,3.36l-5.6,1.68a2.3,2.3,0,0,0,2.22,1.45A2.92,2.92,0,0,0,487,173.23Zm-4.71-1.54h0l4.23-1.26a1.89,1.89,0,0,0-1.93-1.23A2.19,2.19,0,0,0,482.26,171.7Z"/><path class="cls-24" d="M491.23,167.31v.91h2v1.25h-2v6.17h-1.65v-8.17a2.53,2.53,0,0,1,2.65-2.65,2.94,2.94,0,0,1,1.74.54l-.64,1.27a1.86,1.86,0,0,0-1.06-.36A1,1,0,0,0,491.23,167.31Z"/><path class="cls-24" d="M501.54,167.93v7.7h-1.65v-1.3a3,3,0,0,1-2.69,1.38,3.63,3.63,0,0,1-3.69-4,3.59,3.59,0,0,1,3.63-3.9,3,3,0,0,1,2.75,1.38v-1.3Zm-1.65,4.16v-.56a2.31,2.31,0,0,0-2.35-2.25,2.37,2.37,0,0,0-2.37,2.53,2.35,2.35,0,0,0,2.38,2.51A2.31,2.31,0,0,0,499.89,172.09Z"/><path class="cls-24" d="M511,167.93v7.7h-1.67v-1.51a2.84,2.84,0,0,1-2.75,1.56,2.67,2.67,0,0,1-2.82-3v-4.79h1.67v4.33a1.69,1.69,0,0,0,1.79,1.87,2.18,2.18,0,0,0,2.11-2.4v-3.79Z"/><path class="cls-24" d="M515.69,174.19a1.63,1.63,0,0,0,.77-.25l.23,1.36a3,3,0,0,1-1.45.41c-1.07,0-1.91-.77-1.91-2.24v-8.57H515v8.4C515,173.91,515.25,174.19,515.69,174.19Z"/><path class="cls-24" d="M521.8,175.14a3.71,3.71,0,0,1-1.85.56,2.21,2.21,0,0,1-2.2-2.52v-7.08h1.65v2.11h2.27v1.25H519.4v3.43c0,.91.3,1.3.85,1.3a2.54,2.54,0,0,0,1.13-.33Z"/><rect class="cls-25" x="744.03" y="320.06" width="152.3" height="35.62" rx="3" ry="3"/><rect class="cls-23" x="744.03" y="324.46" width="152.3" height="47.46" rx="3" ry="3"/><path class="cls-24" d="M769.35,352.57a3.2,3.2,0,0,1-2.9-1.67,3.14,3.14,0,0,1-2.88,1.67,3,3,0,0,1-3.19-3.26v-4.52H762v4.45a1.78,1.78,0,0,0,3.56,0v-4.45h1.67v4.45A1.68,1.68,0,0,0,769.1,351a1.64,1.64,0,0,0,1.74-1.75v-4.45h1.67v4.52A3,3,0,0,1,769.35,352.57Z"/><path class="cls-24" d="M780.34,350.09l1,.9a4.13,4.13,0,0,1-3.33,1.56,3.77,3.77,0,0,1-4-3.91,3.71,3.71,0,0,1,3.87-3.91,3.36,3.36,0,0,1,3.63,3.36l-5.6,1.68a2.3,2.3,0,0,0,2.22,1.45A2.92,2.92,0,0,0,780.34,350.09Zm-4.71-1.54h0l4.23-1.26a1.89,1.89,0,0,0-1.93-1.23A2.19,2.19,0,0,0,775.63,348.56Z"/><path class="cls-24" d="M791.2,348.67a3.57,3.57,0,0,1-3.65,3.88,3,3,0,0,1-2.72-1.39v1.33h-1.67V341.75h1.67v4.37a3,3,0,0,1,2.69-1.39A3.62,3.62,0,0,1,791.2,348.67Zm-1.68-.06a2.35,2.35,0,1,0-2.35,2.52A2.34,2.34,0,0,0,789.52,348.61Z"/><path class="cls-24" d="M800.25,344.79v7.7h-1.65v-1.3a3,3,0,0,1-2.69,1.38,3.63,3.63,0,0,1-3.69-4,3.59,3.59,0,0,1,3.63-3.9,3,3,0,0,1,2.75,1.38v-1.3Zm-1.65,4.16v-.56a2.31,2.31,0,0,0-2.35-2.25,2.37,2.37,0,0,0-2.37,2.53,2.35,2.35,0,0,0,2.38,2.51A2.31,2.31,0,0,0,798.59,348.95Z"/><path class="cls-24" d="M805.94,346.19a2.47,2.47,0,0,0,0,4.92,2.87,2.87,0,0,0,2.27-.93l.93.93a3.92,3.92,0,0,1-3.27,1.43,3.91,3.91,0,0,1,0-7.82A4.07,4.07,0,0,1,809,346l-.91,1.07A2.91,2.91,0,0,0,805.94,346.19Z"/><path class="cls-24" d="M817.87,344.79v7.7H816.2V351a2.84,2.84,0,0,1-2.75,1.56,2.67,2.67,0,0,1-2.82-3v-4.79h1.67v4.33a1.69,1.69,0,0,0,1.79,1.87,2.18,2.18,0,0,0,2.11-2.4v-3.79Z"/><path class="cls-24" d="M822.5,346c-.65,0-1.13.22-1.13.77,0,1.42,4.1.65,4.08,3.45,0,1.58-1.41,2.29-3,2.29a4.77,4.77,0,0,1-3.1-1.07l.59-1.19a4.2,4.2,0,0,0,2.58,1c.71,0,1.26-.25,1.26-.83,0-1.58-4.05-.7-4-3.48,0-1.56,1.36-2.23,2.84-2.23a4.87,4.87,0,0,1,2.69.78l-.61,1.23A4.53,4.53,0,0,0,822.5,346Z"/><path class="cls-24" d="M828.39,351.65a.91.91,0,1,1-1.82,0,.91.91,0,1,1,1.82,0Z"/><path class="cls-24" d="M837.63,341.75v10.74H836v-1.32a3,3,0,0,1-2.71,1.39,3.93,3.93,0,0,1,0-7.85,3,3,0,0,1,2.74,1.41v-4.37ZM836,348.67a2.35,2.35,0,0,0-2.36-2.53,2.37,2.37,0,0,0-2.37,2.53,2.37,2.37,0,1,0,4.74,0Z"/><path class="cls-24" d="M845.81,350.09l1,.9a4.13,4.13,0,0,1-3.33,1.56,3.77,3.77,0,0,1-4-3.91,3.71,3.71,0,0,1,3.87-3.91,3.36,3.36,0,0,1,3.63,3.36l-5.6,1.68a2.3,2.3,0,0,0,2.22,1.45A2.92,2.92,0,0,0,845.81,350.09Zm-4.71-1.54h0l4.23-1.26a1.89,1.89,0,0,0-1.93-1.23A2.19,2.19,0,0,0,841.1,348.56Z"/><path class="cls-24" d="M850.08,344.17v.91h2v1.25h-2v6.17h-1.65v-8.17a2.53,2.53,0,0,1,2.65-2.65,2.94,2.94,0,0,1,1.74.54l-.64,1.27a1.86,1.86,0,0,0-1.06-.36A1,1,0,0,0,850.08,344.17Z"/><path class="cls-24" d="M860.39,344.79v7.7h-1.65v-1.3a3,3,0,0,1-2.69,1.38,3.63,3.63,0,0,1-3.69-4,3.59,3.59,0,0,1,3.63-3.9,3,3,0,0,1,2.75,1.38v-1.3Zm-1.65,4.16v-.56a2.31,2.31,0,0,0-2.35-2.25,2.37,2.37,0,0,0-2.37,2.53,2.35,2.35,0,0,0,2.38,2.51A2.31,2.31,0,0,0,858.74,348.95Z"/><path class="cls-24" d="M869.85,344.79v7.7h-1.67V351a2.84,2.84,0,0,1-2.75,1.56,2.67,2.67,0,0,1-2.82-3v-4.79h1.67v4.33a1.69,1.69,0,0,0,1.79,1.87,2.18,2.18,0,0,0,2.11-2.4v-3.79Z"/><path class="cls-24" d="M874.54,351a1.63,1.63,0,0,0,.77-.25l.23,1.36a3,3,0,0,1-1.45.41c-1.07,0-1.91-.77-1.91-2.24v-8.57h1.65v8.4C873.83,350.77,874.1,351,874.54,351Z"/><path class="cls-24" d="M880.65,352a3.71,3.71,0,0,1-1.85.56,2.21,2.21,0,0,1-2.2-2.52V343h1.65v2.11h2.27v1.25h-2.27v3.43c0,.91.3,1.3.85,1.3a2.54,2.54,0,0,0,1.13-.33Z"/><rect class="cls-25" x="563.16" y="320.06" width="152.3" height="35.62" rx="3" ry="3"/><rect class="cls-23" x="563.16" y="324.46" width="152.3" height="47.46" rx="3" ry="3"/><path class="cls-24" d="M588.47,352.57a3.2,3.2,0,0,1-2.9-1.67,3.14,3.14,0,0,1-2.88,1.67,3,3,0,0,1-3.19-3.26v-4.52h1.67v4.45a1.78,1.78,0,0,0,3.56,0v-4.45h1.67v4.45a1.68,1.68,0,0,0,1.82,1.75,1.64,1.64,0,0,0,1.74-1.75v-4.45h1.67v4.52A3,3,0,0,1,588.47,352.57Z"/><path class="cls-24" d="M599.46,350.09l1,.9a4.13,4.13,0,0,1-3.33,1.56,3.77,3.77,0,0,1-4-3.91,3.71,3.71,0,0,1,3.87-3.91,3.36,3.36,0,0,1,3.63,3.36l-5.6,1.68a2.3,2.3,0,0,0,2.22,1.45A2.92,2.92,0,0,0,599.46,350.09Zm-4.71-1.54h0l4.23-1.26a1.89,1.89,0,0,0-1.93-1.23A2.19,2.19,0,0,0,594.75,348.56Z"/><path class="cls-24" d="M610.32,348.67a3.57,3.57,0,0,1-3.65,3.88,3,3,0,0,1-2.72-1.39v1.33h-1.67V341.75h1.67v4.37a3,3,0,0,1,2.69-1.39A3.62,3.62,0,0,1,610.32,348.67Zm-1.68-.06a2.35,2.35,0,1,0-2.35,2.52A2.34,2.34,0,0,0,608.64,348.61Z"/><path class="cls-24" d="M619.37,344.79v7.7h-1.65v-1.3a3,3,0,0,1-2.69,1.38,3.63,3.63,0,0,1-3.69-4,3.59,3.59,0,0,1,3.63-3.9,3,3,0,0,1,2.75,1.38v-1.3Zm-1.65,4.16v-.56a2.31,2.31,0,0,0-2.35-2.25,2.37,2.37,0,0,0-2.37,2.53,2.35,2.35,0,0,0,2.38,2.51A2.31,2.31,0,0,0,617.72,348.95Z"/><path class="cls-24" d="M625.06,346.19a2.47,2.47,0,0,0,0,4.92,2.87,2.87,0,0,0,2.27-.93l.93.93a3.92,3.92,0,0,1-3.27,1.43,3.91,3.91,0,0,1,0-7.82,4.07,4.07,0,0,1,3.19,1.26l-.91,1.07A2.91,2.91,0,0,0,625.06,346.19Z"/><path class="cls-24" d="M637,344.79v7.7h-1.67V351a2.84,2.84,0,0,1-2.75,1.56,2.67,2.67,0,0,1-2.82-3v-4.79h1.67v4.33a1.69,1.69,0,0,0,1.79,1.87,2.18,2.18,0,0,0,2.11-2.4v-3.79Z"/><path class="cls-24" d="M641.62,346c-.65,0-1.13.22-1.13.77,0,1.42,4.1.65,4.08,3.45,0,1.58-1.41,2.29-3,2.29a4.77,4.77,0,0,1-3.1-1.07l.59-1.19a4.2,4.2,0,0,0,2.58,1c.71,0,1.26-.25,1.26-.83,0-1.58-4.05-.7-4-3.48,0-1.56,1.36-2.23,2.84-2.23a4.87,4.87,0,0,1,2.69.78l-.61,1.23A4.53,4.53,0,0,0,641.62,346Z"/><path class="cls-24" d="M647.51,351.65a.91.91,0,1,1-1.82,0,.91.91,0,1,1,1.82,0Z"/><path class="cls-24" d="M656.75,341.75v10.74h-1.67v-1.32a3,3,0,0,1-2.71,1.39,3.93,3.93,0,0,1,0-7.85,3,3,0,0,1,2.74,1.41v-4.37Zm-1.67,6.92a2.35,2.35,0,0,0-2.36-2.53,2.37,2.37,0,0,0-2.37,2.53,2.37,2.37,0,1,0,4.74,0Z"/><path class="cls-24" d="M664.93,350.09l1,.9a4.13,4.13,0,0,1-3.33,1.56,3.77,3.77,0,0,1-4-3.91,3.71,3.71,0,0,1,3.87-3.91,3.36,3.36,0,0,1,3.63,3.36l-5.6,1.68a2.3,2.3,0,0,0,2.22,1.45A2.92,2.92,0,0,0,664.93,350.09Zm-4.71-1.54h0l4.23-1.26a1.89,1.89,0,0,0-1.93-1.23A2.19,2.19,0,0,0,660.23,348.56Z"/><path class="cls-24" d="M669.2,344.17v.91h2v1.25h-2v6.17h-1.65v-8.17a2.53,2.53,0,0,1,2.65-2.65,2.94,2.94,0,0,1,1.74.54l-.64,1.27a1.86,1.86,0,0,0-1.06-.36A1,1,0,0,0,669.2,344.17Z"/><path class="cls-24" d="M679.51,344.79v7.7h-1.65v-1.3a3,3,0,0,1-2.69,1.38,3.63,3.63,0,0,1-3.69-4,3.59,3.59,0,0,1,3.63-3.9,3,3,0,0,1,2.75,1.38v-1.3Zm-1.65,4.16v-.56a2.31,2.31,0,0,0-2.35-2.25,2.37,2.37,0,0,0-2.37,2.53,2.35,2.35,0,0,0,2.38,2.51A2.31,2.31,0,0,0,677.86,348.95Z"/><path class="cls-24" d="M689,344.79v7.7H687.3V351a2.84,2.84,0,0,1-2.75,1.56,2.67,2.67,0,0,1-2.82-3v-4.79h1.67v4.33a1.69,1.69,0,0,0,1.79,1.87,2.18,2.18,0,0,0,2.11-2.4v-3.79Z"/><path class="cls-24" d="M693.66,351a1.63,1.63,0,0,0,.77-.25l.23,1.36a3,3,0,0,1-1.45.41c-1.07,0-1.91-.77-1.91-2.24v-8.57H693v8.4C693,350.77,693.23,351,693.66,351Z"/><path class="cls-24" d="M699.77,352a3.71,3.71,0,0,1-1.85.56,2.21,2.21,0,0,1-2.2-2.52V343h1.65v2.11h2.27v1.25h-2.27v3.43c0,.91.3,1.3.85,1.3a2.54,2.54,0,0,0,1.13-.33Z"/><rect class="cls-8" x="969.61" y="250.08" width="6.07" height="7.8"/><rect class="cls-8" x="984.79" y="250.08" width="6.07" height="7.8"/><rect class="cls-8" x="969.61" y="431.88" width="6.07" height="7.8"/><rect class="cls-8" x="984.79" y="431.88" width="6.07" height="7.8"/></g></svg>