<svg xmlns="http://www.w3.org/2000/svg" xmlns:xlink="http://www.w3.org/1999/xlink" viewBox="0 0 1280 720"><defs><style>.cls-1{isolation:isolate;}.cls-2{fill:#4fc497;}.cls-3,.cls-9{opacity:0.2;}.cls-3{mix-blend-mode:luminosity;}.cls-4{fill:url(#linear-gradient);}.cls-5{fill:url(#linear-gradient-2);}.cls-6{fill:url(#linear-gradient-3);}.cls-7{fill:#c5d2d8;}.cls-8{fill:#f3fcff;}.cls-10{fill:#666;}.cls-11{fill:none;stroke:#fff;stroke-miterlimit:10;stroke-width:2px;opacity:0.15;}</style><linearGradient id="linear-gradient" x1="-7004.1" y1="-4516.91" x2="-6925.8" y2="-4516.91" gradientTransform="translate(4043.75 7933) rotate(32.84)" gradientUnits="userSpaceOnUse"><stop offset="0" stop-color="#2f789f"/><stop offset="0.21" stop-color="#347da0"/><stop offset="0.47" stop-color="#418da4"/><stop offset="0.76" stop-color="#58a6ab"/><stop offset="1" stop-color="#70c2b2"/></linearGradient><linearGradient id="linear-gradient-2" x1="333.18" y1="-2420.07" x2="411.48" y2="-2420.07" gradientTransform="translate(2904.48 796.19) rotate(-86.69)" xlink:href="#linear-gradient"/><linearGradient id="linear-gradient-3" x1="-5167.4" y1="2819.54" x2="-5089.1" y2="2819.54" gradientTransform="matrix(-0.88, 0.47, -0.47, -0.88, -2682.23, 5337.36)" xlink:href="#linear-gradient"/></defs><title>Topology 2</title><g class="cls-1"><g id="flow_text" data-name="flow text"><path class="cls-2" d="M766.28,256.2v0Z"/><g class="cls-3"><path class="cls-4" d="M649.79,419.37,635,422l-3.68-14.61a88,88,0,0,0,.77-93l3-16.6,15.91,5.3A110.72,110.72,0,0,1,649.79,419.37Z"/></g><g class="cls-3"><path class="cls-5" d="M556.19,248l9.63,11.57L554.91,270a88,88,0,0,0-81.32,45.16l-15.9,5.6-3.23-16.45A110.72,110.72,0,0,1,556.19,248Z"/></g><g class="cls-3"><path class="cls-6" d="M452.28,410.53l4.84-14.25,14.56,3.86a88,88,0,0,0,81,45.76l13.08,10.64-12.35,11.34A110.72,110.72,0,0,1,452.28,410.53Z"/></g><rect class="cls-7" x="770.62" y="340.28" width="75" height="29.52" rx="3" ry="3"/><rect class="cls-8" x="770.62" y="343.92" width="75" height="39.34" rx="3" ry="3"/><rect class="cls-7" x="770.62" y="247.3" width="75" height="29.52" rx="3" ry="3"/><rect class="cls-8" x="770.62" y="250.95" width="75" height="39.34" rx="3" ry="3"/><g class="cls-9"><rect class="cls-7" x="770.62" y="430.15" width="75" height="29.52" rx="3" ry="3"/><rect class="cls-8" x="770.62" y="433.79" width="75" height="39.34" rx="3" ry="3"/></g><g class="cls-9"><circle class="cls-8" cx="602.88" cy="448.31" r="28.64"/></g><circle class="cls-8" cx="450.42" cy="359.95" r="28.64"/><circle class="cls-8" cx="602.95" cy="270.52" r="28.64"/><path class="cls-10" d="M593.52,266.66c-1,0-1.61.37-1.61,1,0,2.16,5.32,1,5.31,4.55,0,1.76-1.55,2.85-3.72,2.85a6.06,6.06,0,0,1-4-1.56l.72-1.44a5.2,5.2,0,0,0,3.34,1.44c1.16,0,1.85-.44,1.85-1.2,0-2.2-5.32-1-5.32-4.48,0-1.69,1.45-2.75,3.59-2.75a6.42,6.42,0,0,1,3.45,1l-.69,1.46A5.89,5.89,0,0,0,593.52,266.66Z"/><path class="cls-10" d="M605.87,267.53V275h-1.62v-1.46a2.76,2.76,0,0,1-2.68,1.52,2.6,2.6,0,0,1-2.75-2.89v-4.66h1.62v4.21a1.65,1.65,0,0,0,1.75,1.82,2.12,2.12,0,0,0,2.06-2.34v-3.69Z"/><path class="cls-10" d="M616.15,271.31a3.47,3.47,0,0,1-3.55,3.77,3,3,0,0,1-2.65-1.35v4h-1.62V267.53H610v1.29a2.93,2.93,0,0,1,2.62-1.35A3.52,3.52,0,0,1,616.15,271.31Zm-1.63-.06a2.29,2.29,0,1,0-2.28,2.45A2.27,2.27,0,0,0,614.52,271.25Z"/><path class="cls-10" d="M441.06,357.76c-1,0-1.61.37-1.61,1,0,2.15,5.32,1,5.31,4.55,0,1.76-1.55,2.85-3.72,2.85a6.06,6.06,0,0,1-4-1.56l.72-1.44a5.2,5.2,0,0,0,3.34,1.44c1.16,0,1.85-.44,1.85-1.2,0-2.2-5.32-1-5.32-4.48,0-1.69,1.45-2.75,3.59-2.75a6.42,6.42,0,0,1,3.45,1l-.69,1.46A5.89,5.89,0,0,0,441.06,357.76Z"/><path class="cls-10" d="M453.41,358.64v7.49h-1.62v-1.46a2.77,2.77,0,0,1-2.68,1.52,2.6,2.6,0,0,1-2.75-2.89v-4.66H448v4.21a1.65,1.65,0,0,0,1.75,1.82,2.12,2.12,0,0,0,2.06-2.34v-3.69Z"/><path class="cls-10" d="M463.69,362.41a3.47,3.47,0,0,1-3.55,3.78,3,3,0,0,1-2.65-1.35v4h-1.62V358.64h1.62v1.29a2.93,2.93,0,0,1,2.62-1.35A3.52,3.52,0,0,1,463.69,362.41Zm-1.63-.06a2.29,2.29,0,1,0-2.28,2.45A2.27,2.27,0,0,0,462.06,362.36Z"/><path class="cls-10" d="M787.5,359.26c-1,0-1.61.37-1.61,1,0,2.15,5.32,1,5.31,4.55,0,1.76-1.55,2.85-3.72,2.85a6.06,6.06,0,0,1-4-1.56l.72-1.44a5.2,5.2,0,0,0,3.34,1.44c1.16,0,1.85-.44,1.85-1.2,0-2.2-5.32-1-5.32-4.48,0-1.69,1.45-2.75,3.59-2.75a6.42,6.42,0,0,1,3.45,1l-.69,1.46A5.89,5.89,0,0,0,787.5,359.26Z"/><path class="cls-10" d="M798.54,365.29l.94.87a4,4,0,0,1-3.24,1.52,3.66,3.66,0,0,1-3.9-3.8,3.6,3.6,0,0,1,3.76-3.8,3.27,3.27,0,0,1,3.54,3.27L794.19,365a2.24,2.24,0,0,0,2.16,1.41A2.85,2.85,0,0,0,798.54,365.29ZM794,363.8v0l4.11-1.23a1.84,1.84,0,0,0-1.87-1.2A2.13,2.13,0,0,0,794,363.8Z"/><path class="cls-10" d="M805.43,360.08v1.55a2.27,2.27,0,0,0-2.59,2.08v3.92h-1.62v-7.49h1.62v1.49A2.73,2.73,0,0,1,805.43,360.08Z"/><path class="cls-10" d="M807.64,360.14l2.08,5.9,2.06-5.9h1.62l-2.87,7.49h-1.68l-2.9-7.49Z"/><path class="cls-10" d="M816.28,358a.94.94,0,1,1-.94-1A.93.93,0,0,1,816.28,358Zm-.14,2.14v7.49h-1.61v-7.49Z"/><path class="cls-10" d="M821.67,361.5a2.4,2.4,0,0,0,0,4.79,2.79,2.79,0,0,0,2.21-.9l.9.9a3.81,3.81,0,0,1-3.18,1.39,3.8,3.8,0,0,1,0-7.61,4,4,0,0,1,3.1,1.22l-.89,1A2.83,2.83,0,0,0,821.67,361.5Z"/><path class="cls-10" d="M831.67,365.29l.94.87a4,4,0,0,1-3.24,1.52,3.66,3.66,0,0,1-3.9-3.8,3.6,3.6,0,0,1,3.76-3.8,3.27,3.27,0,0,1,3.54,3.27L827.32,365a2.24,2.24,0,0,0,2.16,1.41A2.85,2.85,0,0,0,831.67,365.29Zm-4.58-1.49v0l4.11-1.23a1.84,1.84,0,0,0-1.87-1.2A2.13,2.13,0,0,0,827.1,363.8Z"/><path class="cls-10" d="M787.5,266.16c-1,0-1.61.37-1.61,1,0,2.16,5.32,1,5.31,4.55,0,1.76-1.55,2.85-3.72,2.85a6.06,6.06,0,0,1-4-1.56l.72-1.44a5.2,5.2,0,0,0,3.34,1.44c1.16,0,1.85-.44,1.85-1.2,0-2.2-5.32-1-5.32-4.48,0-1.69,1.45-2.75,3.59-2.75a6.42,6.42,0,0,1,3.45,1l-.69,1.46A5.89,5.89,0,0,0,787.5,266.16Z"/><path class="cls-10" d="M798.54,272.19l.94.87a4,4,0,0,1-3.24,1.52,3.66,3.66,0,0,1-3.9-3.8,3.6,3.6,0,0,1,3.76-3.8,3.27,3.27,0,0,1,3.54,3.27l-5.45,1.63a2.24,2.24,0,0,0,2.16,1.41A2.84,2.84,0,0,0,798.54,272.19ZM794,270.69h0l4.11-1.23a1.83,1.83,0,0,0-1.87-1.2A2.13,2.13,0,0,0,794,270.69Z"/><path class="cls-10" d="M805.43,267v1.55a2.27,2.27,0,0,0-2.59,2.08v3.92h-1.62V267h1.62v1.49A2.73,2.73,0,0,1,805.43,267Z"/><path class="cls-10" d="M807.64,267l2.08,5.9,2.06-5.9h1.62l-2.87,7.49h-1.68L806,267Z"/><path class="cls-10" d="M816.28,264.89a.94.94,0,1,1-.94-1A.93.93,0,0,1,816.28,264.89Zm-.14,2.14v7.49h-1.61V267Z"/><path class="cls-10" d="M821.67,268.4a2.4,2.4,0,0,0,0,4.79,2.79,2.79,0,0,0,2.21-.9l.9.9a3.81,3.81,0,0,1-3.18,1.39,3.8,3.8,0,0,1,0-7.61,4,4,0,0,1,3.1,1.23l-.89,1A2.83,2.83,0,0,0,821.67,268.4Z"/><path class="cls-10" d="M831.67,272.19l.94.87a4,4,0,0,1-3.24,1.52,3.66,3.66,0,0,1-3.9-3.8,3.6,3.6,0,0,1,3.76-3.8,3.27,3.27,0,0,1,3.54,3.27l-5.45,1.63a2.24,2.24,0,0,0,2.16,1.41A2.84,2.84,0,0,0,831.67,272.19Zm-4.58-1.49h0l4.11-1.23a1.83,1.83,0,0,0-1.87-1.2A2.13,2.13,0,0,0,827.1,270.69Z"/><g class="cls-9"><path class="cls-10" d="M593.52,447.27c-1,0-1.61.37-1.61,1,0,2.16,5.32,1,5.31,4.55,0,1.76-1.55,2.85-3.72,2.85a6.06,6.06,0,0,1-4-1.56l.72-1.44a5.2,5.2,0,0,0,3.34,1.44c1.16,0,1.85-.44,1.85-1.2,0-2.2-5.32-1-5.32-4.48,0-1.69,1.45-2.75,3.59-2.75a6.42,6.42,0,0,1,3.45,1l-.69,1.46A5.89,5.89,0,0,0,593.52,447.27Z"/><path class="cls-10" d="M605.87,448.15v7.49h-1.62v-1.46a2.76,2.76,0,0,1-2.68,1.52,2.6,2.6,0,0,1-2.75-2.89v-4.66h1.62v4.21a1.65,1.65,0,0,0,1.75,1.82,2.12,2.12,0,0,0,2.06-2.34v-3.69Z"/><path class="cls-10" d="M616.15,451.92a3.47,3.47,0,0,1-3.55,3.77,3,3,0,0,1-2.65-1.35v4h-1.62V448.15H610v1.29a2.93,2.93,0,0,1,2.62-1.35A3.52,3.52,0,0,1,616.15,451.92Zm-1.63-.06a2.29,2.29,0,1,0-2.28,2.45A2.27,2.27,0,0,0,614.52,451.87Z"/></g><line class="cls-11" x1="770.95" y1="361.88" x2="479.06" y2="361.88"/><line class="cls-11" x1="770.62" y1="451.51" x2="631.52" y2="451.51"/><line class="cls-11" x1="770.62" y1="268.79" x2="631.52" y2="268.79"/></g></g></svg>